<svg xmlns="http://www.w3.org/2000/svg" width="288" height="289" viewBox="0 0 288 289" fill="none" >
    <path d="M57.138 247.429c49.461 29.29 129.646 29.296 179.136 0 49.49-29.295 49.455-76.781 0-106.07-49.455-29.29-129.646-29.29-179.107 0-49.461 29.289-49.484 76.781-.03 106.07Z" fill="#F5F5F5"/><path d="m252.402 190.515-3.876-2.218s-1.861-10.253-.472-19.071c1.958-12.396 10.396-16.67 13.461-15.437 3.064 1.233 3.79 4.902-1.728 12.061-3.284 4.228-7.5 13.162-7.385 24.665Z" fill="#40FFDF"/><path d="m252.402 190.515-3.876-2.218s-1.861-10.253-.472-19.071c1.958-12.396 10.396-16.67 13.461-15.437 3.064 1.233 3.79 4.902-1.728 12.061-3.284 4.228-7.5 13.162-7.385 24.665Z" fill="#000" opacity=".1"/><path d="M250.998 185.59h.041a.278.278 0 0 0 .236-.311c-1.602-11.607 3.064-24.319 8.306-29.445a.286.286 0 0 0 .104-.2.279.279 0 0 0-.4-.264.276.276 0 0 0-.09.072c-5.34 5.213-10.098 18.138-8.467 29.912a.271.271 0 0 0 .27.236Z" fill="#fff"/><path d="M263.173 196.735c.61.352 1.872-.42 2.355-.743a5.819 5.819 0 0 0 1.947-2.235c.5-1.021.671-2.172.49-3.294a13.31 13.31 0 0 0-.421-1.728l-.483-1.699a4.383 4.383 0 0 1-.254-1.728c.15-1.152 1.181-1.982 2.12-2.685 1.037-.771 2.12-1.797 2.114-3.196a4.928 4.928 0 0 0-1.233-2.932c-.668-.847-1.463-1.596-2.068-2.494a3.42 3.42 0 0 1-.708-2.172c.067-.48.229-.943.478-1.359a19.535 19.535 0 0 0 1.486-2.725c.34-.979.294-2.194-.472-2.88a3.207 3.207 0 0 0-2.408-.576 5.578 5.578 0 0 0-2.241.789c-2.223 1.233-3.49 3.865-5.846 4.816-.944.295-1.906.527-2.88.697a3.535 3.535 0 0 0-2.35 1.613c-.864 1.728.737 3.859.132 5.696-.541 1.625-2.119 2.241-3.001 3.71a3.455 3.455 0 0 0-.414 2.125c.075 1.241.378 2.457.892 3.589a25.616 25.616 0 0 0 1.97 3.237c.064-.012 10.697 6.117 10.795 6.174Z" fill="#40FFDF"/><path d="M256.895 193.377a.277.277 0 0 0 .196-.087.278.278 0 0 0 .074-.201c-.455-10.984 4.718-23.109 8.479-26.634a.265.265 0 0 0 .081-.193.273.273 0 0 0-.277-.274.278.278 0 0 0-.196.081c-3.842 3.594-9.118 15.921-8.64 27.072a.278.278 0 0 0 .283.236Z" fill="#fff"/><path d="M258.519 180.4a.22.22 0 0 0 .081 0 37.11 37.11 0 0 1 7.972-1.284.284.284 0 0 0 .265-.288.274.274 0 0 0-.181-.251.26.26 0 0 0-.107-.014 37.557 37.557 0 0 0-8.11 1.307.277.277 0 0 0-.164.135.288.288 0 0 0-.032.103.304.304 0 0 0 .011.108.271.271 0 0 0 .265.184Z" fill="#fff"/><path d="m44.697 190.63 3.876-2.218s1.86-10.258.472-19.071c-1.958-12.395-10.397-16.675-13.46-15.442-3.065 1.232-3.79 4.907 1.727 12.067 3.29 4.228 7.488 13.161 7.385 24.664Z" fill="#37474F"/><path d="M46.08 185.688a.281.281 0 0 1-.237-.317c1.607-11.601-3.064-24.319-8.306-29.439a.276.276 0 0 1-.006-.392.275.275 0 0 1 .392-.006c5.34 5.219 10.097 18.139 8.467 29.918a.274.274 0 0 1-.105.184.274.274 0 0 1-.206.052Z" fill="#fff"/><path d="M33.932 196.845c-.616.351-1.877-.415-2.361-.743a5.822 5.822 0 0 1-1.947-2.229 5.502 5.502 0 0 1-.49-3.295c.101-.585.242-1.162.42-1.728l.485-1.699a4.293 4.293 0 0 0 .253-1.728c-.15-1.152-1.18-1.976-2.12-2.679-1.036-.777-2.12-1.802-2.113-3.202a4.93 4.93 0 0 1 1.232-2.926c.674-.853 1.463-1.602 2.068-2.494a3.459 3.459 0 0 0 .709-2.172 3.585 3.585 0 0 0-.479-1.359 19.892 19.892 0 0 1-1.486-2.759c-.34-.979-.288-2.201.473-2.88a3.187 3.187 0 0 1 2.407-.576c.796.095 1.561.364 2.241.789 2.223 1.233 3.49 3.865 5.847 4.815.944.292 1.906.525 2.88.697a3.516 3.516 0 0 1 2.35 1.613c.87 1.728-.738 3.859-.133 5.691.541 1.624 2.12 2.246 3.007 3.709.358.648.503 1.391.415 2.126a10.328 10.328 0 0 1-.934 3.6 26.008 26.008 0 0 1-1.97 3.237c-.028.011-10.661 6.14-10.754 6.192Z" fill="#455A64"/><path d="M40.23 193.493a.282.282 0 0 1-.271-.288c.46-10.984-4.718-23.109-8.48-26.634a.275.275 0 0 1 .197-.471.28.28 0 0 1 .195.079c3.842 3.594 9.124 15.921 8.64 27.072a.279.279 0 0 1-.094.176.28.28 0 0 1-.188.066Z" fill="#fff"/><path d="M38.59 180.504h-.08a36.706 36.706 0 0 0-7.983-1.284.284.284 0 0 1-.265-.288.268.268 0 0 1 .087-.195.262.262 0 0 1 .2-.07c2.746.138 5.467.576 8.117 1.307a.277.277 0 0 1 .178.346.27.27 0 0 1-.253.184Z" fill="#fff"/><path d="M224.859 142.033c.299-2.909 3.029-8.715 6.445-12.183 3.416-3.467 8.444-5.731 11.699-4.227 3.029 1.399 2.258 5.483-1.838 7.822-4.095 2.338-10.178 5.184-12.343 9.711l-4.119 5.426.156-6.549Z" fill="#37474F"/><path d="M224.23 145.996a.218.218 0 0 0 .207-.15c2.978-9.735 11.854-16.975 16.848-18.259a.213.213 0 0 0 .16-.176.217.217 0 0 0-.04-.159.2.2 0 0 0-.141-.081.206.206 0 0 0-.082.007c-5.092 1.307-14.13 8.64-17.154 18.541a.214.214 0 0 0 .017.162.21.21 0 0 0 .054.064.198.198 0 0 0 .073.039l.058.012Z" fill="#fff"/><path d="M225.05 152.505c.64-1.584 2.915-4.078 6.382-5.973 3.831-2.091 8.473-2.759 9.712-4.568 1.492-2.177-.225-4.556-3.946-4.481-3.721.075-10.696 4.412-12.51 11.848l.362 3.174Z" fill="#455A64"/><path d="M224.52 150.719a.221.221 0 0 0 .117-.034.216.216 0 0 0 .079-.093c3.928-8.19 10.731-10.5 13.784-10.581a.218.218 0 0 0 .207-.219.212.212 0 0 0-.025-.081.227.227 0 0 0-.056-.064.203.203 0 0 0-.161-.039c-3.37.086-10.143 2.46-14.158 10.823a.218.218 0 0 0-.022.082.218.218 0 0 0 .126.206h.109Z" fill="#fff"/><path d="m46.529 210.37 62.864 36.288a5.516 5.516 0 0 0 4.988 0L233.4 177.929c1.377-.795 1.377-2.085 0-2.88l-62.864-36.288a5.488 5.488 0 0 0-4.989 0L46.529 207.49c-1.377.795-1.377 2.085 0 2.88Z" fill="#37474F"/><path d="M81.52 226.475a7.656 7.656 0 0 0 6.912 0c1.912-1.106 1.912-2.88 0-4.004a7.695 7.695 0 0 0-6.912 0c-1.912 1.106-1.912 2.898 0 4.004Z" fill="#263238"/><path d="M109.394 246.658 46.529 210.37c-1.232-.714-1.36-1.82-.386-2.615a5.585 5.585 0 0 0-2.108 4.032v2.344a5.513 5.513 0 0 0 2.494 4.32l62.865 36.288c.769.402 1.627.6 2.494.576v-8.058a5.086 5.086 0 0 1-2.494-.599Z" fill="#455A64"/><path d="M233.4 186.034a5.54 5.54 0 0 0 1.763-1.862 5.535 5.535 0 0 0 .731-2.458v-2.362a5.581 5.581 0 0 0-2.108-4.032c.973.795.846 1.901-.386 2.61l-119.019 68.728a5.1 5.1 0 0 1-2.494.576v8.15a5.1 5.1 0 0 0 2.494-.576L233.4 186.034Z" fill="#263238"/><path d="m122.114 237.787-57.86-33.408c-.823-.472-.823-1.25 0-1.728l95.231-54.979a3.29 3.29 0 0 1 2.989 0l57.882 33.408c.824.478.824 1.25 0 1.728l-95.27 55.031a3.305 3.305 0 0 1-2.972-.052Z" fill="#FAFAFA"/><path d="m117.394 229.666-43.776-25.292c-.83-.479-.83-1.25 0-1.728l1.682-.974a3.303 3.303 0 0 1 2.995 0l43.776 25.292c.83.473.83 1.25 0 1.728l-1.687.974a3.308 3.308 0 0 1-2.99 0Z" fill="#E6E6E6"/><path d="m121.98 231.446 3.185-1.838a.87.87 0 0 1 1.152.317l1.475 2.557c.236.415.051.674-.421.576l-5.259-1.013c-.501-.092-.547-.357-.132-.599Z" fill="#40FFDF"/><path d="M157.494 154.204a7.775 7.775 0 0 1 7.022 0c1.941 1.117 1.935 2.932 0 4.032a7.772 7.772 0 0 1-7.022 0c-1.935-1.094-1.935-2.909 0-4.032ZM201.628 178.333c.824.478.824 1.25 0 1.728l-8.709 5.051a3.302 3.302 0 0 1-2.995 0l-27.423-15.828c-.824-.478-.824-1.25 0-1.728l7.862-4.539-2.339-4.032 33.604 19.348Z" fill="#E6E6E6"/><path d="m172.994 165.114 24.244 13.996c.409.236.484.576.161.772a1.493 1.493 0 0 1-1.33-.098l-24.244-13.997c-.415-.236-.484-.576-.161-.766a1.488 1.488 0 0 1 1.33.093ZM170.65 166.473l24.238 13.996c.415.236.49.576.167.772a1.506 1.506 0 0 1-1.336-.098l-24.238-13.997c-.415-.236-.49-.576-.167-.766a1.501 1.501 0 0 1 1.336.093ZM168.306 167.832l24.238 13.997c.415.236.49.576.167.772a1.501 1.501 0 0 1-1.336-.098l-24.238-13.997c-.415-.236-.49-.576-.167-.766a1.49 1.49 0 0 1 1.336.092Z" fill="#FAFAFA"/><path d="M152.829 208.256a7.773 7.773 0 0 1 7.022 0c1.935 1.117 1.935 2.932 0 4.032a7.737 7.737 0 0 1-7.022 0c-1.918-1.1-1.918-2.915 0-4.032ZM144.639 204.88l-7.868 4.551a3.303 3.303 0 0 1-2.99 0l-27.44-15.84c-.83-.478-.83-1.25 0-1.728l8.715-5.023a3.29 3.29 0 0 1 2.989 0l33.616 19.405-7.022-1.365Z" fill="#E6E6E6"/><path d="m116.74 189.432 24.238 13.997c.415.236.489.576.167.766a1.504 1.504 0 0 1-1.336-.092l-24.238-13.997c-.415-.236-.49-.576-.168-.766a1.495 1.495 0 0 1 1.337.092ZM114.387 190.791l24.244 13.997c.414.236.484.576.161.766a1.478 1.478 0 0 1-1.331-.092l-24.243-14.014c-.409-.236-.484-.576-.162-.766a1.485 1.485 0 0 1 1.331.109ZM112.045 192.151l24.244 13.996c.409.237.484.576.161.767a1.49 1.49 0 0 1-1.331-.093l-24.243-13.996c-.415-.237-.484-.576-.162-.767a1.49 1.49 0 0 1 1.331.093Z" fill="#FAFAFA"/><path d="M124.737 173.12a7.73 7.73 0 0 1 7.021 0c1.941 1.117 1.941 2.932 0 4.032a7.772 7.772 0 0 1-7.021 0c-1.936-1.1-1.936-2.915 0-4.032ZM161.857 193.176c.824.478.824 1.25 0 1.728l-6.411 3.675a3.302 3.302 0 0 1-2.995 0l-20.407-11.739c-.824-.478-.824-1.25 0-1.728l5.569-3.185-2.344-4.032 26.588 15.281Z" fill="#E6E6E6"/><path d="m141.118 183.228 17.574 10.144c.415.242.49.576.167.772a1.515 1.515 0 0 1-1.336-.093l-17.597-10.149c-.415-.242-.49-.576-.167-.771a1.5 1.5 0 0 1 1.359.097ZM138.746 184.588l17.58 10.143c.414.242.489.576.167.772a1.516 1.516 0 0 1-1.337-.092l-17.579-10.149c-.409-.242-.484-.576-.161-.772a1.49 1.49 0 0 1 1.33.098ZM136.404 185.947l17.58 10.144c.414.242.484.576.161.772a1.516 1.516 0 0 1-1.331-.093l-17.579-10.149c-.415-.242-.484-.576-.161-.772a1.49 1.49 0 0 1 1.33.098Z" fill="#FAFAFA"/><path d="M183.249 190.693a7.772 7.772 0 0 1 7.021 0c1.936 1.123 1.936 2.938 0 4.032a7.772 7.772 0 0 1-7.021 0c-1.941-1.094-1.941-2.909 0-4.032ZM175.058 187.318l-3.18 1.826a3.302 3.302 0 0 1-2.995 0l-13.363-7.718c-.824-.478-.824-1.25 0-1.728l4.032-2.304a3.303 3.303 0 0 1 2.995 0l19.584 11.295-7.073-1.371Z" fill="#E6E6E6"/><path d="m161.56 178.776 11.728 6.774c.415.236.489.576.167.766a1.504 1.504 0 0 1-1.336-.092l-11.728-6.774c-.415-.236-.484-.576-.161-.766a1.491 1.491 0 0 1 1.33.092ZM159.216 180.159l11.728 6.773c.414.236.484.576.161.766a1.478 1.478 0 0 1-1.331-.092l-11.727-6.774c-.415-.236-.49-.576-.167-.766a1.503 1.503 0 0 1 1.336.093Z" fill="#FAFAFA"/><path d="M89.647 193.378a7.76 7.76 0 0 1 7.016 0c1.941 1.123 1.941 2.937 0 4.032a7.76 7.76 0 0 1-7.016 0c-1.94-1.095-1.94-2.909 0-4.032ZM117.354 208.054c.823.478.823 1.25 0 1.728l-4.032 2.333a3.306 3.306 0 0 1-2.996 0l-11.001-6.382c-.824-.478-.824-1.25 0-1.728l3.168-1.843-2.339-4.032 17.2 9.924Z" fill="#E6E6E6"/><path d="m105.88 203.354 8.975 5.184c.414.236.489.576.167.766a1.506 1.506 0 0 1-1.337-.092l-8.974-5.184c-.415-.236-.489-.576-.167-.766a1.49 1.49 0 0 1 1.336.092ZM103.537 204.696l8.974 5.184c.415.236.49.576.161.766a1.476 1.476 0 0 1-1.33-.092l-8.98-5.184c-.409-.236-.484-.576-.161-.766a1.502 1.502 0 0 1 1.336.092Z" fill="#FAFAFA"/><path d="M197.142 159.849a1.7 1.7 0 0 0 1.527 0 .461.461 0 0 0 0-.882 1.663 1.663 0 0 0-1.527 0 .456.456 0 0 0-.235.167.458.458 0 0 0 0 .548.461.461 0 0 0 .235.167ZM199.586 166.784a3.396 3.396 0 0 0 3.058 0c.841-.49.841-1.279 0-1.768a3.396 3.396 0 0 0-3.058 0c-.865.512-.865 1.278 0 1.768ZM197.43 163.708c.576-.323.53-.87-.069-1.215l-10.057-5.806a2.34 2.34 0 0 0-2.108-.041c-.576.328-.53.87.069 1.216l10.057 5.811a2.298 2.298 0 0 0 2.108.035Z" fill="#263238"/><path d="m73.995 165.131-3.191-1.843a.305.305 0 0 1-.15-.133l-.576-1.025 1.895-1.094-.057.167 2.079 3.928Z" fill="#40FFDF"/><path opacity=".2" d="m73.995 165.131-3.191-1.843a.305.305 0 0 1-.15-.133l-.576-1.025 1.895-1.094-.057.167 2.079 3.928Z" fill="#000"/><path d="m71.672 161.191 2.212 3.825a.327.327 0 0 0 .131.119.328.328 0 0 0 .34-.034.322.322 0 0 0 .105-.143l2.338-6.733-5.126 2.966Z" fill="#40FFDF"/><path d="M118.443 112.916a3.41 3.41 0 0 0-1.515-2.684l-1.256-.726a3.394 3.394 0 0 0-3.087 0l-50.244 28.99a3.407 3.407 0 0 0-1.544 2.673v19.521a3.412 3.412 0 0 0 1.544 2.672l1.261.726a3.408 3.408 0 0 0 3.082 0L117.043 135c1.388-.795 1.4-1.584 1.4-2.569v-19.515Z" fill="#40FFDF"/><path opacity=".2" d="M60.77 160.701a3.414 3.414 0 0 0 1.543 2.673l1.262.726a3.454 3.454 0 0 0 2.822.127c-.726.276-1.279-.139-1.279-1.02v-19.521c.02-.536.174-1.059.45-1.52l-4.343-2.506c-.28.459-.438.983-.456 1.521v19.52Z" fill="#000"/><path opacity=".4" d="M118.393 112.479c-.179-.657-.778-.864-1.492-.455l-50.245 28.99c-.455.283-.828.68-1.083 1.152l-4.342-2.506a3.14 3.14 0 0 1 1.088-1.152l50.233-28.99a3.46 3.46 0 0 1 3.093 0l1.285.714a3.403 3.403 0 0 1 1.463 2.247Z" fill="#fff"/><path d="m69.265 144.026 44.208-25.574c.519-.3.939-.161.939.305a1.86 1.86 0 0 1-.939 1.383l-44.19 25.574c-.519.299-.94.167-.94-.3a1.885 1.885 0 0 1 .922-1.388ZM69.267 152.735l36.616-21.145c.513-.299.933-.161.933.3a1.883 1.883 0 0 1-.933 1.388l-36.616 21.145c-.518.299-.939.161-.939-.305a1.861 1.861 0 0 1 .939-1.383ZM69.267 156.974l43.102-24.929c.513-.299.933-.161.933.305a1.883 1.883 0 0 1-.933 1.383l-43.102 24.929c-.518.294-.939.161-.939-.305a1.861 1.861 0 0 1 .939-1.383ZM69.267 148.283l43.102-24.929c.513-.294.933-.162.933.305a1.896 1.896 0 0 1-.933 1.388l-43.102 24.929c-.518.3-.939.162-.939-.305a1.885 1.885 0 0 1 .939-1.388Z" fill="#fff"/><path d="m73.995 68.99-3.191-1.843a.306.306 0 0 1-.15-.132l-.576-1.026 1.895-1.094-.057.167 2.079 3.928Z" fill="#40FFDF"/><path opacity=".2" d="m73.995 68.99-3.191-1.843a.306.306 0 0 1-.15-.132l-.576-1.026 1.895-1.094-.057.167 2.079 3.928Z" fill="#000"/><path d="m71.672 65.05 2.212 3.825a.328.328 0 0 0 .576-.057l2.338-6.74-5.126 2.973Z" fill="#40FFDF"/><path d="M113.243 24.725a3.4 3.4 0 0 0-1.544-2.673l-1.255-.725a3.393 3.393 0 0 0-3.088 0L62.313 47.32a3.404 3.404 0 0 0-1.544 2.673v14.561a3.404 3.404 0 0 0 1.544 2.673l1.262.726a3.38 3.38 0 0 0 3.081 0l45.187-26.099c1.389-.795 1.4-1.584 1.4-2.569V24.725Z" fill="#40FFDF"/><path opacity=".2" d="M60.77 64.556a3.404 3.404 0 0 0 1.543 2.672l1.262.726a3.456 3.456 0 0 0 2.822.132c-.726.271-1.279-.144-1.279-1.02V52.5c.02-.537.174-1.06.45-1.52l-4.343-2.506c-.28.46-.437.983-.456 1.52v14.562Z" fill="#000"/><path opacity=".4" d="M113.191 24.287c-.178-.656-.777-.864-1.491-.455L66.656 49.833c-.456.282-.83.68-1.083 1.152l-4.342-2.506a3.093 3.093 0 0 1 1.088-1.152l45.032-26a3.452 3.452 0 0 1 3.093 0l1.256.725a3.418 3.418 0 0 1 1.491 2.235Z" fill="#fff"/><path d="m69.267 56.59 31.409-18.15c.519-.3.939-.162.939.305a1.874 1.874 0 0 1-.939 1.382l-31.409 18.15c-.518.3-.939.161-.939-.3a1.884 1.884 0 0 1 .939-1.388ZM69.267 60.829l37.872-21.934c.518-.3.938-.162.938.305a1.861 1.861 0 0 1-.938 1.382L69.244 62.516c-.519.3-.94.162-.94-.305a1.872 1.872 0 0 1 .963-1.382ZM69.267 52.142l37.872-21.934c.518-.3.939-.167.939.3a1.886 1.886 0 0 1-.939 1.388L69.267 53.83c-.518.3-.939.162-.939-.305a1.873 1.873 0 0 1 .939-1.383Z" fill="#fff"/><path d="m149.55 49.095-3.191-1.843a.3.3 0 0 1-.15-.132l-.576-1.026L147.528 45l-.069.144 2.091 3.951Z" fill="#263238"/><path d="m147.227 45.144 2.211 3.825a.333.333 0 0 0 .306.143.33.33 0 0 0 .27-.2l2.339-6.74-5.126 2.972Z" fill="#37474F"/><path d="M157.647 24.748a3.41 3.41 0 0 0-1.549-2.644l-1.256-.725a3.455 3.455 0 0 0-3.087 0l-42.797 24.63a3.399 3.399 0 0 0-1.544 2.672v12.672a3.401 3.401 0 0 0 1.544 2.673l1.255.725a3.393 3.393 0 0 0 3.088 0l42.946-24.768c1.389-.789 1.4-1.584 1.4-2.569V24.748Z" fill="#37474F"/><path d="M107.414 61.336a3.4 3.4 0 0 0 1.544 2.672l1.255.726a3.46 3.46 0 0 0 2.823.133c-.726.27-1.279-.144-1.279-1.02V51.175a3.134 3.134 0 0 1 .455-1.52l-4.343-2.506c-.28.46-.436.983-.455 1.52v12.667Z" fill="#263238"/><path d="M157.595 24.31c-.178-.656-.777-.864-1.492-.455L113.301 48.52a3.053 3.053 0 0 0-1.089 1.152l-4.337-2.506a3.084 3.084 0 0 1 1.083-1.152l42.797-24.664a3.454 3.454 0 0 1 3.093 0l1.25.754a3.395 3.395 0 0 1 1.497 2.206Z" fill="#455A64"/><path d="m115.906 52.108 29.174-16.82c.519-.293.939-.16.939.306a1.862 1.862 0 0 1-.939 1.382l-29.174 16.808c-.513.294-.933.161-.933-.305a1.86 1.86 0 0 1 .933-1.371ZM115.906 56.341l35.666-20.592c.512-.3.933-.167.933.3a1.893 1.893 0 0 1-.933 1.388l-35.666 20.598c-.513.294-.933.161-.933-.305a1.88 1.88 0 0 1 .933-1.389ZM73.995 115.14l-3.191-1.843a.31.31 0 0 1-.15-.133l-.576-1.025 1.895-1.095-.057.167 2.079 3.929Z" fill="#40FFDF"/><path opacity=".2" d="m73.995 115.14-3.191-1.843a.31.31 0 0 1-.15-.133l-.576-1.025 1.895-1.095-.057.167 2.079 3.929Z" fill="#000"/><path d="m71.672 111.2 2.212 3.824a.33.33 0 0 0 .467.085.33.33 0 0 0 .109-.136l2.338-6.74-5.126 2.967Z" fill="#40FFDF"/><path d="M95.53 80.315a3.416 3.416 0 0 0-1.544-2.673l-1.25-.726a3.455 3.455 0 0 0-3.088 0l-27.33 15.765a3.416 3.416 0 0 0-1.545 2.673v15.356a3.421 3.421 0 0 0 1.544 2.673l1.262.725a3.41 3.41 0 0 0 3.081 0l27.475-15.874c1.388-.79 1.4-1.584 1.4-2.563l-.006-15.356Z" fill="#40FFDF"/><path opacity=".2" d="M60.77 110.71a3.414 3.414 0 0 0 1.543 2.673l1.262.726a3.47 3.47 0 0 0 1.397.365c.487.021.972-.06 1.425-.239-.726.277-1.279-.138-1.279-1.019v-15.35c.019-.537.173-1.06.45-1.521l-4.343-2.511c-.28.459-.437.983-.456 1.52v15.356Z" fill="#000"/><path opacity=".4" d="M95.48 79.877c-.18-.657-.778-.864-1.487-.455l-27.337 15.77c-.456.282-.83.68-1.083 1.153l-4.342-2.506a3.093 3.093 0 0 1 1.088-1.152l27.325-15.77a3.455 3.455 0 0 1 3.088 0l1.261.73a3.392 3.392 0 0 1 1.486 2.23Z" fill="#fff"/><path d="m69.267 102.744 13.68-7.926c.512-.293.933-.16.933.306a1.889 1.889 0 0 1-.933 1.388l-13.703 7.92c-.519.299-.94.161-.94-.305a1.865 1.865 0 0 1 .963-1.383ZM69.267 106.983l20.189-11.727c.518-.3.933-.161.933.305a1.86 1.86 0 0 1-.933 1.383l-20.189 11.704c-.518.294-.939.161-.939-.305a1.861 1.861 0 0 1 .939-1.36ZM69.267 98.292l20.189-11.676c.518-.293.933-.161.933.306a1.871 1.871 0 0 1-.933 1.388L69.267 99.98c-.518.299-.939.161-.939-.3a1.884 1.884 0 0 1 .939-1.388Z" fill="#fff"/><path d="m152.642 131.659-1.371-2.58 1.106-3.185v-1.953l-3.381 1.953v1.952l1.452 2.512c.021.04.056.072.098.092l2.096 1.209Z" fill="#40FFDF"/><path d="m152.643 131.648-2.079-1.198a.235.235 0 0 1-.098-.087l-.392-.679 1.06-.611 1.452 2.512a.31.31 0 0 0 .057.063Z" fill="#E0E0E0"/><path d="M157.969 114.068a2.236 2.236 0 0 0-1.014-1.728l-.829-.478a2.233 2.233 0 0 0-2.022 0l-19.106 11.042a2.229 2.229 0 0 0-1.014 1.728v9.884a2.238 2.238 0 0 0 1.014 1.728l.824.478a2.243 2.243 0 0 0 2.027 0l13.283-7.666 1.451 2.511a.216.216 0 0 0 .21.111.211.211 0 0 0 .182-.151l1.532-4.424 2.448-1.417a2.248 2.248 0 0 0 1.014-1.757v-9.861Z" fill="#E6E6E6"/><path d="M133.984 134.511a2.234 2.234 0 0 0 1.014 1.728l.824.478a2.262 2.262 0 0 0 1.855.08c-.479.185-.841-.086-.841-.662v-9.861c.013-.352.114-.694.293-.997l-2.851-1.647a2.12 2.12 0 0 0-.294.996v9.885Z" fill="#E0E0E0"/><path d="M157.933 113.781c-.121-.432-.512-.576-.979-.3l-19.106 11.042a1.967 1.967 0 0 0-.714.754l-2.88-1.647c.169-.309.415-.568.714-.754l19.1-11.042a2.303 2.303 0 0 1 2.028 0l.829.478a2.242 2.242 0 0 1 1.008 1.469Z" fill="#F0F0F0"/><path d="M142.416 126.435a2.994 2.994 0 0 0-1.354 2.339c.001.864.577 1.215 1.354.783a3.003 3.003 0 0 0 1.354-2.344c0-.859-.611-1.21-1.354-.778ZM147.4 123.549a3.003 3.003 0 0 0-1.353 2.345c0 .858.61 1.209 1.353.777a2.975 2.975 0 0 0 1.354-2.338c0-.853-.605-1.216-1.354-.784ZM152.389 120.664a2.987 2.987 0 0 0-1.354 2.344c0 .864.605 1.21 1.354.783a2.996 2.996 0 0 0 1.348-2.344c0-.847-.605-1.21-1.348-.783Z" fill="#fff"/><path d="m149.613 92.071-2.091-3.928 1.682-4.856v-2.972l-5.149 2.972v2.972l2.217 3.836a.31.31 0 0 0 .15.133l3.191 1.843Z" fill="#40FFDF"/><path d="M146.415 90.228a.31.31 0 0 1-.155-.133l-.576-1.025 1.612-.933 2.212 3.819c.026.049.063.09.11.12l-3.203-1.848Z" fill="#263238"/><path d="M157.698 65.27a3.4 3.4 0 0 0-.453-1.52 3.404 3.404 0 0 0-1.091-1.153l-1.255-.749a3.459 3.459 0 0 0-3.088 0l-38.592 22.269a3.4 3.4 0 0 0-1.543 2.673v15.05a3.464 3.464 0 0 0 1.543 2.678l1.256.726a3.463 3.463 0 0 0 3.088 0l29.721-17.136 2.206 3.825a.327.327 0 0 0 .305.143.328.328 0 0 0 .271-.2l2.333-6.734 3.727-2.166a3.427 3.427 0 0 0 1.543-2.673l.029-15.033Z" fill="#37474F"/><path d="M121.066 88.753 153.109 70.2c.518-.3.939-.16.939.306a1.875 1.875 0 0 1-.939 1.382l-32.043 18.553c-.513.3-.933.167-.933-.3a1.892 1.892 0 0 1 .933-1.388ZM121.066 92.992l24.463-14.123c.518-.3.939-.161.939.305a1.864 1.864 0 0 1-.939 1.382L121.066 94.68c-.513.3-.933.161-.933-.3a1.892 1.892 0 0 1 .933-1.388ZM121.066 97.232l30.954-17.908c.513-.294.933-.162.933.305a1.88 1.88 0 0 1-.933 1.388L121.066 98.92c-.513.3-.933.162-.933-.305a1.88 1.88 0 0 1 .933-1.382Z" fill="#40FFDF"/><path d="M111.684 101.863a3.462 3.462 0 0 0 1.543 2.678l1.256.726a3.454 3.454 0 0 0 2.828.121c-.731.277-1.284-.132-1.284-1.014V89.318a3.123 3.123 0 0 1 .455-1.52l-4.343-2.507c-.28.46-.437.984-.455 1.521v15.051Z" fill="#263238"/><path d="M157.646 64.832c-.178-.657-.777-.864-1.491-.455L117.563 86.65a3.052 3.052 0 0 0-1.089 1.152l-4.337-2.506a3.077 3.077 0 0 1 1.083-1.152l38.592-22.274a3.452 3.452 0 0 1 3.087 0l1.261.732a3.39 3.39 0 0 1 1.486 2.229Z" fill="#455A64"/>
</svg>
