<svg xmlns="http://www.w3.org/2000/svg" width="288" height="289" viewBox="0 0 288 289" fill="none">
    <path fill="#F5F5F5" d="M143.454 273.925c72.928 0 132.048-32.047 132.048-71.579s-59.12-71.58-132.048-71.58-132.048 32.048-132.048 71.58 59.12 71.579 132.048 71.579Z"/>
    <path fill="#E6E6E6" d="m120.385 223.785-39.744 22.907a3.828 3.828 0 0 1-3.456 0l-39.628-22.907c-.95-.576-.95-1.446 0-1.993l39.703-22.908a3.828 3.828 0 0 1 3.456 0l39.669 22.908c.928.547.928 1.44 0 1.993ZM195.932 217.719a5.685 5.685 0 0 1-2.845-.72l-40.516-23.391a3.657 3.657 0 0 1-2.001-3.257 3.655 3.655 0 0 1 2.001-3.258l55.44-32.002a5.921 5.921 0 0 1 5.685 0l40.516 23.391a3.652 3.652 0 0 1 1.462 5.165 3.647 3.647 0 0 1-1.462 1.344l-55.434 32.008a5.689 5.689 0 0 1-2.846.72Z"/>
    <path fill="#40FFDF" d="M240.25 169.675c.04-4.418-.772-12.562 3.03-20.16 2.753-5.506 7.643-10.84 12.147-10.27 4.194.536 4.516 6.987.467 11.37-4.049 4.384-7.816 11.941-9.009 21.698l-4.343 5.76-2.292-8.398Z"/>
    <path fill="#000" d="M240.25 169.675c.04-4.418-.772-12.562 3.03-20.16 2.753-5.506 7.643-10.84 12.147-10.27 4.194.536 4.516 6.987.467 11.37-4.049 4.384-7.816 11.941-9.009 21.698l-4.343 5.76-2.292-8.398Z" opacity=".1"/>
    <path fill="#fff" d="M243.742 173.12a.303.303 0 0 0 .18-.12.3.3 0 0 0 .056-.209c-1.152-12.51 2.396-23.132 10.259-30.706a.313.313 0 0 0 .094-.216.308.308 0 0 0-.521-.228c-8 7.713-11.612 18.501-10.442 31.208a.31.31 0 0 0 .033.115.324.324 0 0 0 .076.093.325.325 0 0 0 .105.057.323.323 0 0 0 .12.011l.04-.005Z"/>
    <path fill="#40FFDF" d="M246.722 176.075a15.55 15.55 0 0 0 7.817 1.969c4.723 0 6.405-2.534 6.405-2.534s-2.5-4.032-5.311-4.827a25.99 25.99 0 0 1 8.519 2.005s2.823-.404 3.26-4.879c0 0-2.079-2.304-7.897-2.828 0 0 3.266-1.4 8.375-.928.386.087 1.072-5.719 1.152-8.357.081-2.638-.961-2.448-3.047-2.661-2.085-.214-8.939.535-10.01 1.831-1.072 1.296-1.118 5.155-1.118 5.155s-1.532-1.935-1.549-3.876a6.341 6.341 0 0 0-3.975 1.198c-1.29.922-1.981 1.728-2.045 3.398-.016 1.861.136 3.72.456 5.553a11.048 11.048 0 0 1-1.152-6.687s-3.802 2.615-3.992 5.184c-.19 2.569-.576 7.649 4.112 11.284Z"/>
    <path fill="#fff" d="M246.811 176.374a.324.324 0 0 0 .208-.207c2.482-8.312 14.866-19.481 19.659-21.232a.295.295 0 0 0 .173-.157.295.295 0 0 0 .011-.234.292.292 0 0 0-.273-.207.303.303 0 0 0-.119.022c-4.89 1.78-17.51 13.162-20.039 21.629a.311.311 0 0 0 .202.386c.059.014.12.014.178 0Z"/>
    <path fill="#40FFDF" d="M151.489 218.221a2.826 2.826 0 0 1-1.389-.34l-18.564-10.743a2.483 2.483 0 0 0-2.206 0l-17.47 10.08a.282.282 0 0 1-.229.049.289.289 0 0 1-.215-.369.29.29 0 0 1 .156-.175l17.453-10.086a3.044 3.044 0 0 1 2.782 0l18.581 10.731a2.473 2.473 0 0 0 2.206 0l24.486-14.135a.298.298 0 0 1 .109-.049.303.303 0 0 1 .12 0 .276.276 0 0 1 .109.049.284.284 0 0 1 .047.425.28.28 0 0 1-.097.07l-24.486 14.141a2.885 2.885 0 0 1-1.393.352Z"/>
    <path fill="#40FFDF" d="M107.044 214.58a.3.3 0 0 1-.146-.038.282.282 0 0 1-.133-.324.288.288 0 0 1 .135-.174l22.124-12.804a3.01 3.01 0 0 1 2.782 0l18.565 10.714a2.483 2.483 0 0 0 2.206 0l19.809-11.434a.284.284 0 0 1 .228-.049c.04.008.077.025.11.048a.296.296 0 0 1 .117.203.28.28 0 0 1-.071.222.276.276 0 0 1-.096.071l-19.809 11.44a3.043 3.043 0 0 1-2.782 0l-18.547-10.697a2.486 2.486 0 0 0-2.206 0l-22.142 12.788a.328.328 0 0 1-.144.034Z"/>
    <path fill="#40FFDF" d="M102.359 211.885a.302.302 0 0 1-.254-.144.295.295 0 0 1 .11-.392l26.812-15.489a3.01 3.01 0 0 1 2.782 0l18.565 10.714a2.483 2.483 0 0 0 2.206 0l15.322-8.848a.297.297 0 0 1 .217-.024.297.297 0 0 1 .212.24.283.283 0 0 1-.141.286l-15.322 8.847a3.044 3.044 0 0 1-2.782 0l-18.565-10.719a2.467 2.467 0 0 0-2.206 0l-26.784 15.488a.268.268 0 0 1-.172.041Z"/>
    <path fill="#40FFDF" d="M97.691 209.177a.287.287 0 0 1-.264-.396.289.289 0 0 1 .12-.139l31.479-18.19a3.031 3.031 0 0 1 2.782 0l18.559 10.719a2.491 2.491 0 0 0 2.211 0l10.449-6.031a.29.29 0 0 1 .368.118.29.29 0 0 1-.08.378l-10.449 6.036a3.056 3.056 0 0 1-2.787 0l-18.559-10.719a2.47 2.47 0 0 0-2.206 0l-31.496 18.19a.311.311 0 0 1-.127.034Z"/>
    <path fill="#37474F" d="M151.012 187.992a3.175 3.175 0 0 0 1.486 2.471l41.725 24.094a3.306 3.306 0 0 0 2.978 0l57.088-32.964a2.797 2.797 0 0 0 0-4.942l-41.743-24.083a3.279 3.279 0 0 0-2.984 0l-57.087 32.959a3.18 3.18 0 0 0-1.463 2.465Z"/>
    <path fill="#263238" d="M195.707 211.694v3.22a3.051 3.051 0 0 1-1.486-.351l-41.725-24.089a2.786 2.786 0 0 1-1.483-2.381 2.798 2.798 0 0 1 1.333-2.468c-.668.478-.616 1.152.15 1.618l41.725 24.094c.457.244.969.366 1.486.357Z"/>
    <path fill="#455A64" d="M149.613 185.579a3.189 3.189 0 0 1-1.394-2.523v-49.784a3.274 3.274 0 0 1 1.486-2.575l57.081-32.976a2.805 2.805 0 0 1 2.889-.052 2.798 2.798 0 0 1 1.397 2.529v49.778a3.285 3.285 0 0 1-1.492 2.58l-57.087 32.959a3.215 3.215 0 0 1-2.88.064Z"/>
    <path fill="#263238" d="M152.324 185.613a2.785 2.785 0 0 1-2.798-.084 2.774 2.774 0 0 1-1.309-2.473v-49.784a2.948 2.948 0 0 1 .438-1.463l2.788 1.607a3.074 3.074 0 0 0-.432 1.463v49.795c0 .876.57 1.267 1.313.939Z"/>
    <path fill="#37474F" d="M151.012 134.873v49.796c0 .95.662 1.33 1.486.858l57.087-32.959a3.289 3.289 0 0 0 1.492-2.58v-49.79c0-.95-.668-1.336-1.492-.864L152.498 132.3a3.28 3.28 0 0 0-1.486 2.574Z"/>
    <path fill="#455A64" d="m152.496 187.243 41.725 24.088a3.266 3.266 0 0 0 2.978 0l57.087-32.958c.824-.473.824-1.244 0-1.728l-41.742-24.077a3.282 3.282 0 0 0-2.984 0l-57.087 32.959c-.801.472-.801 1.244.023 1.716Z"/>
    <path fill="#FAFAFA" d="m153.299 135.058 55.043-31.738c.495-.288.892-.058.892.513v43.102a1.97 1.97 0 0 1-.892 1.549l-55.043 31.766c-.49.288-.893.058-.893-.512v-43.131a1.993 1.993 0 0 1 .893-1.549Z"/>
    <path fill="#40FFDF" d="m157.341 185.959 52.992-30.597a1.643 1.643 0 0 1 1.487 0l2.713 1.566a.456.456 0 0 1 0 .859l-52.992 30.591a1.668 1.668 0 0 1-1.492 0l-2.708-1.538a.456.456 0 0 1 0-.881Z"/>
    <path fill="#263238" d="m157.341 185.959 52.992-30.597a1.643 1.643 0 0 1 1.487 0l2.713 1.566a.456.456 0 0 1 0 .859l-52.992 30.591a1.668 1.668 0 0 1-1.492 0l-2.708-1.538a.456.456 0 0 1 0-.881ZM164.329 189.991l52.992-30.598a1.664 1.664 0 0 1 1.492 0l16.669 9.625a.455.455 0 0 1 .229.163.456.456 0 0 1 0 .533.455.455 0 0 1-.229.163l-52.934 30.556a1.655 1.655 0 0 1-1.492 0l-16.704-9.584a.453.453 0 0 1-.328-.421.446.446 0 0 1 .305-.437Z"/>
    <path fill="#40FFDF" d="m211.826 173.16 1.659-.956c.075-.046.069-.11 0-.156l-1.918-1.106a.293.293 0 0 0-.265 0l-1.636.951c-.075.04-.069.109 0 .155l1.918 1.106a.297.297 0 0 0 .242.006Zm-3.272-3.807-1.659.956c-.069.04-.069.109 0 .155l1.918 1.106a.293.293 0 0 0 .265 0l1.659-.956c.069-.04.063-.109 0-.155l-1.918-1.106a.278.278 0 0 0-.265 0Zm-5.362 3.087-2.806 1.624c-.069.041-.069.11 0 .15l1.918 1.112a.308.308 0 0 0 .265 0l2.806-1.625c.069-.04.069-.109 0-.149l-1.919-1.112a.3.3 0 0 0-.264 0Zm2.937-1.693-1.647.961c-.069.041-.069.11 0 .156l1.918 1.106a.289.289 0 0 0 .265 0l1.659-.956c.069-.041.063-.11 0-.156l-1.918-1.106a.293.293 0 0 0-.277 0v-.005Zm-6.509 3.761-1.659.956c-.069.04-.069.109 0 .15l1.919 1.111a.301.301 0 0 0 .264 0l1.659-.962c.069-.04.064-.109 0-.149l-1.929-1.1a.282.282 0 0 0-.254 0v-.006Zm-2.425 1.388-1.659.956c-.069.04-.069.11 0 .15l1.919 1.112a.315.315 0 0 0 .265 0l1.658-.962c.07-.041.064-.11 0-.15l-1.918-1.106a.289.289 0 0 0-.265 0Zm7.546 4.504 1.659-.962c.069-.04.069-.109 0-.149l-1.918-1.089a.28.28 0 0 0-.259 0l-1.665.956c-.069.04-.063.11 0 .15l1.918 1.112c.041.019.087.03.132.03a.32.32 0 0 0 .133-.03v-.018Zm-2.425 1.4 1.659-.962c.069-.04.069-.109 0-.15l-1.924-1.106a.265.265 0 0 0-.259 0l-1.665.957c-.069.04-.063.109 0 .149l1.918 1.112a.303.303 0 0 0 .271.017v-.017Zm-2.442 1.417 1.659-.962c.069-.04.069-.109 0-.15l-1.924-1.106a.28.28 0 0 0-.259 0l-1.665.956c-.069.041-.063.11 0 .15l1.918 1.112a.301.301 0 0 0 .271 0Zm-2.425 1.4 1.659-.962c.069-.041.069-.11 0-.15l-1.924-1.106a.28.28 0 0 0-.259 0l-1.659.95c-.069.041-.064.11 0 .156l1.918 1.106a.31.31 0 0 0 .282.006h-.017Zm11.935-10.057 1.658-.957c.075-.04.07-.109 0-.155l-1.918-1.106a.289.289 0 0 0-.265 0l-1.659.956c-.069.041-.069.11 0 .156l1.919 1.106a.288.288 0 0 0 .282 0h-.017Zm-2.235 4.458 3.703-2.137c.069-.046.064-.11 0-.156l-4.642-2.69a.293.293 0 0 0-.265 0l-1.913 1.106c-.069.041-.069.11 0 .15l2.472 1.429c.074.04.08.109 0 .149l-1.533.887c-.069.041-.063.11 0 .15l1.918 1.112a.306.306 0 0 0 .277 0h-.017Zm-12.396-1.728-1.659.956c-.069.04-.069.109 0 .15l1.918 1.111a.301.301 0 0 0 .265 0l1.659-.961c.069-.041.064-.11 0-.15l-1.918-1.106a.286.286 0 0 0-.248.023l-.017-.023Zm-2.425 1.4-1.659.956c-.069.04-.069.109 0 .155l1.918 1.106a.308.308 0 0 0 .265 0l1.659-.962c.069-.04.064-.103 0-.15l-1.918-1.105a.284.284 0 0 0-.248.023l-.017-.023Zm-12.096 15.696a.293.293 0 0 0 .265 0l1.659-.957c.069-.04.069-.109 0-.155l-1.918-1.106a.29.29 0 0 0-.265 0l-1.67 1.008c-.075.04-.07.109 0 .155l1.929 1.055Zm-7.28-4.499-1.665.985c-.069.046-.063.109 0 .155l1.918 1.106a.278.278 0 0 0 .265 0l1.659-.956c.069-.04.063-.109 0-.155l-1.918-1.106a.303.303 0 0 0-.265-.006l.006-.023Zm3.882 3.289a.289.289 0 0 0 .265 0l1.659-.956c.069-.041.063-.11 0-.15l-1.924-1.089a.308.308 0 0 0-.265 0l-1.659.962c-.069.041-.069.11 0 .15l1.924 1.083Zm7.661 2.068 1.658-.956c.07-.041.064-.11 0-.156l-1.918-1.106a.289.289 0 0 0-.265 0l-1.658.956c-.07.041-.07.11 0 .156l1.918 1.106a.286.286 0 0 0 .282.017l-.017-.017Zm-2.673 1.388a.289.289 0 0 0 .265 0l1.659-.956c.069-.041.063-.11 0-.156l-1.918-1.106a.293.293 0 0 0-.265 0l-1.659.957c-.069.04-.069.109 0 .155l1.918 1.106Zm-6.451-8.145-1.659.956c-.069.041-.064.11 0 .156l1.918 1.106a.289.289 0 0 0 .265 0l1.659-.956c.069-.041.063-.11 0-.156l-1.918-1.106a.3.3 0 0 0-.136-.021.296.296 0 0 0-.129.044v-.023Zm12.125-6.998-1.659.956c-.069.04-.069.11 0 .156l1.941 1.129a.289.289 0 0 0 .265 0l1.659-.957c.069-.04.063-.109 0-.155l-1.924-1.1a.291.291 0 0 0-.282-.006v-.023Zm-9.7 5.599-1.659.956c-.069.04-.064.109 0 .155l1.918 1.106a.29.29 0 0 0 .132.033.294.294 0 0 0 .133-.033l1.659-.956c.069-.04.063-.109 0-.155l-1.918-1.106a.288.288 0 0 0-.265.023v-.023Zm12.124-6.999-1.658.991c-.07.04-.07.109 0 .155l1.918 1.106a.301.301 0 0 0 .265 0l1.659-.956c.069-.046.063-.109 0-.155l-1.919-1.106a.288.288 0 0 0-.265-.012v-.023Zm-4.849 2.8-1.659.956c-.069.04-.069.109 0 .155l1.918 1.106a.289.289 0 0 0 .265 0l1.659-.956c.069-.04.063-.109 0-.155l-1.918-1.106a.288.288 0 0 0-.265.023v-.023Zm-2.425 1.399-1.659.956c-.069.041-.069.11 0 .156l1.918 1.106a.289.289 0 0 0 .265 0l1.659-.956c.069-.041.063-.11 0-.156l-1.918-1.106a.284.284 0 0 0-.265.023v-.023Zm-2.425 1.4-1.659.979c-.069.04-.064.11 0 .156l1.918 1.106a.289.289 0 0 0 .265 0l1.659-.957c.069-.04.063-.109 0-.155l-1.918-1.106a.288.288 0 0 0-.265-.023Zm12.395 1.728 1.659-.956c.069-.041.069-.11 0-.156l-1.918-1.106a.29.29 0 0 0-.265 0l-1.659.957c-.075.04-.069.109 0 .155l1.918 1.106a.293.293 0 0 0 .265 0Zm21.312-21.157-1.659.957c-.075.04-.069.109 0 .155l1.918 1.106a.308.308 0 0 0 .265 0l1.659-.956c.069-.046.069-.11 0-.156l-1.918-1.106a.289.289 0 0 0-.276 0h.011Zm-2.937 1.694-1.659.956c-.069.04-.069.11 0 .156l1.918 1.106a.289.289 0 0 0 .265 0l1.659-.957c.069-.04.063-.109 0-.155l-1.918-1.106a.293.293 0 0 0-.277 0h.012Zm5.362-3.093-1.659.956c-.075.04-.069.109 0 .155l1.918 1.106a.301.301 0 0 0 .265 0l1.659-.962c.069-.04.069-.103 0-.149l-1.918-1.106a.29.29 0 0 0-.138-.036.29.29 0 0 0-.138.036h.011Zm-12.562 12.943 1.658-.962c.07-.041.064-.104 0-.15l-1.918-1.106a.289.289 0 0 0-.265 0l-1.664.95c-.069.041-.069.11 0 .156l1.924 1.106a.31.31 0 0 0 .265.006Zm15.241-14.337a.293.293 0 0 0-.265 0l-1.659.956c-.075.04-.069.109 0 .15l1.918 1.111a.301.301 0 0 0 .265 0l1.659-.961c.069-.041.069-.11 0-.15l-1.918-1.106Zm-23.991 22.55 1.659-.956c.069-.046.069-.109 0-.155l-1.918-1.106a.279.279 0 0 0-.265 0l-1.659.956c-.075.04-.069.109 0 .155l1.918 1.106a.305.305 0 0 0 .265 0Zm29.739-17.17 1.659-.956c.069-.041.063-.11 0-.156l-1.918-1.106a.293.293 0 0 0-.265 0l-1.659.956c-.069.041-.063.11 0 .156l1.918 1.106a.29.29 0 0 0 .265 0Zm-5.184-.179 1.659-.962c.069-.04.069-.109 0-.15l-1.918-1.111a.308.308 0 0 0-.265 0l-1.659.962c-.069.04-.063.109 0 .149l1.918 1.112a.303.303 0 0 0 .282 0h-.017Zm2.154-3.623a.3.3 0 0 0-.265 0l-1.659.962c-.069.04-.063.109 0 .15l1.936 1.1a.289.289 0 0 0 .265 0l1.659-.956c.069-.041.069-.11 0-.15l-1.936-1.106Zm.513-.294 4.66 2.69a.29.29 0 0 0 .132.033.294.294 0 0 0 .133-.033l1.659-.956c.069-.04.063-.109 0-.155l-4.66-2.69a.301.301 0 0 0-.265 0l-1.659.962c-.063.04-.058.109.017.149h-.017Zm-5.61 3.082-1.659.956c-.069.04-.064.11 0 .15l1.918 1.112a.315.315 0 0 0 .265 0l1.659-.962c.069-.041.069-.11 0-.15l-1.918-1.106a.293.293 0 0 0-.265 0Zm-18.248 10.535-1.659.985c-.069.04-.069.109 0 .155l1.918 1.106a.282.282 0 0 0 .265 0l1.659-.956c.069-.04.063-.109 0-.155l-1.918-1.106a.288.288 0 0 0-.265-.017v-.012Zm23.685-8.139a.29.29 0 0 0 .265 0l1.659-.956c.069-.04.063-.109 0-.156l-1.918-1.105a.282.282 0 0 0-.265 0l-1.671.973c-.069.04-.063.109 0 .155l1.93 1.089Zm-21.26 6.739-1.659.956c-.069.041-.069.11 0 .156l1.918 1.106a.305.305 0 0 0 .265 0l1.659-.956c.069-.046.063-.11 0-.156l-1.918-1.106a.295.295 0 0 0-.265.012v-.012Zm-18.179 16.042a.293.293 0 0 0 .265 0l1.659-.956c.069-.041.069-.11 0-.156l-1.918-1.106a.289.289 0 0 0-.265 0l-1.659.956c-.075.041-.069.11 0 .156l1.918 1.106Zm-3.646-3.456-1.659.962c-.069.04-.069.109 0 .15l1.918 1.106a.293.293 0 0 0 .265 0l1.659-.957c.069-.04.064-.109 0-.149l-1.918-1.112a.31.31 0 0 0-.265.023v-.023Zm6.336 2.039 1.659-.956c.069-.041.069-.11 0-.156l-1.918-1.106a.289.289 0 0 0-.265 0l-1.647.974c-.075.04-.069.109 0 .155l1.918 1.106c.039.02.082.032.126.033a.293.293 0 0 0 .127-.027v-.023Zm2.425-1.4 1.659-.956c.069-.04.069-.109 0-.155l-1.924-1.089a.289.289 0 0 0-.265 0l-1.659.956c-.074.04-.069.11 0 .156l1.919 1.106c.042.025.09.038.14.039a.284.284 0 0 0 .142-.034l-.012-.023Zm2.425-1.399 1.659-.957c.069-.04.069-.109 0-.155l-1.918-1.106a.289.289 0 0 0-.265 0l-1.659.956c-.075.04-.069.11 0 .156l1.918 1.106a.3.3 0 0 0 .13.044.297.297 0 0 0 .135-.021v-.023Zm-8.749-.617-1.671.968c-.069.04-.069.104 0 .15l1.918 1.106a.293.293 0 0 0 .265 0l1.659-.957c.069-.04.064-.109 0-.155l-1.918-1.106a.303.303 0 0 0-.253-.006Zm2.425-1.399-1.659.956c-.069.046-.069.109 0 .155l1.918 1.106a.289.289 0 0 0 .265 0l1.659-.956c.069-.04.063-.109 0-.155l-1.918-1.106a.306.306 0 0 0-.277 0h.012Zm9.671-5.599-1.659.956c-.069.04-.069.109 0 .156l1.947 1.094a.289.289 0 0 0 .265 0l1.659-.956c.069-.041.063-.11 0-.156l-1.918-1.106a.286.286 0 0 0-.294.012Zm-2.425 1.4-1.659.956c-.069.04-.069.109 0 .155l1.918 1.106a.289.289 0 0 0 .265 0l1.659-.956c.069-.04.063-.109 0-.156l-1.918-1.105a.281.281 0 0 0-.124-.028.281.281 0 0 0-.124.028h-.017Zm4.85-2.8-1.659.956c-.069.041-.069.11 0 .156l1.918 1.106a.289.289 0 0 0 .265 0l1.659-.956c.069-.041.063-.11 0-.156l-1.918-1.106a.296.296 0 0 0-.248 0h-.017Zm-9.7 5.599-1.659.956c-.069.04-.069.11 0 .156l1.918 1.106a.29.29 0 0 0 .265 0l1.659-.957c.069-.04.063-.109 0-.155l-1.918-1.106a.281.281 0 0 0-.124-.028.281.281 0 0 0-.124.028h-.017Zm2.425-1.4-1.659.956c-.069.041-.069.11 0 .156l1.918 1.106a.29.29 0 0 0 .265 0l1.659-.956c.069-.041.063-.11 0-.156l-1.901-1.123a.289.289 0 0 0-.265 0l-.017.017Zm-1.768 9.884 1.658-.956c.07-.04.064-.109 0-.155l-1.918-1.106a.289.289 0 0 0-.265 0l-1.653.956c-.069.04-.069.109 0 .155l1.918 1.106a.282.282 0 0 0 .277 0h-.017Zm-14.233-1.44-1.919-1.106a.315.315 0 0 0-.132-.03.315.315 0 0 0-.132.03l-1.659.962c-.069.041-.064.104 0 .15l1.918 1.106a.289.289 0 0 0 .265 0l1.659-.956c.115-.04.115-.11.017-.156h-.017Zm3.634 1.072-1.918-1.112a.303.303 0 0 0-.265 0l-2.552 1.475c-.069.04-.069.109 0 .155l1.918 1.106a.293.293 0 0 0 .265 0l2.552-1.474c.098-.041.092-.11.017-.15h-.017Zm-6.561-3.197-1.918-1.112a.3.3 0 0 0-.265 0l-2.039 1.152c-.074.041-.069.11 0 .156l1.918 1.106a.293.293 0 0 0 .265 0l2.045-1.181c.075-.023.069-.092-.006-.121Zm1.567-.904a.308.308 0 0 0 .265 0l1.659-.962c.069-.041.063-.11 0-.15l-1.918-1.106a.29.29 0 0 0-.265 0l-1.659.956c-.069.041-.063.11 0 .15l1.918 1.112Zm8.387 5.31-1.918-1.106a.293.293 0 0 0-.265 0l-3.191 1.844c-.075.04-.069.109 0 .149l1.918 1.112a.3.3 0 0 0 .265 0l3.191-1.843c.086-.04.08-.11 0-.156Zm1.59 2.247-1.919-1.106a.289.289 0 0 0-.265 0l-2.039 1.181c-.074.04-.069.109 0 .149l1.919 1.106a.275.275 0 0 0 .264 0l2.045-1.152c.081-.063.075-.132 0-.178h-.005Zm8.064-17.977a.3.3 0 0 0 .264 0l1.659-.962c.069-.04.069-.11 0-.15l-1.918-1.112a.315.315 0 0 0-.265 0l-1.659.962c-.069.041-.063.11 0 .15l1.919 1.112Zm-4.85 2.799a.3.3 0 0 0 .265 0l1.658-.962c.07-.04.07-.109 0-.15l-1.918-1.105a.278.278 0 0 0-.265 0l-1.664.95c-.069.04-.064.109 0 .15l1.924 1.117Zm-10.766 6.221a.305.305 0 0 0 .265 0l1.659-.962c.069-.04.063-.109 0-.15l-1.918-1.106a.29.29 0 0 0-.265 0l-1.659.957c-.069.04-.063.109 0 .149l1.918 1.112Zm13.179-7.609a.305.305 0 0 0 .265 0l1.659-.962c.069-.04.069-.109 0-.15l-1.918-1.111a.282.282 0 0 0-.265 0l-1.659.956c-.069.04-.063.109 0 .15l1.918 1.117Zm-4.85 2.799a.305.305 0 0 0 .265 0l1.659-.962c.069-.04.069-.109 0-.149l-1.918-1.106a.29.29 0 0 0-.133-.033.29.29 0 0 0-.132.033l-1.659.956c-.069.04-.063.109 0 .15l1.918 1.111Zm.576 13.957a.289.289 0 0 0-.265 0l-2.552 1.469c-.069.04-.063.109 0 .155l1.919 1.106a.286.286 0 0 0 .265 0l2.551-1.474c.069-.041.069-.11 0-.15l-1.918-1.106Zm-4.032-11.946a.305.305 0 0 0 .265 0l1.659-.962c.069-.041.063-.11 0-.15l-1.918-1.112a.305.305 0 0 0-.265 0l-1.659.962c-.069.04-.063.11 0 .15l1.918 1.112Zm-2.425 1.399a.305.305 0 0 0 .265 0l1.659-.962c.069-.04.063-.109 0-.149l-1.918-1.112a.29.29 0 0 0-.265 0l-1.659.956c-.069.04-.063.11 0 .15l1.918 1.117Zm51.391-15.385a.28.28 0 0 0-.265 0l-4.084 2.356c-.069.04-.069.11 0 .15l1.924 1.112c.04.019.085.03.13.03a.305.305 0 0 0 .129-.03l4.084-2.362c.075-.04.069-.109 0-.15l-1.918-1.106Zm-5.363 3.093a.289.289 0 0 0-.265 0l-1.659.957c-.069.04-.063.109 0 .155l1.919 1.106a.286.286 0 0 0 .265 0l1.658-.956c.07-.04.064-.11 0-.156l-1.918-1.106Zm-32.832 18.173 1.659-.956c.069-.046.064-.109 0-.155l-1.918-1.106a.278.278 0 0 0-.265 0l-1.659.956c-.069.04-.069.109 0 .155l1.918 1.106a.303.303 0 0 0 .231-.011l.034.011ZM217.39 177.1a.29.29 0 0 0-.265 0l-1.699.939c-.069.04-.064.109 0 .155l1.918 1.106a.289.289 0 0 0 .265 0l1.659-.956c.069-.04.063-.109 0-.156l-1.878-1.088Zm12.637-7.298a.3.3 0 0 0-.265 0l-1.664.945c-.069.04-.069.109 0 .149l1.918 1.112a.3.3 0 0 0 .265 0l1.659-.962c.075-.04.069-.109 0-.15l-1.913-1.094Zm4.343-.288-4.659-2.69a.293.293 0 0 0-.265 0l-1.659.956c-.069.04-.069.11 0 .156l4.654 2.69a.315.315 0 0 0 .265 0l1.659-.962c.069-.052.069-.104-.029-.162l.034.012Zm-26.041 12.816a.3.3 0 0 0-.265 0l-2.039 1.181c-.074.04-.069.109 0 .149l1.919 1.112a.3.3 0 0 0 .264 0l2.045-1.181c.069-.04.064-.109 0-.155l-1.924-1.106Zm6.095-3.554a.308.308 0 0 0-.265 0l-2.558 1.475c-.069.04-.063.109 0 .155l1.918 1.106a.308.308 0 0 0 .265 0l2.552-1.475c.075-.04.069-.109 0-.155l-1.912-1.106Zm-11.745 6.779a.29.29 0 0 0-.265 0l-13.657 7.886c-.069.04-.063.109 0 .15l1.918 1.111a.305.305 0 0 0 .265 0l13.668-7.862c.07-.04.064-.109 0-.156l-1.929-1.129Zm-14.4 8.329a.29.29 0 0 0-.265 0l-2.039 1.152c-.069.041-.069.11 0 .156l1.918 1.106a.289.289 0 0 0 .265 0l2.039-1.181c.069-.04.069-.109 0-.15l-1.918-1.083Zm17.211-9.924a.293.293 0 0 0-.265 0l-2.045 1.152c-.069.04-.063.109 0 .155l1.918 1.106a.279.279 0 0 0 .265 0l2.039-1.18c.075-.041.069-.104 0-.15l-1.912-1.083Zm-20.016 11.549a.294.294 0 0 0-.133-.033.29.29 0 0 0-.132.033l-2.045 1.152c-.069.04-.063.109 0 .15l1.918 1.111a.305.305 0 0 0 .265 0l2.045-1.181c.069-.04.063-.109 0-.155l-1.918-1.077Zm25.655-14.809a.293.293 0 0 0-.265 0l-2.045 1.152c-.069.046-.063.109 0 .155l1.918 1.106a.29.29 0 0 0 .133.033.29.29 0 0 0 .132-.033l2.039-1.152c.069-.046.069-.109 0-.155l-1.912-1.106Zm8.674-5.011a.278.278 0 0 0-.265 0l-1.658.956c-.07.04-.064.109 0 .155l1.918 1.106a.289.289 0 0 0 .265 0l1.658-.956c.07-.04.064-.109 0-.155l-1.918-1.106Zm5.317-3.86 1.659-.956c.069-.04.063-.109 0-.155l-1.918-1.106a.293.293 0 0 0-.265 0l-1.682.95c-.069.041-.069.11 0 .156l1.918 1.106a.286.286 0 0 0 .265.005h.023Zm-10.846-.069 1.659-.962c.075-.04.069-.103 0-.149l-1.947-1.089a.293.293 0 0 0-.265 0l-1.659.956c-.075.04-.069.11 0 .156l1.918 1.106a.306.306 0 0 0 .294-.018Zm-5.495 9.499 4.85-2.8c.075-.04.069-.109 0-.15l-1.918-1.111a.301.301 0 0 0-.265 0l-4.85 2.805c-.069.04-.069.109 0 .15l1.918 1.1a.278.278 0 0 0 .242.006h.023Zm13.651-8.036a.278.278 0 0 0 .265 0l1.659-.956c.069-.04.063-.109 0-.155l-1.918-1.106a.294.294 0 0 0-.133-.033.29.29 0 0 0-.132.033l-1.659.956c-.069.04-.069.109 0 .155l1.918 1.106Zm-2.477-1.578 1.636-.933c.069-.04.063-.109 0-.156l-1.918-1.105a.305.305 0 0 0-.265 0l-1.676.927c-.069.046-.064.109 0 .155l1.918 1.106a.287.287 0 0 0 .282.006h.023Zm-13.593 11.013 1.658-.956c.07-.04.064-.109 0-.15l-1.918-1.111a.301.301 0 0 0-.265 0l-1.659.962c-.069.04-.069.109 0 .149l1.924 1.106a.285.285 0 0 0 .236 0h.024Zm10.707-6.336a.293.293 0 0 0 .265 0l1.659-.956c.069-.04.069-.109 0-.155l-1.918-1.106a.301.301 0 0 0-.265 0l-1.659.956c-.069.046-.063.109 0 .155l1.918 1.106Zm-22.855 13.34 1.659-.962c.069-.04.063-.109 0-.149l-1.919-1.106a.287.287 0 0 0-.132-.033.287.287 0 0 0-.132.033l-1.659.956c-.069.04-.069.109 0 .15l1.918 1.111a.301.301 0 0 0 .265 0Zm2.425-1.399 1.659-.962c.069-.041.063-.11 0-.15l-1.919-1.112a.289.289 0 0 0-.265 0l-1.658.956c-.07.041-.07.11 0 .15l1.918 1.112a.302.302 0 0 0 .265.006Zm-4.827 2.799 1.659-.962c.069-.04.063-.104 0-.15l-1.918-1.106a.293.293 0 0 0-.265 0l-1.659.957c-.069.04-.069.109 0 .155l1.918 1.106a.3.3 0 0 0 .265 0Zm9.7-5.599 1.658-.962c.07-.04.064-.109 0-.149l-1.918-1.112a.3.3 0 0 0-.265 0l-1.687.956c-.069.04-.069.11 0 .15l1.918 1.112a.314.314 0 0 0 .271.005h.023Zm-2.448 1.377 1.658-.962c.07-.04.064-.109 0-.15l-1.918-1.111a.278.278 0 0 0-.265 0l-1.658.956c-.07.04-.07.109 0 .15l1.918 1.111a.302.302 0 0 0 .265.006Zm4.85-2.805 1.658-.956c.07-.041.064-.11 0-.15l-1.918-1.112a.3.3 0 0 0-.265 0l-1.67.991c-.069.04-.069.109 0 .15l1.918 1.111a.289.289 0 0 0 .271-.011l.006-.023Zm11.093-20.707a.301.301 0 0 0 .259 0l1.665-.962c.069-.041.063-.104 0-.15l-.513-.294a.286.286 0 0 0-.264 0l-1.659.956c-.069.041-.064.11 0 .156l.512.294Zm-11.934 7.701a.3.3 0 0 0 .265 0l1.658-.962c.07-.04.07-.104 0-.15l-1.923-1.106a.28.28 0 0 0-.26 0l-1.664.956c-.069.041-.064.11 0 .156l1.924 1.106Zm4.849-2.8a.301.301 0 0 0 .265 0l1.659-.962c.069-.04.069-.109 0-.149l-1.906-1.077a.282.282 0 0 0-.265 0l-1.659.956c-.069.04-.063.109 0 .15l1.906 1.082Zm-7.81 4.51a.304.304 0 0 0 .265 0l1.659-.961c.069-.041.069-.11 0-.15l-1.918-1.112a.308.308 0 0 0-.265 0l-1.659.962c-.069.04-.064.109 0 .15l1.918 1.111Zm5.386-3.11a.3.3 0 0 0 .264 0l1.659-.962c.069-.04.069-.109 0-.15l-1.923-1.106a.28.28 0 0 0-.26 0l-1.67.997c-.069.04-.063.109 0 .15l1.93 1.071Zm-10.23 5.933a.3.3 0 0 0 .265 0l1.659-.962c.069-.04.069-.109 0-.15l-1.924-1.1a.293.293 0 0 0-.265 0l-1.659.956c-.069.041-.063.11 0 .15l1.924 1.106Zm2.419-1.394a.303.303 0 0 0 .265 0l1.659-.962c.069-.04.069-.109 0-.15l-1.918-1.111a.282.282 0 0 0-.265 0l-1.659.956c-.069.04-.063.109 0 .15l1.918 1.117Zm12.47-8.012a.293.293 0 0 0 .265 0l1.659-.956c.069-.041.064-.11 0-.156l-.512-.294a.293.293 0 0 0-.265 0l-1.659.957c-.069.04-.064.109 0 .155l.512.294Zm7.275-4.199a.295.295 0 0 0 .259 0l1.665-.962c.069-.04.063-.11 0-.15l-.513-.294a.289.289 0 0 0-.265 0l-1.67.945c-.069.04-.063.109 0 .155l.524.306Zm4.032 2.304a.308.308 0 0 0 .265 0l1.659-.962c.069-.04.069-.11 0-.15l-1.935-1.077a.28.28 0 0 0-.259 0l-1.659.956c-.075.04-.069.11 0 .15l1.929 1.083Zm6.06 6.169 1.659-.956c.069-.047.063-.11 0-.156l-1.918-1.106a.293.293 0 0 0-.265 0l-1.659.956c-.069.041-.069.11 0 .156l1.918 1.106a.289.289 0 0 0 .265 0Zm-14.942-5.68a.295.295 0 0 0 .26 0l1.664-.95c.069-.046.064-.109 0-.156l-.512-.293a.282.282 0 0 0-.265 0l-1.659.956c-.069.04-.064.109 0 .155l.512.288Zm-19.745 12.212a.32.32 0 0 0 .133.03.318.318 0 0 0 .132-.03l1.659-.962c.069-.041.069-.11 0-.15l-1.93-1.106a.289.289 0 0 0-.265 0l-1.659.956c-.069.04-.063.11 0 .15l1.93 1.112Z"/>
    <path fill="#455A64" d="m211.826 173.16 1.659-.956c.075-.046.069-.11 0-.156l-1.918-1.106a.293.293 0 0 0-.265 0l-1.636.951c-.075.04-.069.109 0 .155l1.918 1.106a.297.297 0 0 0 .242.006Zm-3.272-3.807-1.659.956c-.069.04-.069.109 0 .155l1.918 1.106a.293.293 0 0 0 .265 0l1.659-.956c.069-.04.063-.109 0-.155l-1.918-1.106a.278.278 0 0 0-.265 0Zm-5.362 3.087-2.806 1.624c-.069.041-.069.11 0 .15l1.918 1.112a.308.308 0 0 0 .265 0l2.806-1.625c.069-.04.069-.109 0-.149l-1.919-1.112a.3.3 0 0 0-.264 0Zm2.937-1.693-1.647.961c-.069.041-.069.11 0 .156l1.918 1.106a.289.289 0 0 0 .265 0l1.659-.956c.069-.041.063-.11 0-.156l-1.918-1.106a.293.293 0 0 0-.277 0v-.005Zm-6.509 3.761-1.659.956c-.069.04-.069.109 0 .15l1.919 1.111a.301.301 0 0 0 .264 0l1.659-.962c.069-.04.064-.109 0-.149l-1.929-1.1a.282.282 0 0 0-.254 0v-.006Zm-2.425 1.388-1.659.956c-.069.04-.069.11 0 .15l1.919 1.112a.315.315 0 0 0 .265 0l1.658-.962c.07-.041.064-.11 0-.15l-1.918-1.106a.289.289 0 0 0-.265 0Zm7.546 4.504 1.659-.962c.069-.04.069-.109 0-.149l-1.918-1.089a.28.28 0 0 0-.259 0l-1.665.956c-.069.04-.063.11 0 .15l1.918 1.112c.041.019.087.03.132.03a.32.32 0 0 0 .133-.03v-.018Zm-2.425 1.4 1.659-.962c.069-.04.069-.109 0-.15l-1.924-1.106a.265.265 0 0 0-.259 0l-1.665.957c-.069.04-.063.109 0 .149l1.918 1.112a.303.303 0 0 0 .271.017v-.017Zm-2.442 1.417 1.659-.962c.069-.04.069-.109 0-.15l-1.924-1.106a.28.28 0 0 0-.259 0l-1.665.956c-.069.041-.063.11 0 .15l1.918 1.112a.301.301 0 0 0 .271 0Zm-2.425 1.4 1.659-.962c.069-.041.069-.11 0-.15l-1.924-1.106a.28.28 0 0 0-.259 0l-1.659.95c-.069.041-.064.11 0 .156l1.918 1.106a.31.31 0 0 0 .282.006h-.017Zm11.935-10.057 1.658-.957c.075-.04.07-.109 0-.155l-1.918-1.106a.289.289 0 0 0-.265 0l-1.659.956c-.069.041-.069.11 0 .156l1.919 1.106a.288.288 0 0 0 .282 0h-.017Zm-2.235 4.458 3.703-2.137c.069-.046.064-.11 0-.156l-4.642-2.69a.293.293 0 0 0-.265 0l-1.913 1.106c-.069.041-.069.11 0 .15l2.472 1.429c.074.04.08.109 0 .149l-1.533.887c-.069.041-.063.11 0 .15l1.918 1.112a.306.306 0 0 0 .277 0h-.017Zm-12.396-1.728-1.659.956c-.069.04-.069.109 0 .15l1.918 1.111a.301.301 0 0 0 .265 0l1.659-.961c.069-.041.064-.11 0-.15l-1.918-1.106a.286.286 0 0 0-.248.023l-.017-.023Zm-2.425 1.4-1.659.956c-.069.04-.069.109 0 .155l1.918 1.106a.308.308 0 0 0 .265 0l1.659-.962c.069-.04.064-.103 0-.15l-1.918-1.105a.284.284 0 0 0-.248.023l-.017-.023Zm-12.096 15.696a.293.293 0 0 0 .265 0l1.659-.957c.069-.04.069-.109 0-.155l-1.918-1.106a.29.29 0 0 0-.265 0l-1.67 1.008c-.075.04-.07.109 0 .155l1.929 1.055Zm-7.28-4.499-1.665.985c-.069.046-.063.109 0 .155l1.918 1.106a.278.278 0 0 0 .265 0l1.659-.956c.069-.04.063-.109 0-.155l-1.918-1.106a.303.303 0 0 0-.265-.006l.006-.023Zm3.882 3.289a.289.289 0 0 0 .265 0l1.659-.956c.069-.041.063-.11 0-.15l-1.924-1.089a.308.308 0 0 0-.265 0l-1.659.962c-.069.041-.069.11 0 .15l1.924 1.083Zm7.661 2.068 1.658-.956c.07-.041.064-.11 0-.156l-1.918-1.106a.289.289 0 0 0-.265 0l-1.658.956c-.07.041-.07.11 0 .156l1.918 1.106a.286.286 0 0 0 .282.017l-.017-.017Zm-2.673 1.388a.289.289 0 0 0 .265 0l1.659-.956c.069-.041.063-.11 0-.156l-1.918-1.106a.293.293 0 0 0-.265 0l-1.659.957c-.069.04-.069.109 0 .155l1.918 1.106Zm-6.451-8.145-1.659.956c-.069.041-.064.11 0 .156l1.918 1.106a.289.289 0 0 0 .265 0l1.659-.956c.069-.041.063-.11 0-.156l-1.918-1.106a.3.3 0 0 0-.136-.021.296.296 0 0 0-.129.044v-.023Zm12.125-6.998-1.659.956c-.069.04-.069.11 0 .156l1.941 1.129a.289.289 0 0 0 .265 0l1.659-.957c.069-.04.063-.109 0-.155l-1.924-1.1a.291.291 0 0 0-.282-.006v-.023Zm-9.7 5.599-1.659.956c-.069.04-.064.109 0 .155l1.918 1.106a.29.29 0 0 0 .132.033.294.294 0 0 0 .133-.033l1.659-.956c.069-.04.063-.109 0-.155l-1.918-1.106a.288.288 0 0 0-.265.023v-.023Zm12.124-6.999-1.658.991c-.07.04-.07.109 0 .155l1.918 1.106a.301.301 0 0 0 .265 0l1.659-.956c.069-.046.063-.109 0-.155l-1.919-1.106a.288.288 0 0 0-.265-.012v-.023Zm-4.849 2.8-1.659.956c-.069.04-.069.109 0 .155l1.918 1.106a.289.289 0 0 0 .265 0l1.659-.956c.069-.04.063-.109 0-.155l-1.918-1.106a.288.288 0 0 0-.265.023v-.023Zm-2.425 1.399-1.659.956c-.069.041-.069.11 0 .156l1.918 1.106a.289.289 0 0 0 .265 0l1.659-.956c.069-.041.063-.11 0-.156l-1.918-1.106a.284.284 0 0 0-.265.023v-.023Zm-2.425 1.4-1.659.979c-.069.04-.064.11 0 .156l1.918 1.106a.289.289 0 0 0 .265 0l1.659-.957c.069-.04.063-.109 0-.155l-1.918-1.106a.288.288 0 0 0-.265-.023Zm12.395 1.728 1.659-.956c.069-.041.069-.11 0-.156l-1.918-1.106a.29.29 0 0 0-.265 0l-1.659.957c-.075.04-.069.109 0 .155l1.918 1.106a.293.293 0 0 0 .265 0Zm21.312-21.157-1.659.957c-.075.04-.069.109 0 .155l1.918 1.106a.308.308 0 0 0 .265 0l1.659-.956c.069-.046.069-.11 0-.156l-1.918-1.106a.289.289 0 0 0-.276 0h.011Zm-2.937 1.694-1.659.956c-.069.04-.069.11 0 .156l1.918 1.106a.289.289 0 0 0 .265 0l1.659-.957c.069-.04.063-.109 0-.155l-1.918-1.106a.293.293 0 0 0-.277 0h.012Zm5.362-3.093-1.659.956c-.075.04-.069.109 0 .155l1.918 1.106a.301.301 0 0 0 .265 0l1.659-.962c.069-.04.069-.103 0-.149l-1.918-1.106a.29.29 0 0 0-.138-.036.29.29 0 0 0-.138.036h.011Zm-12.562 12.943 1.658-.962c.07-.041.064-.104 0-.15l-1.918-1.106a.289.289 0 0 0-.265 0l-1.664.95c-.069.041-.069.11 0 .156l1.924 1.106a.31.31 0 0 0 .265.006Zm15.241-14.337a.293.293 0 0 0-.265 0l-1.659.956c-.075.04-.069.109 0 .15l1.918 1.111a.301.301 0 0 0 .265 0l1.659-.961c.069-.041.069-.11 0-.15l-1.918-1.106Zm-23.991 22.55 1.659-.956c.069-.046.069-.109 0-.155l-1.918-1.106a.279.279 0 0 0-.265 0l-1.659.956c-.075.04-.069.109 0 .155l1.918 1.106a.305.305 0 0 0 .265 0Zm29.739-17.17 1.659-.956c.069-.041.063-.11 0-.156l-1.918-1.106a.293.293 0 0 0-.265 0l-1.659.956c-.069.041-.063.11 0 .156l1.918 1.106a.29.29 0 0 0 .265 0Zm-5.184-.179 1.659-.962c.069-.04.069-.109 0-.15l-1.918-1.111a.308.308 0 0 0-.265 0l-1.659.962c-.069.04-.063.109 0 .149l1.918 1.112a.303.303 0 0 0 .282 0h-.017Zm2.154-3.623a.3.3 0 0 0-.265 0l-1.659.962c-.069.04-.063.109 0 .15l1.936 1.1a.289.289 0 0 0 .265 0l1.659-.956c.069-.041.069-.11 0-.15l-1.936-1.106Zm.513-.294 4.66 2.69a.29.29 0 0 0 .132.033.294.294 0 0 0 .133-.033l1.659-.956c.069-.04.063-.109 0-.155l-4.66-2.69a.301.301 0 0 0-.265 0l-1.659.962c-.063.04-.058.109.017.149h-.017Zm-5.61 3.082-1.659.956c-.069.04-.064.11 0 .15l1.918 1.112a.315.315 0 0 0 .265 0l1.659-.962c.069-.041.069-.11 0-.15l-1.918-1.106a.293.293 0 0 0-.265 0Zm-18.248 10.535-1.659.985c-.069.04-.069.109 0 .155l1.918 1.106a.282.282 0 0 0 .265 0l1.659-.956c.069-.04.063-.109 0-.155l-1.918-1.106a.288.288 0 0 0-.265-.017v-.012Zm23.685-8.139a.29.29 0 0 0 .265 0l1.659-.956c.069-.04.063-.109 0-.156l-1.918-1.105a.282.282 0 0 0-.265 0l-1.671.973c-.069.04-.063.109 0 .155l1.93 1.089Zm-21.26 6.739-1.659.956c-.069.041-.069.11 0 .156l1.918 1.106a.305.305 0 0 0 .265 0l1.659-.956c.069-.046.063-.11 0-.156l-1.918-1.106a.295.295 0 0 0-.265.012v-.012Zm-18.179 16.042a.293.293 0 0 0 .265 0l1.659-.956c.069-.041.069-.11 0-.156l-1.918-1.106a.289.289 0 0 0-.265 0l-1.659.956c-.075.041-.069.11 0 .156l1.918 1.106Zm-3.646-3.456-1.659.962c-.069.04-.069.109 0 .15l1.918 1.106a.293.293 0 0 0 .265 0l1.659-.957c.069-.04.064-.109 0-.149l-1.918-1.112a.31.31 0 0 0-.265.023v-.023Zm6.336 2.039 1.659-.956c.069-.041.069-.11 0-.156l-1.918-1.106a.289.289 0 0 0-.265 0l-1.647.974c-.075.04-.069.109 0 .155l1.918 1.106c.039.02.082.032.126.033a.293.293 0 0 0 .127-.027v-.023Zm2.425-1.4 1.659-.956c.069-.04.069-.109 0-.155l-1.924-1.089a.289.289 0 0 0-.265 0l-1.659.956c-.074.04-.069.11 0 .156l1.919 1.106c.042.025.09.038.14.039a.284.284 0 0 0 .142-.034l-.012-.023Zm2.425-1.399 1.659-.957c.069-.04.069-.109 0-.155l-1.918-1.106a.289.289 0 0 0-.265 0l-1.659.956c-.075.04-.069.11 0 .156l1.918 1.106a.3.3 0 0 0 .13.044.297.297 0 0 0 .135-.021v-.023Zm-8.749-.617-1.671.968c-.069.04-.069.104 0 .15l1.918 1.106a.293.293 0 0 0 .265 0l1.659-.957c.069-.04.064-.109 0-.155l-1.918-1.106a.303.303 0 0 0-.253-.006Zm2.425-1.399-1.659.956c-.069.046-.069.109 0 .155l1.918 1.106a.289.289 0 0 0 .265 0l1.659-.956c.069-.04.063-.109 0-.155l-1.918-1.106a.306.306 0 0 0-.277 0h.012Zm9.671-5.599-1.659.956c-.069.04-.069.109 0 .156l1.947 1.094a.289.289 0 0 0 .265 0l1.659-.956c.069-.041.063-.11 0-.156l-1.918-1.106a.286.286 0 0 0-.294.012Zm-2.425 1.4-1.659.956c-.069.04-.069.109 0 .155l1.918 1.106a.289.289 0 0 0 .265 0l1.659-.956c.069-.04.063-.109 0-.156l-1.918-1.105a.281.281 0 0 0-.124-.028.281.281 0 0 0-.124.028h-.017Zm4.85-2.8-1.659.956c-.069.041-.069.11 0 .156l1.918 1.106a.289.289 0 0 0 .265 0l1.659-.956c.069-.041.063-.11 0-.156l-1.918-1.106a.296.296 0 0 0-.248 0h-.017Zm-9.7 5.599-1.659.956c-.069.04-.069.11 0 .156l1.918 1.106a.29.29 0 0 0 .265 0l1.659-.957c.069-.04.063-.109 0-.155l-1.918-1.106a.281.281 0 0 0-.124-.028.281.281 0 0 0-.124.028h-.017Zm2.425-1.4-1.659.956c-.069.041-.069.11 0 .156l1.918 1.106a.29.29 0 0 0 .265 0l1.659-.956c.069-.041.063-.11 0-.156l-1.901-1.123a.289.289 0 0 0-.265 0l-.017.017Zm-1.768 9.884 1.658-.956c.07-.04.064-.109 0-.155l-1.918-1.106a.289.289 0 0 0-.265 0l-1.653.956c-.069.04-.069.109 0 .155l1.918 1.106a.282.282 0 0 0 .277 0h-.017Zm-14.233-1.44-1.919-1.106a.315.315 0 0 0-.132-.03.315.315 0 0 0-.132.03l-1.659.962c-.069.041-.064.104 0 .15l1.918 1.106a.289.289 0 0 0 .265 0l1.659-.956c.115-.04.115-.11.017-.156h-.017Zm3.634 1.072-1.918-1.112a.303.303 0 0 0-.265 0l-2.552 1.475c-.069.04-.069.109 0 .155l1.918 1.106a.293.293 0 0 0 .265 0l2.552-1.474c.098-.041.092-.11.017-.15h-.017Zm-6.561-3.197-1.918-1.112a.3.3 0 0 0-.265 0l-2.039 1.152c-.074.041-.069.11 0 .156l1.918 1.106a.293.293 0 0 0 .265 0l2.045-1.181c.075-.023.069-.092-.006-.121Zm1.567-.904a.308.308 0 0 0 .265 0l1.659-.962c.069-.041.063-.11 0-.15l-1.918-1.106a.29.29 0 0 0-.265 0l-1.659.956c-.069.041-.063.11 0 .15l1.918 1.112Zm8.387 5.31-1.918-1.106a.293.293 0 0 0-.265 0l-3.191 1.844c-.075.04-.069.109 0 .149l1.918 1.112a.3.3 0 0 0 .265 0l3.191-1.843c.086-.04.08-.11 0-.156Zm1.59 2.247-1.919-1.106a.289.289 0 0 0-.265 0l-2.039 1.181c-.074.04-.069.109 0 .149l1.919 1.106a.275.275 0 0 0 .264 0l2.045-1.152c.081-.063.075-.132 0-.178h-.005Zm8.064-17.977a.3.3 0 0 0 .264 0l1.659-.962c.069-.04.069-.11 0-.15l-1.918-1.112a.315.315 0 0 0-.265 0l-1.659.962c-.069.041-.063.11 0 .15l1.919 1.112Zm-4.85 2.799a.3.3 0 0 0 .265 0l1.658-.962c.07-.04.07-.109 0-.15l-1.918-1.105a.278.278 0 0 0-.265 0l-1.664.95c-.069.04-.064.109 0 .15l1.924 1.117Zm-10.766 6.221a.305.305 0 0 0 .265 0l1.659-.962c.069-.04.063-.109 0-.15l-1.918-1.106a.29.29 0 0 0-.265 0l-1.659.957c-.069.04-.063.109 0 .149l1.918 1.112Zm13.179-7.609a.305.305 0 0 0 .265 0l1.659-.962c.069-.04.069-.109 0-.15l-1.918-1.111a.282.282 0 0 0-.265 0l-1.659.956c-.069.04-.063.109 0 .15l1.918 1.117Zm-4.85 2.799a.305.305 0 0 0 .265 0l1.659-.962c.069-.04.069-.109 0-.149l-1.918-1.106a.29.29 0 0 0-.133-.033.29.29 0 0 0-.132.033l-1.659.956c-.069.04-.063.109 0 .15l1.918 1.111Zm.576 13.957a.289.289 0 0 0-.265 0l-2.552 1.469c-.069.04-.063.109 0 .155l1.919 1.106a.286.286 0 0 0 .265 0l2.551-1.474c.069-.041.069-.11 0-.15l-1.918-1.106Zm-4.032-11.946a.305.305 0 0 0 .265 0l1.659-.962c.069-.041.063-.11 0-.15l-1.918-1.112a.305.305 0 0 0-.265 0l-1.659.962c-.069.04-.063.11 0 .15l1.918 1.112Zm-2.425 1.399a.305.305 0 0 0 .265 0l1.659-.962c.069-.04.063-.109 0-.149l-1.918-1.112a.29.29 0 0 0-.265 0l-1.659.956c-.069.04-.063.11 0 .15l1.918 1.117Zm51.391-15.385a.28.28 0 0 0-.265 0l-4.084 2.356c-.069.04-.069.11 0 .15l1.924 1.112c.04.019.085.03.13.03a.305.305 0 0 0 .129-.03l4.084-2.362c.075-.04.069-.109 0-.15l-1.918-1.106Zm-5.363 3.093a.289.289 0 0 0-.265 0l-1.659.957c-.069.04-.063.109 0 .155l1.919 1.106a.286.286 0 0 0 .265 0l1.658-.956c.07-.04.064-.11 0-.156l-1.918-1.106Zm-32.832 18.173 1.659-.956c.069-.046.064-.109 0-.155l-1.918-1.106a.278.278 0 0 0-.265 0l-1.659.956c-.069.04-.069.109 0 .155l1.918 1.106a.303.303 0 0 0 .231-.011l.034.011ZM217.39 177.1a.29.29 0 0 0-.265 0l-1.699.939c-.069.04-.064.109 0 .155l1.918 1.106a.289.289 0 0 0 .265 0l1.659-.956c.069-.04.063-.109 0-.156l-1.878-1.088Zm12.637-7.298a.3.3 0 0 0-.265 0l-1.664.945c-.069.04-.069.109 0 .149l1.918 1.112a.3.3 0 0 0 .265 0l1.659-.962c.075-.04.069-.109 0-.15l-1.913-1.094Zm4.343-.288-4.659-2.69a.293.293 0 0 0-.265 0l-1.659.956c-.069.04-.069.11 0 .156l4.654 2.69a.315.315 0 0 0 .265 0l1.659-.962c.069-.052.069-.104-.029-.162l.034.012Zm-26.041 12.816a.3.3 0 0 0-.265 0l-2.039 1.181c-.074.04-.069.109 0 .149l1.919 1.112a.3.3 0 0 0 .264 0l2.045-1.181c.069-.04.064-.109 0-.155l-1.924-1.106Zm6.095-3.554a.308.308 0 0 0-.265 0l-2.558 1.475c-.069.04-.063.109 0 .155l1.918 1.106a.308.308 0 0 0 .265 0l2.552-1.475c.075-.04.069-.109 0-.155l-1.912-1.106Zm-11.745 6.779a.29.29 0 0 0-.265 0l-13.657 7.886c-.069.04-.063.109 0 .15l1.918 1.111a.305.305 0 0 0 .265 0l13.668-7.862c.07-.04.064-.109 0-.156l-1.929-1.129Zm-14.4 8.329a.29.29 0 0 0-.265 0l-2.039 1.152c-.069.041-.069.11 0 .156l1.918 1.106a.289.289 0 0 0 .265 0l2.039-1.181c.069-.04.069-.109 0-.15l-1.918-1.083Zm17.211-9.924a.293.293 0 0 0-.265 0l-2.045 1.152c-.069.04-.063.109 0 .155l1.918 1.106a.279.279 0 0 0 .265 0l2.039-1.18c.075-.041.069-.104 0-.15l-1.912-1.083Zm-20.016 11.549a.294.294 0 0 0-.133-.033.29.29 0 0 0-.132.033l-2.045 1.152c-.069.04-.063.109 0 .15l1.918 1.111a.305.305 0 0 0 .265 0l2.045-1.181c.069-.04.063-.109 0-.155l-1.918-1.077Zm25.655-14.809a.293.293 0 0 0-.265 0l-2.045 1.152c-.069.046-.063.109 0 .155l1.918 1.106a.29.29 0 0 0 .133.033.29.29 0 0 0 .132-.033l2.039-1.152c.069-.046.069-.109 0-.155l-1.912-1.106Zm8.674-5.011a.278.278 0 0 0-.265 0l-1.658.956c-.07.04-.064.109 0 .155l1.918 1.106a.289.289 0 0 0 .265 0l1.658-.956c.07-.04.064-.109 0-.155l-1.918-1.106Zm5.317-3.86 1.659-.956c.069-.04.063-.109 0-.155l-1.918-1.106a.293.293 0 0 0-.265 0l-1.682.95c-.069.041-.069.11 0 .156l1.918 1.106a.286.286 0 0 0 .265.005h.023Zm-10.846-.069 1.659-.962c.075-.04.069-.103 0-.149l-1.947-1.089a.293.293 0 0 0-.265 0l-1.659.956c-.075.04-.069.11 0 .156l1.918 1.106a.306.306 0 0 0 .294-.018Zm-5.495 9.499 4.85-2.8c.075-.04.069-.109 0-.15l-1.918-1.111a.301.301 0 0 0-.265 0l-4.85 2.805c-.069.04-.069.109 0 .15l1.918 1.1a.278.278 0 0 0 .242.006h.023Zm13.651-8.036a.278.278 0 0 0 .265 0l1.659-.956c.069-.04.063-.109 0-.155l-1.918-1.106a.294.294 0 0 0-.133-.033.29.29 0 0 0-.132.033l-1.659.956c-.069.04-.069.109 0 .155l1.918 1.106Zm-2.477-1.578 1.636-.933c.069-.04.063-.109 0-.156l-1.918-1.105a.305.305 0 0 0-.265 0l-1.676.927c-.069.046-.064.109 0 .155l1.918 1.106a.287.287 0 0 0 .282.006h.023Zm-13.593 11.013 1.658-.956c.07-.04.064-.109 0-.15l-1.918-1.111a.301.301 0 0 0-.265 0l-1.659.962c-.069.04-.069.109 0 .149l1.924 1.106a.285.285 0 0 0 .236 0h.024Zm10.707-6.336a.293.293 0 0 0 .265 0l1.659-.956c.069-.04.069-.109 0-.155l-1.918-1.106a.301.301 0 0 0-.265 0l-1.659.956c-.069.046-.063.109 0 .155l1.918 1.106Zm-22.855 13.34 1.659-.962c.069-.04.063-.109 0-.149l-1.919-1.106a.287.287 0 0 0-.132-.033.287.287 0 0 0-.132.033l-1.659.956c-.069.04-.069.109 0 .15l1.918 1.111a.301.301 0 0 0 .265 0Zm2.425-1.399 1.659-.962c.069-.041.063-.11 0-.15l-1.919-1.112a.289.289 0 0 0-.265 0l-1.658.956c-.07.041-.07.11 0 .15l1.918 1.112a.302.302 0 0 0 .265.006Zm-4.827 2.799 1.659-.962c.069-.04.063-.104 0-.15l-1.918-1.106a.293.293 0 0 0-.265 0l-1.659.957c-.069.04-.069.109 0 .155l1.918 1.106a.3.3 0 0 0 .265 0Zm9.7-5.599 1.658-.962c.07-.04.064-.109 0-.149l-1.918-1.112a.3.3 0 0 0-.265 0l-1.687.956c-.069.04-.069.11 0 .15l1.918 1.112a.314.314 0 0 0 .271.005h.023Zm-2.448 1.377 1.658-.962c.07-.04.064-.109 0-.15l-1.918-1.111a.278.278 0 0 0-.265 0l-1.658.956c-.07.04-.07.109 0 .15l1.918 1.111a.302.302 0 0 0 .265.006Zm4.85-2.805 1.658-.956c.07-.041.064-.11 0-.15l-1.918-1.112a.3.3 0 0 0-.265 0l-1.67.991c-.069.04-.069.109 0 .15l1.918 1.111a.289.289 0 0 0 .271-.011l.006-.023Zm11.093-20.707a.301.301 0 0 0 .259 0l1.665-.962c.069-.041.063-.104 0-.15l-.513-.294a.286.286 0 0 0-.264 0l-1.659.956c-.069.041-.064.11 0 .156l.512.294Zm-11.934 7.701a.3.3 0 0 0 .265 0l1.658-.962c.07-.04.07-.104 0-.15l-1.923-1.106a.28.28 0 0 0-.26 0l-1.664.956c-.069.041-.064.11 0 .156l1.924 1.106Zm4.849-2.8a.301.301 0 0 0 .265 0l1.659-.962c.069-.04.069-.109 0-.149l-1.906-1.077a.282.282 0 0 0-.265 0l-1.659.956c-.069.04-.063.109 0 .15l1.906 1.082Zm-7.81 4.51a.304.304 0 0 0 .265 0l1.659-.961c.069-.041.069-.11 0-.15l-1.918-1.112a.308.308 0 0 0-.265 0l-1.659.962c-.069.04-.064.109 0 .15l1.918 1.111Zm5.386-3.11a.3.3 0 0 0 .264 0l1.659-.962c.069-.04.069-.109 0-.15l-1.923-1.106a.28.28 0 0 0-.26 0l-1.67.997c-.069.04-.063.109 0 .15l1.93 1.071Zm-10.23 5.933a.3.3 0 0 0 .265 0l1.659-.962c.069-.04.069-.109 0-.15l-1.924-1.1a.293.293 0 0 0-.265 0l-1.659.956c-.069.041-.063.11 0 .15l1.924 1.106Zm2.419-1.394a.303.303 0 0 0 .265 0l1.659-.962c.069-.04.069-.109 0-.15l-1.918-1.111a.282.282 0 0 0-.265 0l-1.659.956c-.069.04-.063.109 0 .15l1.918 1.117Zm12.47-8.012a.293.293 0 0 0 .265 0l1.659-.956c.069-.041.064-.11 0-.156l-.512-.294a.293.293 0 0 0-.265 0l-1.659.957c-.069.04-.064.109 0 .155l.512.294Zm7.275-4.199a.295.295 0 0 0 .259 0l1.665-.962c.069-.04.063-.11 0-.15l-.513-.294a.289.289 0 0 0-.265 0l-1.67.945c-.069.04-.063.109 0 .155l.524.306Zm4.032 2.304a.308.308 0 0 0 .265 0l1.659-.962c.069-.04.069-.11 0-.15l-1.935-1.077a.28.28 0 0 0-.259 0l-1.659.956c-.075.04-.069.11 0 .15l1.929 1.083Zm6.06 6.169 1.659-.956c.069-.047.063-.11 0-.156l-1.918-1.106a.293.293 0 0 0-.265 0l-1.659.956c-.069.041-.069.11 0 .156l1.918 1.106a.289.289 0 0 0 .265 0Zm-14.942-5.68a.295.295 0 0 0 .26 0l1.664-.95c.069-.046.064-.109 0-.156l-.512-.293a.282.282 0 0 0-.265 0l-1.659.956c-.069.04-.064.109 0 .155l.512.288Zm-19.745 12.212a.32.32 0 0 0 .133.03.318.318 0 0 0 .132-.03l1.659-.962c.069-.041.069-.11 0-.15l-1.93-1.106a.289.289 0 0 0-.265 0l-1.659.956c-.069.04-.063.11 0 .15l1.93 1.112Z"/>
    <path fill="#40FFDF" d="m203.586 191.517 16.376-9.452a1.951 1.951 0 0 1 1.786 0l9.388 5.42a.574.574 0 0 1 0 1.031l-16.375 9.452a1.98 1.98 0 0 1-1.786 0l-9.389-5.42c-.495-.288-.495-.749 0-1.031Z"/>
    <path fill="#263238" d="m203.586 191.517 16.376-9.452a1.951 1.951 0 0 1 1.786 0l9.388 5.42a.574.574 0 0 1 0 1.031l-16.375 9.452a1.98 1.98 0 0 1-1.786 0l-9.389-5.42c-.495-.288-.495-.749 0-1.031Z"/>
    <path fill="#40FFDF" d="M149.611 185.578ZM154.586 174.663c0 .697.495.985 1.1.634l50.521-29.157a2.428 2.428 0 0 0 1.1-1.907v-34.001l-52.704 30.424-.017 34.007Z"/>
    <path fill="#fff" d="M154.586 174.663c0 .697.495.985 1.1.634l50.521-29.157a2.428 2.428 0 0 0 1.1-1.907v-34.001l-52.704 30.424-.017 34.007Z" opacity=".75"/>
    <path fill="#40FFDF" d="M154.586 138.358a2.447 2.447 0 0 1 1.1-1.912l50.521-29.157c.611-.352 1.1-.064 1.1.639v2.304l-52.704 30.424-.017-2.298Z"/>
    <path fill="#37474F" d="M201.093 111.424a1.152 1.152 0 0 0-.519.899c0 .328.231.461.519.294a1.16 1.16 0 0 0 .512-.893c-.005-.34-.23-.461-.512-.3ZM202.901 110.382a1.149 1.149 0 0 0-.518.898c0 .329.23.461.518.3a1.155 1.155 0 0 0 .513-.899c0-.328-.231-.449-.513-.299ZM204.71 109.345a1.15 1.15 0 0 0-.519.893c0 .328.231.46.519.299a1.153 1.153 0 0 0 .512-.898c0-.329-.23-.461-.512-.294Z"/>
    <path fill="#455A64" d="M171.647 144.441c.104-.064.19-.064.242 0a.46.46 0 0 1 .121.196l.789 3.283.795-4.199c.027-.114.065-.224.115-.329a.614.614 0 0 1 .248-.276l1.331-.766a.133.133 0 0 1 .089-.035c.033 0 .065.013.089.035a.295.295 0 0 1 .075.236.637.637 0 0 1 0 .138l-1.728 8.64c-.024.12-.063.236-.115.346a.582.582 0 0 1-.236.271l-1.239.679c-.109.064-.19.064-.236 0a.661.661 0 0 1-.121-.213l-.76-3.024-.76 3.9a2.72 2.72 0 0 1-.116.351.53.53 0 0 1-.236.265l-1.221.708c-.109.058-.184.064-.242 0a.46.46 0 0 1-.109-.218l-1.728-6.648a.883.883 0 0 1 0-.126.784.784 0 0 1 .075-.323.468.468 0 0 1 .184-.219l1.325-.766c.109-.063.19-.069.247 0 .058.053.1.121.121.196l.789 3.283.795-4.199c.024-.116.063-.228.116-.334a.57.57 0 0 1 .247-.271l1.054-.581ZM181.439 138.779c.104-.064.184-.07.242 0 .057.053.099.12.121.195l.789 3.284.795-4.199c.026-.116.065-.228.115-.334a.577.577 0 0 1 .248-.271l1.33-.766a.14.14 0 0 1 .089-.033.14.14 0 0 1 .09.033.33.33 0 0 1 .075.236.693.693 0 0 1 0 .144l-1.7 8.611c-.022.12-.061.236-.115.346a.573.573 0 0 1-.236.276l-1.221.703c-.11.063-.19.063-.236 0a.695.695 0 0 1-.121-.213l-.761-3.024-.766 3.905a2.88 2.88 0 0 1-.115.351.573.573 0 0 1-.236.265l-1.221.709c-.11.057-.184.057-.242 0a.459.459 0 0 1-.109-.219l-1.728-6.647a.897.897 0 0 1 0-.127.798.798 0 0 1 .074-.322.52.52 0 0 1 .185-.225l1.325-.766c.109-.058.19-.063.247 0a.427.427 0 0 1 .121.196l.789 3.283.795-4.199c.023-.116.062-.229.115-.334a.577.577 0 0 1 .248-.271l1.014-.587ZM191.231 133.116c.109-.063.19-.069.247 0a.432.432 0 0 1 .121.196l.789 3.283.795-4.199a1.42 1.42 0 0 1 .115-.334.575.575 0 0 1 .248-.27l1.325-.766a.141.141 0 0 1 .184 0 .307.307 0 0 1 .062.11c.013.041.017.083.013.126a.531.531 0 0 1 0 .138l-1.699 8.64a1.635 1.635 0 0 1-.115.346.536.536 0 0 1-.242.27l-1.216.68c-.103.058-.184.063-.236 0a.736.736 0 0 1-.115-.207l-.76-3.024-.761 3.899c-.03.118-.069.233-.115.346a.57.57 0 0 1-.236.27l-1.221.703c-.11.063-.19.063-.242 0a.526.526 0 0 1-.115-.219l-1.699-6.647a.897.897 0 0 1 0-.127c0-.113.025-.225.074-.328a.476.476 0 0 1 .185-.219l1.325-.766c.109-.057.19-.063.247 0a.393.393 0 0 1 .115.196l.795 3.289.795-4.199c.023-.116.062-.229.115-.334a.617.617 0 0 1 .248-.277l.974-.576Z"/>
    <path fill="#40FFDF" d="m116.398 211.591-37.44 21.617-37.435-21.617 37.435-21.612 37.44 21.612Z"/>
    <path fill="#000" d="m116.398 211.591-37.44 21.617-37.435-21.617 37.435-21.612 37.44 21.612Z" opacity=".1"/>
    <path fill="#000" d="m78.963 233.202-.005-2.696-35.096-20.263-2.339 1.348 37.44 21.611Z" opacity=".1"/>
    <path fill="#40FFDF" d="M78.965 233.202v9.965a5.123 5.123 0 0 0 2.494-.576l16.22-9.366 17.222-9.947a3.294 3.294 0 0 0 1.498-2.592v-9.078l-37.434 21.594Z"/>
    <path fill="#fff" d="M78.965 233.202v9.965a5.123 5.123 0 0 0 2.494-.576l16.22-9.366 17.222-9.947a3.294 3.294 0 0 0 1.498-2.592v-9.078l-37.434 21.594Z" opacity=".65"/>
    <path fill="#40FFDF" d="m112.81 216.371-18.564 10.714a2.754 2.754 0 0 0-1.25 2.16v2.523c0 .8.576 1.117 1.25.72l18.564-10.714a2.764 2.764 0 0 0 1.239-2.16v-2.523c0-.795-.576-1.117-1.239-.72Z"/>
    <path fill="#FAFAFA" d="M112.739 218.52v1.221a.584.584 0 0 1-.248.432l-.282.161c-.139.081-.248 0-.248-.144v-1.221a.57.57 0 0 1 .248-.432l.282-.161c.132-.092.248-.029.248.144ZM111.477 219.234v1.221a.539.539 0 0 1-.248.432l-.282.161c-.138.081-.248 0-.248-.144v-1.232a.58.58 0 0 1 .248-.432l.282-.161c.138-.07.248.017.248.155ZM110.219 219.96v1.221a.527.527 0 0 1-.248.432l-.282.167c-.138.075-.248 0-.248-.144v-1.227a.584.584 0 0 1 .248-.432l.282-.161c.139-.081.248-.017.248.144Z"/>
    <path fill="#455A64" d="M108.957 220.686v1.226a.573.573 0 0 1-.247.432l-.283.162c-.138.08-.247 0-.247-.144v-1.227a.578.578 0 0 1 .247-.432l.283-.161c.155-.081.247-.018.247.144ZM107.713 221.4v1.227a.577.577 0 0 1-.253.432l-.277.161c-.138.081-.253 0-.253-.144v-1.215a.573.573 0 0 1 .253-.432l.277-.162a.154.154 0 0 1 .17-.017.155.155 0 0 1 .083.15Z"/>
    <path fill="#FAFAFA" d="M106.44 222.137v1.227a.578.578 0 0 1-.254.432l-.276.161c-.139.081-.254 0-.254-.144v-1.221a.55.55 0 0 1 .254-.432l.276-.167c.138-.075.254-.017.254.144ZM105.176 222.869v1.221a.57.57 0 0 1-.248.432l-.282.161c-.138.081-.248 0-.248-.144v-1.221a.584.584 0 0 1 .248-.432l.282-.161c.133-.081.248-.018.248.144ZM103.914 223.594v1.222a.583.583 0 0 1-.247.432l-.283.161c-.138.081-.247 0-.247-.144v-1.221a.578.578 0 0 1 .247-.432l.283-.162c.138-.08.247-.017.247.144ZM102.653 224.32v1.221a.532.532 0 0 1-.248.432l-.282.167c-.139.075-.248 0-.248-.144v-1.226a.574.574 0 0 1 .248-.432l.282-.162c.121-.08.248-.017.248.144ZM101.375 225.046v1.227a.583.583 0 0 1-.247.432l-.283.161c-.138.075-.247 0-.247-.144v-1.227a.583.583 0 0 1 .247-.432l.283-.161c.155-.081.247-.017.247.144ZM100.139 225.772v1.227a.591.591 0 0 1-.077.245.595.595 0 0 1-.177.187l-.282.161c-.132.08-.247 0-.247-.144v-1.227a.575.575 0 0 1 .247-.432l.282-.161a.153.153 0 0 1 .177-.016.15.15 0 0 1 .064.068c.013.028.018.06.013.092ZM98.877 226.498v1.238a.579.579 0 0 1-.253.432l-.277.161c-.138.081-.253 0-.253-.144v-1.227a.577.577 0 0 1 .253-.432l.277-.161c.138-.086.253-.023.253.133Z"/>
    <path fill="#455A64" d="M97.614 227.223v1.227a.57.57 0 0 1-.248.432l-.282.161c-.139.081-.248 0-.248-.144v-1.221a.537.537 0 0 1 .248-.432l.282-.167a.16.16 0 0 1 .084-.031.156.156 0 0 1 .163.175Z"/>
    <path fill="#FAFAFA" d="M96.352 227.955v1.221a.577.577 0 0 1-.248.432l-.282.161c-.138.081-.248 0-.248-.144v-1.221a.577.577 0 0 1 .248-.432l.282-.161c.138-.075.248-.018.248.144ZM95.09 228.68v1.222a.534.534 0 0 1-.248.432l-.282.161c-.138.08-.248 0-.248-.144v-1.221a.572.572 0 0 1 .248-.432l.282-.162c.139-.08.248-.017.248.144Z"/>
    <path fill="#40FFDF" d="M41.523 211.608v9.078a3.317 3.317 0 0 0 1.498 2.592l14.884 8.594 18.564 10.719a5.1 5.1 0 0 0 2.494.576v-9.965l-37.44-21.594Z"/>
    <path fill="#fff" d="M41.523 211.608v9.078a3.317 3.317 0 0 0 1.498 2.592l14.884 8.594 18.564 10.719a5.1 5.1 0 0 0 2.494.576v-9.965l-37.44-21.594Z" opacity=".5"/>
    <path fill="#fff" d="m47.443 217.731 9.216 5.316a2.748 2.748 0 0 1 1.25 2.16v2.529c0 .795-.576 1.117-1.25.72l-9.216-5.317a2.76 2.76 0 0 1-1.244-2.16v-2.522c0-.801.559-1.124 1.244-.726Z" opacity=".75"/>
    <path fill="#40FFDF" d="m48.633 220.576.576-.328a.772.772 0 0 1 .766.081 2.404 2.404 0 0 1 1.083 1.877.748.748 0 0 1-.317.697l-.536.3-.092-.156a1.028 1.028 0 0 1-.31-.121 2.398 2.398 0 0 1-1.089-1.877c.001-.094.013-.186.034-.277l-.115-.196Z"/>
    <path fill="#000" d="m48.633 220.576.576-.328a.772.772 0 0 1 .766.081 2.404 2.404 0 0 1 1.083 1.877.748.748 0 0 1-.317.697l-.536.3-.092-.156a1.028 1.028 0 0 1-.31-.121 2.398 2.398 0 0 1-1.089-1.877c.001-.094.013-.186.034-.277l-.115-.196Z" opacity=".2"/>
    <path fill="#40FFDF" d="M49.419 220.64a2.388 2.388 0 0 1 1.083 1.877c0 .691-.484.968-1.083.622a2.4 2.4 0 0 1-1.083-1.877c0-.692.484-.968 1.083-.622ZM53.336 223.289l.576-.328a.76.76 0 0 1 .76.075 2.4 2.4 0 0 1 1.089 1.877.764.764 0 0 1-.317.703l-.536.305-.098-.161a.995.995 0 0 1-.305-.121 2.399 2.399 0 0 1-1.088-1.878c.002-.093.013-.185.034-.276l-.115-.196Z"/>
    <path fill="#000" d="m53.336 223.289.576-.328a.76.76 0 0 1 .76.075 2.4 2.4 0 0 1 1.089 1.877.764.764 0 0 1-.317.703l-.536.305-.098-.161a.995.995 0 0 1-.305-.121 2.399 2.399 0 0 1-1.088-1.878c.002-.093.013-.185.034-.276l-.115-.196Z" opacity=".2"/>
    <path fill="#40FFDF" d="M54.142 223.352a2.4 2.4 0 0 1 1.083 1.878c0 .691-.484.974-1.083.628a2.4 2.4 0 0 1-1.083-1.878c-.017-.691.467-.973 1.083-.628Z"/>
    <path fill="#fff" d="m47.443 217.731 9.216 5.316a2.748 2.748 0 0 1 1.25 2.16v2.529c0 .795-.576 1.117-1.25.72l-9.216-5.317a2.76 2.76 0 0 1-1.244-2.16v-2.522c0-.801.559-1.124 1.244-.726Z" opacity=".75"/>
    <path fill="#40FFDF" d="m48.633 220.576.576-.328a.772.772 0 0 1 .766.081 2.404 2.404 0 0 1 1.083 1.877.748.748 0 0 1-.317.697l-.536.3-.092-.156a1.028 1.028 0 0 1-.31-.121 2.398 2.398 0 0 1-1.089-1.877c.001-.094.013-.186.034-.277l-.115-.196Z"/>
    <path fill="#000" d="m48.633 220.576.576-.328a.772.772 0 0 1 .766.081 2.404 2.404 0 0 1 1.083 1.877.748.748 0 0 1-.317.697l-.536.3-.092-.156a1.028 1.028 0 0 1-.31-.121 2.398 2.398 0 0 1-1.089-1.877c.001-.094.013-.186.034-.277l-.115-.196Z" opacity=".2"/>
    <path fill="#40FFDF" d="M49.419 220.64a2.388 2.388 0 0 1 1.083 1.877c0 .691-.484.968-1.083.622a2.4 2.4 0 0 1-1.083-1.877c0-.692.484-.968 1.083-.622ZM53.336 223.289l.576-.328a.76.76 0 0 1 .76.075 2.4 2.4 0 0 1 1.089 1.877.764.764 0 0 1-.317.703l-.536.305-.098-.161a.995.995 0 0 1-.305-.121 2.399 2.399 0 0 1-1.088-1.878c.002-.093.013-.185.034-.276l-.115-.196Z"/>
    <path fill="#000" d="m53.336 223.289.576-.328a.76.76 0 0 1 .76.075 2.4 2.4 0 0 1 1.089 1.877.764.764 0 0 1-.317.703l-.536.305-.098-.161a.995.995 0 0 1-.305-.121 2.399 2.399 0 0 1-1.088-1.878c.002-.093.013-.185.034-.276l-.115-.196Z" opacity=".2"/>
    <path fill="#40FFDF" d="M54.142 223.352a2.4 2.4 0 0 1 1.083 1.878c0 .691-.484.974-1.083.628a2.4 2.4 0 0 1-1.083-1.878c-.017-.691.467-.973 1.083-.628ZM89.677 231.705l-.576-.329a.76.76 0 0 0-.76.081 2.398 2.398 0 0 0-1.083 1.878.775.775 0 0 0 .31.702l.53.306.099-.162a1.09 1.09 0 0 0 .31-.121 2.388 2.388 0 0 0 1.084-1.877 1.303 1.303 0 0 0-.035-.277l.121-.201Z"/>
    <path fill="#000" d="m89.677 231.705-.576-.329a.76.76 0 0 0-.76.081 2.398 2.398 0 0 0-1.083 1.878.775.775 0 0 0 .31.702l.53.306.099-.162a1.09 1.09 0 0 0 .31-.121 2.388 2.388 0 0 0 1.084-1.877 1.303 1.303 0 0 0-.035-.277l.121-.201Z" opacity=".4"/>
    <path fill="#40FFDF" d="M88.888 231.768a2.398 2.398 0 0 0-1.083 1.878c0 .691.483.967 1.083.622a2.393 2.393 0 0 0 1.082-1.878c0-.691-.483-.968-1.082-.622Z"/>
    <path fill="#000" d="M88.888 231.768a2.398 2.398 0 0 0-1.083 1.878c0 .691.483.967 1.083.622a2.393 2.393 0 0 0 1.082-1.878c0-.691-.483-.968-1.082-.622Z" opacity=".2"/>
    <path fill="#40FFDF" d="m84.97 234.417-.576-.328a.78.78 0 0 0-.76.075 2.398 2.398 0 0 0-1.083 1.878.767.767 0 0 0 .317.703l.53.305.098-.161c.109-.025.214-.066.31-.121a2.403 2.403 0 0 0 1.084-1.878 1.045 1.045 0 0 0-.035-.277l.115-.196Z"/>
    <path fill="#000" d="m84.97 234.417-.576-.328a.78.78 0 0 0-.76.075 2.398 2.398 0 0 0-1.083 1.878.767.767 0 0 0 .317.703l.53.305.098-.161c.109-.025.214-.066.31-.121a2.403 2.403 0 0 0 1.084-1.878 1.045 1.045 0 0 0-.035-.277l.115-.196Z" opacity=".4"/>
    <path fill="#40FFDF" d="M84.18 234.481a2.4 2.4 0 0 0-1.082 1.878c0 .691.484.973 1.082.627a2.395 2.395 0 0 0 1.066-1.877c0-.692-.466-.974-1.066-.628Z"/>
    <path fill="#000" d="M84.18 234.481a2.4 2.4 0 0 0-1.082 1.878c0 .691.484.973 1.082.627a2.395 2.395 0 0 0 1.066-1.877c0-.692-.466-.974-1.066-.628Z" opacity=".2"/>
    <path fill="#40FFDF" d="m116.398 195.382-37.44 21.612-37.435-21.612 37.435-21.611 37.44 21.611Z"/>
    <path fill="#000" d="m116.398 195.382-37.44 21.612-37.435-21.612 37.435-21.611 37.44 21.611Z" opacity=".1"/>
    <path fill="#000" d="M78.958 216.994v-2.702l-35.096-20.258-2.339 1.348 37.435 21.612Z" opacity=".1"/>
    <path fill="#40FFDF" d="m116.391 206.188-37.434 21.617v-10.811l37.44-21.612-.006 10.806Z"/>
    <path fill="#fff" d="m116.391 206.188-37.434 21.617v-10.811l37.44-21.612-.006 10.806Z" opacity=".65"/>
    <path fill="#40FFDF" d="m112.811 200.163-18.565 10.719a2.754 2.754 0 0 0-1.25 2.16v2.523c0 .795.576 1.118 1.25.72l18.565-10.719a2.77 2.77 0 0 0 1.244-2.16v-2.523c-.006-.795-.582-1.118-1.244-.72Z"/>
    <path fill="#FAFAFA" d="M112.739 202.3v1.244a.584.584 0 0 1-.248.432l-.282.167c-.139.075-.248 0-.248-.144v-1.227a.57.57 0 0 1 .248-.432l.282-.161c.132-.104.248-.041.248.121Z"/>
    <path fill="#455A64" d="M111.477 203.025v1.227a.58.58 0 0 1-.248.432l-.282.162c-.138.08-.248 0-.248-.144v-1.227a.58.58 0 0 1 .248-.432l.282-.162c.138-.08.248-.017.248.144Z"/>
    <path fill="#FAFAFA" d="M110.219 203.751v1.227a.57.57 0 0 1-.248.432l-.282.161c-.138.081-.248 0-.248-.144V204.2a.589.589 0 0 1 .248-.432l.282-.161c.139-.063.248-.011.248.144Z"/>
    <path fill="#455A64" d="M108.957 204.477v1.227a.583.583 0 0 1-.247.432l-.283.161c-.138.081-.247 0-.247-.144v-1.221a.537.537 0 0 1 .247-.432l.283-.167c.155-.075.247-.012.247.144ZM107.713 205.209v1.215a.577.577 0 0 1-.253.432l-.277.161c-.138.081-.253 0-.253-.144v-1.221a.577.577 0 0 1 .253-.432l.277-.161c.126-.075.253-.012.253.15Z"/>
    <path fill="#FAFAFA" d="M106.44 205.934v1.221a.57.57 0 0 1-.254.432l-.276.162c-.139.08-.254 0-.254-.144v-1.221a.57.57 0 0 1 .254-.432l.276-.162c.138-.08.254-.017.254.144ZM105.176 206.66v1.221a.566.566 0 0 1-.248.432l-.282.167c-.138.075-.248 0-.248-.144v-1.227a.584.584 0 0 1 .248-.432l.282-.161c.133-.092.248-.017.248.144ZM103.914 207.386v1.227a.583.583 0 0 1-.247.432l-.283.161c-.138.075-.247 0-.247-.144v-1.227a.583.583 0 0 1 .247-.432l.283-.161c.138-.081.247-.018.247.144Z"/>
    <path fill="#455A64" d="M102.653 208.112v1.226a.573.573 0 0 1-.248.432l-.282.162c-.139.08-.248 0-.248-.144v-1.227a.566.566 0 0 1 .248-.432l.282-.161c.121-.081.248-.012.248.144Z"/>
    <path fill="#FAFAFA" d="M101.375 208.837v1.227a.583.583 0 0 1-.247.432l-.283.161c-.138.081-.247 0-.247-.144v-1.209a.578.578 0 0 1 .247-.432l.283-.161c.155-.093.247-.029.247.126Z"/>
    <path fill="#455A64" d="M100.139 209.563v1.227a.574.574 0 0 1-.254.432l-.282.161c-.132.081-.247 0-.247-.144v-1.221a.575.575 0 0 1 .247-.432l.282-.167c.139-.075.254-.011.254.144Z"/>
    <path fill="#FAFAFA" d="M98.877 210.295v1.221a.579.579 0 0 1-.253.432l-.277.161c-.138.081-.253 0-.253-.144v-1.221a.577.577 0 0 1 .253-.432l.277-.161c.138-.081.253-.018.253.144Z"/>
    <path fill="#455A64" d="M97.614 211.032v1.221a.575.575 0 0 1-.248.432l-.282.161c-.139.081-.248 0-.248-.144v-1.221a.577.577 0 0 1 .248-.432l.282-.161c.132-.092.248-.029.248.144Z"/>
    <path fill="#FAFAFA" d="M96.352 211.746v1.221a.535.535 0 0 1-.248.432l-.282.167c-.138.075-.248 0-.248-.144v-1.238a.577.577 0 0 1 .248-.432l.282-.161c.138-.069.248.017.248.155ZM95.09 212.472v1.227a.577.577 0 0 1-.248.432l-.282.161c-.138.081-.248 0-.248-.144v-1.227a.577.577 0 0 1 .248-.432l.282-.161c.139-.081.248-.017.248.144Z"/>
    <path fill="#40FFDF" d="m78.958 227.805-37.435-21.617v-10.806l37.435 21.612v10.811Z"/>
    <path fill="#fff" d="m78.958 227.805-37.435-21.617v-10.806l37.435 21.612v10.811Z" opacity=".5"/>
    <path fill="#fff" d="m47.443 201.511 9.216 5.31a2.748 2.748 0 0 1 1.25 2.16v2.523c0 .795-.576 1.118-1.25.72l-9.216-5.311a2.76 2.76 0 0 1-1.244-2.16v-2.522c0-.801.559-1.118 1.244-.72Z" opacity=".75"/>
    <path fill="#40FFDF" d="m48.633 204.356.576-.334a.78.78 0 0 1 .766.075 2.404 2.404 0 0 1 1.083 1.878.768.768 0 0 1-.317.702l-.536.306-.092-.162a1.028 1.028 0 0 1-.31-.121 2.398 2.398 0 0 1-1.089-1.877 1.4 1.4 0 0 1 .034-.277l-.115-.19Z"/>
    <path fill="#000" d="m48.633 204.356.576-.334a.78.78 0 0 1 .766.075 2.404 2.404 0 0 1 1.083 1.878.768.768 0 0 1-.317.702l-.536.306-.092-.162a1.028 1.028 0 0 1-.31-.121 2.398 2.398 0 0 1-1.089-1.877 1.4 1.4 0 0 1 .034-.277l-.115-.19Z" opacity=".2"/>
    <path fill="#40FFDF" d="M49.419 204.414a2.398 2.398 0 0 1 1.083 1.877c0 .692-.484.974-1.083.628a2.4 2.4 0 0 1-1.083-1.877c0-.692.484-.974 1.083-.628ZM53.336 207.069l.576-.328a.762.762 0 0 1 .76.08 2.408 2.408 0 0 1 1.089 1.878.764.764 0 0 1-.317.703l-.536.305-.098-.161a1.047 1.047 0 0 1-.305-.121 2.408 2.408 0 0 1-1.088-1.878c.001-.093.013-.186.034-.276l-.115-.202Z"/>
    <path fill="#000" d="m53.336 207.069.576-.328a.762.762 0 0 1 .76.08 2.408 2.408 0 0 1 1.089 1.878.764.764 0 0 1-.317.703l-.536.305-.098-.161a1.047 1.047 0 0 1-.305-.121 2.408 2.408 0 0 1-1.088-1.878c.001-.093.013-.186.034-.276l-.115-.202Z" opacity=".2"/>
    <path fill="#40FFDF" d="M54.142 207.132a2.4 2.4 0 0 1 1.083 1.878c0 .691-.484.968-1.083.622a2.4 2.4 0 0 1-1.083-1.877c-.017-.692.467-.968 1.083-.623Z"/>
    <path fill="#455A64" d="M111.714 211.591v-2.702l-32.757 18.916v2.701l32.757-18.915Z"/>
    <path fill="#40FFDF" d="M43.863 207.541v2.702l35.096 20.263v-2.701l-35.096-20.264Z"/>
    <path fill="#37474F" d="M43.863 207.541v2.702l35.096 20.263v-2.701l-35.096-20.264Z"/>
    <path fill="#40FFDF" d="m89.677 215.496-.576-.328a.762.762 0 0 0-.76.08 2.393 2.393 0 0 0-1.083 1.878.759.759 0 0 0 .311.697l.53.305.098-.155c.108-.027.213-.068.311-.121a2.391 2.391 0 0 0 1.083-1.878 1.31 1.31 0 0 0-.035-.277l.121-.201Z"/>
    <path fill="#000" d="m89.677 215.496-.576-.328a.762.762 0 0 0-.76.08 2.393 2.393 0 0 0-1.083 1.878.759.759 0 0 0 .311.697l.53.305.098-.155c.108-.027.213-.068.311-.121a2.391 2.391 0 0 0 1.083-1.878 1.31 1.31 0 0 0-.035-.277l.121-.201Z" opacity=".4"/>
    <path fill="#40FFDF" d="M88.888 215.559a2.39 2.39 0 0 0-1.083 1.872c0 .697.483.974 1.083.628a2.4 2.4 0 0 0 1.082-1.878c0-.691-.483-.967-1.082-.622Z"/>
    <path fill="#000" d="M88.888 215.559a2.39 2.39 0 0 0-1.083 1.872c0 .697.483.974 1.083.628a2.4 2.4 0 0 0 1.082-1.878c0-.691-.483-.967-1.082-.622Z" opacity=".2"/>
    <path fill="#40FFDF" d="m84.97 218.209-.576-.329a.74.74 0 0 0-.76.075 2.391 2.391 0 0 0-1.083 1.878.764.764 0 0 0 .317.703l.53.305.098-.161c.109-.025.214-.065.31-.121a2.393 2.393 0 0 0 1.084-1.878 1.033 1.033 0 0 0-.035-.276l.115-.196Z"/>
    <path fill="#000" d="m84.97 218.209-.576-.329a.74.74 0 0 0-.76.075 2.391 2.391 0 0 0-1.083 1.878.764.764 0 0 0 .317.703l.53.305.098-.161c.109-.025.214-.065.31-.121a2.393 2.393 0 0 0 1.084-1.878 1.033 1.033 0 0 0-.035-.276l.115-.196Z" opacity=".4"/>
    <path fill="#40FFDF" d="M84.18 218.272a2.393 2.393 0 0 0-1.082 1.878c0 .691.484.973 1.082.628a2.391 2.391 0 0 0 1.083-1.878c-.017-.691-.483-.956-1.083-.628Z"/>
    <path fill="#000" d="M84.18 218.272a2.393 2.393 0 0 0-1.082 1.878c0 .691.484.973 1.082.628a2.391 2.391 0 0 0 1.083-1.878c-.017-.691-.483-.956-1.083-.628Z" opacity=".2"/>
    <path fill="#40FFDF" d="m116.398 179.173-37.44 21.612-37.435-21.612 37.435-21.617 37.44 21.617Z"/>
    <path fill="#000" d="m116.398 179.173-37.44 21.612-37.435-21.612 37.435-21.617 37.44 21.617Z" opacity=".1"/>
    <path fill="#000" d="M78.958 200.785v-2.702L43.862 177.82l-2.339 1.353 37.435 21.612Z" opacity=".1"/>
    <path fill="#40FFDF" d="m116.391 189.979-37.434 21.612v-10.806l37.44-21.612-.006 10.806Z"/>
    <path fill="#fff" d="m116.391 189.979-37.434 21.612v-10.806l37.44-21.612-.006 10.806Z" opacity=".65"/>
    <path fill="#40FFDF" d="m112.811 183.96-18.565 10.719a2.748 2.748 0 0 0-1.25 2.16v2.523c0 .795.576 1.118 1.25.72l18.565-10.719a2.77 2.77 0 0 0 1.244-2.16v-2.523c-.006-.818-.582-1.141-1.244-.72Z"/>
    <path fill="#FAFAFA" d="M112.739 186.074v1.227a.584.584 0 0 1-.248.432l-.282.161c-.139.075-.248 0-.248-.144v-1.227a.57.57 0 0 1 .248-.432l.282-.161c.132-.081.248-.018.248.144ZM111.477 186.8v1.226a.583.583 0 0 1-.248.432l-.282.162c-.138.08-.248 0-.248-.144v-1.227a.58.58 0 0 1 .248-.432l.282-.161c.138-.081.248-.012.248.144ZM110.219 187.525v1.227a.57.57 0 0 1-.248.432l-.282.161c-.138.081-.248 0-.248-.144v-1.209a.58.58 0 0 1 .248-.432l.282-.162c.139-.092.248-.028.248.127ZM108.957 188.251v1.227a.583.583 0 0 1-.247.432l-.283.161c-.138.081-.247 0-.247-.144v-1.221a.53.53 0 0 1 .247-.432l.283-.167c.155-.075.247-.011.247.144Z"/>
    <path fill="#455A64" d="M107.713 188.983v1.221a.577.577 0 0 1-.253.432l-.277.161c-.138.081-.253 0-.253-.144v-1.221a.577.577 0 0 1 .253-.432l.277-.161c.126-.081.253-.018.253.144ZM106.44 189.72v1.221a.55.55 0 0 1-.254.432l-.276.161c-.139.081-.254 0-.254-.144v-1.221a.578.578 0 0 1 .254-.432l.276-.161c.138-.092.254-.029.254.144Z"/>
    <path fill="#FAFAFA" d="M105.176 190.434v1.221a.574.574 0 0 1-.248.432l-.282.167c-.138.075-.248 0-.248-.144v-1.238a.584.584 0 0 1 .248-.432l.282-.161c.133-.069.248.017.248.155ZM103.914 191.16v1.227a.583.583 0 0 1-.247.432l-.283.161c-.138.081-.247 0-.247-.144v-1.227a.583.583 0 0 1 .247-.432l.283-.161c.138-.081.247-.017.247.144ZM102.653 191.886v1.227a.584.584 0 0 1-.248.432l-.282.161c-.139.08-.248 0-.248-.144v-1.227a.57.57 0 0 1 .248-.432l.282-.161c.121-.081.248-.012.248.144Z"/>
    <path fill="#455A64" d="M101.375 192.6v1.227a.583.583 0 0 1-.247.432l-.283.161c-.138.081-.247 0-.247-.144v-1.221a.537.537 0 0 1 .247-.432l.283-.167c.155-.063.247 0 .247.144Z"/>
    <path fill="#FAFAFA" d="M100.139 193.343v1.221a.574.574 0 0 1-.254.432l-.282.161c-.132.081-.247 0-.247-.144v-1.221a.575.575 0 0 1 .247-.432l.282-.161c.139-.081.254-.023.254.144ZM98.877 194.069v1.221a.579.579 0 0 1-.253.432l-.277.161c-.138.081-.253 0-.253-.144v-1.221a.573.573 0 0 1 .253-.432l.277-.161c.138-.081.253-.018.253.144Z"/>
    <path fill="#455A64" d="M97.614 194.794v1.222a.575.575 0 0 1-.248.432l-.282.167c-.139.074-.248 0-.248-.144v-1.227a.572.572 0 0 1 .248-.432l.282-.162c.132-.08.248-.017.248.144Z"/>
    <path fill="#FAFAFA" d="M96.352 195.52v1.227a.572.572 0 0 1-.248.432l-.282.161c-.138.075-.248 0-.248-.144v-1.226a.58.58 0 0 1 .248-.432l.282-.162c.138-.08.248-.017.248.144Z"/>
    <path fill="#455A64" d="M95.09 196.246v1.227a.577.577 0 0 1-.248.432l-.282.161c-.138.081-.248 0-.248-.144v-1.227a.577.577 0 0 1 .248-.432l.282-.161c.139-.081.248-.011.248.144Z"/>
    <path fill="#40FFDF" d="m78.958 211.591-37.435-21.612v-10.806l37.435 21.612v10.806Z"/>
    <path fill="#fff" d="m78.958 211.591-37.435-21.612v-10.806l37.435 21.612v10.806Z" opacity=".5"/>
    <path fill="#fff" d="m47.443 185.296 9.216 5.317a2.74 2.74 0 0 1 1.25 2.16v2.523c0 .794-.576 1.117-1.25.72l-9.216-5.317a2.766 2.766 0 0 1-1.244-2.131v-2.523c0-.824.559-1.146 1.244-.749Z" opacity=".75"/>
    <path fill="#40FFDF" d="m48.633 188.142.576-.329a.774.774 0 0 1 .766.081 2.413 2.413 0 0 1 1.083 1.878.75.75 0 0 1-.317.697l-.536.299-.092-.155a1.082 1.082 0 0 1-.31-.121 2.408 2.408 0 0 1-1.09-1.878c.002-.093.014-.186.035-.276l-.115-.196Z"/>
    <path fill="#000" d="m48.633 188.142.576-.329a.774.774 0 0 1 .766.081 2.413 2.413 0 0 1 1.083 1.878.75.75 0 0 1-.317.697l-.536.299-.092-.155a1.082 1.082 0 0 1-.31-.121 2.408 2.408 0 0 1-1.09-1.878c.002-.093.014-.186.035-.276l-.115-.196Z" opacity=".2"/>
    <path fill="#40FFDF" d="M49.419 188.205a2.398 2.398 0 0 1 1.083 1.878c0 .691-.484.967-1.083.622a2.393 2.393 0 0 1-1.083-1.878c0-.691.484-.968 1.083-.622ZM53.336 190.872l.576-.328a.763.763 0 0 1 .76.074 2.408 2.408 0 0 1 1.089 1.878.764.764 0 0 1-.317.703l-.536.305-.098-.161a1.047 1.047 0 0 1-.305-.121 2.408 2.408 0 0 1-1.088-1.878c.002-.093.013-.186.034-.276l-.115-.196Z"/>
    <path fill="#000" d="m53.336 190.872.576-.328a.763.763 0 0 1 .76.074 2.408 2.408 0 0 1 1.089 1.878.764.764 0 0 1-.317.703l-.536.305-.098-.161a1.047 1.047 0 0 1-.305-.121 2.408 2.408 0 0 1-1.088-1.878c.002-.093.013-.186.034-.276l-.115-.196Z" opacity=".2"/>
    <path fill="#40FFDF" d="M54.142 190.918a2.398 2.398 0 0 1 1.083 1.878c0 .691-.484.973-1.083.628a2.403 2.403 0 0 1-1.083-1.878c-.017-.674.467-.974 1.083-.628Z"/>
    <path fill="#455A64" d="M111.714 195.382v-2.701l-32.757 18.91v2.701l32.757-18.91Z"/>
    <path fill="#37474F" d="M43.863 191.327v2.707l35.096 20.258v-2.701l-35.096-20.264Z"/>
    <path fill="#40FFDF" d="m89.677 199.287-.576-.334a.78.78 0 0 0-.76.075 2.398 2.398 0 0 0-1.083 1.878.775.775 0 0 0 .31.703l.53.305.099-.161c.109-.025.214-.066.31-.121a2.4 2.4 0 0 0 1.084-1.878 1.35 1.35 0 0 0-.035-.277l.121-.19Z"/>
    <path fill="#000" d="m89.677 199.287-.576-.334a.78.78 0 0 0-.76.075 2.398 2.398 0 0 0-1.083 1.878.775.775 0 0 0 .31.703l.53.305.099-.161c.109-.025.214-.066.31-.121a2.4 2.4 0 0 0 1.084-1.878 1.35 1.35 0 0 0-.035-.277l.121-.19Z" opacity=".4"/>
    <path fill="#40FFDF" d="M88.888 199.345a2.398 2.398 0 0 0-1.083 1.878c0 .691.483.973 1.083.627a2.39 2.39 0 0 0 1.082-1.877c0-.691-.483-.974-1.082-.628Z"/>
    <path fill="#000" d="M88.888 199.345a2.398 2.398 0 0 0-1.083 1.878c0 .691.483.973 1.083.627a2.39 2.39 0 0 0 1.082-1.877c0-.691-.483-.974-1.082-.628Z" opacity=".2"/>
    <path fill="#40FFDF" d="m84.97 202-.576-.328a.76.76 0 0 0-.76.081 2.388 2.388 0 0 0-1.083 1.877.764.764 0 0 0 .317.703l.53.305.098-.161c.109-.024.214-.065.31-.121a2.4 2.4 0 0 0 1.084-1.878 1.002 1.002 0 0 0-.035-.276l.115-.202Z"/>
    <path fill="#000" d="m84.97 202-.576-.328a.76.76 0 0 0-.76.081 2.388 2.388 0 0 0-1.083 1.877.764.764 0 0 0 .317.703l.53.305.098-.161c.109-.024.214-.065.31-.121a2.4 2.4 0 0 0 1.084-1.878 1.002 1.002 0 0 0-.035-.276l.115-.202Z" opacity=".4"/>
    <path fill="#40FFDF" d="M84.18 202.064a2.39 2.39 0 0 0-1.082 1.877c0 .692.484.968 1.082.622a2.388 2.388 0 0 0 1.083-1.877c-.017-.692-.483-.968-1.083-.622Z"/>
    <path fill="#000" d="M84.18 202.064a2.39 2.39 0 0 0-1.082 1.877c0 .692.484.968 1.082.622a2.388 2.388 0 0 0 1.083-1.877c-.017-.692-.483-.968-1.083-.622Z" opacity=".2"/>
    <path fill="#40FFDF" d="m116.398 162.965-37.44 21.611-37.435-21.611 37.435-21.618 37.44 21.618Z"/>
    <path fill="#fff" d="m116.398 162.965-37.44 21.611-37.435-21.611 37.435-21.618 37.44 21.618Z" opacity=".15"/>
    <path fill="#000" d="m116.398 162.965-37.44 21.611-37.435-21.611 37.435-21.618 37.44 21.618Z" opacity=".1"/>
    <path fill="#000" d="M78.958 181.881v2.695l-37.435-21.611 2.339-1.348 35.096 20.264Z" opacity=".1"/>
    <path fill="#40FFDF" d="m116.391 173.77-37.434 21.612v-10.806l37.44-21.611-.006 10.805Z"/>
    <path fill="#fff" d="m116.391 173.77-37.434 21.612v-10.806l37.44-21.611-.006 10.805Z" opacity=".65"/>
    <path fill="#40FFDF" d="m112.811 167.74-18.565 10.719a2.754 2.754 0 0 0-1.25 2.16v2.523c0 .795.576 1.117 1.25.72l18.565-10.719a2.77 2.77 0 0 0 1.244-2.16v-2.523c-.006-.795-.582-1.118-1.244-.72Z"/>
    <path fill="#FAFAFA" d="M112.739 169.877v1.221a.584.584 0 0 1-.248.432l-.282.167c-.139.075-.248 0-.248-.144v-1.227a.57.57 0 0 1 .248-.432l.282-.161c.132-.081.248-.018.248.144Z"/>
    <path fill="#455A64" d="M111.477 170.603v1.226a.573.573 0 0 1-.248.432l-.282.162c-.138.08-.248 0-.248-.144v-1.227a.58.58 0 0 1 .248-.432l.282-.161c.138-.081.248-.018.248.144Z"/>
    <path fill="#FAFAFA" d="M110.219 171.328v1.227a.566.566 0 0 1-.248.432l-.282.161c-.138.081-.248 0-.248-.144v-1.226a.573.573 0 0 1 .248-.432l.282-.162c.139-.08.248-.011.248.144ZM108.957 172.054v1.227a.583.583 0 0 1-.247.432l-.283.161c-.138.081-.247 0-.247-.144v-1.221a.53.53 0 0 1 .247-.432l.283-.167c.155-.046.247-.012.247.144ZM107.713 172.785v1.222a.577.577 0 0 1-.253.432l-.277.161c-.138.08-.253 0-.253-.144v-1.221a.537.537 0 0 1 .253-.432l.277-.162c.126-.08.253-.017.253.144Z"/>
    <path fill="#455A64" d="M106.44 173.511v1.233a.578.578 0 0 1-.254.432l-.276.161c-.139.081-.254 0-.254-.144v-1.221a.578.578 0 0 1 .254-.432l.276-.161c.138-.092.254-.029.254.132ZM105.176 174.237v1.221a.566.566 0 0 1-.248.432l-.282.161c-.138.081-.248 0-.248-.144v-1.221a.584.584 0 0 1 .248-.432l.282-.161c.133-.081.248-.017.248.144Z"/>
    <path fill="#FAFAFA" d="M103.914 174.963v1.227a.583.583 0 0 1-.247.432l-.283.161c-.138.075-.247 0-.247-.144v-1.227a.583.583 0 0 1 .247-.432l.283-.161c.138-.075.247-.017.247.144Z"/>
    <path fill="#455A64" d="M102.653 175.688v1.227a.58.58 0 0 1-.248.432l-.282.162c-.139.08-.248 0-.248-.144v-1.227a.566.566 0 0 1 .248-.432l.282-.162c.121-.08.248-.011.248.144Z"/>
    <path fill="#FAFAFA" d="M101.375 176.414v1.21a.583.583 0 0 1-.247.432l-.283.161c-.138.081-.247 0-.247-.144v-1.227a.583.583 0 0 1 .247-.432l.283-.161c.155-.058.247.006.247.161ZM100.139 177.14v1.227a.574.574 0 0 1-.254.432l-.282.161c-.132.081-.247 0-.247-.144v-1.192a.575.575 0 0 1 .247-.432l.282-.167c.139-.104.254-.04.254.115ZM98.877 177.871v1.222a.579.579 0 0 1-.253.432l-.277.161c-.138.081-.253 0-.253-.144v-1.221a.573.573 0 0 1 .253-.432l.277-.162c.138-.103.253-.017.253.144Z"/>
    <path fill="#455A64" d="M97.614 178.597v1.222a.58.58 0 0 1-.248.432l-.282.161c-.139.08-.248 0-.248-.144v-1.221a.572.572 0 0 1 .248-.432l.282-.162c.132-.08.248-.017.248.144Z"/>
    <path fill="#FAFAFA" d="M96.352 179.352v1.221a.53.53 0 0 1-.248.432l-.282.167c-.138.075-.248 0-.248-.144v-1.227a.577.577 0 0 1 .248-.432l.282-.161c.138-.11.248-.046.248.144ZM95.09 180.049v1.227a.577.577 0 0 1-.248.432l-.282.161c-.138.081-.248 0-.248-.144v-1.221a.572.572 0 0 1 .248-.432l.282-.161c.139-.087.248-.023.248.138Z"/>
    <path fill="#40FFDF" d="M78.958 195.382 41.523 173.77v-10.805l37.435 21.611v10.806Z"/>
    <path fill="#fff" d="M78.958 195.382 41.523 173.77v-10.805l37.435 21.611v10.806Z" opacity=".5"/>
    <path fill="#fff" d="m47.443 169.105 9.216 5.31a2.758 2.758 0 0 1 1.25 2.16v2.529c0 .795-.576 1.118-1.25.72l-9.216-5.316a2.772 2.772 0 0 1-1.244-2.16v-2.523c0-.795.559-1.118 1.244-.72Z" opacity=".75"/>
    <path fill="#40FFDF" d="m48.633 171.95.576-.328a.772.772 0 0 1 .766.081 2.403 2.403 0 0 1 1.083 1.889.75.75 0 0 1-.317.697l-.536.305-.092-.155a1.241 1.241 0 0 1-.31-.121 2.408 2.408 0 0 1-1.09-1.878c.002-.095.014-.19.035-.282l-.115-.208Z"/>
    <path fill="#000" d="m48.633 171.95.576-.328a.772.772 0 0 1 .766.081 2.403 2.403 0 0 1 1.083 1.889.75.75 0 0 1-.317.697l-.536.305-.092-.155a1.241 1.241 0 0 1-.31-.121 2.408 2.408 0 0 1-1.09-1.878c.002-.095.014-.19.035-.282l-.115-.208Z" opacity=".2"/>
    <path fill="#40FFDF" d="M49.419 172.014a2.381 2.381 0 0 1 1.083 1.872c0 .691-.484.973-1.083.628a2.403 2.403 0 0 1-1.083-1.878c0-.691.484-.968 1.083-.622ZM53.336 174.663l.576-.328a.74.74 0 0 1 .76.075 2.399 2.399 0 0 1 1.089 1.878.767.767 0 0 1-.317.702l-.536.306-.098-.162a.995.995 0 0 1-.305-.121 2.396 2.396 0 0 1-1.088-1.877c.001-.093.013-.186.034-.277l-.115-.196Z"/>
    <path fill="#000" d="m53.336 174.663.576-.328a.74.74 0 0 1 .76.075 2.399 2.399 0 0 1 1.089 1.878.767.767 0 0 1-.317.702l-.536.306-.098-.162a.995.995 0 0 1-.305-.121 2.396 2.396 0 0 1-1.088-1.877c.001-.093.013-.186.034-.277l-.115-.196Z" opacity=".2"/>
    <path fill="#40FFDF" d="M54.142 174.744a2.398 2.398 0 0 1 1.083 1.878c0 .691-.484.973-1.083.627a2.39 2.39 0 0 1-1.083-1.877c-.017-.709.467-.991 1.083-.628Z"/>
    <path fill="#455A64" d="M111.714 179.173v-2.701l-32.757 18.91v2.701l32.757-18.91Z"/>
    <path fill="#37474F" d="M43.863 175.118v2.702l35.096 20.264v-2.702l-35.096-20.264Z"/>
    <path fill="#40FFDF" d="m89.677 183.073-.576-.329a.74.74 0 0 0-.76.075 2.4 2.4 0 0 0-1.083 1.878.781.781 0 0 0 .31.703l.53.305.099-.161a1.12 1.12 0 0 0 .31-.121 2.391 2.391 0 0 0 1.084-1.878 1.331 1.331 0 0 0-.035-.276l.121-.196Z"/>
    <path fill="#000" d="m89.677 183.073-.576-.329a.74.74 0 0 0-.76.075 2.4 2.4 0 0 0-1.083 1.878.781.781 0 0 0 .31.703l.53.305.099-.161a1.12 1.12 0 0 0 .31-.121 2.391 2.391 0 0 0 1.084-1.878 1.331 1.331 0 0 0-.035-.276l.121-.196Z" opacity=".4"/>
    <path fill="#40FFDF" d="M88.888 183.136a2.391 2.391 0 0 0-1.083 1.878c0 .691.483.973 1.083.628a2.393 2.393 0 0 0 1.082-1.878c0-.691-.483-.956-1.082-.628Z"/>
    <path fill="#000" d="M88.888 183.136a2.391 2.391 0 0 0-1.083 1.878c0 .691.483.973 1.083.628a2.393 2.393 0 0 0 1.082-1.878c0-.691-.483-.956-1.082-.628Z" opacity=".2"/>
    <path fill="#40FFDF" d="m84.97 185.792-.576-.334a.762.762 0 0 0-.76.08 2.393 2.393 0 0 0-1.083 1.878.756.756 0 0 0 .317.697l.53.305.098-.161a1.12 1.12 0 0 0 .31-.121 2.378 2.378 0 0 0 1.084-1.878c0-.093-.011-.186-.035-.276l.115-.19Z"/>
    <path fill="#000" d="m84.97 185.792-.576-.334a.762.762 0 0 0-.76.08 2.393 2.393 0 0 0-1.083 1.878.756.756 0 0 0 .317.697l.53.305.098-.161a1.12 1.12 0 0 0 .31-.121 2.378 2.378 0 0 0 1.084-1.878c0-.093-.011-.186-.035-.276l.115-.19Z" opacity=".4"/>
    <path fill="#40FFDF" d="M84.18 185.849a2.393 2.393 0 0 0-1.082 1.878c0 .691.484.973 1.082.628a2.391 2.391 0 0 0 1.083-1.878c-.017-.691-.483-.973-1.083-.628Z"/>
    <path fill="#000" d="M84.18 185.849a2.393 2.393 0 0 0-1.082 1.878c0 .691.484.973 1.082.628a2.391 2.391 0 0 0 1.083-1.878c-.017-.691-.483-.973-1.083-.628Z" opacity=".2"/>
    <path fill="#40FFDF" d="m43.021 145.892 34.462-19.883a3.304 3.304 0 0 1 2.995 0l34.422 19.883a3.32 3.32 0 0 1 1.498 2.592v9.078l-37.486 21.617-37.389-21.617v-9.078a3.323 3.323 0 0 1 1.498-2.592Z"/>
    <path fill="#fff" d="m43.021 145.892 34.462-19.883a3.304 3.304 0 0 1 2.995 0l34.422 19.883a3.32 3.32 0 0 1 1.498 2.592v9.078l-37.486 21.617-37.389-21.617v-9.078a3.323 3.323 0 0 1 1.498-2.592Z" opacity=".5"/>
    <path fill="#fff" d="m47.443 152.856 9.216 5.316a2.758 2.758 0 0 1 1.25 2.16v2.523c0 .795-.576 1.118-1.25.72l-9.216-5.316a2.772 2.772 0 0 1-1.244-2.16v-2.523c0-.772.559-1.094 1.244-.72Z" opacity=".75"/>
    <path fill="#40FFDF" d="m48.633 155.736.576-.328a.773.773 0 0 1 .766.08 2.413 2.413 0 0 1 1.083 1.878.765.765 0 0 1-.317.703l-.536.305-.092-.161a1.082 1.082 0 0 1-.31-.121 2.408 2.408 0 0 1-1.09-1.878c.002-.093.014-.186.035-.276l-.115-.202Z"/>
    <path fill="#000" d="m48.633 155.736.576-.328a.773.773 0 0 1 .766.08 2.413 2.413 0 0 1 1.083 1.878.765.765 0 0 1-.317.703l-.536.305-.092-.161a1.082 1.082 0 0 1-.31-.121 2.408 2.408 0 0 1-1.09-1.878c.002-.093.014-.186.035-.276l-.115-.202Z" opacity=".2"/>
    <path fill="#40FFDF" d="M49.419 155.788a2.398 2.398 0 0 1 1.083 1.878c0 .691-.484.967-1.083.622a2.403 2.403 0 0 1-1.083-1.878c0-.674.484-.968 1.083-.622ZM53.336 158.443l.576-.334a.769.769 0 0 1 .76.075 2.4 2.4 0 0 1 1.089 1.878.767.767 0 0 1-.317.702l-.536.306-.098-.162a.995.995 0 0 1-.305-.121 2.4 2.4 0 0 1-1.089-1.877 1.4 1.4 0 0 1 .035-.277l-.115-.19Z"/>
    <path fill="#000" d="m53.336 158.443.576-.334a.769.769 0 0 1 .76.075 2.4 2.4 0 0 1 1.089 1.878.767.767 0 0 1-.317.702l-.536.306-.098-.162a.995.995 0 0 1-.305-.121 2.4 2.4 0 0 1-1.089-1.877 1.4 1.4 0 0 1 .035-.277l-.115-.19Z" opacity=".2"/>
    <path fill="#40FFDF" d="M54.142 158.501a2.398 2.398 0 0 1 1.083 1.877c0 .692-.484.974-1.083.628a2.4 2.4 0 0 1-1.083-1.878c-.017-.691.467-.973 1.083-.627ZM78.941 167.861v11.312l37.44-21.611v-9.078a3.334 3.334 0 0 0-1.226-2.402c.547.478.455 1.117-.271 1.538l-34.462 19.883a3.066 3.066 0 0 1-1.48.358Z"/>
    <path fill="#fff" d="M78.941 167.861v11.312l37.44-21.611v-9.078a3.334 3.334 0 0 0-1.226-2.402c.547.478.455 1.117-.271 1.538l-34.462 19.883a3.066 3.066 0 0 1-1.48.358Z" opacity=".65"/>
    <path fill="#40FFDF" d="m112.811 151.525-18.565 10.72a2.754 2.754 0 0 0-1.25 2.16v2.523c0 .794.576 1.117 1.25.72l18.565-10.714a2.76 2.76 0 0 0 1.244-2.16v-2.529c-.006-.794-.582-1.117-1.244-.72Z"/>
    <path fill="#455A64" d="M112.739 153.662v1.227a.584.584 0 0 1-.248.432l-.282.161c-.139.081-.248 0-.248-.144v-1.221a.523.523 0 0 1 .071-.246.526.526 0 0 1 .177-.186l.282-.167a.16.16 0 0 1 .084-.031.163.163 0 0 1 .087.021.152.152 0 0 1 .062.066.166.166 0 0 1 .015.088Z"/>
    <path fill="#FAFAFA" d="M111.477 154.394v1.221a.584.584 0 0 1-.248.432l-.282.161c-.138.081-.248 0-.248-.144v-1.221a.584.584 0 0 1 .248-.432l.282-.161c.138-.081.248-.017.248.144Z"/>
    <path fill="#455A64" d="M110.219 155.12v1.221a.57.57 0 0 1-.248.432l-.282.161c-.138.081-.248 0-.248-.144v-1.221a.584.584 0 0 1 .248-.432l.282-.161c.139-.081.248-.018.248.144ZM108.957 155.845v1.221a.534.534 0 0 1-.247.432l-.283.168c-.138.074-.247 0-.247-.144v-1.21a.583.583 0 0 1 .247-.432l.283-.161c.155-.098.247-.035.247.126ZM107.711 156.571v1.227a.577.577 0 0 1-.253.432l-.277.161a.154.154 0 0 1-.24-.052.152.152 0 0 1-.013-.092v-1.227a.577.577 0 0 1 .253-.432l.277-.161c.126-.081.253-.017.253.144Z"/>
    <path fill="#FAFAFA" d="M106.438 157.297v1.227a.578.578 0 0 1-.254.432l-.276.161a.153.153 0 0 1-.177.016.148.148 0 0 1-.063-.068c-.014-.029-.019-.061-.014-.092v-1.227a.578.578 0 0 1 .254-.432l.276-.161a.157.157 0 0 1 .177-.016c.028.015.05.039.063.068.014.028.019.06.014.092ZM105.176 158.04v1.227a.57.57 0 0 1-.248.432l-.282.161c-.138.081-.248 0-.248-.144v-1.221a.54.54 0 0 1 .248-.432l.282-.167a.163.163 0 0 1 .085-.031.148.148 0 0 1 .087.021.153.153 0 0 1 .076.154Z"/>
    <path fill="#455A64" d="M103.914 158.754v1.221a.578.578 0 0 1-.247.432l-.283.162c-.138.08-.247 0-.247-.144v-1.233a.537.537 0 0 1 .247-.432l.294-.144c.127-.087.236 0 .236.138Z"/>
    <path fill="#FAFAFA" d="M102.653 159.48v1.221a.584.584 0 0 1-.248.432l-.282.161c-.139.081-.248 0-.248-.144v-1.221a.57.57 0 0 1 .248-.432l.282-.161c.121-.081.248-.017.248.144Z"/>
    <path fill="#455A64" d="M101.375 160.206v1.221a.533.533 0 0 1-.247.432l-.283.161c-.138.081-.247 0-.247-.144v-1.221a.578.578 0 0 1 .247-.432l.283-.161c.155-.081.247-.018.247.144ZM100.136 160.92v1.227a.577.577 0 0 1-.253.432l-.282.161a.16.16 0 0 1-.085.031.155.155 0 0 1-.163-.175v-1.215a.571.571 0 0 1 .248-.432l.282-.162c.138-.08.253-.017.253.133ZM98.875 161.657v1.227a.579.579 0 0 1-.253.432l-.277.161a.153.153 0 0 1-.177.016.155.155 0 0 1-.077-.16v-1.227a.58.58 0 0 1 .254-.432l.277-.161a.16.16 0 0 1 .086-.036.155.155 0 0 1 .168.18Z"/>
    <path fill="#FAFAFA" d="M97.614 162.383v1.227a.575.575 0 0 1-.248.432l-.282.161c-.139.081-.248 0-.248-.144v-1.227a.577.577 0 0 1 .248-.432l.282-.161c.132-.081.248-.012.248.144Z"/>
    <path fill="#455A64" d="M96.352 163.109v1.227a.577.577 0 0 1-.248.432l-.282.161c-.138.081-.248 0-.248-.144v-1.221a.54.54 0 0 1 .248-.432l.282-.167c.138-.075.248-.012.248.144ZM95.09 163.84v1.221a.572.572 0 0 1-.248.432l-.282.161c-.138.081-.248 0-.248-.144v-1.221a.577.577 0 0 1 .248-.432l.282-.161c.139-.081.248-.017.248.144Z"/>
    <path fill="#40FFDF" d="m114.9 147.62-34.468 19.884a3.303 3.303 0 0 1-2.99 0L43.021 147.62c-.83-.478-.83-1.25 0-1.728l34.462-19.883a3.303 3.303 0 0 1 2.995 0l34.422 19.883c.823.478.823 1.25 0 1.728Z"/>
    <path fill="#fff" d="m114.9 147.62-34.468 19.884a3.303 3.303 0 0 1-2.99 0L43.021 147.62c-.83-.478-.83-1.25 0-1.728l34.462-19.883a3.303 3.303 0 0 1 2.995 0l34.422 19.883c.823.478.823 1.25 0 1.728Z" opacity=".85"/>
    <path fill="#455A64" d="M111.714 162.965v-2.702l-32.757 18.916v2.701l32.757-18.915Z"/>
    <path fill="#37474F" d="M43.863 158.916v2.701l35.096 20.264v-2.702l-35.096-20.263Z"/>
    <path fill="#40FFDF" d="m89.677 166.87-.576-.328a.762.762 0 0 0-.76.08 2.393 2.393 0 0 0-1.083 1.878.759.759 0 0 0 .311.697l.53.305.098-.155c.108-.027.213-.068.311-.121a2.391 2.391 0 0 0 1.083-1.878 1.31 1.31 0 0 0-.035-.277l.121-.201Z"/>
    <path fill="#000" d="m89.677 166.87-.576-.328a.762.762 0 0 0-.76.08 2.393 2.393 0 0 0-1.083 1.878.759.759 0 0 0 .311.697l.53.305.098-.155c.108-.027.213-.068.311-.121a2.391 2.391 0 0 0 1.083-1.878 1.31 1.31 0 0 0-.035-.277l.121-.201Z" opacity=".4"/>
    <path fill="#40FFDF" d="M88.888 166.933a2.384 2.384 0 0 0-1.083 1.872c0 .697.483.974 1.083.628a2.4 2.4 0 0 0 1.082-1.877c0-.692-.483-.968-1.082-.623Z"/>
    <path fill="#000" d="M88.888 166.933a2.384 2.384 0 0 0-1.083 1.872c0 .697.483.974 1.083.628a2.4 2.4 0 0 0 1.082-1.877c0-.692-.483-.968-1.082-.623Z" opacity=".2"/>
    <path fill="#40FFDF" d="m84.97 169.56-.576-.329a.75.75 0 0 0-.76.075 2.4 2.4 0 0 0-1.083 1.878.764.764 0 0 0 .317.703l.53.305.098-.161c.109-.025.214-.065.31-.121a2.393 2.393 0 0 0 1.084-1.878 1.033 1.033 0 0 0-.035-.276l.115-.196Z"/>
    <path fill="#000" d="m84.97 169.56-.576-.329a.75.75 0 0 0-.76.075 2.4 2.4 0 0 0-1.083 1.878.764.764 0 0 0 .317.703l.53.305.098-.161c.109-.025.214-.065.31-.121a2.393 2.393 0 0 0 1.084-1.878 1.033 1.033 0 0 0-.035-.276l.115-.196Z" opacity=".4"/>
    <path fill="#40FFDF" d="M84.18 169.646a2.393 2.393 0 0 0-1.082 1.878c0 .691.484.973 1.082.628a2.391 2.391 0 0 0 1.083-1.878c-.017-.714-.483-.973-1.083-.628Z"/>
    <path fill="#000" d="M84.18 169.646a2.393 2.393 0 0 0-1.082 1.878c0 .691.484.973 1.082.628a2.391 2.391 0 0 0 1.083-1.878c-.017-.714-.483-.973-1.083-.628Z" opacity=".2"/>
    <path fill="#40FFDF" d="M79.282 107.127a.154.154 0 0 0-.092-.132.527.527 0 0 0-.455 0 .168.168 0 0 0-.098.132v3.865a.16.16 0 0 0 .03.081.16.16 0 0 0 .068.052.488.488 0 0 0 .455 0 .154.154 0 0 0 .065-.053.148.148 0 0 0 .027-.08v-3.865ZM79.282 112.208a.148.148 0 0 0-.027-.08.147.147 0 0 0-.065-.053.488.488 0 0 0-.455 0 .16.16 0 0 0-.068.052.16.16 0 0 0-.03.081v1.837a.164.164 0 0 0 .031.079c.017.023.04.042.067.054a.5.5 0 0 0 .455 0 .156.156 0 0 0 .092-.133v-1.837ZM79.282 115.255a.166.166 0 0 0-.092-.133.527.527 0 0 0-.455 0 .173.173 0 0 0-.098.133v1.843a.17.17 0 0 0 .098.132.513.513 0 0 0 .455 0 .163.163 0 0 0 .092-.132v-1.843ZM79.282 118.296a.166.166 0 0 0-.092-.132.513.513 0 0 0-.455 0 .17.17 0 0 0-.098.132v1.843a.155.155 0 0 0 .098.127.488.488 0 0 0 .455 0 .155.155 0 0 0 .064-.05.152.152 0 0 0 .028-.077v-1.843ZM79.282 121.36a.155.155 0 0 0-.092-.132.488.488 0 0 0-.455 0 .168.168 0 0 0-.098.132v1.838a.157.157 0 0 0 .098.132.488.488 0 0 0 .455 0 .147.147 0 0 0 .065-.053.147.147 0 0 0 .027-.079v-1.838ZM79.282 124.413a.153.153 0 0 0-.027-.08.151.151 0 0 0-.065-.052.488.488 0 0 0-.455 0 .154.154 0 0 0-.098.132v1.838a.168.168 0 0 0 .098.132.527.527 0 0 0 .455 0 .154.154 0 0 0 .092-.132v-1.838ZM79.282 127.46a.166.166 0 0 0-.092-.132.513.513 0 0 0-.455 0 .17.17 0 0 0-.098.132v1.843a.171.171 0 0 0 .098.133.527.527 0 0 0 .455 0 .166.166 0 0 0 .092-.133v-1.843ZM79.282 130.513a.166.166 0 0 0-.092-.133.527.527 0 0 0-.455 0 .171.171 0 0 0-.098.133v1.837a.16.16 0 0 0 .03.081.16.16 0 0 0 .068.052.488.488 0 0 0 .455 0 .15.15 0 0 0 .092-.133v-1.837ZM79.282 133.566a.156.156 0 0 0-.092-.133.488.488 0 0 0-.455 0 .165.165 0 0 0-.067.054.164.164 0 0 0-.031.079v1.837a.154.154 0 0 0 .03.08c.017.024.04.042.068.053a.488.488 0 0 0 .455 0 .15.15 0 0 0 .092-.133v-1.837ZM79.282 136.618a.147.147 0 0 0-.027-.079.147.147 0 0 0-.065-.053.488.488 0 0 0-.455 0 .157.157 0 0 0-.098.132v1.838a.164.164 0 0 0 .098.132.513.513 0 0 0 .455 0 .154.154 0 0 0 .092-.132v-1.838ZM79.282 139.666a.166.166 0 0 0-.092-.133.527.527 0 0 0-.455 0 .173.173 0 0 0-.098.133v1.843a.172.172 0 0 0 .098.132.513.513 0 0 0 .455 0 .163.163 0 0 0 .092-.132v-1.843ZM79.282 142.718a.154.154 0 0 0-.092-.132.527.527 0 0 0-.455 0 .168.168 0 0 0-.098.132v1.838a.154.154 0 0 0 .098.132.488.488 0 0 0 .455 0 .151.151 0 0 0 .065-.052.153.153 0 0 0 .027-.08v-1.838ZM79.282 145.771a.155.155 0 0 0-.092-.132.488.488 0 0 0-.455 0 .164.164 0 0 0-.098.132v1.838a.157.157 0 0 0 .098.132.488.488 0 0 0 .455 0 .147.147 0 0 0 .065-.053.147.147 0 0 0 .027-.079v-1.838Z"/>
    <path fill="#455A64" d="M81.018 102.98a1.017 1.017 0 0 0-.605-.812 3.188 3.188 0 0 0-2.88 0 1.016 1.016 0 0 0-.576.835v5.403a1.01 1.01 0 0 0 .576.841 3.214 3.214 0 0 0 2.88 0 1.016 1.016 0 0 0 .605-.841V102.98Z"/>
    <path fill="#37474F" d="M82.27 97.56a1.63 1.63 0 0 0-.973-1.348 5.15 5.15 0 0 0-4.677 0 1.637 1.637 0 0 0-.968 1.348v5.311a1.597 1.597 0 0 0 .957 1.445 5.178 5.178 0 0 0 4.677 0 1.575 1.575 0 0 0 .956-1.445V97.56h.029Z"/>
    <path fill="#40FFDF" d="M91.008 100.325a.171.171 0 0 0-.097-.133.527.527 0 0 0-.456 0 .166.166 0 0 0-.092.133v3.865c.001.028.01.056.027.079a.147.147 0 0 0 .065.053.488.488 0 0 0 .456 0 .153.153 0 0 0 .097-.132v-3.865ZM91.008 105.405a.154.154 0 0 0-.097-.132.488.488 0 0 0-.456 0 .151.151 0 0 0-.065.052.154.154 0 0 0-.027.08v1.838c.001.028.01.056.027.079a.147.147 0 0 0 .065.053.488.488 0 0 0 .456 0 .157.157 0 0 0 .098-.132v-1.838ZM91.008 108.458a.154.154 0 0 0-.03-.08.155.155 0 0 0-.067-.053.5.5 0 0 0-.456 0 .151.151 0 0 0-.092.133v1.837a.156.156 0 0 0 .092.133.527.527 0 0 0 .456 0 .164.164 0 0 0 .066-.054.164.164 0 0 0 .031-.079v-1.837ZM91.008 111.505a.17.17 0 0 0-.098-.132.513.513 0 0 0-.455 0 .163.163 0 0 0-.092.132v1.843a.166.166 0 0 0 .092.133.527.527 0 0 0 .456 0 .171.171 0 0 0 .098-.133v-1.843ZM91.008 114.558a.164.164 0 0 0-.031-.079.164.164 0 0 0-.067-.054.527.527 0 0 0-.455 0 .156.156 0 0 0-.092.133v1.837a.151.151 0 0 0 .092.133.5.5 0 0 0 .456 0 .155.155 0 0 0 .067-.053.154.154 0 0 0 .03-.08v-1.837ZM91.008 117.61a.157.157 0 0 0-.097-.132.488.488 0 0 0-.456 0 .147.147 0 0 0-.065.053.148.148 0 0 0-.027.079v1.838a.156.156 0 0 0 .092.132.488.488 0 0 0 .456 0 .164.164 0 0 0 .098-.132v-1.838ZM91.008 120.658a.154.154 0 0 0-.097-.127.488.488 0 0 0-.456 0 .147.147 0 0 0-.092.127v1.843a.156.156 0 0 0 .092.132.513.513 0 0 0 .456 0 .164.164 0 0 0 .098-.132v-1.843ZM91.008 123.71a.172.172 0 0 0-.097-.132.527.527 0 0 0-.456 0 .163.163 0 0 0-.092.132v1.844a.17.17 0 0 0 .03.078.172.172 0 0 0 .062.054.527.527 0 0 0 .456 0 .173.173 0 0 0 .097-.132v-1.844ZM91.008 126.763a.164.164 0 0 0-.097-.132.513.513 0 0 0-.456 0 .154.154 0 0 0-.092.132v1.837a.148.148 0 0 0 .092.133.488.488 0 0 0 .456 0 .157.157 0 0 0 .098-.133v-1.837ZM91.008 129.816a.154.154 0 0 0-.097-.132.489.489 0 0 0-.456 0 .151.151 0 0 0-.065.052.151.151 0 0 0-.027.08v1.837a.16.16 0 0 0 .028.08.162.162 0 0 0 .064.053.488.488 0 0 0 .456 0 .17.17 0 0 0 .066-.053.172.172 0 0 0 .031-.08v-1.837ZM91.008 132.863a.154.154 0 0 0-.097-.127.488.488 0 0 0-.456 0 .15.15 0 0 0-.092.127v1.843a.166.166 0 0 0 .092.133.527.527 0 0 0 .456 0 .171.171 0 0 0 .098-.133v-1.843ZM91.008 135.916a.171.171 0 0 0-.097-.133.527.527 0 0 0-.456 0 .166.166 0 0 0-.092.133v1.843a.166.166 0 0 0 .092.133.527.527 0 0 0 .456 0 .171.171 0 0 0 .098-.133v-1.843ZM91.008 138.969a.172.172 0 0 0-.031-.08.17.17 0 0 0-.067-.053.488.488 0 0 0-.455 0 .162.162 0 0 0-.064.053.16.16 0 0 0-.028.08v1.837a.151.151 0 0 0 .092.133.5.5 0 0 0 .456 0 .155.155 0 0 0 .067-.053.154.154 0 0 0 .03-.08v-1.837Z"/>
    <path fill="#455A64" d="M92.737 96.178a1.025 1.025 0 0 0-.576-.836 3.22 3.22 0 0 0-2.88 0 1.02 1.02 0 0 0-.605.836v5.414a1.022 1.022 0 0 0 .605.835 3.214 3.214 0 0 0 2.88 0 1.026 1.026 0 0 0 .576-.835v-5.414Z"/>
    <path fill="#37474F" d="M93.966 90.775a1.647 1.647 0 0 0-.968-1.348 5.184 5.184 0 0 0-4.683 0 1.648 1.648 0 0 0-.967 1.348v5.31a1.572 1.572 0 0 0 .95 1.446 5.183 5.183 0 0 0 4.683 0 1.572 1.572 0 0 0 .95-1.446v-5.31h.035Z"/>
    <path fill="#40FFDF" d="M67.583 113.78a.153.153 0 0 0-.03-.08.146.146 0 0 0-.068-.052.488.488 0 0 0-.455 0 .152.152 0 0 0-.066.052.154.154 0 0 0-.026.08v3.865a.166.166 0 0 0 .092.133.527.527 0 0 0 .455 0 .171.171 0 0 0 .098-.133v-3.865ZM66.938 120.692a.151.151 0 0 0 .092.133.5.5 0 0 0 .455 0 .155.155 0 0 0 .068-.053.153.153 0 0 0 .03-.08v-1.82a.172.172 0 0 0-.098-.133.526.526 0 0 0-.455 0 .155.155 0 0 0-.093.133M67.583 121.908a.172.172 0 0 0-.032-.08.17.17 0 0 0-.066-.053.488.488 0 0 0-.455 0 .16.16 0 0 0-.065.053.159.159 0 0 0-.028.08v1.837c.002.029.01.056.027.08.017.023.04.041.066.052a.488.488 0 0 0 .455 0 .146.146 0 0 0 .068-.052.153.153 0 0 0 .03-.08v-1.837ZM67.583 124.96a.153.153 0 0 0-.098-.132.488.488 0 0 0-.455 0 .147.147 0 0 0-.066.053.148.148 0 0 0-.026.079v1.838a.153.153 0 0 0 .092.132.527.527 0 0 0 .455 0 .168.168 0 0 0 .098-.132M67.583 128.007a.172.172 0 0 0-.098-.132.527.527 0 0 0-.455 0 .163.163 0 0 0-.093.132v1.843a.166.166 0 0 0 .093.133.527.527 0 0 0 .455 0 .173.173 0 0 0 .098-.133v-1.843ZM67.583 131.06a.168.168 0 0 0-.098-.132.513.513 0 0 0-.455 0 .153.153 0 0 0-.093.132v1.838c.002.028.01.056.027.079.017.024.04.042.066.053a.487.487 0 0 0 .455 0 .156.156 0 0 0 .098-.132M67.583 134.113a.172.172 0 0 0-.098-.133.5.5 0 0 0-.455 0 .155.155 0 0 0-.093.133v1.837a.155.155 0 0 0 .092.133.487.487 0 0 0 .456 0 .164.164 0 0 0 .066-.054.164.164 0 0 0 .032-.079v-1.837ZM67.583 137.166a.16.16 0 0 0-.03-.081.16.16 0 0 0-.068-.052.488.488 0 0 0-.455 0 .148.148 0 0 0-.092.133v1.866a.155.155 0 0 0 .092.132.513.513 0 0 0 .455 0 .164.164 0 0 0 .098-.132M67.583 140.213a.171.171 0 0 0-.098-.133.527.527 0 0 0-.455 0 .166.166 0 0 0-.093.133v1.843a.166.166 0 0 0 .093.132.513.513 0 0 0 .455 0 .17.17 0 0 0 .098-.132v-1.843ZM67.583 143.265a.172.172 0 0 0-.032-.079.17.17 0 0 0-.066-.053.527.527 0 0 0-.455 0 .16.16 0 0 0-.065.053.158.158 0 0 0-.028.079v1.838c.002.029.01.056.027.08.017.023.04.041.066.052a.487.487 0 0 0 .455 0 .146.146 0 0 0 .068-.052.153.153 0 0 0 .03-.08M67.583 146.318a.156.156 0 0 0-.098-.132.488.488 0 0 0-.455 0 .147.147 0 0 0-.066.053.148.148 0 0 0-.026.079v1.838a.155.155 0 0 0 .092.132.487.487 0 0 0 .455 0 .164.164 0 0 0 .098-.132v-1.838ZM67.583 149.4a.153.153 0 0 0-.03-.08.155.155 0 0 0-.068-.053.5.5 0 0 0-.455 0 .151.151 0 0 0-.092.133v1.837a.159.159 0 0 0 .027.08.16.16 0 0 0 .065.053.527.527 0 0 0 .455 0 .17.17 0 0 0 .066-.053.172.172 0 0 0 .032-.08M67.583 152.418a.17.17 0 0 0-.098-.132.513.513 0 0 0-.455 0 .163.163 0 0 0-.093.132v1.843a.166.166 0 0 0 .093.133.527.527 0 0 0 .455 0 .173.173 0 0 0 .098-.133v-1.843Z"/>
    <path fill="#455A64" d="M69.313 109.656a1.025 1.025 0 0 0-.576-.841 3.215 3.215 0 0 0-2.88 0 1.021 1.021 0 0 0-.576.841v5.403a1.017 1.017 0 0 0 .576.835 3.188 3.188 0 0 0 2.88 0 1.015 1.015 0 0 0 .576-.835v-5.403Z"/>
    <path fill="#37474F" d="M70.567 104.23a1.65 1.65 0 0 0-.967-1.353 5.177 5.177 0 0 0-4.683 0 1.642 1.642 0 0 0-.968 1.353v5.311a1.574 1.574 0 0 0 .95 1.44 5.19 5.19 0 0 0 4.683 0 1.57 1.57 0 0 0 .95-1.44v-5.311h.035Z"/>
    <path fill="#40FFDF" d="m124.061 53.957-.265-.15-.162-.092-5.788-3.387v-.403c0-7.125-2.397-12.096-6.175-14.21l-11.134-6.423c-3.065-1.762-7.062-1.6-11.434.922a26.216 26.216 0 0 0-5.512 4.378 11.486 11.486 0 0 0-2.413-1.913l-10.772-6.192c-3.945-2.615-9.216-2.563-15.033.795-12.171 7.056-22.096 25.96-22.096 42.232a34.387 34.387 0 0 0 .41 5.386l-1.521.881C24.4 80.28 18.106 92.29 18.106 102.64c0 5.714 1.923 9.792 4.947 11.52l11.278 6.538c2.448 1.4 5.616 1.29 9.084-.709l20.442-11.802 54.461-31.444c4.66-2.69 8.438-9.907 8.438-16.128 0-3.243-1.042-5.558-2.695-6.658Z" opacity=".8"/>
    <path fill="#fff" d="m124.061 53.957-.265-.15-.162-.092-5.788-3.387v-.403c0-7.125-2.397-12.096-6.175-14.21l-11.134-6.423c-3.065-1.762-7.062-1.6-11.434.922a26.216 26.216 0 0 0-5.512 4.378 11.486 11.486 0 0 0-2.413-1.913l-10.772-6.192c-3.945-2.615-9.216-2.563-15.033.795-12.171 7.056-22.096 25.96-22.096 42.232a34.387 34.387 0 0 0 .41 5.386l-1.521.881C24.4 80.28 18.106 92.29 18.106 102.64c0 5.714 1.923 9.792 4.947 11.52l11.278 6.538c2.448 1.4 5.616 1.29 9.084-.709l20.442-11.802 54.461-31.444c4.66-2.69 8.438-9.907 8.438-16.128 0-3.243-1.042-5.558-2.695-6.658Z" opacity=".2"/>
    <path fill="#fff" d="M111.687 35.732c-3.047-1.7-7.004-1.503-11.319.99a26.566 26.566 0 0 0-5.76 4.65l-10.258-5.94-1.002-.575.247-.254a26.373 26.373 0 0 1 5.513-4.372c4.371-2.523 8.369-2.684 11.433-.921l11.146 6.422Z" opacity=".35"/>
    <path fill="#fff" d="M83.595 34.597c.265.265.513.542.755.836l-1.002-.576.247-.26Z" opacity=".8"/>
    <path fill="#fff" d="M80.913 32.53c-3.847-2.143-8.836-1.896-14.285 1.25-5.449 3.145-10.598 8.835-14.474 15.551L40.898 42.84c3.877-6.728 8.934-12.367 14.47-15.552 5.811-3.352 11.093-3.404 15.039-.79l10.506 6.032ZM44.932 81.397l-1.527.876c-5.259 3.035-9.85 9.544-12.251 16.646L19.91 92.422c1.918-5.662 5.224-10.944 9.153-14.4l4.608-3.133 11.26 6.508Z" opacity=".35"/>
    <path fill="#40FFDF" d="m118.319 54.25-.806.467c.22-1.58.334-3.174.34-4.77 0-12.879-7.834-18.8-17.494-13.247-4.475 2.586-8.565 7.194-11.658 12.672-.438-15.506-10.149-22.499-22.072-15.61-12.206 7.045-22.101 25.92-22.101 42.215a34.4 34.4 0 0 0 .409 5.392l-1.521.875c-7.764 4.516-14.037 16.537-14.037 26.894 0 10.368 6.296 15.333 14.06 10.851l20.442-11.802 54.461-31.444c4.66-2.69 8.439-9.907 8.439-16.128-.024-6.197-3.802-9.054-8.462-6.364Z"/>
    <path fill="#fff" d="m118.319 54.25-.806.467c.22-1.58.334-3.174.34-4.77 0-12.879-7.834-18.8-17.494-13.247-4.475 2.586-8.565 7.194-11.658 12.672-.438-15.506-10.149-22.499-22.072-15.61-12.206 7.045-22.101 25.92-22.101 42.215a34.4 34.4 0 0 0 .409 5.392l-1.521.875c-7.764 4.516-14.037 16.537-14.037 26.894 0 10.368 6.296 15.333 14.06 10.851l20.442-11.802 54.461-31.444c4.66-2.69 8.439-9.907 8.439-16.128-.024-6.197-3.802-9.054-8.462-6.364Z" opacity=".7"/>
    <path fill="#fff" d="M37.937 118.763c-3.456 0-5.703-3.779-5.703-9.625 0-9.262 5.76-20.42 12.62-24.37l1.521-.876a2.88 2.88 0 0 0 1.434-2.944 31.573 31.573 0 0 1-.374-4.942c0-15.327 9.268-33.149 20.655-39.744 2.604-1.503 5.075-2.27 7.333-2.27 6.163 0 10.16 5.928 10.425 15.466a2.88 2.88 0 0 0 5.386 1.337c2.967-5.248 6.728-9.366 10.593-11.601a11.216 11.216 0 0 1 5.506-1.728c4.654 0 7.667 4.884 7.667 12.442a32.22 32.22 0 0 1-.311 4.377 2.876 2.876 0 0 0 1.249 2.776 2.88 2.88 0 0 0 3.042.104l.806-.466a4.03 4.03 0 0 1 1.913-.628c1.52 0 2.206 2.263 2.206 4.51 0 5.184-3.209 11.433-6.999 13.622l-74.88 43.246a8.242 8.242 0 0 1-4.032 1.268l-.057.046Z" opacity=".7"/>
</svg>
