<svg xmlns="http://www.w3.org/2000/svg" width="288" height="289" viewBox="0 0 288 289" fill="none">
    <path fill="#F0F0F0" d="M141.114 277.007c75.26 0 136.27-35.224 136.27-78.676 0-43.451-61.01-78.676-136.27-78.676-75.26 0-136.27 35.225-136.27 78.676 0 43.452 61.01 78.676 136.27 78.676Z"/>
    <path fill="#E0E0E0" d="M115.552 265.567a8.433 8.433 0 0 1-4.164-1.031l-66.407-38.344a4.035 4.035 0 0 1-2.419-3.695 4.032 4.032 0 0 1 2.419-3.695l116.928-67.513a8.94 8.94 0 0 1 8.335 0l66.407 38.344c.718.314 1.33.831 1.76 1.487a4.039 4.039 0 0 1 0 4.416 4.028 4.028 0 0 1-1.76 1.487l-116.928 67.513a8.481 8.481 0 0 1-4.171 1.031Z"/>
    <path fill="#40FFDF" d="m233.937 185.245-6.48-3.456s-.495-9.908.277-17.758c1.088-11.037 9.291-23.847 17.787-20.736 8.496 3.11-3.894 14.353-6.653 23.708-2.759 9.354-4.931 18.242-4.931 18.242Z"/>
    <path fill="#000" d="m233.937 185.245-6.48-3.456s-.495-9.908.277-17.758c1.088-11.037 9.291-23.847 17.787-20.736 8.496 3.11-3.894 14.353-6.653 23.708-2.759 9.354-4.931 18.242-4.931 18.242Z" opacity=".1"/>
    <path fill="#fff" d="M230.768 184.093a.29.29 0 0 0 .277-.294c-.836-24.515 11.37-36.864 11.491-36.968a.262.262 0 0 0 .062-.092.277.277 0 0 0-.062-.311.282.282 0 0 0-.315-.063.288.288 0 0 0-.094.063c-.121.127-12.505 12.632-11.664 37.394a.293.293 0 0 0 .096.199.29.29 0 0 0 .098.056.277.277 0 0 0 .111.016Z"/>
    <path fill="#40FFDF" d="m237.26 187.203-3.37-1.947a37.637 37.637 0 0 1 2.097-16.352c3.122-8.473 11.186-13.093 14.895-11.831 4.534 1.543 4.562 5.881 2.915 8.732-1.947 3.364-14.089 11.871-16.537 21.398Z"/>
    <path fill="#fff" d="M235.488 186.46a.287.287 0 0 0 .288-.288c-.069-15.5 14.486-25.972 14.63-26.075a.29.29 0 0 0 .06-.392.287.287 0 0 0-.388-.081c-.15.11-14.976 10.76-14.878 26.554a.291.291 0 0 0 .084.202.274.274 0 0 0 .094.06.275.275 0 0 0 .11.02Z"/>
    <path fill="#40FFDF" d="M39.746 191.967v-13.502s-.691-7.62-6.025-13.397c-5.334-5.778-10.103-3.814-11.664-1.072s1.981 7.949 4.245 10.881c2.724 3.525 13.444 19.901 13.444 27.233v-10.143Z"/>
    <path fill="#000" d="M39.746 191.967v-13.502s-.691-7.62-6.025-13.397c-5.334-5.778-10.103-3.814-11.664-1.072s1.981 7.949 4.245 10.881c2.724 3.525 13.444 19.901 13.444 27.233v-10.143Z" opacity=".2"/>
    <path fill="#fff" d="M39.744 189.836a.336.336 0 0 1-.328-.283c-2.431-14.722-13.64-24.825-13.75-24.923a.331.331 0 0 1 .438-.495c.115.103 11.52 10.368 13.968 25.315a.334.334 0 0 1-.276.38l-.052.006Z"/>
    <path fill="#40FFDF" d="M39.813 193.752s.444-1.342-1.526-1.682c-1.97-.34-2.73-1.975-2.915-4.729-.184-2.753-1.014-4.723-3.49-5.126-2.477-.403-4.459.835-6.066-.403-1.607-1.239-5.76-4.228-9.216-2.88-3.456 1.348-2.304 4.32-.53 6.232 1.774 1.912 2.304 2.563.945 5.674-1.36 3.11-.374 6.025 2.805 6.75 3.18.726 4.965.357 5.011 3.848.046 3.491.53 5.046 2.304 6.417 1.774 1.371 7.23.748 9.51 1.278a4.964 4.964 0 0 1 3.197 2.564l-.029-17.943Z"/>
    <path fill="#fff" d="M39.812 208.118a.274.274 0 0 1-.26-.184c-5.788-17.2-18.898-24.146-19.007-24.192a.276.276 0 0 1-.115-.369.275.275 0 0 1 .368-.115c.133.069 13.433 7.108 19.296 24.52a.274.274 0 0 1-.014.209.268.268 0 0 1-.158.137l-.11-.006Z"/>
    <path fill="#fff" d="M31.507 193.125h-.063c-3.779-.864-9.832-.398-9.89-.392a.28.28 0 0 1-.2-.062.278.278 0 0 1-.1-.186.283.283 0 0 1 .254-.299c.253 0 6.198-.478 10.057.409a.27.27 0 0 1 .214.294.27.27 0 0 1-.271.241v-.005ZM34.59 201.39c-1.727 0-3.56-.109-3.674-.115a.282.282 0 0 1-.26-.294.276.276 0 0 1 .094-.189.278.278 0 0 1 .2-.064c.04 0 4.263.259 5.91 0a.27.27 0 0 1 .226.031.277.277 0 0 1-.14.51c-.781.095-1.568.135-2.355.121ZM29.732 191.109a.281.281 0 0 1-.26-.288c.132-1.968.541-3.907 1.216-5.76a.277.277 0 0 1 .357-.156.278.278 0 0 1 .156.351 20.615 20.615 0 0 0-1.152 5.593.27.27 0 0 1-.317.26Z"/>
    <path fill="#40FFDF" d="M43.043 217.448a6.532 6.532 0 0 0 3.053 5.063l66.407 38.35a6.723 6.723 0 0 0 6.1 0l116.928-67.513a5.762 5.762 0 0 0 2.207-8.014 5.762 5.762 0 0 0-2.207-2.117l-66.413-38.35a6.723 6.723 0 0 0-6.1 0L46.078 212.38a6.541 6.541 0 0 0-3.035 5.068Z"/>
    <path fill="#000" d="M238.588 188.28a6.537 6.537 0 0 1-3.047 5.069l-116.928 67.513a6.275 6.275 0 0 1-3.047.731v-6.607a6.264 6.264 0 0 0 3.047-.731l116.928-67.513c1.475-.853 1.659-2.166.576-3.134a6.53 6.53 0 0 1 2.471 4.672Z" opacity=".5"/>
    <path fill="#000" d="m46.077 215.905 66.424 38.327a6.735 6.735 0 0 0 6.1 0l116.928-67.519c1.682-.968 1.682-2.546 0-3.519l-66.413-38.35a6.736 6.736 0 0 0-6.099 0L46.077 212.38c-1.67.956-1.67 2.551 0 3.525Z" opacity=".3"/>
    <path fill="#000" d="M115.556 254.986v6.601a6.195 6.195 0 0 1-3.053-.726l-66.424-38.35a5.713 5.713 0 0 1-.312-9.93c-1.365.979-1.255 2.413.312 3.324l66.424 38.327a6.264 6.264 0 0 0 3.053.754Z" opacity=".7"/>
    <path fill="#40FFDF" d="M40.18 212.489c-1.578-.91-1.492-2.448-1.492-4.395v-91.728a6.746 6.746 0 0 1 3.047-5.282l116.928-67.513a6.527 6.527 0 0 1 5.91-.11c1.584.911 1.498 2.455 1.498 4.396v91.751a6.735 6.735 0 0 1-3.053 5.282l-116.94 67.49a6.527 6.527 0 0 1-5.898.109Z"/>
    <path fill="#000" d="M166.083 47.857c0-1.941-1.365-2.73-3.053-1.763L46.08 113.613a6.191 6.191 0 0 0-2.155 2.304l-4.355-2.534a6.3 6.3 0 0 1 2.16-2.304l116.928-67.508a6.527 6.527 0 0 1 5.91-.11c1.596.911 1.515 2.455 1.515 4.396Z" opacity=".3"/>
    <path fill="#000" d="M43.043 118.872v91.751c0 1.941 1.365 2.73 3.047 1.728l116.916-67.484a6.727 6.727 0 0 0 3.053-5.282V47.857c0-1.941-1.365-2.73-3.053-1.728L46.078 113.613a6.743 6.743 0 0 0-3.035 5.259Z" opacity=".5"/>
    <path fill="#000" d="M45.733 212.564a6.55 6.55 0 0 1-5.553-.075c-1.578-.91-1.492-2.448-1.492-4.395v-91.728a6.187 6.187 0 0 1 .893-3.001l4.355 2.517a6.302 6.302 0 0 0-.893 2.99v91.751c0 1.803 1.175 2.615 2.69 1.941Z" opacity=".7"/>
    <path fill="#FAFAFA" d="m47.732 117.144 112.746-65.088c1.008-.576 1.826-.11 1.826 1.054v80.064a4.034 4.034 0 0 1-1.826 3.168L47.732 201.43c-1.008.576-1.826.11-1.826-1.06v-80.064a4.03 4.03 0 0 1 1.826-3.162Z"/>
    <path fill="#455A64" d="m71.33 137.269 66.199-38.217c1.964-1.152 3.554-.329 3.554 1.797 0 2.125-1.59 4.775-3.554 5.927l-66.2 38.189c-1.958 1.152-3.548.328-3.548-1.797 0-2.126 1.59-4.764 3.548-5.899Z"/>
    <path fill="#40FFDF" d="M139.966 100.849c0 1.728-1.376 4.032-3.006 4.947l-13.519 7.811-52.681 30.407a2.21 2.21 0 0 1-1.118.369c-.524 0-.794-.409-.794-1.216 0-1.728 1.376-4.032 3.006-4.953l51.587-29.78 14.613-8.438a2.338 2.338 0 0 1 1.123-.369c.547 0 .789.415.789 1.222Z"/>
    <path fill="#40FFDF" d="M139.966 100.849c0 1.728-1.376 4.032-3.006 4.947l-13.519 7.811-52.681 30.407a2.21 2.21 0 0 1-1.118.369c-.524 0-.794-.409-.794-1.216 0-1.728 1.376-4.032 3.006-4.953l51.587-29.78 14.613-8.438a2.338 2.338 0 0 1 1.123-.369c.547 0 .789.415.789 1.222Z"/>
    <path fill="#263238" d="M139.967 100.849c0 1.728-1.377 4.032-3.007 4.948l-13.519 7.81v-5.184l14.614-8.438a2.335 2.335 0 0 1 1.123-.369c.547.012.789.426.789 1.233Z"/>
    <path fill="#fff" d="m87.015 129.476-15.137 8.738c-1.63.939-3.007 3.208-3.007 4.954 0 .806.27 1.215.795 1.215a2.21 2.21 0 0 0 1.117-.369l16.232-9.365v-5.173Z" opacity=".6"/>
    <path fill="#fff" d="m87.02 134.643 18.345-10.587v-5.173l-18.346 10.593v5.167Z" opacity=".4"/>
    <path fill="#455A64" d="M91.964 146.813a.12.12 0 0 1 .075-.027.12.12 0 0 1 .075.027.26.26 0 0 1 .063.191v.84a.615.615 0 0 1-.063.265.39.39 0 0 1-.15.179l-3.38 1.953a.106.106 0 0 1-.073.029.106.106 0 0 1-.072-.029.258.258 0 0 1-.063-.19v-7.679a.637.637 0 0 1 .063-.264.388.388 0 0 1 .144-.179l.628-.363a.112.112 0 0 1 .072-.027c.026 0 .052.01.072.027a.258.258 0 0 1 .063.19v6.515l2.546-1.458ZM94.996 140.247c.23-.151.497-.235.772-.242a.906.906 0 0 1 .576.213c.181.167.32.374.403.605.106.297.164.608.173.922v1.198c-.02.389-.08.775-.178 1.152a5.445 5.445 0 0 1-.398 1.06c-.155.32-.348.619-.576.893-.22.258-.48.478-.772.65a1.5 1.5 0 0 1-.766.237.898.898 0 0 1-.576-.208 1.36 1.36 0 0 1-.397-.576 3.006 3.006 0 0 1-.179-.916v-1.203a5.413 5.413 0 0 1 .576-2.218c.154-.322.347-.624.576-.899.214-.266.473-.492.766-.668Zm.94 2.137a1.73 1.73 0 0 0-.116-.576.53.53 0 0 0-.219-.259.444.444 0 0 0-.288 0 1.143 1.143 0 0 0-.317.133c-.113.065-.22.142-.317.23-.11.107-.205.23-.282.363a2.289 2.289 0 0 0-.219.512 2.89 2.89 0 0 0-.115.68v1.071c.005.188.044.374.115.548a.53.53 0 0 0 .22.259.429.429 0 0 0 .281.029c.112-.025.22-.068.317-.127a1.98 1.98 0 0 0 .317-.236 1.75 1.75 0 0 0 .288-.363c.094-.161.168-.333.219-.513.063-.221.102-.449.115-.679v-.813c.006-.121 0-.201 0-.259ZM98.211 140.034c.03-.211.078-.419.144-.622a4.131 4.131 0 0 1 .818-1.417c.197-.229.43-.423.691-.576.215-.135.457-.219.709-.248a.743.743 0 0 1 .547.156c.172.153.294.353.351.576.089.326.129.664.121 1.002v3.497a.582.582 0 0 1-.057.259.392.392 0 0 1-.15.184l-.576.334a.101.101 0 0 1-.072.029.101.101 0 0 1-.072-.029.255.255 0 0 1-.064-.19v-.397a3.569 3.569 0 0 1-.466.858 2.462 2.462 0 0 1-.778.697c-.174.11-.37.181-.576.207a.622.622 0 0 1-.437-.132.914.914 0 0 1-.277-.432 2.197 2.197 0 0 1-.098-.691 3.031 3.031 0 0 1 .38-1.498 4.222 4.222 0 0 1 1.014-1.215l1.256-1.06c0-.329-.069-.513-.208-.576a.6.6 0 0 0-.518.098c-.115.064-.217.15-.3.253a1.836 1.836 0 0 0-.207.351c-.037.072-.081.14-.132.202a.447.447 0 0 1-.127.109l-.714.415a.12.12 0 0 1-.133 0 .18.18 0 0 1-.069-.144Zm1.29 2.609c.175-.103.332-.234.467-.385a2.529 2.529 0 0 0 .553-1.049c.044-.173.068-.351.069-.53v-.121l-1.048.893c-.18.141-.334.313-.455.507a1.032 1.032 0 0 0-.144.518c0 .167.057.254.167.271a.64.64 0 0 0 .391-.104ZM104.554 134.729c.132-.081.276-.139.427-.172a.817.817 0 0 1 .334 0 .596.596 0 0 1 .242.092.812.812 0 0 1 .161.138v-2.534a.618.618 0 0 1 .063-.26.394.394 0 0 1 .15-.178l.576-.34a.114.114 0 0 1 .15 0c.022.026.04.056.05.089a.247.247 0 0 1 .013.101v7.799a.61.61 0 0 1-.063.259.395.395 0 0 1-.15.185l-.576.339a.12.12 0 0 1-.15 0 .251.251 0 0 1-.063-.19v-.276a3.125 3.125 0 0 1-.737 1.071 2.17 2.17 0 0 1-.427.317 1.054 1.054 0 0 1-.697.173.857.857 0 0 1-.535-.311 1.767 1.767 0 0 1-.346-.691 3.824 3.824 0 0 1-.144-.974v-.829c.011-.388.059-.774.144-1.152.078-.376.194-.743.346-1.095.137-.329.317-.639.535-.921.187-.259.424-.476.697-.64Zm-.72 3.295a6.644 6.644 0 0 0 0 .662c.035.502.133.813.311.934a.579.579 0 0 0 .64-.029c.278-.17.501-.419.639-.714.18-.359.28-.752.294-1.152v-.905a1.074 1.074 0 0 0-.294-.8.522.522 0 0 0-.639 0 1.684 1.684 0 0 0-.64.708 3.134 3.134 0 0 0-.311 1.296ZM109.013 130.017a.106.106 0 0 1 .072-.029c.027 0 .053.011.072.029a.255.255 0 0 1 .063.19v.928a.6.6 0 0 1-.063.259.39.39 0 0 1-.144.179l-.668.385a.104.104 0 0 1-.072.03.102.102 0 0 1-.072-.03.25.25 0 0 1-.064-.19v-.927a.615.615 0 0 1 .064-.259.353.353 0 0 1 .144-.179l.668-.386Zm.167 8.024a.61.61 0 0 1-.063.259.405.405 0 0 1-.144.185l-.576.334a.128.128 0 0 1-.075.026.126.126 0 0 1-.075-.026.261.261 0 0 1-.058-.19v-5.542a.61.61 0 0 1 .058-.265.432.432 0 0 1 .15-.178l.576-.34a.101.101 0 0 1 .072-.029c.027 0 .052.01.072.029.022.026.04.056.05.089a.247.247 0 0 1 .013.101v5.547ZM114.397 135.029a.582.582 0 0 1-.057.259.394.394 0 0 1-.15.178l-.576.34a.101.101 0 0 1-.072.029.101.101 0 0 1-.072-.029.255.255 0 0 1-.063-.19v-3.018a1.81 1.81 0 0 0-.214-1.02c-.149-.201-.368-.213-.668-.04-.298.188-.524.47-.645.801a3.3 3.3 0 0 0-.236 1.273v3.024a.583.583 0 0 1-.058.259.398.398 0 0 1-.149.178l-.576.34a.105.105 0 0 1-.144 0 .253.253 0 0 1-.064-.19v-5.564a.611.611 0 0 1 .064-.259.353.353 0 0 1 .144-.179l.576-.34a.11.11 0 0 1 .074-.027c.028 0 .055.009.075.027a.261.261 0 0 1 .058.19v.271c.133-.275.291-.537.472-.783.174-.232.391-.428.64-.576.231-.16.508-.241.789-.231a.745.745 0 0 1 .512.311c.143.222.235.471.271.732.058.335.085.674.081 1.014l-.012 3.22ZM117.566 134.706c.124-.071.237-.16.334-.265.118-.129.221-.272.306-.426.101-.181.178-.375.23-.576.059-.212.088-.431.086-.651v-.438a3.036 3.036 0 0 1-.161.323 3.978 3.978 0 0 1-.242.374 3.16 3.16 0 0 1-.334.369 2.164 2.164 0 0 1-.426.323 1.084 1.084 0 0 1-.697.167.866.866 0 0 1-.536-.311 1.783 1.783 0 0 1-.345-.692 3.77 3.77 0 0 1-.144-.967v-.83c.01-.387.059-.773.144-1.152.076-.376.192-.743.345-1.094.137-.331.317-.643.536-.927.186-.257.423-.473.697-.634.132-.08.276-.14.426-.179a.986.986 0 0 1 .334 0 .638.638 0 0 1 .242.093.608.608 0 0 1 .161.138v-.277a.615.615 0 0 1 .064-.259.363.363 0 0 1 .15-.178l.576-.34a.114.114 0 0 1 .149 0 .26.26 0 0 1 .064.19v5.633c.02.853-.159 1.7-.524 2.471a3.65 3.65 0 0 1-1.44 1.561 1.811 1.811 0 0 1-.732.259 1.056 1.056 0 0 1-.576-.086.995.995 0 0 1-.392-.38 1.258 1.258 0 0 1-.161-.605.486.486 0 0 1 .058-.259.373.373 0 0 1 .149-.179l.525-.305a.139.139 0 0 1 .092-.033c.033 0 .066.011.092.033l.132.132a.38.38 0 0 0 .277.173.909.909 0 0 0 .541-.196Zm-.927-4.078a4.381 4.381 0 0 0 0 .668c.035.496.132.807.311.934a.583.583 0 0 0 .639-.029c.277-.173.498-.421.64-.715.18-.358.28-.751.293-1.152v-.904a1.08 1.08 0 0 0-.293-.806.537.537 0 0 0-.64 0 1.726 1.726 0 0 0-.639.708 3.15 3.15 0 0 0-.311 1.296ZM121.816 129.24a.114.114 0 0 1 .144 0 .275.275 0 0 1 .05.088.252.252 0 0 1 .013.102v1.152a.614.614 0 0 1-.063.259.4.4 0 0 1-.144.178l-.72.415a.114.114 0 0 1-.15 0 .248.248 0 0 1-.048-.089c-.01-.033-.013-.067-.01-.101v-1.152a.58.58 0 0 1 .058-.259.449.449 0 0 1 .15-.184l.72-.409ZM124.212 127.875a.114.114 0 0 1 .15 0 .245.245 0 0 1 .063.19v1.152a.614.614 0 0 1-.063.259.375.375 0 0 1-.15.179l-.714.414a.114.114 0 0 1-.15 0 .248.248 0 0 1-.048-.089c-.01-.033-.013-.067-.01-.101v-1.152a.583.583 0 0 1 .058-.259.363.363 0 0 1 .15-.178l.714-.415ZM126.614 126.487a.114.114 0 0 1 .15 0 .26.26 0 0 1 .063.19v1.152a.657.657 0 0 1-.063.265.394.394 0 0 1-.15.178l-.714.415a.12.12 0 0 1-.15 0 .254.254 0 0 1-.047-.089c-.01-.033-.014-.067-.01-.101v-1.152a.62.62 0 0 1 .057-.265.397.397 0 0 1 .15-.179l.714-.414Z"/>
    <path fill="#000" d="m54.533 212.564 108.541-62.669a3.391 3.391 0 0 1 3.053 0l1.809.991c.841.489.841 1.278 0 1.762L59.371 215.306a3.348 3.348 0 0 1-3.047 0l-1.79-.985c-.842-.484-.842-1.273 0-1.757Z" opacity=".3"/>
    <path fill="#263238" d="m63.046 217.627 108.542-62.669a3.11 3.11 0 0 1 2.788-.155l28.252 16.312c.697.403.576 1.123-.265 1.613L93.949 235.31a3.142 3.142 0 0 1-2.794.156l-28.374-16.238c-.697-.397-.576-1.117.265-1.601Z" opacity=".3"/>
    <path fill="#263238" d="m157.103 181.281 3.398-1.964c.144-.086.156-.213.029-.288l-3.254-1.878a.576.576 0 0 0-.49 0l-3.398 1.964c-.15.087-.162.214-.029.288l3.249 1.872a.572.572 0 0 0 .495.006Zm-4.965-6.791-3.399 1.959c-.144.086-.155.213-.028.288l3.254 1.877a.577.577 0 0 0 .49 0l3.398-1.964c.144-.08.161-.207.029-.282l-3.243-1.895a.538.538 0 0 0-.501.017Zm-10.979 6.336-5.76 3.324c-.149.08-.161.213-.034.282l3.254 1.878a.55.55 0 0 0 .495 0l5.76-3.318c.144-.086.156-.213 0-.288l-3.248-1.878a.587.587 0 0 0-.467 0Zm6.014-3.456-3.399 1.959c-.144.086-.155.213-.028.288l3.248 1.877a.576.576 0 0 0 .496 0l3.398-1.964c.144-.08.155-.207.029-.282l-3.249-1.878a.545.545 0 0 0-.495-.011v.011Zm-13.335 7.684-3.398 1.964c-.144.081-.156.208-.029.282l3.255 1.878a.518.518 0 0 0 .489 0l3.399-1.958c.144-.087.161-.213.028-.288l-3.248-1.878a.576.576 0 0 0-.496 0Zm-4.965 2.88-3.398 1.964c-.144.081-.156.208-.029.282l3.249 1.878a.53.53 0 0 0 .495 0l3.398-1.964c.144-.081.156-.207.029-.282l-3.248-1.878a.549.549 0 0 0-.496-.011v.011Zm12.741 7.661 3.399-1.964c.144-.081.161-.213.029-.283l-3.249-1.9a.537.537 0 0 0-.495 0l-3.399 1.958c-.144.086-.155.213 0 .288l3.255 1.878a.578.578 0 0 0 .46.011v.012Zm-4.965 2.88 3.399-1.964c.144-.087.155-.213.028-.288l-3.248-1.895a.576.576 0 0 0-.496 0l-3.398 1.964c-.144.086-.156.213 0 .288l3.249 1.878a.585.585 0 0 0 .466-.006v.023Zm-4.965 2.88 3.398-1.964c.144-.087.156-.213 0-.288l-3.225-1.895a.577.577 0 0 0-.49 0l-3.398 1.964c-.15.086-.161.213 0 .282l3.249 1.878a.569.569 0 0 0 .466-.012v.035Zm-4.971 2.88 3.399-1.959c.144-.086.161-.213.028-.288l-3.248-1.9a.576.576 0 0 0-.496 0l-3.398 1.964c-.144.08-.156.213 0 .282l3.254 1.878a.534.534 0 0 0 .467-.029l-.006.052Zm25.419-20.039 3.398-1.959c.144-.086.162-.213.029-.288l-3.248-1.877a.576.576 0 0 0-.496 0l-3.398 1.964c-.144.08-.156.213-.029.282l3.254 1.878a.54.54 0 0 0 .49-.052v.052Zm-5.547 8.571 7.58-4.378c.144-.086.156-.213.029-.288l-7.891-4.608a.573.573 0 0 0-.495 0l-3.917 2.264c-.144.086-.161.213-.029.288l4.176 2.413c.132.069.115.202-.029.282l-3.162 1.826c-.144.087-.161.213 0 .288l3.249 1.878a.576.576 0 0 0 .489-.017v.052Zm-22.677-1.924-3.398 1.958c-.15.087-.162.213-.035.288l3.255 1.878a.572.572 0 0 0 .495 0l3.398-1.964c.144-.081.156-.208.029-.282l-3.237-1.947a.527.527 0 0 0-.507.017v.052Zm-4.971 2.88-3.398 1.958c-.144.087-.156.213-.029.288l3.254 1.878a.58.58 0 0 0 .49 0l3.398-1.964c.144-.081.162-.213.029-.282l-3.248-1.878a.54.54 0 0 0-.496-.064v.064ZM91.451 224.28a.547.547 0 0 0 .495 0l3.398-1.959c.144-.086.156-.213.029-.288l-3.249-1.878a.588.588 0 0 0-.495 0l-3.398 1.965c-.144.08-.156.213-.03.282l3.25 1.878Zm-12.246-7.673-3.399 1.959c-.15.086-.161.213-.028.288l3.248 1.877a.573.573 0 0 0 .496 0l3.398-1.964c.144-.08.155-.213 0-.282l-3.255-1.878a.538.538 0 0 0-.46-.005v.005Zm6.295 5.76a.574.574 0 0 0 .496 0l3.398-1.964c.144-.08.156-.207.029-.282l-3.254-1.878a.535.535 0 0 0-.49 0l-3.398 1.959c-.144.086-.162.213 0 .288l3.22 1.877Zm13.703 3.065 3.399-1.965c.144-.08.161-.207.029-.282l-3.249-1.878a.547.547 0 0 0-.495 0l-3.399 1.959c-.144.086-.155.213-.029.288l3.255 1.878a.575.575 0 0 0 .49 0Zm-5.46 2.88a.588.588 0 0 0 .495 0l3.399-1.965c.144-.08.155-.207.028-.282l-3.248-1.878a.546.546 0 0 0-.496 0l-3.398 1.959c-.144.086-.155.213 0 .288l3.22 1.878Zm-9.573-14.585-3.399 1.959c-.144.086-.155.213 0 .288l3.25 1.877a.574.574 0 0 0 .494 0l3.399-1.964c.144-.08.155-.207 0-.282l-3.243-1.889a.539.539 0 0 0-.501.017v-.006Zm24.837-14.342-3.398 1.964c-.15.086-.162.213-.035.288l3.254 1.872a.576.576 0 0 0 .496 0l3.398-1.964c.144-.086.156-.213.029-.288l-3.254-1.872a.54.54 0 0 0-.49.006v-.006Zm-19.872 11.474-3.398 1.964c-.144.081-.156.207 0 .282l3.254 1.878a.576.576 0 0 0 .49 0l3.398-1.964c.144-.081.161-.208.029-.282l-3.249-1.878a.536.536 0 0 0-.524.006v-.006Zm24.837-14.337-3.398 1.959c-.144.086-.156.213-.029.288l3.249 1.877a.572.572 0 0 0 .495 0l3.398-1.964c.144-.08.156-.213.029-.282l-3.249-1.878a.547.547 0 0 0-.495.006v-.006Zm-9.936 5.731-3.398 1.965c-.144.08-.156.213-.029.282l3.254 1.878a.536.536 0 0 0 .49 0l3.398-1.959c.144-.086.162-.213.029-.288l-3.249-1.878a.57.57 0 0 0-.495.006v-.006Zm-4.965 2.88-3.398 1.965c-.144.08-.156.207 0 .282l3.248 1.878a.547.547 0 0 0 .496 0l3.398-1.959c.144-.086.155-.213.029-.288l-3.249-1.878a.58.58 0 0 0-.524-.005v.005Zm-4.965 2.88-3.399 1.965c-.15.08-.16.207-.034.282l3.254 1.878a.547.547 0 0 0 .496 0l3.398-1.965c.144-.08.156-.207 0-.282l-3.254-1.878a.583.583 0 0 0-.461-.017v.017Zm22.677 1.924 3.398-1.964c.144-.081.156-.207 0-.282l-3.254-1.878a.577.577 0 0 0-.49 0l-3.398 1.964c-.15.081-.161.208-.029.282l3.249 1.878a.535.535 0 0 0 .524-.017v.017Zm46.333-41.771-3.398 1.964c-.144.081-.156.213-.029.282l3.255 1.878a.542.542 0 0 0 .495 0l3.398-1.959c.144-.086.156-.213.029-.288l-3.254-1.877a.57.57 0 0 0-.496-.018v.018Zm-6.007 3.456-3.399 1.964c-.149.081-.161.207-.034.282l3.254 1.878a.55.55 0 0 0 .496 0l3.398-1.964c.144-.081.155-.208.029-.283l-3.255-1.877a.572.572 0 0 0-.489 0Zm10.978-6.336-3.398 1.964c-.144.086-.161.213-.029.288l3.249 1.872a.572.572 0 0 0 .495 0l3.398-1.964c.144-.087.156-.213.029-.288l-3.254-1.878a.577.577 0 0 0-.49 0v.006Zm-27.458 25.505 3.399-1.958c.144-.087.161-.214 0-.288l-3.249-1.878a.573.573 0 0 0-.495 0l-3.399 1.964c-.144.081-.155.207 0 .282l3.255 1.878a.534.534 0 0 0 .489-.006v.006Zm32.919-28.385a.537.537 0 0 0-.496 0l-3.398 1.958c-.144.087-.156.213-.029.288l3.249 1.878a.573.573 0 0 0 .495 0l3.399-1.964c.144-.081.161-.213.028-.283l-3.248-1.877Zm-51.8 44.651 3.398-1.958c.144-.087.156-.213 0-.288l-3.248-1.878a.576.576 0 0 0-.496 0l-3.398 1.964c-.144.081-.155.208 0 .282l3.249 1.878a.534.534 0 0 0 .495-.006v.006Zm60.912-35.136 3.398-1.964c.144-.081.156-.213.029-.282l-3.248-1.878a.55.55 0 0 0-.496 0l-3.398 1.958c-.144.087-.161.214-.029.288l3.249 1.878a.575.575 0 0 0 .495-.057v.057Zm-9.613.185 3.398-1.965c.144-.08.161-.207.029-.282l-3.249-1.878a.587.587 0 0 0-.495 0l-3.399 1.965c-.144.08-.155.207-.028.282l3.254 1.878a.531.531 0 0 0 .49-.035v.035Zm5.143-6.993a.572.572 0 0 0-.495 0l-3.398 1.964c-.144.081-.156.207-.029.282l3.254 1.878a.55.55 0 0 0 .496 0l3.421-1.981c.144-.087.155-.213.029-.288l-3.278-1.855Zm1.049-.605 7.897 4.562a.572.572 0 0 0 .489 0l3.399-1.964c.144-.081.161-.207.028-.282l-7.885-4.614a.577.577 0 0 0-.49 0l-3.398 1.964c-.144.098-.144.23-.04.3v.034Zm-11.474 6.336-3.399 1.964c-.144.081-.161.208-.028.283l3.248 1.877a.576.576 0 0 0 .496 0l3.398-1.964c.144-.081.155-.207.029-.282l-3.249-1.878a.545.545 0 0 0-.495-.011v.011Zm-37.383 21.583-3.398 1.964c-.144.081-.161.207-.029.282l3.249 1.878a.542.542 0 0 0 .495 0l3.399-1.964c.144-.081.155-.208.028-.282l-3.254-1.878a.533.533 0 0 0-.49-.012v.012Zm46.818-17.643a.572.572 0 0 0 .495 0l3.398-1.964c.144-.081.156-.213.029-.282l-3.254-1.878a.525.525 0 0 0-.49 0l-3.398 1.958c-.15.087-.162.213-.035.288l3.255 1.878Zm-41.841 14.763-3.398 1.964c-.144.081-.156.207-.029.282l3.248 1.878a.55.55 0 0 0 .496 0l3.398-1.958c.144-.087.156-.214 0-.288l-3.248-1.878a.572.572 0 0 0-.467 0ZM96.421 221.4a.547.547 0 0 0 .49 0l3.398-1.965c.144-.086.162-.213 0-.288l-3.248-1.872a.588.588 0 0 0-.496 0l-3.398 1.965c-.144.086-.156.213-.029.288l3.283 1.872Zm-5.76-6.048-3.398 1.964c-.144.08-.156.207-.029.282l3.249 1.878a.574.574 0 0 0 .495 0l3.399-1.964c.144-.081.155-.208.028-.283l-3.248-1.877a.536.536 0 0 0-.513.005l.017-.005Zm11.238 3.168 3.399-1.965c.144-.08.155-.213.028-.282l-3.254-1.878a.536.536 0 0 0-.49 0l-3.398 1.959c-.144.086-.161.213-.029.288l3.22 1.878a.586.586 0 0 0 .507 0h.017Zm4.965-2.88 3.399-1.965c.144-.08.155-.207 0-.282l-3.249-1.878a.55.55 0 0 0-.495 0l-3.399 1.959c-.144.086-.155.213-.029.288l3.249 1.878a.587.587 0 0 0 .507 0h.017Zm4.965-2.88 3.399-1.965c.144-.08.161-.207 0-.282l-3.249-1.878a.543.543 0 0 0-.495 0l-3.399 1.959c-.144.086-.155.213 0 .288l3.255 1.878a.572.572 0 0 0 .472.028l.017-.028Zm-16.214-.271-3.398 1.964c-.144.081-.156.207-.03.282l3.255 1.878a.534.534 0 0 0 .49 0l3.398-1.964c.144-.081.161-.207.029-.282l-3.249-1.878a.574.574 0 0 0-.495 0Zm4.971-2.88-3.399 1.964c-.144.081-.16.207-.028.282l3.248 1.878a.55.55 0 0 0 .496 0l3.398-1.958c.144-.087.156-.213.029-.288l-3.255-1.878a.575.575 0 0 0-.495.011l.006-.011Zm19.866-11.468-3.398 1.958c-.144.087-.156.213-.029.288l3.249 1.878a.572.572 0 0 0 .495 0l3.398-1.964c.144-.081.156-.213.029-.282l-3.237-1.884a.539.539 0 0 0-.513.017l.006-.011Zm-4.965 2.88-3.398 1.958c-.144.087-.162.213-.029.288l3.248 1.878a.576.576 0 0 0 .496 0l3.398-1.964c.144-.081.156-.213.029-.282l-3.254-1.878a.527.527 0 0 0-.496 0h.006Zm9.93-5.76-3.398 1.958c-.144.087-.156.213-.029.288l3.254 1.878a.58.58 0 0 0 .49 0l3.398-1.964c.144-.081.162-.208 0-.282l-3.248-1.878a.545.545 0 0 0-.473.023l.006-.023Zm-19.866 11.468-3.398 1.964c-.144.081-.156.213-.029.282l3.248 1.878a.55.55 0 0 0 .496 0l3.398-1.958c.144-.087.156-.213.029-.288l-3.249-1.878a.578.578 0 0 0-.501.023l.006-.023Zm4.965-2.88-3.381 1.999c-.144.086-.156.213-.029.288l3.255 1.872a.541.541 0 0 0 .489 0l3.399-1.965c.144-.086.161-.213.028-.288l-3.248-1.872a.583.583 0 0 0-.519 0l.006-.034Zm-6.336 18.68 3.398-1.965c.144-.08.156-.207.029-.282l-3.254-1.878a.536.536 0 0 0-.49 0l-3.398 1.965c-.15.08-.161.207-.035.282l3.255 1.878a.542.542 0 0 0 .489.023l.006-.023Zm-26.196-1.239-3.249-1.872a.574.574 0 0 0-.495 0l-3.399 1.964c-.144.087-.155.213 0 .288l3.255 1.878a.576.576 0 0 0 .49 0l3.398-1.964c.109-.058.126-.184-.006-.259l.006-.035Zm6.474 1.63-3.243-1.843a.547.547 0 0 0-.495 0l-5.225 3.018c-.144.081-.161.208-.029.283l3.25 1.877a.534.534 0 0 0 .495 0l5.224-3.018c.132-.081.15-.213.017-.282l.006-.035Zm-11.307-5.299-3.254-1.878a.535.535 0 0 0-.49 0l-4.182 2.414c-.144.086-.161.213-.034.288l3.254 1.872a.574.574 0 0 0 .495 0l4.182-2.419c.121-.075.133-.202.029-.277Zm3.208-1.855a.522.522 0 0 0 .49 0l3.398-1.958c.144-.086.162-.213.03-.288l-3.273-1.912a.574.574 0 0 0-.495 0l-3.398 1.964c-.144.08-.156.213-.03.282l3.278 1.912Zm14.072 9.09-3.254-1.878a.576.576 0 0 0-.49 0l-6.538 3.773c-.144.086-.155.213-.028.288l3.248 1.877a.574.574 0 0 0 .496 0l6.537-3.772c.121-.064.133-.19.029-.288Zm2.304 4.032-3.254-1.878a.522.522 0 0 0-.49 0l-4.222 2.454c-.144.08-.156.207 0 .282l3.254 1.878a.534.534 0 0 0 .49 0l4.187-2.414c.116-.086.127-.219 0-.288l.035-.034Zm20.563-34.474a.576.576 0 0 0 .496 0l3.398-1.964c.144-.081.155-.207 0-.282l-3.26-1.872a.525.525 0 0 0-.49 0l-3.398 1.958c-.144.086-.162.213-.029.288l3.283 1.872Zm-9.936 5.76a.576.576 0 0 0 .496 0l3.398-1.964c.144-.087.161-.213 0-.288l-3.254-1.866a.576.576 0 0 0-.496 0l-3.398 1.964c-.144.086-.156.213-.029.288l3.283 1.866Zm-22.026 12.718a.574.574 0 0 0 .495 0l3.399-1.964c.144-.086.155-.213.028-.288l-3.254-1.872a.535.535 0 0 0-.49 0l-3.398 1.958c-.144.087-.161.213-.034.288l3.254 1.878Zm26.951-15.575a.573.573 0 0 0 .495 0l3.399-1.964c.144-.081.155-.213.029-.282l-3.243-1.895a.537.537 0 0 0-.496 0l-3.398 1.958c-.144.086-.156.213 0 .288l3.214 1.895Zm-9.936 5.731a.534.534 0 0 0 .495 0l3.399-1.958c.144-.087.155-.213.029-.288l-3.243-1.866a.576.576 0 0 0-.49 0l-3.398 1.964c-.144.08-.162.213-.03.282l3.238 1.866Zm-3.226 26.07a.574.574 0 0 0-.495 0l-5.224 3.018c-.144.087-.162.213-.03.288l3.25 1.878a.574.574 0 0 0 .495 0l5.23-3.018c.144-.087.156-.213 0-.288l-3.226-1.878Zm-3.9-21.951a.575.575 0 0 0 .49 0l3.399-1.964c.144-.081.161-.208 0-.283l-3.249-1.877a.534.534 0 0 0-.495 0l-3.399 1.958c-.144.086-.155.213-.028.288l3.283 1.878Zm-4.97 2.88a.573.573 0 0 0 .495 0l3.399-1.964c.144-.081.155-.214.028-.283l-3.248-1.877a.534.534 0 0 0-.496 0l-3.398 1.958c-.144.086-.155.213-.029.288l3.249 1.878Zm100.892-34.042a.544.544 0 0 0-.495 0l-8.364 4.827c-.144.086-.155.213-.029.288l3.249 1.878a.573.573 0 0 0 .495 0l8.364-4.833c.144-.081.161-.207.029-.282l-3.249-1.878Zm-10.978 6.336a.576.576 0 0 0-.496 0l-3.398 1.964c-.144.081-.156.213-.029.282l3.249 1.878a.53.53 0 0 0 .495 0l3.398-1.958c.144-.087.156-.213.029-.288l-3.248-1.878Zm-67.03 37.331 3.399-1.959c.144-.086.155-.213.029-.288l-3.249-1.878a.587.587 0 0 0-.495 0l-3.399 1.965c-.144.08-.155.207-.029.282l3.249 1.878a.55.55 0 0 0 .495 0Zm57.105-31.629a.587.587 0 0 0-.495 0l-3.399 1.965c-.144.08-.155.207-.028.282l3.254 1.878a.534.534 0 0 0 .49 0l3.398-1.965c.15-.08.161-.207.034-.282l-3.254-1.878Zm25.88-14.941a.537.537 0 0 0-.49 0l-3.398 1.958c-.144.087-.162.214-.029.288l3.249 1.878a.572.572 0 0 0 .495 0l3.398-1.964c.144-.081.156-.207.029-.282l-3.254-1.878Zm8.219-.991-7.897-4.562a.571.571 0 0 0-.489 0l-3.399 1.965c-.149.086-.161.213-.034.282l7.891 4.602a.547.547 0 0 0 .495 0l3.399-1.964c.138-.098.138-.225.034-.3v-.023Zm-52.658 26.669a.572.572 0 0 0-.495 0l-4.182 2.419c-.144.081-.161.208-.029.283l3.249 1.877a.537.537 0 0 0 .495 0l4.182-2.413c.144-.087.156-.213.029-.288l-3.249-1.878Zm12.546-7.24a.525.525 0 0 0-.49 0l-5.23 3.018c-.144.081-.156.207-.029.282l3.249 1.878a.542.542 0 0 0 .495 0l5.23-3.018c.144-.081.156-.208.029-.282l-3.254-1.878Zm-24.048 13.881a.591.591 0 0 0-.248-.056c-.086 0-.17.02-.248.056l-27.97 16.128c-.144.087-.162.214 0 .288l3.248 1.878a.576.576 0 0 0 .496 0l27.93-16.139c.144-.087.155-.213 0-.288l-3.208-1.867Zm-29.543 17.056a.576.576 0 0 0-.496 0l-4.193 2.436c-.144.081-.156.208-.029.282l3.255 1.878a.518.518 0 0 0 .489 0l4.188-2.413c.144-.087.155-.213 0-.288l-3.214-1.895Zm35.291-20.373a.52.52 0 0 0-.489 0l-4.188 2.413c-.144.086-.156.213 0 .288l3.254 1.872a.536.536 0 0 0 .49 0l4.188-2.419c.144-.081.155-.207.028-.282l-3.283-1.872Zm-41.04 23.696a.544.544 0 0 0-.495 0l-4.205 2.431c-.144.086-.161.213 0 .288l3.249 1.872a.574.574 0 0 0 .495 0l4.182-2.419c.144-.081.155-.208.029-.282l-3.255-1.89Zm52.543-30.32a.537.537 0 0 0-.496 0l-4.181 2.413c-.144.086-.156.213-.029.288l3.254 1.878a.576.576 0 0 0 .49 0l4.187-2.419c.144-.081.156-.208 0-.283l-3.225-1.877Zm17.775-10.265a.573.573 0 0 0-.489 0l-3.399 1.964c-.144.081-.161.208-.029.283l3.249 1.877a.537.537 0 0 0 .495 0l3.399-1.958c.144-.086.155-.213.029-.288l-3.255-1.878Zm11.129-7.764 3.398-1.959c.144-.086.155-.213.029-.288l-3.249-1.877a.573.573 0 0 0-.495 0l-3.399 1.964c-.144.08-.155.207-.028.282l3.248 1.878a.54.54 0 0 0 .496-.017v.017Zm-20.27.979 3.398-1.964c.144-.081.156-.213.029-.288l-3.248-1.872a.537.537 0 0 0-.496 0l-3.398 1.958c-.144.087-.156.213-.029.288l3.249 1.878a.575.575 0 0 0 .495-.017v.017Zm-13.19 18.34 9.93-5.731c.144-.087.161-.213.029-.288l-3.249-1.878a.573.573 0 0 0-.495 0l-9.936 5.76c-.144.081-.156.207 0 .282l3.254 1.878a.536.536 0 0 0 .467-.04v.017Zm27.999-16.433a.55.55 0 0 0 .495 0l3.399-1.965c.144-.08.155-.207.029-.282l-3.255-1.878a.573.573 0 0 0-.489 0l-3.399 1.965c-.15.08-.161.207-.034.282l3.254 1.878Zm-4.153-2.713 3.398-1.965c.144-.086.162-.213.029-.288l-3.248-1.872a.59.59 0 0 0-.496 0l-3.398 1.965c-.144.086-.156.213-.029.288l3.243 1.872a.544.544 0 0 0 .501 0Zm-28.8 21.997 3.398-1.964c.144-.081.162-.207 0-.282l-3.237-1.895a.572.572 0 0 0-.495 0l-3.398 1.964c-.144.08-.156.207 0 .282l3.254 1.878a.538.538 0 0 0 .461.017h.017Zm21.963-12.96a.577.577 0 0 0 .49 0l3.398-1.964c.15-.081.161-.213.035-.282l-3.255-1.878a.544.544 0 0 0-.495 0l-3.399 1.958c-.144.087-.155.213-.028.288l3.254 1.878Zm-46.823 27.297 3.398-1.959c.144-.086.156-.213.029-.288l-3.26-1.877a.577.577 0 0 0-.49 0l-3.398 1.964c-.15.086-.161.213-.035.282l3.255 1.878a.546.546 0 0 0 .512 0h-.011Zm4.965-2.88 3.398-1.964c.144-.087.156-.214.029-.288L124.219 207a.531.531 0 0 0-.495 0l-3.399 1.958c-.144.086-.155.213-.028.288l3.248 1.878a.582.582 0 0 0 .496-.029l-.012-.017Zm-9.936 5.731 3.398-1.958c.144-.087.162-.214.029-.288l-3.248-1.878a.576.576 0 0 0-.496 0l-3.398 1.964c-.144.081-.156.213-.029.282l3.254 1.878a.532.532 0 0 0 .502.017l-.012-.017Zm19.872-11.468 3.398-1.964c.144-.081.156-.208.029-.283l-3.243-1.854a.53.53 0 0 0-.495 0l-3.398 1.958c-.144.086-.156.213 0 .288l3.254 1.878a.588.588 0 0 0 .467-.006l-.012-.017Zm-4.971 2.88 3.399-1.964c.144-.081.161-.214 0-.283l-3.209-1.854a.53.53 0 0 0-.495 0l-3.399 1.958c-.144.086-.155.213-.028.288l3.254 1.878a.577.577 0 0 0 .507-.017l-.029-.006Zm9.936-5.76 3.399-1.964c.144-.081.155-.208 0-.283l-3.209-1.854a.53.53 0 0 0-.495 0l-3.399 1.964c-.144.08-.161.207-.028.282l3.248 1.878a.575.575 0 0 0 .496.006l-.012-.029Zm27.107-39.894a.531.531 0 0 0 .489 0l3.399-1.964c.144-.081.161-.208.029-.282l-.864-.502a.59.59 0 0 0-.496 0l-3.398 1.965c-.144.08-.156.207-.029.282l.87.501ZM141.349 178.2a.58.58 0 0 0 .49 0l3.398-1.965c.144-.08.162-.213.029-.282l-3.248-1.878a.55.55 0 0 0-.496 0l-3.398 1.959c-.144.086-.156.213 0 .288l3.225 1.878Zm9.931-5.76a.587.587 0 0 0 .495 0l3.398-1.965c.144-.08.156-.207.029-.282l-3.248-1.878a.55.55 0 0 0-.496 0l-3.398 1.965c-.144.08-.156.207-.029.282l3.249 1.878Zm-15.996 9.216a.576.576 0 0 0 .49 0l3.398-1.965c.144-.08.161-.213.029-.282l-3.249-1.878a.542.542 0 0 0-.495 0l-3.399 1.959c-.144.086-.155.213 0 .288l3.226 1.878Zm11.019-6.296a.573.573 0 0 0 .495 0l3.399-1.964c.144-.081.155-.208.029-.282l-3.255-1.878a.52.52 0 0 0-.489 0l-3.399 1.958c-.15.087-.161.213-.034.288l3.254 1.878Zm-20.966 12.096a.542.542 0 0 0 .495 0l3.398-1.958c.144-.087.156-.214 0-.288l-3.254-1.878a.577.577 0 0 0-.49 0l-3.398 1.964c-.15.086-.161.213-.029.282l3.278 1.878Zm4.965-2.88a.572.572 0 0 0 .495 0l3.398-1.964c.144-.087.156-.213 0-.288l-3.248-1.872a.576.576 0 0 0-.496 0l-3.398 1.964c-.144.086-.155.213 0 .288l3.249 1.872Zm25.793-16.243a.573.573 0 0 0 .495 0l3.399-1.964c.144-.081.155-.208 0-.283l-.864-.501a.55.55 0 0 0-.496 0l-3.398 1.964c-.144.081-.161.208-.029.283l.893.501Zm14.901-8.606a.537.537 0 0 0 .495 0l3.399-1.958c.144-.086.155-.213 0-.288l-.864-.501a.576.576 0 0 0-.496 0l-3.398 1.964c-.144.081-.161.213-.029.282l.893.501Zm6.831 3.946a.58.58 0 0 0 .49 0l3.398-1.964c.15-.081.162-.208.035-.282l-3.254-1.878a.537.537 0 0 0-.496 0l-3.398 1.958c-.144.087-.156.213-.029.288l3.254 1.878Zm9.458 10.892 3.399-1.958c.144-.087.161-.213.029-.288l-3.249-1.878a.573.573 0 0 0-.495 0l-3.399 1.964c-.144.081-.155.213-.029.282l3.255 1.878a.535.535 0 0 0 .507 0h-.018Zm-26.225-9.101a.573.573 0 0 0 .495 0l3.399-1.964c.144-.081.155-.207 0-.282l-.864-.501a.537.537 0 0 0-.496 0l-3.398 1.964c-.144.081-.155.207-.029.282l.893.501Zm-40.677 24.866a.525.525 0 0 0 .49 0l3.398-1.958c.144-.087.161-.213 0-.288l-3.249-1.878a.572.572 0 0 0-.495 0l-3.398 1.964c-.144.081-.156.208 0 .282l3.254 1.878Z"/>
    <path fill="#000" d="m135.094 215.951.697.397 18.507 10.685 32.912-19.002.686-.392-19.204-11.082-33.598 19.394Z" opacity=".4"/>
    <path fill="#40FFDF" d="m135.789 216.348 18.507 10.685 32.913-19.002-18.519-10.685-32.901 19.002Z"/>
    <path fill="#000" d="m135.789 216.348 18.507 10.685 32.913-19.002-18.519-10.685-32.901 19.002Z" opacity=".45"/>
    <path fill="#40FFDF" d="M40.179 212.483c.295.171.61.307.938.403a4.262 4.262 0 0 1-.938-.391 3.254 3.254 0 0 1-.288-.19c.092.065.188.124.288.178ZM45.504 212.76l.052-.046-.04.034-.012.012Z"/>
    <path fill="#FAFAFA" d="m257.819 14.939-73.152 42.238a2.601 2.601 0 0 0-.839.883 2.601 2.601 0 0 0-.348 1.167v81.907a2.602 2.602 0 0 0 1.193 2.039l2.16 1.222a2.682 2.682 0 0 0 2.379 0l73.152-42.238a2.61 2.61 0 0 0 1.18-2.051V18.187a2.585 2.585 0 0 0-1.186-2.039l-2.166-1.22a2.664 2.664 0 0 0-2.373.01Z"/>
    <path fill="#37474F" d="M188.023 143.697V61.79a2.626 2.626 0 0 1 1.187-2.05l73.152-42.244c.651-.375 1.181-.07 1.181.685v81.913a2.623 2.623 0 0 1-1.181 2.051l-73.152 42.238c-.657.374-1.187.069-1.187-.686Z"/>
    <path fill="#263238" d="M189.212 144.383a2.74 2.74 0 0 1-2.379 0l-2.16-1.227a2.576 2.576 0 0 1-.844-.871 2.579 2.579 0 0 1-.349-1.162V59.227a2.42 2.42 0 0 1 .381-1.21l4.515 2.61a2.35 2.35 0 0 0-.351 1.152v81.919c0 .691.49 1.094 1.187.685Z"/>
    <path fill="#455A64" d="M263.532 17.974c-.092-.576-.576-.812-1.152-.472L189.228 59.74c-.35.218-.638.524-.835.887l-4.522-2.61c.194-.345.474-.635.812-.84l73.152-42.238a2.63 2.63 0 0 1 2.373 0l2.16 1.22a2.625 2.625 0 0 1 1.164 1.815Z"/>
    <path fill="#FAFAFA" d="M174.569 108.205c-.743-.444-4.193-2.408-4.372-2.512a1.102 1.102 0 0 1-.479-1.269c.049-.156.132-.299.243-.418l13.622-14.613 4.441 2.551-13.616 14.613a1.101 1.101 0 0 0 .161 1.648Z"/>
    <path fill="#455A64" d="M174.569 108.205c-.743-.444-4.193-2.408-4.372-2.512a1.102 1.102 0 0 1-.479-1.269c.049-.156.132-.299.243-.418l13.622-14.613 4.441 2.551-13.616 14.613a1.101 1.101 0 0 0 .161 1.648Z"/>
    <path fill="#FAFAFA" d="m188.024 91.944-13.617 14.613a1.094 1.094 0 0 0 .887 1.837l12.73-1.048V91.944Z"/>
    <path fill="#37474F" d="m188.024 91.944-13.617 14.613a1.094 1.094 0 0 0 .887 1.837l12.73-1.048V91.944Z"/>
    <path fill="#EBEBEB" d="M229.755 85.32c-1.042-.628-2.499-.576-4.112.38-3.191 1.843-5.76 6.336-5.76 10.01 0 1.833.639 3.117 1.676 3.728.68.397 3.272 1.883 3.94 2.304 1.048.616 2.494.535 4.101-.392 3.191-1.843 5.76-6.336 5.76-10.011 0-1.82-.639-3.11-1.67-3.715-.68-.432-3.289-1.912-3.935-2.304Z"/>
    <path fill="#E0E0E0" d="m231.658 99.674-11.399-6.584a9.855 9.855 0 0 0-.392 2.621c0 1.832.64 3.116 1.676 3.727.68.397 3.272 1.883 3.94 2.304 1.049.616 2.494.536 4.101-.392a9.85 9.85 0 0 0 2.074-1.676Z"/>
    <path fill="#FAFAFA" d="M229.576 87.975c-3.191 1.844-5.76 6.336-5.76 10.011 0 3.675 2.592 5.184 5.76 3.335 3.168-1.849 5.76-6.336 5.76-10.01 0-3.675-2.569-5.179-5.76-3.336Z"/>
    <path fill="#37474F" d="M229.576 90.337a8.261 8.261 0 0 0-3.732 6.469c0 2.379 1.676 3.346 3.738 2.154a8.261 8.261 0 0 0 3.732-6.469c-.005-2.379-1.676-3.34-3.738-2.154Z"/>
    <path fill="#40FFDF" d="M254.594 80.153c0 .536 0 .997-.029 1.538l-6.526 3.773-3.929-2.27v-1.508c0-4.459-1.059-8.024-2.88-10.541l5.3-7.569 3.934 2.27c2.615 3.335 4.13 8.179 4.13 14.307Z"/>
    <path fill="#40FFDF" d="M254.594 80.153c0 .542 0 .997-.029 1.538l-6.526 3.773c0-.438.029-1.072.029-1.51 0-4.452-1.06-8.023-2.88-10.534l5.27-7.54c2.621 3.3 4.136 8.15 4.136 14.273Z"/>
    <path fill="#000" d="m245.168 73.414-3.934-2.27 5.288-7.568 3.934 2.275-5.288 7.563Z" opacity=".1"/>
    <path fill="#000" d="M248.062 83.949v1.509l-3.928-2.27V81.68c0-4.459-1.06-8.024-2.88-10.541l3.934 2.304c1.82 2.482 2.874 6.053 2.874 10.506Z" opacity=".2"/>
    <path fill="#40FFDF" d="m249.283 63.99-5.264 7.535-3.934-2.304-.219-.196a12.2 12.2 0 0 0-5.184-.334l-3.952-2.235 1.976-8.415c3.784-.576 7.177 0 9.971 1.607l3.847 2.212c.173.098.346.201.513.31l.34.225c.115.075.23.15.34.236.109.087.161.116.236.179.307.24.602.495.881.766.173.138.311.27.449.415Z"/>
    <path fill="#000" d="m244.018 71.525-3.934-2.304-.213-.19a9.917 9.917 0 0 1 4.147 2.494Z" opacity=".2"/>
    <path fill="#fff" d="m249.289 63.991-5.271 7.534c-2.35-2.304-5.587-3.33-9.354-2.805l1.941-8.404c5.109-.772 9.516.524 12.684 3.675Z" opacity=".2"/>
    <path fill="#000" d="m232.672 58.04 3.934 2.276-1.941 8.404-3.935-2.27 1.942-8.41Z" opacity=".1"/>
    <path fill="#fff" d="m242.645 59.648 3.848 2.212c-2.777-1.578-6.141-2.131-9.89-1.55l-3.9-2.27c3.756-.587 7.148-.01 9.942 1.608Z" opacity=".5"/>
    <path fill="#40FFDF" d="m234.71 60.696-1.941 8.392a22.283 22.283 0 0 0-5.472 2.304 33.372 33.372 0 0 0-5.501 4.032l-3.929-2.304-1.906-6.215a43.66 43.66 0 0 1 7.355-5.409 29.315 29.315 0 0 1 7.46-3.116l3.934 2.316Z"/>
    <path fill="#000" d="m215.961 66.957 3.934 2.275 1.901 6.215-3.929-2.27-1.906-6.22Z" opacity=".05"/>
    <path fill="#fff" d="M234.707 60.696a29.086 29.086 0 0 0-7.488 3.11 44.328 44.328 0 0 0-7.355 5.41l-3.934-2.27a43.654 43.654 0 0 1 7.355-5.409 29.32 29.32 0 0 1 7.459-3.116l3.963 2.275Z" opacity=".6"/>
    <path fill="#fff" d="m234.709 60.696-1.935 8.392a22.14 22.14 0 0 0-5.472 2.304 33.193 33.193 0 0 0-5.501 4.032l-1.906-6.215a43.66 43.66 0 0 1 7.355-5.409 29.116 29.116 0 0 1 7.459-3.104Z" opacity=".4"/>
    <path fill="#40FFDF" d="M219.945 77.21a49.048 49.048 0 0 0-8.83 12.51l-5.138-1.86-3.934-2.275a64.559 64.559 0 0 1 12.056-16.877l3.934 2.304 1.912 6.198Z"/>
    <path fill="#fff" d="M218.033 70.983a64.355 64.355 0 0 0-12.056 16.877l-3.934-2.275a64.559 64.559 0 0 1 12.056-16.877l3.934 2.275Z" opacity=".7"/>
    <path fill="#fff" d="M219.945 77.21a49.088 49.088 0 0 0-8.831 12.516l-5.137-1.866a64.352 64.352 0 0 1 12.055-16.877l1.913 6.227Z" opacity=".6"/>
    <path fill="#40FFDF" d="M209.931 92.272c-2.067 4.845-3.3 9.608-3.375 14.32l-6.63 3.83-3.934-2.304c.127-6.463 1.901-13.41 4.85-20.01l5.184 1.866 3.905 2.298Z"/>
    <path fill="#fff" d="m204.774 90.406-3.934-2.27 5.161 1.867 3.934 2.27-5.161-1.867Z" opacity=".6"/>
    <path fill="#fff" d="M204.776 90.406c-2.955 6.607-4.723 13.548-4.85 20.016l-3.934-2.304c.127-6.463 1.901-13.41 4.85-20.01l3.934 2.298Z" opacity=".9"/>
    <path fill="#fff" d="M209.937 92.272c-2.074 4.839-3.307 9.608-3.387 14.32l-6.624 3.824c.127-6.462 1.895-13.409 4.85-20.016l5.161 1.872Z" opacity=".75"/>
    <path fill="#E0E0E0" d="m251.5 77.072-1.043-.588-28.391 22.032.087 4.217 1.042.587L251.5 77.072Z"/>
    <path fill="#EBEBEB" d="m223.194 103.32-.081-4.216 28.386-22.032-28.305 26.248Z"/>
    <path fill="#fff" d="m222.066 98.516 1.049.588L251.5 77.072l-1.043-.588-28.391 22.032Z"/>
</svg>
