<svg xmlns="http://www.w3.org/2000/svg" width="288" height="289" viewBox="0 0 288 289" fill="none">
    <path fill="#F5F5F5" d="M50.618 143.738c-51.569 29.779-51.569 78.054 0 107.827 51.57 29.774 135.188 29.774 186.757 0 51.569-29.773 51.569-78.048 0-107.827-51.569-29.779-135.187-29.773-186.757 0Z"/>
    <path fill="#E0E0E0" d="M121.785 214.614c-12.672-7.309-12.672-19.163 0-26.496 12.672-7.332 33.207-7.315 45.867 0 12.661 7.316 12.672 19.164 0 26.496-12.672 7.333-33.201 7.316-45.867 0ZM103.347 220.098c4.228 2.442 6.336 5.639 6.336 8.836s-2.114 6.393-6.336 8.836c-8.45 4.878-22.153 4.878-30.609 0-4.222-2.443-6.336-5.639-6.336-8.836s2.114-6.394 6.336-8.836c8.48-4.879 22.16-4.879 30.609 0ZM94.775 160.517l26.859 15.506-26.86 15.505-26.864-15.505 26.865-15.506ZM19.383 208.059l22.562 13.024 37.854-21.825-22.567-13.023-37.85 21.824ZM247.341 182.664l17.586 10.149-17.586 10.149-17.579-10.149 17.579-10.149ZM208.085 241.179a2.637 2.637 0 0 1-2.552-2.108l-.576-3.122a34.9 34.9 0 0 1-4.032-.985s.034 0 0 0h-.069l-5.472 2.564a3.044 3.044 0 0 1-1.285.27 3.19 3.19 0 0 1-1.561-.397l-5.477-3.162a2.175 2.175 0 0 1-1.142-1.806 2.166 2.166 0 0 1 .957-1.91l3.318-2.384a12.082 12.082 0 0 1-.829-1.25l-6.987-.444a2.502 2.502 0 0 1-2.339-2.494v-4.072a2.5 2.5 0 0 1 2.344-2.494l6.982-.444c.25-.433.527-.851.829-1.25l-3.318-2.39a2.164 2.164 0 0 1 .185-3.709l5.477-3.163a3.134 3.134 0 0 1 1.561-.397 3.03 3.03 0 0 1 1.285.271l5.495 2.546h.103c1.3-.405 2.624-.73 3.963-.974l.576-3.122a2.622 2.622 0 0 1 2.546-2.108h8.064a2.63 2.63 0 0 1 2.552 2.108l.576 3.122c1.362.249 2.708.578 4.032.985-.04 0 0 0 0 0h.069l5.501-2.546a3.04 3.04 0 0 1 1.284-.271 3.146 3.146 0 0 1 1.561.398l5.478 3.162a2.17 2.17 0 0 1 1.142 1.803 2.166 2.166 0 0 1-.958 1.907l-3.317 2.39c.305.397.582.814.829 1.25l6.987.443a2.5 2.5 0 0 1 2.338 2.494v4.073a2.504 2.504 0 0 1-2.338 2.494l-6.987.443c-.25.434-.527.852-.829 1.25l3.317 2.385a2.17 2.17 0 0 1-.184 3.715l-5.478 3.162a3.191 3.191 0 0 1-1.561.398 3.04 3.04 0 0 1-1.284-.271l-5.495-2.546h-.104c-1.299.402-2.62.727-3.957.974l-.576 3.122a2.636 2.636 0 0 1-2.552 2.108l-8.092-.018Zm-4.344-19.993c-1.872 1.083-2.949 2.471-2.949 3.814 0 1.342 1.072 2.73 2.949 3.813a18.732 18.732 0 0 0 16.745 0c1.878-1.083 2.949-2.471 2.949-3.813 0-1.343-1.071-2.731-2.949-3.814a18.731 18.731 0 0 0-16.745 0ZM206.328 192.024l-2.223-2.339c-.576.029-1.117.047-1.67.047-.553 0-1.123 0-1.642-.047l-2.367 2.489a2.447 2.447 0 0 1-1.78.697 2.794 2.794 0 0 1-.657-.075l-5.443-1.348a2.2 2.2 0 0 1-1.486-1.181 1.906 1.906 0 0 1 0-1.653l.922-1.814a16.351 16.351 0 0 1-1.469-.905l-5.184.87a2.525 2.525 0 0 1-.369 0 2.625 2.625 0 0 1-2.073-1.083l-2.068-2.88a2.253 2.253 0 0 1-.398-1.25 1.935 1.935 0 0 1 1.365-1.854l4.032-1.279v-.38l-3.893-1.239a2.078 2.078 0 0 1-1.06-.671 2.08 2.08 0 0 1-.478-1.16v-.11c0-.391.123-.771.351-1.088l2.252-3.14a2.411 2.411 0 0 1 1.976-.927c.147 0 .293.012.438.035l5.092.858c.374-.259.777-.513 1.203-.755l.265-.15-.846-1.681a2.193 2.193 0 0 1-.242-.945v-.311a1.994 1.994 0 0 1 1.526-1.688l5.628-1.342a2.01 2.01 0 0 1 .524-.063 2.773 2.773 0 0 1 1.952.852l2.23 2.345a28.476 28.476 0 0 1 1.728-.047c.576 0 1.094 0 1.607.041l2.355-2.477a2.462 2.462 0 0 1 1.792-.709c.217.001.433.026.645.075l5.432 1.302a2.087 2.087 0 0 1 1.676 1.953c.003.304-.066.604-.202.875l-.916 1.82.294.167c.421.237.812.49 1.152.726l5.184-.87c.118-.018.238-.028.357-.028a2.653 2.653 0 0 1 2.08 1.083l2.044 2.845c.272.367.419.811.421 1.267v.265l-.035.104a1.953 1.953 0 0 1-.455.932 1.951 1.951 0 0 1-.87.565l-4.032 1.279v.38l3.917 1.239c.503.155.935.481 1.221.921a1.734 1.734 0 0 1 .219 1.446c-.175.483-.43.932-.754 1.331l-1.187 1.768-.576.772a2.397 2.397 0 0 1-1.964.927 2.755 2.755 0 0 1-.444-.04l-5.086-.853c-.476.328-.971.63-1.48.905l.858 1.699a2.066 2.066 0 0 1 .046 1.832 1.968 1.968 0 0 1-1.353 1.088l-5.651 1.354a2.011 2.011 0 0 1-.495.057 2.784 2.784 0 0 1-1.936-.829Zm3.572-14.59a8.47 8.47 0 0 0-4.032-2.016 14.827 14.827 0 0 0-3.416-.392c-3.456 0-6.618 1.152-7.839 2.88a1.888 1.888 0 0 0-.317 1.907l.052.138.144.242c.306.455.697.846 1.152 1.152.21.16.431.304.662.432.862.478 1.787.83 2.748 1.048 1.119.263 2.265.394 3.415.392a12.904 12.904 0 0 0 6.175-1.44c.238-.134.467-.284.685-.449a4.37 4.37 0 0 0 .985-.968 1.89 1.89 0 0 0 .173-2.206l-.103-.173a2.797 2.797 0 0 0-.15-.207c-.041-.058-.087-.11-.133-.167l-.201-.173Z"/>
    <path fill="#F0F0F0" d="m256.927 136.728-1.319-2.033a14.219 14.219 0 0 1-3.871.72l-.507 2.362a.914.914 0 0 1-.938.737 17.373 17.373 0 0 1-5.651-1.21.92.92 0 0 1-.576-1.054l.501-2.361a14.43 14.43 0 0 1-3.243-2.23l-2.027 1.319a.919.919 0 0 1-1.187-.149 18.766 18.766 0 0 1-1.774-2.304 17.336 17.336 0 0 1-1.371-2.546.923.923 0 0 1 .346-1.152l2.033-1.314a14.246 14.246 0 0 1-.714-3.876l-2.373-.501a.927.927 0 0 1-.732-.945 17.394 17.394 0 0 1 1.204-5.645.925.925 0 0 1 1.054-.576l2.367.502a14.012 14.012 0 0 1 2.235-3.243l-1.319-2.034a.92.92 0 0 1 .144-1.186 17.664 17.664 0 0 1 4.844-3.139.902.902 0 0 1 1.152.345l1.325 2.08a14.227 14.227 0 0 1 3.871-.726l.507-2.362a.925.925 0 0 1 .945-.737c1.934.087 3.841.492 5.644 1.198a.944.944 0 0 1 .576 1.06l-.507 2.367a14.394 14.394 0 0 1 3.243 2.229l2.028-1.313a.912.912 0 0 1 1.186.144c.657.716 1.25 1.487 1.774 2.304.53.815.991 1.672 1.377 2.563a.924.924 0 0 1-.351 1.152l-2.034 1.319c.416 1.249.657 2.55.715 3.865l2.373.507a.938.938 0 0 1 .737.945 17.532 17.532 0 0 1-1.209 5.645.928.928 0 0 1-1.055.576l-2.367-.507a14.138 14.138 0 0 1-2.235 3.243l1.325 2.033a.923.923 0 0 1-.15 1.186 17.034 17.034 0 0 1-2.304 1.769c-.809.528-1.661.988-2.546 1.376h-.034a.925.925 0 0 1-1.112-.403Zm6.912-10.183 2.753.547a15.416 15.416 0 0 0 1.106-5.409l-2.707-.576a.43.43 0 0 1-.346-.42 13.636 13.636 0 0 0-.789-4.269.447.447 0 0 1 .173-.518l2.344-1.561a16.658 16.658 0 0 0-1.307-2.425 12.913 12.913 0 0 0-1.728-2.183l-2.304 1.503a.436.436 0 0 1-.541-.046 13.617 13.617 0 0 0-3.583-2.465.445.445 0 0 1-.242-.49l.576-2.759a15.69 15.69 0 0 0-5.409-1.094l-.576 2.696a.437.437 0 0 1-.42.351 13.255 13.255 0 0 0-4.268.795.437.437 0 0 1-.519-.173l-1.567-2.35c-.839.371-1.648.808-2.419 1.308a12.82 12.82 0 0 0-2.177 1.728l1.503 2.304a.434.434 0 0 1-.051.547 13.362 13.362 0 0 0-2.466 3.571.436.436 0 0 1-.489.248l-2.754-.576a15.455 15.455 0 0 0-1.106 5.408l2.702.576a.45.45 0 0 1 .351.421c.033 1.459.299 2.904.789 4.279a.441.441 0 0 1-.172.513l-2.339 1.561a16.828 16.828 0 0 0 2.989 4.602c.009.007.019.01.029.01a.043.043 0 0 0 .029-.01l2.304-1.503a.433.433 0 0 1 .541.052 13.445 13.445 0 0 0 3.583 2.454.441.441 0 0 1 .242.489l-.576 2.759a15.556 15.556 0 0 0 5.409 1.106l.576-2.701a.44.44 0 0 1 .42-.346 13.495 13.495 0 0 0 4.274-.801.438.438 0 0 1 .513.179l1.567 2.344c.84-.368 1.65-.806 2.419-1.307a13.23 13.23 0 0 0 2.183-1.728l-1.509-2.304a.432.432 0 0 1 .051-.542 13.47 13.47 0 0 0 2.466-3.577.435.435 0 0 1 .236-.218.415.415 0 0 1 .207.011l.029-.011Zm-11.122 2.77a8.073 8.073 0 0 1-6.515-1.388 8.514 8.514 0 0 1 3.254-15.27 8.025 8.025 0 0 1 6.515 1.383 8.598 8.598 0 0 1 3.381 8.703 8.47 8.47 0 0 1-5.282 6.152 9.524 9.524 0 0 1-1.371.432l.018-.012Zm-9.067-9.867a7.711 7.711 0 0 0 3.053 7.817 7.117 7.117 0 0 0 5.789 1.232 7.626 7.626 0 0 0 5.975-5.896 7.63 7.63 0 0 0-3.055-7.818 7.15 7.15 0 0 0-5.789-1.233 8.32 8.32 0 0 0-1.226.38 7.604 7.604 0 0 0-4.747 5.518ZM207.719 99.8a6.155 6.155 0 0 0 2.42 6.226 5.756 5.756 0 0 0 4.659.992 6.69 6.69 0 0 0 .968-.3c.254-.096.501-.211.737-.345a6.063 6.063 0 0 0 3.042-4.032 6.134 6.134 0 0 0-2.42-6.227 5.762 5.762 0 0 0-4.659-.99 6.148 6.148 0 0 0-4.747 4.677Zm.732.156a5.328 5.328 0 0 1 2.672-3.554c.211-.114.429-.216.651-.305.28-.107.567-.196.859-.265a5.01 5.01 0 0 1 4.032.864 5.338 5.338 0 0 1 .668 8.159 5.332 5.332 0 0 1-2.707 1.437 5.003 5.003 0 0 1-4.032-.864 5.396 5.396 0 0 1-2.143-5.472Zm-5.282 7.897c.375.576.795 1.121 1.256 1.63a.717.717 0 0 0 .921.121l1.4-.91a10.05 10.05 0 0 0 2.229 1.538l-.346 1.624a.713.713 0 0 0 .432.818c1.286.513 2.65.803 4.032.859a.715.715 0 0 0 .732-.576l.346-1.631a10.316 10.316 0 0 0 2.661-.495l.904 1.4a.724.724 0 0 0 .864.282c.34-.15.68-.317 1.014-.495.334-.179.541-.317.806-.49a12.005 12.005 0 0 0 1.63-1.256.71.71 0 0 0 .115-.915l-.91-1.4a10.257 10.257 0 0 0 1.538-2.229l1.625.345a.707.707 0 0 0 .8-.449c.508-1.287.798-2.65.858-4.032a.706.706 0 0 0-.152-.472.707.707 0 0 0-.424-.259l-1.63-.352a10.13 10.13 0 0 0-.489-2.655l1.394-.91a.707.707 0 0 0 .276-.881 12.531 12.531 0 0 0-2.24-3.457.724.724 0 0 0-.922-.115l-1.394.905a10.43 10.43 0 0 0-2.229-1.533l.345-1.624a.725.725 0 0 0-.437-.824 12.485 12.485 0 0 0-4.032-.852.72.72 0 0 0-.732.576l-.345 1.63a9.92 9.92 0 0 0-2.662.49l-.91-1.394a.7.7 0 0 0-.887-.271c-.629.272-1.234.598-1.808.973-.578.375-1.123.796-1.63 1.262a.7.7 0 0 0-.116.916l.905 1.4a10.088 10.088 0 0 0-1.475 2.263l-1.63-.346a.72.72 0 0 0-.818.438 12.452 12.452 0 0 0-.858 4.032.724.724 0 0 0 .157.469.728.728 0 0 0 .419.263l1.63.345c.046.906.212 1.801.495 2.661l-1.399.905a.725.725 0 0 0-.271.887c.273.621.595 1.22.962 1.791Zm-.271-2.062 1.613-1.077a.37.37 0 0 0 .144-.438 9.472 9.472 0 0 1-.576-3.006.372.372 0 0 0-.089-.23.378.378 0 0 0-.211-.128l-1.86-.391c.036-1.27.293-2.523.76-3.704l1.895.374a.364.364 0 0 0 .415-.201 9.517 9.517 0 0 1 1.728-2.517.374.374 0 0 0 .046-.461l-1.042-1.601a9.155 9.155 0 0 1 1.497-1.187 11.944 11.944 0 0 1 1.659-.898l1.077 1.618a.362.362 0 0 0 .438.144 9.483 9.483 0 0 1 3.001-.576.368.368 0 0 0 .357-.294l.397-1.86c1.269.037 2.522.292 3.704.754l-.38 1.901a.384.384 0 0 0 .207.415 9.49 9.49 0 0 1 2.517 1.728.37.37 0 0 0 .438.057l1.602-1.036c.472.453.893.957 1.255 1.503.345.53.645 1.086.899 1.665l-1.613 1.077a.382.382 0 0 0-.151.193.38.38 0 0 0 .001.245 9.3 9.3 0 0 1 .576 3.001.378.378 0 0 0 .089.229c.054.065.128.11.211.128l1.866.397a11.067 11.067 0 0 1-.76 3.704l-1.895-.38a.389.389 0 0 0-.219 0 .354.354 0 0 0-.196.184 9.619 9.619 0 0 1-1.728 2.517.376.376 0 0 0-.046.461l1.037 1.601c-.458.445-.96.843-1.498 1.187-.527.342-1.08.642-1.653.898l-1.077-1.618a.382.382 0 0 0-.438-.15 9.506 9.506 0 0 1-3.007.576.366.366 0 0 0-.357.294l-.392 1.86a10.993 10.993 0 0 1-3.709-.76l.38-1.901a.359.359 0 0 0-.031-.241.36.36 0 0 0-.176-.168 9.554 9.554 0 0 1-2.517-1.728.363.363 0 0 0-.461-.046l-1.619 1.054a12.25 12.25 0 0 1-2.062-3.174l-.046.006ZM27.839 126.475a6.136 6.136 0 0 0 2.419 6.221 5.762 5.762 0 0 0 4.66.991c.33-.074.653-.172.968-.294.251-.102.497-.218.737-.345a6.06 6.06 0 0 0 .622-10.276 5.725 5.725 0 0 0-4.66-.991 6.137 6.137 0 0 0-4.746 4.694Zm.731.156a5.328 5.328 0 0 1 2.673-3.554c.208-.117.423-.219.645-.305.281-.11.57-.199.864-.265a4.97 4.97 0 0 1 4.032.864 5.333 5.333 0 0 1-2.045 9.59 4.97 4.97 0 0 1-4.032-.864 5.39 5.39 0 0 1-2.137-5.466Zm-5.282 7.891c.375.576.795 1.121 1.256 1.63a.719.719 0 0 0 .922.115l1.394-.904a10.45 10.45 0 0 0 2.235 1.532l-.352 1.625a.717.717 0 0 0 .438.817c1.287.507 2.65.797 4.032.859a.71.71 0 0 0 .731-.576l.346-1.625a10.306 10.306 0 0 0 2.667-.495l.904 1.4a.718.718 0 0 0 .864.276c.34-.15.68-.311 1.008-.495.329-.185.576-.311.812-.484.576-.375 1.121-.795 1.63-1.256a.72.72 0 0 0 .116-.921l-.91-1.4a10.18 10.18 0 0 0 1.538-2.229l1.624.345a.713.713 0 0 0 .818-.432c.507-1.287.797-2.649.858-4.032a.73.73 0 0 0-.576-.737l-1.63-.345c-.044-.905-.209-1.8-.49-2.662l1.406-.881a.713.713 0 0 0 .27-.887 12.038 12.038 0 0 0-.973-1.82c-.377-.575-.8-1.12-1.261-1.63a.72.72 0 0 0-.922-.11l-1.394.905a10.097 10.097 0 0 0-2.235-1.532l.352-1.63a.72.72 0 0 0-.438-.818 12.315 12.315 0 0 0-4.032-.853.715.715 0 0 0-.732.576l-.345 1.624c-.906.046-1.8.213-2.661.496l-.899-1.4a.717.717 0 0 0-.887-.271c-.629.277-1.234.604-1.809.98-.572.372-1.113.79-1.618 1.25a.72.72 0 0 0-.11.921l.905 1.4a10.289 10.289 0 0 0-1.538 2.229l-1.625-.346a.72.72 0 0 0-.817.432 12.452 12.452 0 0 0-.859 4.032.72.72 0 0 0 .576.732l1.63.345c.047.907.211 1.803.49 2.667l-1.394.905a.72.72 0 0 0-.27.887c.269.622.589 1.221.956 1.791Zm-.247-2.062 1.607-1.071a.379.379 0 0 0 .12-.421 9.506 9.506 0 0 1-.575-3.007.368.368 0 0 0-.3-.357l-1.86-.391c.043-1.281.308-2.543.783-3.733l1.9.38a.379.379 0 0 0 .244-.031.378.378 0 0 0 .172-.176 9.261 9.261 0 0 1 1.728-2.511.377.377 0 0 0 .046-.461l-1.043-1.601a8.82 8.82 0 0 1 1.498-1.187 11.353 11.353 0 0 1 1.659-.899l1.077 1.613a.368.368 0 0 0 .438.15 9.326 9.326 0 0 1 3-.576.375.375 0 0 0 .358-.3l.397-1.854c1.278.037 2.54.299 3.727.772l-.38 1.9a.368.368 0 0 0 .207.415 9.517 9.517 0 0 1 2.517 1.728.393.393 0 0 0 .21.098.39.39 0 0 0 .228-.04l1.595-1.037c.448.457.848.958 1.193 1.497.343.529.643 1.083.898 1.659l-1.613 1.077a.377.377 0 0 0-.15.438c.353.963.547 1.976.577 3.001a.377.377 0 0 0 .293.357l1.867.398a11.065 11.065 0 0 1-.755 3.709l-1.9-.38a.338.338 0 0 0-.214 0 .383.383 0 0 0-.201.19 9.394 9.394 0 0 1-1.728 2.511.37.37 0 0 0-.04.461l1.036 1.602a9.189 9.189 0 0 1-1.497 1.186 11.53 11.53 0 0 1-1.677.887l-1.077-1.613a.368.368 0 0 0-.438-.149 9.532 9.532 0 0 1-3.006.576.371.371 0 0 0-.357.293l-.398 1.861a10.985 10.985 0 0 1-3.704-.755l.38-1.901a.374.374 0 0 0-.207-.414 9.572 9.572 0 0 1-2.517-1.728.37.37 0 0 0-.223-.1.381.381 0 0 0-.238.059l-1.618 1.049a12.739 12.739 0 0 1-1.152-1.515 11.595 11.595 0 0 1-.887-1.659ZM237.513 78.281a6.916 6.916 0 0 0 2.731 7.022 6.497 6.497 0 0 0 5.264 1.123c.371-.087.735-.2 1.089-.34a6.916 6.916 0 0 0 4.262-4.965 6.916 6.916 0 0 0-2.73-7.021 6.487 6.487 0 0 0-5.259-1.152 6.912 6.912 0 0 0-5.357 5.333Zm.824.173a6.087 6.087 0 0 1 3.75-4.354c.314-.126.637-.226.968-.3a5.631 5.631 0 0 1 4.573.973 6.03 6.03 0 0 1-2.304 10.83 5.624 5.624 0 0 1-4.568-.974 6.097 6.097 0 0 1-2.419-6.175Zm-5.962 8.91c.422.652.896 1.269 1.417 1.844a.81.81 0 0 0 1.043.133l1.572-1.02a11.877 11.877 0 0 0 2.523 1.728l-.391 1.832a.802.802 0 0 0 .489.927c1.447.573 2.979.9 4.533.968a.809.809 0 0 0 .83-.645l.386-1.832a11.456 11.456 0 0 0 3.006-.576l1.049 1.595a.811.811 0 0 0 .973.317c.392-.173.772-.357 1.152-.576.38-.219.611-.351.91-.576a14.09 14.09 0 0 0 1.844-1.417.807.807 0 0 0 .126-1.037l-1.025-1.584c.687-.755 1.268-1.6 1.728-2.51l1.837.39a.806.806 0 0 0 .922-.495c.574-1.446.903-2.978.973-4.533a.822.822 0 0 0-.645-.83l-1.843-.39a11.5 11.5 0 0 0-.576-3.002l1.578-1.025a.798.798 0 0 0 .306-.997 14.418 14.418 0 0 0-1.101-2.056 14.055 14.055 0 0 0-1.428-1.837.801.801 0 0 0-1.037-.127l-1.555 1.031a11.696 11.696 0 0 0-2.523-1.728l.398-1.837a.816.816 0 0 0-.496-.922 13.963 13.963 0 0 0-4.533-.962.81.81 0 0 0-.829.64l-.386 1.837a11.517 11.517 0 0 0-3.007.576l-1.025-1.578a.798.798 0 0 0-1.003-.306 14.298 14.298 0 0 0-3.888 2.523.808.808 0 0 0-.126 1.037l1.025 1.578a11.138 11.138 0 0 0-1.728 2.517l-1.837-.391a.814.814 0 0 0-.922.495 13.998 13.998 0 0 0-.973 4.533.814.814 0 0 0 .645.824l1.837.391c.061 1.023.254 2.034.576 3.007l-1.624 1.014a.813.813 0 0 0-.306 1.002c.319.714.697 1.4 1.129 2.05Zm-.305-2.303 1.815-1.216a.408.408 0 0 0 .167-.49 10.763 10.763 0 0 1-.622-3.398.43.43 0 0 0-.34-.403l-2.103-.443c.043-1.433.333-2.848.859-4.182l2.142.426a.419.419 0 0 0 .467-.23 10.67 10.67 0 0 1 1.958-2.84.416.416 0 0 0 .052-.518l-1.152-1.809a10.493 10.493 0 0 1 1.688-1.342 13.72 13.72 0 0 1 1.872-1.014l1.215 1.826a.429.429 0 0 0 .501.167 10.372 10.372 0 0 1 3.387-.633.426.426 0 0 0 .403-.335l.444-2.096c1.434.04 2.851.326 4.187.847l-.432 2.148a.423.423 0 0 0 .231.467 10.933 10.933 0 0 1 2.845 1.952.41.41 0 0 0 .49.07h.029l1.802-1.153a9.999 9.999 0 0 1 1.348 1.688c.388.597.725 1.225 1.008 1.878l-1.814 1.21a.413.413 0 0 0-.167.495 10.75 10.75 0 0 1 .622 3.387.426.426 0 0 0 .334.409l2.108.443a12.47 12.47 0 0 1-.858 4.188l-2.143-.432a.488.488 0 0 0-.242 0 .423.423 0 0 0-.224.213 10.82 10.82 0 0 1-1.959 2.84.415.415 0 0 0-.052.518l1.152 1.808c-.516.503-1.081.953-1.687 1.343-.598.384-1.224.723-1.872 1.013l-1.216-1.826a.414.414 0 0 0-.495-.167c-1.09.39-2.235.604-3.393.634a.414.414 0 0 0-.403.328l-.443 2.103a12.24 12.24 0 0 1-4.188-.859l.432-2.142a.42.42 0 0 0-.236-.467 10.71 10.71 0 0 1-2.851-1.987.415.415 0 0 0-.519-.046l-1.831 1.187a14.8 14.8 0 0 1-1.319-1.728 13.337 13.337 0 0 1-.997-1.855v.023Z"/>
    <path fill="#FAFAFA" d="m116.934 175.308-22.159 12.799-.006-51.558 22.165 38.759Z"/>
    <path fill="#E0E0E0" d="m94.775 188.107 22.159-12.799-22.165-38.759.006 1.435 21.312 37.071-21.312 12.303v.749ZM72.61 175.308l22.164 12.799-.006-51.558-22.159 38.759Z"/>
    <path fill="#263238" d="m72.61 175.308 22.164 12.799-.006-51.558-22.159 38.759Z" opacity=".1"/>
    <path fill="#40FFDF" d="m23.414 195.129 18.605 10.736 33.742-19.457-18.605-10.737-33.742 19.458Z"/>
    <path fill="#fff" d="m23.414 195.129 18.605 10.736 33.742-19.457-18.605-10.737-33.742 19.458Z" opacity=".5"/>
    <path fill="#40FFDF" d="m23.414 195.129 18.605 10.737v12.643l-18.605-10.743v-12.637ZM75.762 186.408v12.643L42.02 218.509v-12.644l33.742-19.457Z"/>
    <path fill="#fff" d="M75.762 186.408v12.643L42.02 218.509v-12.644l33.742-19.457Z" opacity=".3"/>
    <path fill="#263238" d="M68.957 216.988c0-2.823 1.866-5.639 5.593-7.794 7.448-4.302 19.532-4.302 26.986 0 3.726 2.155 5.587 4.971 5.587 7.794v9.936c0 2.816-1.861 5.639-5.587 7.787-7.454 4.303-19.538 4.303-26.986 0-3.733-2.148-5.593-4.971-5.593-7.787v-9.936Z"/>
    <path fill="#455A64" d="M101.536 209.194c3.726 2.155 5.587 4.971 5.587 7.794 0 2.822-1.861 5.639-5.587 7.787-7.454 4.303-19.538 4.303-26.992 0-3.72-2.148-5.587-4.971-5.587-7.787 0-2.817 1.866-5.639 5.593-7.794 7.448-4.302 19.532-4.302 26.986 0Z"/>
    <path fill="#40FFDF" d="m247.338 169.208 13.703 7.909-13.703 7.908-13.697-7.908 13.697-7.909Z"/>
    <path fill="#fff" d="m247.338 169.208 13.703 7.909-13.703 7.908-13.697-7.908 13.697-7.909Z" opacity=".2"/>
    <path fill="#40FFDF" d="M233.641 177.117v15.817l13.697 7.909v-15.817l-13.697-7.909ZM261.043 177.117v15.817l-13.703 7.909v-15.817l13.703-7.909Z"/>
    <path fill="#263238" d="M261.043 177.117v15.817l-13.703 7.909v-15.817l13.703-7.909Z" opacity=".2"/>
    <path fill="#37474F" d="M181.793 216.349v7.603a.737.737 0 0 0 .685.726l5.184.328v7.338a.454.454 0 0 0 .254.369l5.483 3.168c.215.103.453.151.692.138.177.006.354-.028.518-.098l5.558-2.574c.404-.16.848-.186 1.268-.075a33.77 33.77 0 0 0 4.314 1.025 1.04 1.04 0 0 1 .8.778l.697 3.663c.04.19.146.36.3.478a.823.823 0 0 0 .513.196h8.064a.777.777 0 0 0 .46-.179c.041 0 .064-.057.104-.092a.779.779 0 0 0 .109-.098v-.086c.047-.075.121-.133.139-.219l.691-3.663a1.047 1.047 0 0 1 .806-.778 33.323 33.323 0 0 0 4.309-1.025 2.048 2.048 0 0 1 1.273.075l5.552 2.574c.111.035.225.054.34.058v.034c.063.006.127.006.19 0h.15c.183-.008.361-.055.524-.138l5.478-3.168a.51.51 0 0 0 .196-.184.261.261 0 0 0 .04-.144v-7.327l5.098-.322h.098c.052 0 .08-.052.132-.064a.718.718 0 0 0 .346-.167.769.769 0 0 0 .109-.259c.029-.075.092-.138.092-.23V212.979a.736.736 0 0 0-.685-.726l-5.184-.328v-7.315a.426.426 0 0 0-.254-.386l-5.477-3.168a1.458 1.458 0 0 0-1.21-.052l-5.489 2.54a2.073 2.073 0 0 1-1.267.075 33.616 33.616 0 0 0-4.315-1.025 1.06 1.06 0 0 1-.806-.783l-.691-3.658a.854.854 0 0 0-.812-.674h-8.064a.865.865 0 0 0-.813.674l-.691 3.658a1.048 1.048 0 0 1-.806.783 32.52 32.52 0 0 0-4.309 1.025 2.092 2.092 0 0 1-1.273-.075l-5.552-2.574a1.504 1.504 0 0 0-1.216.051l-5.477 3.168a.43.43 0 0 0-.254.398v7.304l-5.184.328a.74.74 0 0 0-.685.726v3.271c-.02.043-.037.088-.052.133Zm21.059 2.586c5.114-2.955 13.403-2.955 18.518 0 .386.219.743.449 1.071.68-.342.257-.7.493-1.071.708-5.115 2.949-13.404 2.949-18.518 0a12.67 12.67 0 0 1-1.072-.703c.328-.236.686-.46 1.072-.685Z"/>
    <path fill="#263238" d="M181.789 216.349v7.603a.737.737 0 0 0 .686.726l5.184.328v7.338a.448.448 0 0 0 .253.369l5.483 3.162c.213.112.452.161.692.144.178.006.354-.028.518-.098l5.558-2.574c.167-.066.341-.109.519-.127.25-.031.505-.013.749.052a33.77 33.77 0 0 0 4.314 1.025c.121.025.236.072.34.138v.041a.978.978 0 0 1 .461.576l.697 3.663a.84.84 0 0 0 .299.478.81.81 0 0 0 .513.19h8.213a.885.885 0 0 0 .525-.346v-.086c.046-.075.121-.132.138-.219l.691-3.663a.995.995 0 0 1 .328-.524.995.995 0 0 1 .478-.242 33.326 33.326 0 0 0 4.309-1.026c.278-.072.568-.086.852-.04.144.014.285.045.421.092l5.552 2.575c.11.035.225.055.34.058v.034c.298.041.601-.009.87-.144l5.478-3.162a.802.802 0 0 0 .121-.086.572.572 0 0 0 .086-.11.396.396 0 0 0 .052-.161v-7.321l.95-.064 4.153-.264h.093a.747.747 0 0 0 .685-.715v-6.958a.737.737 0 0 1-.685.726l-7.298.467a1.335 1.335 0 0 0-.991.65 10.79 10.79 0 0 1-1.549 2.155.565.565 0 0 0-.174.465.58.58 0 0 0 .254.427l4.343 3.122a.412.412 0 0 1 .219.385.405.405 0 0 1-.259.358l-5.478 3.168a1.503 1.503 0 0 1-1.215.052l-5.495-2.574a1.999 1.999 0 0 0-1.273-.075 33.323 33.323 0 0 1-4.309 1.025 1.059 1.059 0 0 0-.806.778l-.691 3.663a.87.87 0 0 1-.812.674h-8.064a.858.858 0 0 1-.813-.674l-.697-3.663a1.03 1.03 0 0 0-.285-.504 1.033 1.033 0 0 0-.509-.274 32.622 32.622 0 0 1-4.32-1.031 2.032 2.032 0 0 0-1.268.081l-5.558 2.574a1.495 1.495 0 0 1-1.21-.052l-5.483-3.168a.41.41 0 0 1-.25-.357.407.407 0 0 1 .215-.38l4.343-3.128a.563.563 0 0 0 .254-.427.57.57 0 0 0-.173-.465 11.004 11.004 0 0 1-1.55-2.155 1.346 1.346 0 0 0-.984-.65l-7.304-.461a.74.74 0 0 1-.68-.732v-.795a.635.635 0 0 0-.046.133ZM187.688 204.587v7.298l2.108-.133a1.349 1.349 0 0 0 .985-.656c.427-.777.947-1.498 1.549-2.149a.57.57 0 0 0 .173-.465.58.58 0 0 0-.254-.428l-4.343-3.127a.47.47 0 0 1-.213-.34h-.005ZM231.896 208.947a10.709 10.709 0 0 1 1.55 2.148 1.334 1.334 0 0 0 .991.657l2.096.133v-7.316a.459.459 0 0 1-.219.357l-4.343 3.128a.57.57 0 0 0-.25.429.587.587 0 0 0 .175.464Z"/>
    <path fill="#455A64" d="m229.59 200.97-5.53 2.574a2.072 2.072 0 0 1-1.267.075 33.601 33.601 0 0 0-4.314-1.025 1.052 1.052 0 0 1-.806-.783l-.692-3.658a.854.854 0 0 0-.812-.674h-8.064a.865.865 0 0 0-.812.674l-.691 3.658a1.056 1.056 0 0 1-.807.783 32.505 32.505 0 0 0-4.308 1.025 2.092 2.092 0 0 1-1.273-.075l-5.553-2.574a1.504 1.504 0 0 0-1.215.051l-5.478 3.168a.407.407 0 0 0-.261.356.41.41 0 0 0 .221.382l4.343 3.127a.584.584 0 0 1 .254.427.589.589 0 0 1-.173.466 10.715 10.715 0 0 0-1.55 2.149 1.333 1.333 0 0 1-.985.656l-7.303.461a.74.74 0 0 0-.686.726v4.072a.736.736 0 0 0 .686.732l7.303.46a1.345 1.345 0 0 1 .985.657c.426.777.946 1.499 1.55 2.149a.575.575 0 0 1-.081.892l-4.343 3.122a.412.412 0 0 0-.219.385.413.413 0 0 0 .259.358l5.478 3.163a1.499 1.499 0 0 0 1.215.057l5.553-2.575a2.005 2.005 0 0 1 1.273-.074c1.412.437 2.851.779 4.308 1.025a1.062 1.062 0 0 1 .807.777l.691 3.664a.857.857 0 0 0 .812.668h8.064a.851.851 0 0 0 .812-.668l.692-3.664a1.055 1.055 0 0 1 .806-.777 33.77 33.77 0 0 0 4.314-1.025c.42-.114.865-.088 1.267.074l5.559 2.575a1.48 1.48 0 0 0 1.209-.057l5.478-3.163a.405.405 0 0 0 .206-.583.41.41 0 0 0-.165-.16l-4.344-3.122a.57.57 0 0 1-.219-.679.551.551 0 0 1 .139-.213 10.779 10.779 0 0 0 1.549-2.149c.103-.177.246-.329.416-.443a1.36 1.36 0 0 1 .569-.214l7.304-.46a.736.736 0 0 0 .685-.732v-4.072a.737.737 0 0 0-.685-.726l-7.304-.461a1.346 1.346 0 0 1-.985-.656 10.75 10.75 0 0 0-1.549-2.149.574.574 0 0 1 .08-.893l4.344-3.127a.423.423 0 0 0 .167-.158.408.408 0 0 0-.024-.441.41.41 0 0 0-.184-.139l-5.478-3.168a1.485 1.485 0 0 0-1.238-.051Zm-8.219 8.64c5.109 2.949 5.109 7.735 0 10.69-5.11 2.955-13.404 2.949-18.519 0-5.115-2.949-5.109-7.741 0-10.69 5.109-2.95 13.404-2.932 18.519.023v-.023Z"/>
    <path fill="#37474F" d="M236.537 225.392a.474.474 0 0 0-.219-.369l-2.189-1.572v-5.184a.94.94 0 0 1 .305-.069l7.298-.467a.737.737 0 0 0 .686-.726v6.953a.745.745 0 0 1-.686.714h-.092l-4.153.265-.95.063v.392ZM223.617 226.302c.143.016.283.053.415.11l5.553 2.574c.226.091.472.121.714.087v6.941a1.68 1.68 0 0 1-.375 0v-.035a1.182 1.182 0 0 1-.339-.058l-5.524-2.574a1.694 1.694 0 0 0-.415-.092l-.029-6.953ZM216.852 232.062c.046-.081.081-.169.103-.259l.691-3.664a.955.955 0 0 1 .11-.276v6.912a.855.855 0 0 0-.11.271l-.691 3.663a.492.492 0 0 1-.103.173v-6.82Z"/>
    <path fill="#000" d="M206.469 227.863c.05.085.085.179.103.276l.697 3.664c.02.091.055.179.104.259v6.912a.843.843 0 0 1-.104-.259l-.697-3.664a.698.698 0 0 0-.103-.247v-6.941ZM193.926 229.073c.239.034.484.005.708-.087l5.559-2.574c.132-.057.272-.094.414-.11v6.912a1.7 1.7 0 0 0-.414.11l-5.559 2.574a1.21 1.21 0 0 1-.518.098h-.19v-6.923ZM182.491 217.742l7.304.461c.103.007.204.03.299.069v5.184l-2.189 1.579a.472.472 0 0 0-.219.363v-.386l-5.184-.329a.735.735 0 0 1-.685-.725v-7.604a.619.619 0 0 1 0-.149v.812a.736.736 0 0 0 .674.725Z" opacity=".15"/>
    <path fill="#37474F" d="M224.835 175.758a.333.333 0 0 0-.041-.127v-6.549a.52.52 0 0 0-.115-.311l-2.045-2.851a.978.978 0 0 0-.84-.398l-5.346.899a1.668 1.668 0 0 1-1.025-.317 13.27 13.27 0 0 0-1.06-.668v-4.251c0-.173-.161-.334-.426-.397l-5.426-1.296a.973.973 0 0 0-.87.167l-2.586 2.73c-.242.19-.545.284-.853.265a27.813 27.813 0 0 0-3.536 0 1.41 1.41 0 0 1-.951-.415l-2.304-2.442a1.047 1.047 0 0 0-.904-.334l-5.639 1.342a.37.37 0 0 0-.294.374v4.217c-.432.244-.851.512-1.255.8a1.463 1.463 0 0 1-.933.162l-5.219-.83a.92.92 0 0 0-.818.242l-2.252 3.133a.248.248 0 0 0-.046.139v8.139c.002.045.018.09.046.126v4.119c.002.12.043.237.115.334l2.045 2.851a.97.97 0 0 0 .841.397l5.345-.904c.364-.013.723.09 1.025.294.334.236.686.455 1.06.674v4.233c0 .173.161.34.426.409l5.426 1.296a.999.999 0 0 0 .882-.167l2.592-2.73a1.22 1.22 0 0 1 .852-.265c1.178.072 2.359.072 3.537 0 .357.012.696.158.95.409l2.304 2.448a1.066 1.066 0 0 0 .905.334l5.644-1.348a.354.354 0 0 0 .283-.311v-4.297c.432-.242.851-.508 1.255-.795.283-.161.613-.218.933-.161l5.184.876a.91.91 0 0 0 .818-.248l2.252-3.133a.275.275 0 0 0 .047-.139v-5.719l.017-.006Zm-30.2.161c.248-.173.519-.34.807-.513 3.876-2.234 10.16-2.234 14.037 0 .282.168.547.335.783.507-.27.21-.553.402-.847.576-2.759 1.567-6.969 2.12-10.765 1.216a12.202 12.202 0 0 1-3.185-1.221 8.026 8.026 0 0 1-.83-.588v.023Z"/>
    <path fill="#263238" d="M191.809 164.779a18.5 18.5 0 0 0-1.25.639v-4.216c0 .077.02.152.057.219l1.354 2.678a.491.491 0 0 1-.161.68Z"/>
    <path fill="#000" d="M185.569 171.478a5.52 5.52 0 0 0 0 1.768.574.574 0 0 1-.357.622l-4.885 1.544a.315.315 0 0 0-.224.311v1.584a.211.211 0 0 1-.041-.115v-8.15c0 .144.156.288.392.362l4.608 1.463a.641.641 0 0 1 .507.611ZM188.62 178.379v5.725a.708.708 0 0 0-.195 0l-5.346.893a.647.647 0 0 1-.27 0v-5.72a.67.67 0 0 0 .282 0l5.345-.898a.63.63 0 0 1 .184 0Z" opacity=".15"/>
    <path fill="#263238" d="M190.51 185.066a13.907 13.907 0 0 1-1.059-.668 1.948 1.948 0 0 0-.83-.294v-5.726c.299.029.586.132.835.3.69.469 1.414.885 2.166 1.244.317.156.495.432.392.645l-1.469 2.909a.299.299 0 0 0-.029.121l-.006 1.469Z"/>
    <path fill="#000" d="M200.16 182.232v5.725a.904.904 0 0 0-.328.185l-2.598 2.73a.778.778 0 0 1-.472.19v-5.725a.752.752 0 0 0 .484-.185l2.603-2.736a.775.775 0 0 1 .311-.184Z" opacity=".15"/>
    <path fill="#263238" d="M204.561 182.169v5.725a1.308 1.308 0 0 0-.34-.051 30.244 30.244 0 0 1-3.537 0 1.376 1.376 0 0 0-.524.08v-5.691c.172-.06.354-.088.536-.08 1.176.075 2.355.075 3.531 0 .111-.013.224-.007.334.017Z"/>
    <path fill="#000" d="M208.015 185.285v5.72a1.192 1.192 0 0 1-.518-.305l-2.304-2.448a1.451 1.451 0 0 0-.611-.358v-5.725a1.5 1.5 0 0 1 .622.363l2.304 2.442c.14.145.314.252.507.311Z" opacity=".15"/>
    <path fill="#37474F" d="M214.34 183.661V189.375a.36.36 0 0 1-.288.311l-5.639 1.347a.743.743 0 0 1-.386 0v-5.748a.88.88 0 0 0 .398.029l5.639-1.354a.34.34 0 0 0 .276-.299Z"/>
    <path fill="#000" d="M216.159 178.384v5.726a1.218 1.218 0 0 0-.576.173c-.403.288-.823.554-1.256.794v-1.486c0-.08-.02-.159-.058-.23l-1.353-2.684a.493.493 0 0 1-.062-.376.479.479 0 0 1 .229-.304 15.89 15.89 0 0 0 2.505-1.434 1.18 1.18 0 0 1 .571-.179Z" opacity=".15"/>
    <path fill="#37474F" d="M224.837 175.758v5.719a.408.408 0 0 1-.052.144l-2.252 3.128a.658.658 0 0 1-.381.225v-5.72a.707.707 0 0 0 .398-.225l2.246-3.133a.25.25 0 0 0 .041-.138Z"/>
    <path fill="#455A64" d="M190.546 161.185a.54.54 0 0 0 .057.219l1.354 2.678a.483.483 0 0 1-.173.68 19.87 19.87 0 0 0-1.244.639c-.433.245-.852.512-1.256.801a1.462 1.462 0 0 1-.933.161l-5.184-.835a.92.92 0 0 0-.818.242l-2.252 3.133a.248.248 0 0 0-.046.139c0 .144.155.288.397.363l4.608 1.463a.627.627 0 0 1 .501.61 5.697 5.697 0 0 0 0 1.768.575.575 0 0 1-.363.623l-4.884 1.543a.321.321 0 0 0-.225.311.571.571 0 0 0 .116.317l2.044 2.846a.967.967 0 0 0 .847.397l5.34-.899c.363-.018.721.086 1.019.294.69.471 1.416.887 2.172 1.244.316.156.489.432.386.64l-1.469 2.914c-.104.208.075.432.397.513l5.426 1.296a1.01 1.01 0 0 0 .876-.161l2.597-2.736c.242-.192.546-.286.853-.265 1.176.072 2.355.072 3.531 0 .359.008.702.154.956.409l2.304 2.448a1.104 1.104 0 0 0 .904.334l5.645-1.354a.387.387 0 0 0 .23-.576l-1.353-2.684a.493.493 0 0 1-.062-.376.495.495 0 0 1 .229-.304 15.113 15.113 0 0 0 2.505-1.44c.283-.155.609-.212.928-.161l5.184.87a.915.915 0 0 0 .824-.236l2.24-3.134a.219.219 0 0 0 .052-.138.331.331 0 0 0-.04-.127.623.623 0 0 0-.352-.242l-4.608-1.463a.637.637 0 0 1-.507-.61 5.489 5.489 0 0 0 0-1.763.579.579 0 0 1 .363-.622l4.885-1.549a.31.31 0 0 0 .224-.3.522.522 0 0 0-.115-.311l-2.045-2.851a.974.974 0 0 0-.841-.398l-5.345.899a1.67 1.67 0 0 1-1.002-.34 13.27 13.27 0 0 0-1.06-.668c-.374-.213-.72-.392-1.1-.576-.38-.184-.501-.432-.392-.639l1.469-2.915a.272.272 0 0 0 .029-.115c0-.173-.161-.334-.426-.398l-5.432-1.301a.973.973 0 0 0-.87.167l-2.586 2.73c-.242.19-.545.284-.853.265a27.813 27.813 0 0 0-3.536 0 1.41 1.41 0 0 1-.951-.415l-2.304-2.448a1.057 1.057 0 0 0-.904-.328l-5.639 1.342a.367.367 0 0 0-.322.38Zm20.517 8.375.138.138.098.11c.071.077.139.157.201.242.073.096.142.194.208.293.046.064.08.127.121.191l.052.092a3.502 3.502 0 0 1-.271 3.951 5.92 5.92 0 0 1-1.371 1.319c-.27.209-.553.402-.847.576-2.759 1.567-6.969 2.12-10.765 1.215a12.167 12.167 0 0 1-3.185-1.221 7.82 7.82 0 0 1-.83-.541 5.605 5.605 0 0 1-1.751-1.987l-.104-.242a3.506 3.506 0 0 1 .507-3.456c2.097-2.921 7.897-4.309 12.96-3.099a9.97 9.97 0 0 1 4.839 2.419Z"/>
    <path fill="#40FFDF" d="M188.55 42.719a4.67 4.67 0 0 0-1.037-.807c-1.255-.72-6.653-3.847-7.015-4.032-3.117-1.774-7.488.853-10.558 6.596L127.742 123.6c-5.42 10.155-5.835 23.04-.916 28.022.421.433.897.809 1.417 1.118 1.233.731 6.549 3.79 7.062 4.083 4.965 2.88 12.096-2.102 16.416-11.923l37.025-84.424c2.995-6.837 2.915-14.602-.196-17.758Z"/>
    <path fill="#fff" d="M188.55 42.719a4.67 4.67 0 0 0-1.037-.807c-1.255-.72-6.653-3.847-7.015-4.032-3.117-1.774-7.488.853-10.558 6.596L127.742 123.6c-5.42 10.155-5.835 23.04-.916 28.022.421.433.897.809 1.417 1.118 1.233.731 6.549 3.79 7.062 4.083 4.965 2.88 12.096-2.102 16.416-11.923l37.025-84.424c2.995-6.837 2.915-14.602-.196-17.758Z" opacity=".3"/>
    <path fill="#40FFDF" d="M188.743 60.477 151.718 144.9c-4.752 10.835-12.96 15.783-17.856 10.777-4.919-5.005-4.505-17.856.91-28.022l42.18-79.154c3.422-6.417 8.49-8.945 11.595-5.76 3.111 3.133 3.191 10.898.196 17.735Z" opacity=".6"/>
    <path fill="#263238" d="M140.402 148.634c1.256.576 2.88.311 4.551-.876 3.352-2.373 5.679-7.603 5.184-11.681-.236-2.039-1.152-3.41-2.385-3.969-.766-.34-1.918-.835-2.678-1.152-1.256-.576-2.88-.311-4.545.876-3.352 2.373-5.685 7.603-5.184 11.681.236 2.039 1.152 3.404 2.391 3.963l2.666 1.158Z"/>
    <path fill="#455A64" d="M150.154 136.077c-.236-2.039-1.152-3.41-2.384-3.969-1.233-.558-2.88-.311-4.551.876-3.352 2.373-5.679 7.609-5.184 11.687.242 2.039 1.152 3.404 2.391 3.963 1.238.558 2.88.311 4.55-.876 3.329-2.39 5.656-7.574 5.178-11.681Z"/>
    <path fill="#263238" d="M181.903 58.847c.691.31 1.578.173 2.5-.478a7.599 7.599 0 0 0 2.88-6.422c-.133-1.153-.622-1.878-1.313-2.184l-1.475-.65c-.691-.306-1.578-.168-2.5.483a7.597 7.597 0 0 0-2.88 6.423 2.565 2.565 0 0 0 1.314 2.183l1.474.645Z"/>
    <path fill="#455A64" d="M187.266 51.946c-.132-1.152-.628-1.878-1.313-2.183-.686-.305-1.578-.173-2.5.484a7.567 7.567 0 0 0-2.88 6.422c.132 1.124.622 1.872 1.313 2.178.691.305 1.579.172 2.5-.478a7.6 7.6 0 0 0 2.88-6.423Z"/>
    <path fill="#40FFDF" d="M187.902 42.068a5.983 5.983 0 0 0-4.36-.53l-65.203 13.87c-3.64.772-7.586 5.138-8.98 9.93-1.042 3.595-.374 6.48 1.498 7.58a640.65 640.65 0 0 0 4.734 2.73c.674.36 1.441.511 2.201.433l62.657-5.098c5.587-.455 12.148-7.269 14.4-14.936 1.573-5.408.536-9.682-2.252-11.295-.789-.45-3.905-2.223-4.695-2.684Z"/>
    <path fill="#fff" d="M187.902 42.068a5.983 5.983 0 0 0-4.36-.53l-65.203 13.87c-3.64.772-7.586 5.138-8.98 9.93-1.042 3.595-.374 6.48 1.498 7.58a640.65 640.65 0 0 0 4.734 2.73c.674.36 1.441.511 2.201.433l62.657-5.098c5.587-.455 12.148-7.269 14.4-14.936 1.573-5.408.536-9.682-2.252-11.295-.789-.45-3.905-2.223-4.695-2.684Z" opacity=".5"/>
    <path fill="#fff" d="m117.791 76.08 62.657-5.097c5.588-.455 12.148-7.269 14.4-14.935 2.23-7.661-.783-13.053-6.595-11.814l-65.237 13.87c-3.635.772-7.586 5.138-8.975 9.93-1.393 4.792.254 8.33 3.75 8.047Z" opacity=".3"/>
    <path fill="#263238" d="M171.822 200.531V192.6h-5.933a31.93 31.93 0 0 0-1.982-1.233c-10.587-6.117-27.751-6.117-38.344 0-.703.409-1.365.818-1.976 1.233h-5.979v7.943c-.103 3.214 2.535 6.434 7.932 9.55 10.587 6.111 27.757 6.111 38.344 0 5.403-3.134 8.041-6.348 7.938-9.562Z"/>
    <path fill="#37474F" d="M125.569 203.653c-10.587-6.111-10.587-16.024 0-22.135 10.587-6.112 27.758-6.112 38.344 0 10.587 6.111 10.587 16.024 0 22.135-10.586 6.112-27.78 6.117-38.344 0Z"/>
    <path fill="#455A64" d="M163.414 191.926v-43.102a17.706 17.706 0 0 0-5.068-12.718 17.683 17.683 0 0 0-12.624-5.296 17.683 17.683 0 0 0-16.438 11.145 17.706 17.706 0 0 0-1.254 6.869v43.2c0 2.604 1.728 5.184 5.184 7.177 6.912 3.946 18.138 3.928 25.022-.046 3.415-1.97 5.132-4.551 5.184-7.131l-.006-.098Z"/>
    <path fill="#40FFDF" d="M152.106 173.137a5.189 5.189 0 0 1 2.368-4.079 1.626 1.626 0 0 1 1.728-.132l1.048.634-.432.76v.086a5.175 5.175 0 0 1-2.362 4.073l-.489.864-1.152-.697h-.041a1.668 1.668 0 0 1-.668-1.509Z"/>
    <path fill="#000" d="M152.106 173.137a5.189 5.189 0 0 1 2.368-4.079 1.626 1.626 0 0 1 1.728-.132l1.048.634-.432.76v.086a5.175 5.175 0 0 1-2.362 4.073l-.489.864-1.152-.697h-.041a1.668 1.668 0 0 1-.668-1.509Z" opacity=".3"/>
    <path fill="#40FFDF" d="M157.991 171.092a5.212 5.212 0 0 1-2.362 4.078c-1.307.755-2.367.15-2.367-1.348a5.167 5.167 0 0 1 .692-2.319 5.175 5.175 0 0 1 1.669-1.753c1.308-.766 2.368-.15 2.368 1.342Z"/>
    <path fill="#E0E0E0" d="M152.106 183.251a5.179 5.179 0 0 1 2.368-4.072 1.625 1.625 0 0 1 1.728-.138l1.071.639-.432.766v.081a5.178 5.178 0 0 1-2.362 4.078l-.489.864-1.152-.691h-.04a1.665 1.665 0 0 1-.692-1.527Z"/>
    <path fill="#F5F5F5" d="M157.991 181.212a5.2 5.2 0 0 1-.692 2.32 5.197 5.197 0 0 1-1.67 1.753c-1.307.754-2.367.149-2.367-1.342a5.216 5.216 0 0 1 2.361-4.079c1.308-.754 2.368-.149 2.368 1.348Z"/>
    <path fill="#40FFDF" d="M200.495 49.487a4.68 4.68 0 0 0-1.042-.812c-1.25-.715-6.647-3.848-7.016-4.032-3.116-1.774-7.488.852-10.558 6.59l-42.198 79.159c-5.414 10.155-5.835 23.04-.916 28.016.421.435.898.813 1.417 1.124 1.233.725 6.549 3.784 7.062 4.083 4.965 2.88 12.096-2.108 16.416-11.923l37.025-84.424c2.996-6.86 2.915-14.636-.19-17.781Z"/>
    <path fill="#fff" d="M200.495 49.487a4.68 4.68 0 0 0-1.042-.812c-1.25-.715-6.647-3.848-7.016-4.032-3.116-1.774-7.488.852-10.558 6.59l-42.198 79.159c-5.414 10.155-5.835 23.04-.916 28.016.421.435.898.813 1.417 1.124 1.233.725 6.549 3.784 7.062 4.083 4.965 2.88 12.096-2.108 16.416-11.923l37.025-84.424c2.996-6.86 2.915-14.636-.19-17.781Z" opacity=".3"/>
    <path fill="#fff" d="m200.684 67.245-37.025 84.424c-4.752 10.835-12.96 15.782-17.856 10.777-4.92-5.005-4.505-17.856.915-28.022l42.175-79.16c3.422-6.411 8.49-8.94 11.601-5.76 3.104 3.128 3.185 10.904.19 17.74Z" opacity=".3"/>
    <path fill="#263238" d="M152.348 155.402c1.249.576 2.88.311 4.544-.876 3.352-2.373 5.685-7.603 5.184-11.687-.242-2.039-1.152-3.404-2.39-3.963l-2.679-1.152c-1.255-.576-2.88-.311-4.544.876-3.353 2.373-5.685 7.603-5.184 11.687.236 2.039 1.152 3.404 2.39 3.963l2.679 1.152Z"/>
    <path fill="#455A64" d="M162.098 142.839c-.242-2.039-1.152-3.404-2.391-3.963-1.238-.558-2.88-.311-4.55.876-3.353 2.373-5.68 7.603-5.184 11.687.236 2.039 1.152 3.404 2.384 3.963 1.233.559 2.88.311 4.551-.876 3.335-2.373 5.668-7.603 5.19-11.687Z"/>
    <path fill="#263238" d="M193.842 65.615a2.546 2.546 0 0 0 2.5-.478 7.592 7.592 0 0 0 2.88-6.428c-.132-1.153-.622-1.873-1.313-2.178l-1.492-.65c-.685-.306-1.578-.173-2.5.483a7.595 7.595 0 0 0-2.88 6.422c.133 1.152.628 1.873 1.319 2.178l1.486.65Z"/>
    <path fill="#455A64" d="M199.204 58.709c-.133-1.152-.622-1.872-1.314-2.178-.691-.305-1.578-.172-2.5.479a7.59 7.59 0 0 0-2.88 6.428c.133 1.117.623 1.872 1.314 2.177a2.546 2.546 0 0 0 2.5-.478 7.59 7.59 0 0 0 2.88-6.428Z"/>
    <path fill="#40FFDF" d="M111.266 52.016c2.253-1.694 4.424-2.057 6.106-1.285l10.282 5.979-.283.662a7.906 7.906 0 0 1 1.285 3.664c.657 5.489-2.39 12.62-6.814 15.932a8.011 8.011 0 0 1-3.496 1.595l-.265.68-10.253-5.967c-1.728-.657-3.018-2.489-3.358-5.322-.68-5.495 2.373-12.626 6.796-15.938Z"/>
    <path fill="#000" d="M111.266 52.016c2.253-1.694 4.424-2.057 6.106-1.285l10.282 5.979-.283.662a7.906 7.906 0 0 1 1.285 3.664c.657 5.489-2.39 12.62-6.814 15.932a8.011 8.011 0 0 1-3.496 1.595l-.265.68-10.253-5.967c-1.728-.657-3.018-2.489-3.358-5.322-.68-5.495 2.373-12.626 6.796-15.938Z" opacity=".15"/>
    <path fill="#40FFDF" d="M121.762 58.08c-4.423 3.318-7.488 10.45-6.814 15.933.674 5.483 4.775 7.246 9.216 3.934 4.441-3.312 7.488-10.443 6.82-15.932-.668-5.49-4.798-7.246-9.222-3.934Z"/>
    <path fill="#40FFDF" d="M119.116 70.88c.055.572.236 1.124.53 1.618.778 1.273 2.304 1.446 3.877.265a9.172 9.172 0 0 0 3.254-7.615c-.207-1.728-1.094-2.65-2.275-2.672a3.349 3.349 0 0 0-2.12.794 9.147 9.147 0 0 0-3.266 7.61Z"/>
    <path fill="#000" d="M119.116 70.88c.055.572.236 1.124.53 1.618.778 1.273 2.304 1.446 3.877.265a9.172 9.172 0 0 0 3.254-7.615c-.207-1.728-1.094-2.65-2.275-2.672a3.349 3.349 0 0 0-2.12.794 9.147 9.147 0 0 0-3.266 7.61Z" opacity=".3"/>
    <path fill="#263238" d="M119.116 70.88c.055.572.236 1.124.53 1.618a3.332 3.332 0 0 0 2.126-.79 9.16 9.16 0 0 0 3.254-7.608 3.851 3.851 0 0 0-.524-1.624 3.349 3.349 0 0 0-2.12.794 9.147 9.147 0 0 0-3.266 7.61ZM86.129 72.216c-.743.409-1.21 1.307-1.238 2.598a8.939 8.939 0 0 0 3.916 7.079c1.1.668 2.114.743 2.852.34L113.01 70.43c.737-.409 1.21-1.307 1.233-2.592a8.95 8.95 0 0 0-3.911-7.08c-1.106-.667-2.114-.748-2.88-.339L86.129 72.216Z"/>
    <path fill="#455A64" d="M88.807 81.864c1.1.668 2.114.743 2.852.334.737-.41 1.21-1.302 1.232-2.592a8.918 8.918 0 0 0-3.91-7.08c-1.107-.667-2.115-.748-2.852-.339-.737.409-1.21 1.308-1.238 2.598a8.939 8.939 0 0 0 3.916 7.079Z"/>
    <path fill="#455A64" d="M100.759 61.174c-1.878-1.043-3.606-1.32-5-.933a31.387 31.387 0 0 1-5.944.98c-2.667.172-5.04 0-7.719.109a29.505 29.505 0 0 0-5.276.76c-1.572.374-2.718 2.304-3.588 3.548-.709 1.014-1.838 3.577-1.555 4.188.282.61 2.845 1.03 1.6 2.096-1.243 1.066-5.656 2.546-8.294 4.36-2.638 1.815 3.191 14.303 7.776 20.345 3.168 4.182 4.499 6.336 11.572 3.283 4.268-1.855 8.225-3.537 11.964-6.336 3.387-2.517 8.029-9.032 11.37-12.672 1.21-1.02 1.918-2.794 1.872-5.184-.098-5.38-4.026-11.912-8.778-14.544Z"/>
    <path fill="#40FFDF" d="M64.299 63.576c-2.264-.392-5.27 1.849-8.024 1.688-2.212-.133-2.39 2.448.634 3.542 1.976.72 6.618.576 6.474-.374-.259-1.602.242-3.036.916-4.856Zm2.028-.507c-1.152.265-2.736 4.55-2 5.507.738.956 4.546 1.543 6.389.731.61-4.066 3.98-7.073 3.98-7.073-2.437-.472-7.24.593-8.37.852v-.017Z"/>
    <g fill="#263238" opacity=".2">
        <path d="M63.322 67.285a46 46 0 0 1-4.96-.115 5.915 5.915 0 0 1-2.303-.524 2.569 2.569 0 0 1-1.049-.997c-.806.732-.328 2.362 1.919 3.174 1.975.72 6.618.576 6.474-.374a5.705 5.705 0 0 1-.08-1.164ZM71.203 67.464c-1.255-.731-2.816-.536-4.262-.386a42.99 42.99 0 0 1-2.725.196c-.113.45-.064.925.139 1.342.743.956 4.544 1.544 6.387.731.09-.641.245-1.272.461-1.883Z"/>
    </g>
    <path fill="#37474F" d="M76.856 80.119c7.902 4.297 17.354 1.094 17.354 1.094a13.248 13.248 0 0 1-9.452 3.203c-5.996-.248-7.902-4.297-7.902-4.297Z"/>
    <path fill="#40FFDF" d="M63.495 81.657c.518 2.234 1.152 4.124-1.653 4.498-2.805.374-6.653.956-8.237 1.728-1.584.772-3.456.858-3.813-1.4-.357-2.258-.501-3.427 1.866-4.083 2.368-.657 6.428-2.045 7.972-2.88 1.544-.836 3.157-.887 3.865 2.137Z"/>
    <path fill="#263238" d="M61.84 86.155c2.782-.374 2.171-2.264 1.653-4.499 0-.126-.058-.242-.093-.357-.025.127-.06.252-.103.375a3.807 3.807 0 0 1-1.55 1.947c-1.486.91-3.404.72-5.04 1.324-1.07.392-1.992 1.112-3.052 1.533a5.904 5.904 0 0 1-3.83.16c.414 2.126 2.234 2.051 3.783 1.274 1.55-.778 5.444-1.383 8.232-1.757Z" opacity=".2"/>
    <path fill="#40FFDF" d="M49.053 86.83c-.812-1.475-1.112-2.599-2.834-1.424-1.722 1.175-3.554 2.247-5.547 3.577-1.993 1.331-2.068 2.546-1.584 3.428.484.88 1.728 1.077 3.808.34 2.079-.738 4.181-2.034 5.69-2.65 1.51-.617 1.527-1.36.467-3.272Z"/>
    <path fill="#263238" d="M49.053 86.829a2.927 2.927 0 0 1-.127-.23.386.386 0 0 0-.236.282c-.01.144.01.29.058.426a1.302 1.302 0 0 1-.45 1.152 3.85 3.85 0 0 1-1.065.634l-5.219 2.367a5.093 5.093 0 0 1-2.067.576 2.063 2.063 0 0 1-1.06-.288c.036.225.112.441.224.64.484.875 1.728 1.077 3.808.34 2.08-.738 4.181-2.034 5.69-2.65 1.51-.617 1.504-1.337.444-3.249Z" opacity=".2"/>
    <path fill="#E0E0E0" d="M51.117 86.126c.3.91.53 1.527.219 1.728-.311.202-2.564.83-3.059-.766-.495-1.595 1.405-2.534 1.866-2.534.461 0 .743.87.974 1.572Z"/>
    <path fill="#40FFDF" d="M69.699 95.014c1.117 2.004 2.229 3.652-.317 4.821-2.546 1.169-5.795 2.667-7.338 3.525-1.97 1.095-3.577 1.648-4.556-.426-.98-2.074-.928-2.419 1.151-3.744 2.08-1.325 5.553-3.836 6.791-5.08 1.239-1.245 2.73-1.803 4.269.904ZM56.484 103.176c-1.071-1.296-1.572-2.356-3.035-.864s-2.46 2.304-4.16 3.997c-1.698 1.694-1.543 2.909-.904 3.687.64.777 1.873.737 3.78-.386 1.906-1.123 3.115-2.223 4.475-3.11 1.359-.888 1.232-1.636-.156-3.324Z"/>
    <path fill="#263238" d="M55.119 105.37c-.841.669-1.844 1.152-2.633 1.878-.576.524-.996 1.152-1.543 1.728a2.364 2.364 0 0 1-2.76.743c.06.104.127.202.202.294.64.772 1.872.737 3.779-.386 1.906-1.123 3.116-2.223 4.475-3.11 1.36-.887 1.233-1.619-.12-3.278a3.605 3.605 0 0 1-1.4 2.131Zm14.55-10.368c-.052-.092-.104-.172-.156-.259.132.477.156.977.069 1.463a3.456 3.456 0 0 1-1.763 2.131 24.59 24.59 0 0 1-2.626 1.118c-.994.427-1.922.991-2.76 1.676a12.942 12.942 0 0 1-1.958 1.509c-.917.48-1.98.603-2.983.346.979 1.993 2.575 1.445 4.521.363 1.544-.859 4.787-2.356 7.339-3.526 2.551-1.169 1.434-2.805.345-4.81l-.029-.01Z" opacity=".2"/>
    <path fill="#E0E0E0" d="M58.264 102.375c.426.859.743 1.435.472 1.694-.27.259-2.401 1.21-3.127-.294-.726-1.503 1.008-2.73 1.463-2.799.455-.069.858.743 1.192 1.399Z"/>
    <path fill="#40FFDF" d="M74.036 101.154c1.33 1.728 1.601 2.88-.034 3.819-2.961 1.653-4.182 2.569-5.697 3.347-2.61 1.342-3.128 1.284-4.176-.657s-.657-2.379 1.302-3.853c1.601-1.21 3.329-2.443 5.08-3.635 1.388-.945 2.396-.518 3.525.979ZM63.276 108.412c-1.095-1.193-1.325-1.844-2.95-.663a12.267 12.267 0 0 0-2.407 2.131c-1.457 1.786-1.313 2.88-.662 3.606.65.726 1.837.576 3.6-.576 1.762-1.152 1.152-.777 2.39-1.728 1.239-.95 1.452-1.221.029-2.77Z"/>
    <path fill="#263238" d="M62.709 109.8c-.408.325-.846.61-1.308.852-.722.439-1.391.961-1.993 1.556-.355.417-.77.78-1.232 1.077a1.689 1.689 0 0 1-.899.19c.657.708 1.838.576 3.6-.576 1.763-1.152 1.152-.778 2.39-1.728 1.24-.951 1.435-1.204.15-2.632a1.924 1.924 0 0 1-.708 1.261Zm11.324-8.64a6.739 6.739 0 0 0-.576-.691 2.226 2.226 0 0 1-.334 1.826c-.576.777-1.567 1.088-2.367 1.624-1.423.962-2.24 2.667-3.739 3.508a4.03 4.03 0 0 1-2.712.449h-.052c.979 1.728 1.555 1.728 4.066.455 1.515-.777 2.736-1.693 5.697-3.346 1.618-.922 1.348-2.074.017-3.831v.006Z" opacity=".2"/>
    <path fill="#E0E0E0" d="M64.78 107.219c.49.778.846 1.302.61 1.573-.236.271-2.194 1.377-3.03 0-.835-1.377.715-2.702 1.152-2.811.438-.109.887.634 1.267 1.238Z"/>
    <path fill="#40FFDF" d="M66.032 88.298c.95 2.09 1.93 3.819-.714 4.764-2.644.944-8.34 3.214-9.723 4.32-1.382 1.105-3.19 1.566-4.032-.576-.84-2.143-1.152-3.266 1.002-4.407 2.155-1.14 7.903-4.233 9.217-5.362 1.313-1.13 2.96-1.573 4.25 1.261ZM50.981 96.604c-.996-1.354-1.434-2.43-3-1.048-1.567 1.382-3.26 2.66-5.075 4.228-1.815 1.566-1.728 2.776-1.152 3.582.576.807 1.843.853 3.836-.144 1.993-.996 3.911-2.534 5.334-3.33 1.422-.794 1.353-1.531.057-3.288Z"/>
    <path fill="#263238" d="M50.55 97.853a6.911 6.911 0 0 1-1.59.997 14.737 14.737 0 0 0-2.557 1.728 17.172 17.172 0 0 1-2.304 1.872 3.46 3.46 0 0 1-2.552.467c.066.161.151.314.253.455.576.806 1.844.852 3.837-.144 1.992-.997 3.91-2.535 5.333-3.33 1.423-.794 1.348-1.468.208-3.07a2.091 2.091 0 0 1-.628 1.025Zm15.552-9.394c.084.415.052.846-.092 1.244a2.517 2.517 0 0 1-.674.899c-1.959 1.774-4.896 1.877-7.23 3.122-1.151.61-2.125 1.492-3.27 2.096a4.288 4.288 0 0 1-3.457.438c.064.173.133.351.202.547.812 2.143 2.62 1.688 4.032.576 1.411-1.112 7.085-3.37 9.723-4.32 2.638-.95 1.699-2.586.772-4.602h-.006Z" opacity=".2"/>
    <path fill="#E0E0E0" d="M52.874 95.832c.397.87.69 1.457.414 1.728-.276.27-2.448 1.152-3.116-.403-.668-1.555 1.106-2.696 1.561-2.748.455-.052.835.726 1.14 1.423Z"/>
</svg>
