<svg xmlns="http://www.w3.org/2000/svg" width="288" height="289" viewBox="0 0 288 289" fill="none">
    <path fill="#F5F5F5" d="M144.001 277.911c74.945 0 135.699-33.256 135.699-74.281 0-41.024-60.754-74.281-135.699-74.281-74.945 0-135.7 33.257-135.7 74.281 0 41.025 60.755 74.281 135.7 74.281Z"/>
    <path fill="#E0E0E0" d="m40.567 221.031-29.912-17.239c-1.4-.807-1.4-2.12 0-2.926l66.453-38.414a5.608 5.608 0 0 1 5.07 0l29.911 17.24c1.4.812 1.4 2.12 0 2.926l-66.447 38.413a5.62 5.62 0 0 1-5.075 0ZM50.347 226.043l3.18 1.843a1.677 1.677 0 0 0 1.497 0l59.328-34.261a.456.456 0 0 0 .226-.698.452.452 0 0 0-.226-.166l-3.185-1.837a1.643 1.643 0 0 0-1.498 0l-59.328 34.255c-.409.253-.409.627.006.864ZM152.063 238.824l3.18 1.838a1.635 1.635 0 0 0 1.497 0l33.241-19.164c.415-.236.415-.622 0-.864l-3.185-1.837a1.668 1.668 0 0 0-1.498 0l-33.235 19.163c-.443.242-.443.628 0 .864ZM219.664 199.633l3.185 1.837a1.665 1.665 0 0 0 1.498 0l33.24-19.163a.452.452 0 0 0 .313-.432.458.458 0 0 0-.313-.432l-3.185-1.837a1.624 1.624 0 0 0-1.497 0l-33.241 19.163a.452.452 0 0 0-.312.432.452.452 0 0 0 .312.432Z"/>
    <path fill="#40FFDF" d="M39.535 211.977c1.573-17.828-1.762-26.727-5.581-33.247-2.96-5.057-8.064-9.619-10.973-11.313-2.909-1.693-6.854-1.889-9.348-.098-2.304 1.63-2.177 3.571-1.648 5.639 1.031 3.992 9.89 10.27 13 13.588 5.294 5.633 9.7 12.056 9.954 27.752l4.596-2.321Z"/>
    <path fill="#000" d="M39.535 211.977c1.573-17.828-1.762-26.727-5.581-33.247-2.96-5.057-8.064-9.619-10.973-11.313-2.909-1.693-6.854-1.889-9.348-.098-2.304 1.63-2.177 3.571-1.648 5.639 1.031 3.992 9.89 10.27 13 13.588 5.294 5.633 9.7 12.056 9.954 27.752l4.596-2.321Z" opacity=".15"/>
    <path fill="#fff" d="M37.138 209.459a.312.312 0 0 1-.271-.339c2.592-21.888-14.348-36.68-19.786-39.37a.32.32 0 0 1-.152-.423.316.316 0 0 1 .423-.153c5.535 2.742 22.758 17.781 20.125 39.992a.304.304 0 0 1-.103.223.296.296 0 0 1-.236.07Z"/>
    <path fill="#40FFDF" d="M36.864 215.559c-.138.127-1.325.784-1.492.864-1.918.922-4.608 1.06-7.027 1.112-1.607 0-3.773.063-5.132-.904a2.095 2.095 0 0 1-.95-2.143c.224-.864 1.18-1.492 1.117-2.379-1.803-.276-3.739.507-5.426-.184a6.34 6.34 0 0 1-2.88-2.684 3.459 3.459 0 0 1-.547-2.506c.276-.916 1.33-1.308 2.246-1.607.244-.067.473-.18.674-.334a.656.656 0 0 0 .207-.686c-.115-.288-.466-.385-.777-.432-.657-.092-1.331-.097-1.982-.23a2.975 2.975 0 0 1-1.728-.91 3.889 3.889 0 0 1-.674-2.235 33.682 33.682 0 0 1-.12-4.032 26.897 26.897 0 0 0-.271-3.456c3.121-1.273 6.658-1.601 9.993-1.474 1.866.069 4.608.46 5.76 2.206.296.502.465 1.07.49 1.653a6.33 6.33 0 0 1-.046.806c0 .161-.064.812.276.461a.67.67 0 0 0 .138-.288l.836-2.748c.062-.279.197-.538.391-.748.455-.404 1.855-.392 3.456.506a5.566 5.566 0 0 1 2.304 2.823c.743 1.826.76 3.853.766 5.823.311-.639.628-1.278.94-1.924 1.1-2.246 2.608 1.262 2.804 2.039.555 2.435.586 4.96.093 7.408-.651 2.384-1.607 4.556-3.44 6.203Z"/>
    <path fill="#fff" d="M36.212 215.64a.265.265 0 0 1-.22-.184C33.28 207 20.407 195.889 15.477 194.207a.26.26 0 0 1-.152-.134.273.273 0 0 1-.013-.203.261.261 0 0 1 .135-.152.267.267 0 0 1 .202-.012c5.012 1.728 18.098 13.012 20.857 21.571a.263.263 0 0 1-.081.284.25.25 0 0 1-.091.05.222.222 0 0 1-.121.029Z"/>
    <path fill="#fff" d="M20.602 207.91a.256.256 0 0 1-.227-.351.25.25 0 0 1 .106-.121 15.356 15.356 0 0 1 10.368-.922 22.918 22.918 0 0 1 .922-9.562v-.074a.258.258 0 0 1 .399-.131.245.245 0 0 1 .085.263v.075a22.23 22.23 0 0 0-.853 9.734.254.254 0 0 1-.322.283 14.781 14.781 0 0 0-10.368.771.237.237 0 0 1-.11.035Z"/>
    <path fill="#40FFDF" d="M247.77 167.711c0-6.44-.029-12.92 3.358-22.026 2.845-7.644 10.218-14.752 14.976-14.36 4.423.363 5.333 5.818 1.284 10.61-1.866 2.206-5.155 4.787-8.012 8.202-3.341 3.986-5.939 9.591-6.515 12.511a72.32 72.32 0 0 0-.777 7.488l-4.314-2.425Z"/>
    <path fill="#000" d="M247.77 167.711c0-6.44-.029-12.92 3.358-22.026 2.845-7.644 10.218-14.752 14.976-14.36 4.423.363 5.333 5.818 1.284 10.61-1.866 2.206-5.155 4.787-8.012 8.202-3.341 3.986-5.939 9.591-6.515 12.511a72.32 72.32 0 0 0-.777 7.488l-4.314-2.425Z" opacity=".2"/>
    <path fill="#fff" d="M249.865 165.724a.28.28 0 0 0 .207-.271c.231-13.536 9.481-26.905 15.397-30.384a.29.29 0 0 0 .104-.392.297.297 0 0 0-.176-.131.277.277 0 0 0-.216.034c-6.025 3.542-15.443 17.124-15.673 30.867a.291.291 0 0 0 .078.202.303.303 0 0 0 .091.063c.034.015.07.023.107.023l.081-.011Z"/>
    <path fill="#40FFDF" d="M253.726 171.057c.299-2.252 2.425-6.215 6.266-9.792 4.251-3.957 10.023-6.336 11.031-9.077 1.209-3.295-1.838-5.887-6.693-4.914-5.835 1.152-12.229 8.519-13.49 22.102l2.886 1.681Z"/>
    <path fill="#fff" d="M252.452 168.926a.28.28 0 0 0 .138-.082.288.288 0 0 0 .075-.142c2.385-11.854 10.368-17.061 14.302-18.162a.28.28 0 0 0 .196-.351.274.274 0 0 0-.351-.196c-4.315 1.216-12.269 6.498-14.706 18.599a.291.291 0 0 0 .225.334c.04.006.081.006.121 0Z"/>
    <path fill="#40FFDF" d="M168.193 31.74c-.058-.026-.122-.035-.186-.026a.338.338 0 0 0-.171.078l-.702.536-.139.45a.865.865 0 0 0 .259.806c.13.12.251.249.363.386a.505.505 0 0 0 .326.2.495.495 0 0 0 .371-.09l1.642-1.245a.33.33 0 0 1 .351-.058l-2.114-1.037Zm-2.211 6.492c-.335-1.377-1.268-2.016-2.414-1.843.131.251.23.518.294.795.524 2.183-.663 5.408-2.656 7.2a4.277 4.277 0 0 1-2.142 1.152c.789 1.434 2.546 1.457 4.262-.087 1.987-1.82 3.18-5.045 2.656-7.217Zm-.576-9.435a.779.779 0 0 0-.139-.046l-1.313-.202a.697.697 0 0 0-.714.386l-1.072 2.385a1.075 1.075 0 0 1-.253.328.858.858 0 0 1-.196.15l.467 1.244a.43.43 0 0 0 .259.265.433.433 0 0 0 .369-.029c.251-.121.511-.225.777-.31.165-.062.318-.154.449-.271.105-.095.191-.208.254-.334l1.06-2.402a.708.708 0 0 1 .708-.369l1.313.207a.444.444 0 0 1 .133.035l-2.102-1.037Zm-2.172 22.683a.367.367 0 0 1-.132-.19l-.536-1.423a.442.442 0 0 0-.45-.296.447.447 0 0 0-.184.054c-.251.126-.51.231-.777.317a.946.946 0 0 0-.242.121l.069.184c.03.092.094.168.178.214l2.074 1.02Zm-3.888-21.128a.334.334 0 0 0-.15-.028.384.384 0 0 0-.23.109l-1.838 1.653a.568.568 0 0 0-.121.138 1.367 1.367 0 0 0-.149.317v.075a.87.87 0 0 0-.035.317l.242 1.837a1.45 1.45 0 0 1-.248.91c-.293.404-.576.824-.818 1.256a.991.991 0 0 1-.409.357.89.89 0 0 1-.161.063H153.765a.293.293 0 0 0-.098.047.737.737 0 0 0-.357.392l-.997 2.7a.505.505 0 0 0 .236.623l1.44.703c.054.112.072.239.052.362-.066.42-.11.843-.132 1.268a1.555 1.555 0 0 1-.363.875l-1.596 1.676a.733.733 0 0 0-.144.213 1.051 1.051 0 0 0-.086.64l.449 1.849a.38.38 0 0 0 .167.247l2.114 1.037a.376.376 0 0 1-.161-.242l-.496-1.693a.854.854 0 0 1 0-.363c.03-.188.112-.363.237-.507l1.595-1.67c.21-.247.337-.553.363-.876.021-.425.067-.848.138-1.267a.628.628 0 0 0-.397-.674l-1.037-.363a.505.505 0 0 1-.335-.45.498.498 0 0 1 .03-.195l1.002-2.707a.751.751 0 0 1 .178-.27.798.798 0 0 1 .507-.22h1.256a.797.797 0 0 0 .351-.092c.166-.08.307-.204.409-.357.254-.432.53-.852.818-1.25.184-.268.27-.592.242-.916l-.236-1.837a.9.9 0 0 1 .029-.323c.041-.2.142-.382.288-.524l1.837-1.653a.334.334 0 0 1 .38-.08l-2.102-1.107Zm-1.619 19.78a.842.842 0 0 0-.253-.8 3.909 3.909 0 0 1-.363-.392.5.5 0 0 0-.697-.11l-.939.709-.576 1.976a.426.426 0 0 0 .208.512l2.142 1.072a.432.432 0 0 1-.207-.519l.685-2.448Z"/>
    <path fill="#fff" d="M168.193 31.74c-.058-.026-.122-.035-.186-.026a.338.338 0 0 0-.171.078l-.702.536-.139.45a.865.865 0 0 0 .259.806c.13.12.251.249.363.386a.505.505 0 0 0 .326.2.495.495 0 0 0 .371-.09l1.642-1.245a.33.33 0 0 1 .351-.058l-2.114-1.037Zm-2.211 6.492c-.335-1.377-1.268-2.016-2.414-1.843.131.251.23.518.294.795.524 2.183-.663 5.408-2.656 7.2a4.277 4.277 0 0 1-2.142 1.152c.789 1.434 2.546 1.457 4.262-.087 1.987-1.82 3.18-5.045 2.656-7.217Zm-.576-9.435a.779.779 0 0 0-.139-.046l-1.313-.202a.697.697 0 0 0-.714.386l-1.072 2.385a1.075 1.075 0 0 1-.253.328.858.858 0 0 1-.196.15l.467 1.244a.43.43 0 0 0 .259.265.433.433 0 0 0 .369-.029c.251-.121.511-.225.777-.31.165-.062.318-.154.449-.271.105-.095.191-.208.254-.334l1.06-2.402a.708.708 0 0 1 .708-.369l1.313.207a.444.444 0 0 1 .133.035l-2.102-1.037Zm-2.172 22.683a.367.367 0 0 1-.132-.19l-.536-1.423a.442.442 0 0 0-.45-.296.447.447 0 0 0-.184.054c-.251.126-.51.231-.777.317a.946.946 0 0 0-.242.121l.069.184c.03.092.094.168.178.214l2.074 1.02Zm-3.888-21.128a.334.334 0 0 0-.15-.028.384.384 0 0 0-.23.109l-1.838 1.653a.568.568 0 0 0-.121.138 1.367 1.367 0 0 0-.149.317v.075a.87.87 0 0 0-.035.317l.242 1.837a1.45 1.45 0 0 1-.248.91c-.293.404-.576.824-.818 1.256a.991.991 0 0 1-.409.357.89.89 0 0 1-.161.063H153.765a.293.293 0 0 0-.098.047.737.737 0 0 0-.357.392l-.997 2.7a.505.505 0 0 0 .236.623l1.44.703c.054.112.072.239.052.362-.066.42-.11.843-.132 1.268a1.555 1.555 0 0 1-.363.875l-1.596 1.676a.733.733 0 0 0-.144.213 1.051 1.051 0 0 0-.086.64l.449 1.849a.38.38 0 0 0 .167.247l2.114 1.037a.376.376 0 0 1-.161-.242l-.496-1.693a.854.854 0 0 1 0-.363c.03-.188.112-.363.237-.507l1.595-1.67c.21-.247.337-.553.363-.876.021-.425.067-.848.138-1.267a.628.628 0 0 0-.397-.674l-1.037-.363a.505.505 0 0 1-.335-.45.498.498 0 0 1 .03-.195l1.002-2.707a.751.751 0 0 1 .178-.27.798.798 0 0 1 .507-.22h1.256a.797.797 0 0 0 .351-.092c.166-.08.307-.204.409-.357.254-.432.53-.852.818-1.25.184-.268.27-.592.242-.916l-.236-1.837a.9.9 0 0 1 .029-.323c.041-.2.142-.382.288-.524l1.837-1.653a.334.334 0 0 1 .38-.08l-2.102-1.107Zm-1.619 19.78a.842.842 0 0 0-.253-.8 3.909 3.909 0 0 1-.363-.392.5.5 0 0 0-.697-.11l-.939.709-.576 1.976a.426.426 0 0 0 .208.512l2.142 1.072a.432.432 0 0 1-.207-.519l.685-2.448Z" opacity=".7"/>
    <path fill="#000" d="M168.193 31.74c-.058-.026-.122-.035-.186-.026a.338.338 0 0 0-.171.078l-.702.536-.139.45a.865.865 0 0 0 .259.806c.13.12.251.249.363.386a.505.505 0 0 0 .326.2.495.495 0 0 0 .371-.09l1.642-1.245a.33.33 0 0 1 .351-.058l-2.114-1.037Zm-2.211 6.492c-.335-1.377-1.268-2.016-2.414-1.843.131.251.23.518.294.795.524 2.183-.663 5.408-2.656 7.2a4.277 4.277 0 0 1-2.142 1.152c.789 1.434 2.546 1.457 4.262-.087 1.987-1.82 3.18-5.045 2.656-7.217Zm-.576-9.435a.779.779 0 0 0-.139-.046l-1.313-.202a.697.697 0 0 0-.714.386l-1.072 2.385a1.075 1.075 0 0 1-.253.328.858.858 0 0 1-.196.15l.467 1.244a.43.43 0 0 0 .259.265.433.433 0 0 0 .369-.029c.251-.121.511-.225.777-.31.165-.062.318-.154.449-.271.105-.095.191-.208.254-.334l1.06-2.402a.708.708 0 0 1 .708-.369l1.313.207a.444.444 0 0 1 .133.035l-2.102-1.037Zm-2.172 22.683a.367.367 0 0 1-.132-.19l-.536-1.423a.442.442 0 0 0-.45-.296.447.447 0 0 0-.184.054c-.251.126-.51.231-.777.317a.946.946 0 0 0-.242.121l.069.184c.03.092.094.168.178.214l2.074 1.02Zm-3.888-21.128a.334.334 0 0 0-.15-.028.384.384 0 0 0-.23.109l-1.838 1.653a.568.568 0 0 0-.121.138 1.367 1.367 0 0 0-.149.317v.075a.87.87 0 0 0-.035.317l.242 1.837a1.45 1.45 0 0 1-.248.91c-.293.404-.576.824-.818 1.256a.991.991 0 0 1-.409.357.89.89 0 0 1-.161.063H153.765a.293.293 0 0 0-.098.047.737.737 0 0 0-.357.392l-.997 2.7a.505.505 0 0 0 .236.623l1.44.703c.054.112.072.239.052.362-.066.42-.11.843-.132 1.268a1.555 1.555 0 0 1-.363.875l-1.596 1.676a.733.733 0 0 0-.144.213 1.051 1.051 0 0 0-.086.64l.449 1.849a.38.38 0 0 0 .167.247l2.114 1.037a.376.376 0 0 1-.161-.242l-.496-1.693a.854.854 0 0 1 0-.363c.03-.188.112-.363.237-.507l1.595-1.67c.21-.247.337-.553.363-.876.021-.425.067-.848.138-1.267a.628.628 0 0 0-.397-.674l-1.037-.363a.505.505 0 0 1-.335-.45.498.498 0 0 1 .03-.195l1.002-2.707a.751.751 0 0 1 .178-.27.798.798 0 0 1 .507-.22h1.256a.797.797 0 0 0 .351-.092c.166-.08.307-.204.409-.357.254-.432.53-.852.818-1.25.184-.268.27-.592.242-.916l-.236-1.837a.9.9 0 0 1 .029-.323c.041-.2.142-.382.288-.524l1.837-1.653a.334.334 0 0 1 .38-.08l-2.102-1.107Zm-1.619 19.78a.842.842 0 0 0-.253-.8 3.909 3.909 0 0 1-.363-.392.5.5 0 0 0-.697-.11l-.939.709-.576 1.976a.426.426 0 0 0 .208.512l2.142 1.072a.432.432 0 0 1-.207-.519l.685-2.448Z" opacity=".05"/>
    <path fill="#40FFDF" d="m155.625 45.513-1.595 1.67c-.125.144-.207.32-.236.507l-2.114-1.037c.018-.096.045-.19.08-.282a.728.728 0 0 1 .144-.213l1.596-1.676 2.125 1.03ZM157.7 38.353a.795.795 0 0 1-.351.092h-1.256a.793.793 0 0 0-.506.22l-2.114-1.009a.894.894 0 0 1 .172-.12.312.312 0 0 1 .098-.047h1.665c.052 0 .104-.046.156-.07l2.136.934ZM170.326 32.777a.346.346 0 0 0-.351.064l-1.642 1.244a.5.5 0 0 1-.371.09.494.494 0 0 1-.326-.2 3.286 3.286 0 0 0-.363-.386.866.866 0 0 1-.259-.806l.138-.45.703-.535a.33.33 0 0 1 .351-.058l2.12 1.037ZM167.507 29.828a.445.445 0 0 0-.132-.034l-1.314-.202a.708.708 0 0 0-.714.386l-1.06 2.402c-.062.126-.148.24-.253.334l-2.12-1.048c.105-.093.191-.204.254-.329l1.059-2.402a.698.698 0 0 1 .715-.386l1.313.202a.769.769 0 0 1 .138.046l2.114 1.031ZM161.465 31.412a.334.334 0 0 0-.38.08l-1.837 1.654a1.01 1.01 0 0 0-.288.524l-2.12-1.037v-.075a1.332 1.332 0 0 1 .196-.38.45.45 0 0 1 .075-.075l1.866-1.653a.385.385 0 0 1 .23-.11.335.335 0 0 1 .15.03l2.108 1.042Z"/>
    <path fill="#fff" d="m155.625 45.513-1.595 1.67c-.125.144-.207.32-.236.507l-2.114-1.037c.018-.096.045-.19.08-.282a.728.728 0 0 1 .144-.213l1.596-1.676 2.125 1.03ZM157.7 38.353a.795.795 0 0 1-.351.092h-1.256a.793.793 0 0 0-.506.22l-2.114-1.009a.894.894 0 0 1 .172-.12.312.312 0 0 1 .098-.047h1.665c.052 0 .104-.046.156-.07l2.136.934ZM170.326 32.777a.346.346 0 0 0-.351.064l-1.642 1.244a.5.5 0 0 1-.371.09.494.494 0 0 1-.326-.2 3.286 3.286 0 0 0-.363-.386.866.866 0 0 1-.259-.806l.138-.45.703-.535a.33.33 0 0 1 .351-.058l2.12 1.037ZM167.507 29.828a.445.445 0 0 0-.132-.034l-1.314-.202a.708.708 0 0 0-.714.386l-1.06 2.402c-.062.126-.148.24-.253.334l-2.12-1.048c.105-.093.191-.204.254-.329l1.059-2.402a.698.698 0 0 1 .715-.386l1.313.202a.769.769 0 0 1 .138.046l2.114 1.031ZM161.465 31.412a.334.334 0 0 0-.38.08l-1.837 1.654a1.01 1.01 0 0 0-.288.524l-2.12-1.037v-.075a1.332 1.332 0 0 1 .196-.38.45.45 0 0 1 .075-.075l1.866-1.653a.385.385 0 0 1 .23-.11.335.335 0 0 1 .15.03l2.108 1.042Z" opacity=".9"/>
    <path fill="#40FFDF" d="m170.947 34.886-.45-1.838a.311.311 0 0 0-.53-.19l-1.641 1.244a.497.497 0 0 1-.697-.11 3.826 3.826 0 0 0-.363-.385.869.869 0 0 1-.259-.807l.72-2.425a.442.442 0 0 0-.042-.372.431.431 0 0 0-.315-.204l-1.308-.207a.708.708 0 0 0-.714.386l-1.06 2.402c-.154.27-.402.476-.697.576-.267.09-.529.195-.783.317a.44.44 0 0 1-.528-.076.43.43 0 0 1-.1-.16l-.536-1.423a.324.324 0 0 0-.242-.259.323.323 0 0 0-.334.12l-1.837 1.654a1.086 1.086 0 0 0-.317.846l.242 1.838a1.48 1.48 0 0 1-.248.916 12.96 12.96 0 0 0-.818 1.25.992.992 0 0 1-.766.449h-1.25a.801.801 0 0 0-.685.49l-.979 2.77a.502.502 0 0 0 .299.65l1.037.364a.622.622 0 0 1 .392.668 12.35 12.35 0 0 0-.133 1.273 1.541 1.541 0 0 1-.363.876l-1.612 1.693a1.062 1.062 0 0 0-.237.87l.45 1.849a.303.303 0 0 0 .373.276.308.308 0 0 0 .151-.086l1.647-1.245a.502.502 0 0 1 .697.11c.112.139.233.27.363.392a.843.843 0 0 1 .253.8l-.72 2.425a.436.436 0 0 0 .041.377.44.44 0 0 0 .322.2l1.314.2a.691.691 0 0 0 .708-.385l1.066-2.402c.155-.27.403-.474.697-.576.267-.09.529-.195.783-.317a.441.441 0 0 1 .528.081.46.46 0 0 1 .1.161l.536 1.423a.32.32 0 0 0 .576.132l1.837-1.653a1.079 1.079 0 0 0 .311-.846l-.236-1.838a1.46 1.46 0 0 1 .242-.91c.294-.403.576-.824.823-1.256a1.015 1.015 0 0 1 .761-.449h1.255a.797.797 0 0 0 .674-.553l.997-2.707a.504.504 0 0 0-.135-.549.52.52 0 0 0-.17-.102L169 40.271a.626.626 0 0 1-.392-.668c.068-.42.114-.843.138-1.267.026-.325.153-.633.363-.881l1.613-1.694a1.024 1.024 0 0 0 .225-.876Zm-7.621 10.534c-1.993 1.792-4.032 1.475-4.562-.708-.53-2.183.663-5.403 2.656-7.194 1.993-1.791 4.032-1.48 4.562.703.529 2.183-.669 5.408-2.656 7.2Z"/>
    <path fill="#fff" d="m170.947 34.886-.45-1.838a.311.311 0 0 0-.53-.19l-1.641 1.244a.497.497 0 0 1-.697-.11 3.826 3.826 0 0 0-.363-.385.869.869 0 0 1-.259-.807l.72-2.425a.442.442 0 0 0-.042-.372.431.431 0 0 0-.315-.204l-1.308-.207a.708.708 0 0 0-.714.386l-1.06 2.402c-.154.27-.402.476-.697.576-.267.09-.529.195-.783.317a.44.44 0 0 1-.528-.076.43.43 0 0 1-.1-.16l-.536-1.423a.324.324 0 0 0-.242-.259.323.323 0 0 0-.334.12l-1.837 1.654a1.086 1.086 0 0 0-.317.846l.242 1.838a1.48 1.48 0 0 1-.248.916 12.96 12.96 0 0 0-.818 1.25.992.992 0 0 1-.766.449h-1.25a.801.801 0 0 0-.685.49l-.979 2.77a.502.502 0 0 0 .299.65l1.037.364a.622.622 0 0 1 .392.668 12.35 12.35 0 0 0-.133 1.273 1.541 1.541 0 0 1-.363.876l-1.612 1.693a1.062 1.062 0 0 0-.237.87l.45 1.849a.303.303 0 0 0 .373.276.308.308 0 0 0 .151-.086l1.647-1.245a.502.502 0 0 1 .697.11c.112.139.233.27.363.392a.843.843 0 0 1 .253.8l-.72 2.425a.436.436 0 0 0 .041.377.44.44 0 0 0 .322.2l1.314.2a.691.691 0 0 0 .708-.385l1.066-2.402c.155-.27.403-.474.697-.576.267-.09.529-.195.783-.317a.441.441 0 0 1 .528.081.46.46 0 0 1 .1.161l.536 1.423a.32.32 0 0 0 .576.132l1.837-1.653a1.079 1.079 0 0 0 .311-.846l-.236-1.838a1.46 1.46 0 0 1 .242-.91c.294-.403.576-.824.823-1.256a1.015 1.015 0 0 1 .761-.449h1.255a.797.797 0 0 0 .674-.553l.997-2.707a.504.504 0 0 0-.135-.549.52.52 0 0 0-.17-.102L169 40.271a.626.626 0 0 1-.392-.668c.068-.42.114-.843.138-1.267.026-.325.153-.633.363-.881l1.613-1.694a1.024 1.024 0 0 0 .225-.876Zm-7.621 10.534c-1.993 1.792-4.032 1.475-4.562-.708-.53-2.183.663-5.403 2.656-7.194 1.993-1.791 4.032-1.48 4.562.703.529 2.183-.669 5.408-2.656 7.2Z" opacity=".75"/>
    <path fill="#40FFDF" d="M145.564 37.656a.442.442 0 0 0-.49.075l-.967.731-.185.628a1.155 1.155 0 0 0 .352 1.106c.178.166.343.345.495.536a.692.692 0 0 0 .968.15L148 39.154a.452.452 0 0 1 .479-.081l-2.915-1.417Zm-3.07 8.928c-.455-1.895-1.728-2.77-3.318-2.534.179.349.315.718.403 1.1.726 3-.915 7.442-3.663 9.913a5.839 5.839 0 0 1-2.943 1.555c1.083 1.976 3.502 2.01 5.869-.121 2.742-2.448 4.378-6.889 3.652-9.896v-.017Zm-.795-12.96a.675.675 0 0 0-.19-.063l-1.809-.282a.962.962 0 0 0-.979.535l-1.469 3.306c-.083.172-.2.325-.345.45a1.38 1.38 0 0 1-.271.213l.639 1.728a.61.61 0 0 0 .614.402.604.604 0 0 0 .25-.074c.348-.17.708-.315 1.077-.432.227-.086.436-.213.617-.374a1.46 1.46 0 0 0 .345-.455l1.463-3.312a.986.986 0 0 1 .98-.536l1.814.288a.612.612 0 0 1 .184.052l-2.92-1.446Zm-2.978 31.277a.53.53 0 0 1-.184-.26l-.737-1.964a.579.579 0 0 0-.864-.328 7.95 7.95 0 0 1-1.078.438c-.118.04-.231.096-.334.167l.098.248a.462.462 0 0 0 .248.293l2.851 1.406Zm-5.357-29.1a.465.465 0 0 0-.201-.04.535.535 0 0 0-.317.15l-2.534 2.304a.817.817 0 0 0-.098.11.413.413 0 0 0-.064.08 1.73 1.73 0 0 0-.207.438.897.897 0 0 1 0 .103c-.038.143-.052.29-.04.438l.328 2.529c.028.445-.089.888-.334 1.261a20.028 20.028 0 0 0-1.152 1.728c-.138.218-.339.39-.576.49a.895.895 0 0 1-.225.086l-.115.029a.627.627 0 0 1-.15 0l-1.728.029h-.046a.58.58 0 0 0-.138 0l-.121.034a.58.58 0 0 0-.133.07 1.376 1.376 0 0 0-.241.166c-.109.105-.195.23-.254.37l-1.371 3.726a.686.686 0 0 0 .329.852l1.981.974c.07.155.096.326.075.495-.091.572-.153 1.15-.184 1.728a2.139 2.139 0 0 1-.502 1.21l-2.2 2.304a.872.872 0 0 0-.184.294 1.38 1.38 0 0 0-.121.875l.622 2.552a.503.503 0 0 0 .225.34l2.908 1.428a.52.52 0 0 1-.219-.328l-.668-2.506a1.244 1.244 0 0 1 0-.501 1.4 1.4 0 0 1 .323-.697l2.194-2.304c.286-.343.461-.765.502-1.21.028-.579.09-1.156.184-1.728a.875.875 0 0 0-.542-.927l-1.422-.495a.704.704 0 0 1-.399-.358.69.69 0 0 1-.028-.535l1.377-3.727a.946.946 0 0 1 .254-.368c.185-.183.431-.292.691-.306l1.728-.029c.17-.008.337-.053.489-.132.236-.106.436-.278.576-.495.352-.576.732-1.152 1.152-1.728.252-.368.37-.812.334-1.256l-.322-2.529c-.018-.148-.006-.3.034-.443a1.44 1.44 0 0 1 .398-.726l2.534-2.304a.464.464 0 0 1 .524-.115l-2.926-1.406Zm-2.223 27.25a1.193 1.193 0 0 0-.351-1.11 3.968 3.968 0 0 1-.496-.537.697.697 0 0 0-.967-.15l-1.291.98-.806 2.719a.576.576 0 0 0 .288.708l2.926 1.44a.574.574 0 0 1-.288-.714l.985-3.335Z"/>
    <path fill="#fff" d="M145.564 37.656a.442.442 0 0 0-.49.075l-.967.731-.185.628a1.155 1.155 0 0 0 .352 1.106c.178.166.343.345.495.536a.692.692 0 0 0 .968.15L148 39.154a.452.452 0 0 1 .479-.081l-2.915-1.417Zm-3.07 8.928c-.455-1.895-1.728-2.77-3.318-2.534.179.349.315.718.403 1.1.726 3-.915 7.442-3.663 9.913a5.839 5.839 0 0 1-2.943 1.555c1.083 1.976 3.502 2.01 5.869-.121 2.742-2.448 4.378-6.889 3.652-9.896v-.017Zm-.795-12.96a.675.675 0 0 0-.19-.063l-1.809-.282a.962.962 0 0 0-.979.535l-1.469 3.306c-.083.172-.2.325-.345.45a1.38 1.38 0 0 1-.271.213l.639 1.728a.61.61 0 0 0 .614.402.604.604 0 0 0 .25-.074c.348-.17.708-.315 1.077-.432.227-.086.436-.213.617-.374a1.46 1.46 0 0 0 .345-.455l1.463-3.312a.986.986 0 0 1 .98-.536l1.814.288a.612.612 0 0 1 .184.052l-2.92-1.446Zm-2.978 31.277a.53.53 0 0 1-.184-.26l-.737-1.964a.579.579 0 0 0-.864-.328 7.95 7.95 0 0 1-1.078.438c-.118.04-.231.096-.334.167l.098.248a.462.462 0 0 0 .248.293l2.851 1.406Zm-5.357-29.1a.465.465 0 0 0-.201-.04.535.535 0 0 0-.317.15l-2.534 2.304a.817.817 0 0 0-.098.11.413.413 0 0 0-.064.08 1.73 1.73 0 0 0-.207.438.897.897 0 0 1 0 .103c-.038.143-.052.29-.04.438l.328 2.529c.028.445-.089.888-.334 1.261a20.028 20.028 0 0 0-1.152 1.728c-.138.218-.339.39-.576.49a.895.895 0 0 1-.225.086l-.115.029a.627.627 0 0 1-.15 0l-1.728.029h-.046a.58.58 0 0 0-.138 0l-.121.034a.58.58 0 0 0-.133.07 1.376 1.376 0 0 0-.241.166c-.109.105-.195.23-.254.37l-1.371 3.726a.686.686 0 0 0 .329.852l1.981.974c.07.155.096.326.075.495-.091.572-.153 1.15-.184 1.728a2.139 2.139 0 0 1-.502 1.21l-2.2 2.304a.872.872 0 0 0-.184.294 1.38 1.38 0 0 0-.121.875l.622 2.552a.503.503 0 0 0 .225.34l2.908 1.428a.52.52 0 0 1-.219-.328l-.668-2.506a1.244 1.244 0 0 1 0-.501 1.4 1.4 0 0 1 .323-.697l2.194-2.304c.286-.343.461-.765.502-1.21.028-.579.09-1.156.184-1.728a.875.875 0 0 0-.542-.927l-1.422-.495a.704.704 0 0 1-.399-.358.69.69 0 0 1-.028-.535l1.377-3.727a.946.946 0 0 1 .254-.368c.185-.183.431-.292.691-.306l1.728-.029c.17-.008.337-.053.489-.132.236-.106.436-.278.576-.495.352-.576.732-1.152 1.152-1.728.252-.368.37-.812.334-1.256l-.322-2.529c-.018-.148-.006-.3.034-.443a1.44 1.44 0 0 1 .398-.726l2.534-2.304a.464.464 0 0 1 .524-.115l-2.926-1.406Zm-2.223 27.25a1.193 1.193 0 0 0-.351-1.11 3.968 3.968 0 0 1-.496-.537.697.697 0 0 0-.967-.15l-1.291.98-.806 2.719a.576.576 0 0 0 .288.708l2.926 1.44a.574.574 0 0 1-.288-.714l.985-3.335Z" opacity=".7"/>
    <path fill="#000" d="M145.564 37.656a.442.442 0 0 0-.49.075l-.967.731-.185.628a1.155 1.155 0 0 0 .352 1.106c.178.166.343.345.495.536a.692.692 0 0 0 .968.15L148 39.154a.452.452 0 0 1 .479-.081l-2.915-1.417Zm-3.07 8.928c-.455-1.895-1.728-2.77-3.318-2.534.179.349.315.718.403 1.1.726 3-.915 7.442-3.663 9.913a5.839 5.839 0 0 1-2.943 1.555c1.083 1.976 3.502 2.01 5.869-.121 2.742-2.448 4.378-6.889 3.652-9.896v-.017Zm-.795-12.96a.675.675 0 0 0-.19-.063l-1.809-.282a.962.962 0 0 0-.979.535l-1.469 3.306c-.083.172-.2.325-.345.45a1.38 1.38 0 0 1-.271.213l.639 1.728a.61.61 0 0 0 .614.402.604.604 0 0 0 .25-.074c.348-.17.708-.315 1.077-.432.227-.086.436-.213.617-.374a1.46 1.46 0 0 0 .345-.455l1.463-3.312a.986.986 0 0 1 .98-.536l1.814.288a.612.612 0 0 1 .184.052l-2.92-1.446Zm-2.978 31.277a.53.53 0 0 1-.184-.26l-.737-1.964a.579.579 0 0 0-.864-.328 7.95 7.95 0 0 1-1.078.438c-.118.04-.231.096-.334.167l.098.248a.462.462 0 0 0 .248.293l2.851 1.406Zm-5.357-29.1a.465.465 0 0 0-.201-.04.535.535 0 0 0-.317.15l-2.534 2.304a.817.817 0 0 0-.098.11.413.413 0 0 0-.064.08 1.73 1.73 0 0 0-.207.438.897.897 0 0 1 0 .103c-.038.143-.052.29-.04.438l.328 2.529c.028.445-.089.888-.334 1.261a20.028 20.028 0 0 0-1.152 1.728c-.138.218-.339.39-.576.49a.895.895 0 0 1-.225.086l-.115.029a.627.627 0 0 1-.15 0l-1.728.029h-.046a.58.58 0 0 0-.138 0l-.121.034a.58.58 0 0 0-.133.07 1.376 1.376 0 0 0-.241.166c-.109.105-.195.23-.254.37l-1.371 3.726a.686.686 0 0 0 .329.852l1.981.974c.07.155.096.326.075.495-.091.572-.153 1.15-.184 1.728a2.139 2.139 0 0 1-.502 1.21l-2.2 2.304a.872.872 0 0 0-.184.294 1.38 1.38 0 0 0-.121.875l.622 2.552a.503.503 0 0 0 .225.34l2.908 1.428a.52.52 0 0 1-.219-.328l-.668-2.506a1.244 1.244 0 0 1 0-.501 1.4 1.4 0 0 1 .323-.697l2.194-2.304c.286-.343.461-.765.502-1.21.028-.579.09-1.156.184-1.728a.875.875 0 0 0-.542-.927l-1.422-.495a.704.704 0 0 1-.399-.358.69.69 0 0 1-.028-.535l1.377-3.727a.946.946 0 0 1 .254-.368c.185-.183.431-.292.691-.306l1.728-.029c.17-.008.337-.053.489-.132.236-.106.436-.278.576-.495.352-.576.732-1.152 1.152-1.728.252-.368.37-.812.334-1.256l-.322-2.529c-.018-.148-.006-.3.034-.443a1.44 1.44 0 0 1 .398-.726l2.534-2.304a.464.464 0 0 1 .524-.115l-2.926-1.406Zm-2.223 27.25a1.193 1.193 0 0 0-.351-1.11 3.968 3.968 0 0 1-.496-.537.697.697 0 0 0-.967-.15l-1.291.98-.806 2.719a.576.576 0 0 0 .288.708l2.926 1.44a.574.574 0 0 1-.288-.714l.985-3.335Z" opacity=".05"/>
    <path fill="#40FFDF" d="m128.225 56.664-2.195 2.304c-.17.198-.282.44-.322.697l-2.915-1.428a1.676 1.676 0 0 1 .196-.548.602.602 0 0 1 .103-.132l2.201-2.304 2.932 1.411ZM131.087 46.78a1.2 1.2 0 0 1-.49.133l-1.728.028c-.26.014-.505.123-.691.306l-2.92-1.44c.074-.065.155-.12.242-.168a.573.573 0 0 1 .132-.069l.121-.034a.58.58 0 0 1 .138 0h.046l1.728-.029c.05.006.101.006.15 0l.115-.029.219-.086 2.938 1.388ZM148.477 39.102a.462.462 0 0 0-.478.086l-2.264 1.728a.697.697 0 0 1-.968-.155 3.942 3.942 0 0 0-.501-.53 1.146 1.146 0 0 1-.345-1.112l.184-.616.968-.737a.468.468 0 0 1 .489-.081l2.915 1.417ZM144.578 35.041a.624.624 0 0 0-.184-.052l-1.815-.288a.986.986 0 0 0-.979.536l-1.463 3.312a1.464 1.464 0 0 1-.346.455l-2.92-1.446c.145-.124.263-.277.346-.45l1.468-3.305a.969.969 0 0 1 .98-.536l1.808.282a.675.675 0 0 1 .225.075l2.88 1.417ZM136.279 37.218a.462.462 0 0 0-.525.116l-2.534 2.304c-.201.197-.339.45-.397.725l-2.921-1.434a.599.599 0 0 0 0-.104c.049-.155.118-.302.208-.437a.452.452 0 0 1 .063-.081.892.892 0 0 1 .098-.11l2.534-2.303a.537.537 0 0 1 .317-.15.47.47 0 0 1 .202.04l2.955 1.434Z"/>
    <path fill="#fff" d="m128.225 56.664-2.195 2.304c-.17.198-.282.44-.322.697l-2.915-1.428a1.676 1.676 0 0 1 .196-.548.602.602 0 0 1 .103-.132l2.201-2.304 2.932 1.411ZM131.087 46.78a1.2 1.2 0 0 1-.49.133l-1.728.028c-.26.014-.505.123-.691.306l-2.92-1.44c.074-.065.155-.12.242-.168a.573.573 0 0 1 .132-.069l.121-.034a.58.58 0 0 1 .138 0h.046l1.728-.029c.05.006.101.006.15 0l.115-.029.219-.086 2.938 1.388ZM148.477 39.102a.462.462 0 0 0-.478.086l-2.264 1.728a.697.697 0 0 1-.968-.155 3.942 3.942 0 0 0-.501-.53 1.146 1.146 0 0 1-.345-1.112l.184-.616.968-.737a.468.468 0 0 1 .489-.081l2.915 1.417ZM144.578 35.041a.624.624 0 0 0-.184-.052l-1.815-.288a.986.986 0 0 0-.979.536l-1.463 3.312a1.464 1.464 0 0 1-.346.455l-2.92-1.446c.145-.124.263-.277.346-.45l1.468-3.305a.969.969 0 0 1 .98-.536l1.808.282a.675.675 0 0 1 .225.075l2.88 1.417ZM136.279 37.218a.462.462 0 0 0-.525.116l-2.534 2.304c-.201.197-.339.45-.397.725l-2.921-1.434a.599.599 0 0 0 0-.104c.049-.155.118-.302.208-.437a.452.452 0 0 1 .063-.081.892.892 0 0 1 .098-.11l2.534-2.303a.537.537 0 0 1 .317-.15.47.47 0 0 1 .202.04l2.955 1.434Z" opacity=".9"/>
    <path fill="#40FFDF" d="m149.334 42-.617-2.553a.424.424 0 0 0-.517-.373.426.426 0 0 0-.208.114l-2.258 1.728a.7.7 0 0 1-.515.126.695.695 0 0 1-.453-.276 4.961 4.961 0 0 0-.495-.535 1.147 1.147 0 0 1-.352-1.112l.991-3.34a.581.581 0 0 0-.05-.517.578.578 0 0 0-.445-.267l-1.809-.276a.96.96 0 0 0-.979.53l-1.469 3.306a1.73 1.73 0 0 1-.962.83 8.21 8.21 0 0 0-1.071.437.611.611 0 0 1-.87-.329l-.743-1.975a.449.449 0 0 0-.325-.33.443.443 0 0 0-.441.14l-2.535 2.304a1.501 1.501 0 0 0-.432 1.152l.329 2.534c.027.444-.09.884-.334 1.256a48 48 0 0 0-1.152 1.728 1.382 1.382 0 0 1-1.049.622l-1.728.029a1.112 1.112 0 0 0-.95.668l-1.371 3.727a.686.686 0 0 0 .415.892l1.428.502a.867.867 0 0 1 .542.927c-.092.572-.153 1.15-.185 1.728a2.131 2.131 0 0 1-.501 1.21L126 58.91a1.475 1.475 0 0 0-.323 1.193l.617 2.557a.428.428 0 0 0 .519.368.423.423 0 0 0 .206-.114l2.264-1.728a.687.687 0 0 1 .962.15c.152.192.32.37.501.535a1.181 1.181 0 0 1 .352 1.106l-.991 3.347a.581.581 0 0 0 .05.516.568.568 0 0 0 .445.267l1.809.276a.957.957 0 0 0 .979-.535l1.463-3.3c.208-.388.553-.684.968-.83.367-.12.725-.267 1.071-.438a.607.607 0 0 1 .73.106c.062.063.11.14.14.222l.731 1.965a.448.448 0 0 0 .772.184l2.535-2.304a1.531 1.531 0 0 0 .432-1.152l-.329-2.529a1.983 1.983 0 0 1 .334-1.255 48 48 0 0 0 1.152-1.728 1.382 1.382 0 0 1 1.049-.623l1.728-.028a1.086 1.086 0 0 0 .944-.674l1.377-3.727a.667.667 0 0 0-.021-.533.672.672 0 0 0-.4-.354l-1.422-.501a.867.867 0 0 1-.542-.927c.092-.573.153-1.15.185-1.728.035-.447.21-.87.501-1.21l2.223-2.339a1.437 1.437 0 0 0 .323-1.146Zm-10.518 14.514c-2.742 2.471-5.558 2.034-6.284-.973-.726-3.007.916-7.448 3.657-9.913 2.742-2.465 5.559-2.033 6.285.973.725 3.007-.893 7.448-3.658 9.913Z"/>
    <path fill="#fff" d="m149.334 42-.617-2.553a.424.424 0 0 0-.517-.373.426.426 0 0 0-.208.114l-2.258 1.728a.7.7 0 0 1-.515.126.695.695 0 0 1-.453-.276 4.961 4.961 0 0 0-.495-.535 1.147 1.147 0 0 1-.352-1.112l.991-3.34a.581.581 0 0 0-.05-.517.578.578 0 0 0-.445-.267l-1.809-.276a.96.96 0 0 0-.979.53l-1.469 3.306a1.73 1.73 0 0 1-.962.83 8.21 8.21 0 0 0-1.071.437.611.611 0 0 1-.87-.329l-.743-1.975a.449.449 0 0 0-.325-.33.443.443 0 0 0-.441.14l-2.535 2.304a1.501 1.501 0 0 0-.432 1.152l.329 2.534c.027.444-.09.884-.334 1.256a48 48 0 0 0-1.152 1.728 1.382 1.382 0 0 1-1.049.622l-1.728.029a1.112 1.112 0 0 0-.95.668l-1.371 3.727a.686.686 0 0 0 .415.892l1.428.502a.867.867 0 0 1 .542.927c-.092.572-.153 1.15-.185 1.728a2.131 2.131 0 0 1-.501 1.21L126 58.91a1.475 1.475 0 0 0-.323 1.193l.617 2.557a.428.428 0 0 0 .519.368.423.423 0 0 0 .206-.114l2.264-1.728a.687.687 0 0 1 .962.15c.152.192.32.37.501.535a1.181 1.181 0 0 1 .352 1.106l-.991 3.347a.581.581 0 0 0 .05.516.568.568 0 0 0 .445.267l1.809.276a.957.957 0 0 0 .979-.535l1.463-3.3c.208-.388.553-.684.968-.83.367-.12.725-.267 1.071-.438a.607.607 0 0 1 .73.106c.062.063.11.14.14.222l.731 1.965a.448.448 0 0 0 .772.184l2.535-2.304a1.531 1.531 0 0 0 .432-1.152l-.329-2.529a1.983 1.983 0 0 1 .334-1.255 48 48 0 0 0 1.152-1.728 1.382 1.382 0 0 1 1.049-.623l1.728-.028a1.086 1.086 0 0 0 .944-.674l1.377-3.727a.667.667 0 0 0-.021-.533.672.672 0 0 0-.4-.354l-1.422-.501a.867.867 0 0 1-.542-.927c.092-.573.153-1.15.185-1.728.035-.447.21-.87.501-1.21l2.223-2.339a1.437 1.437 0 0 0 .323-1.146Zm-10.518 14.514c-2.742 2.471-5.558 2.034-6.284-.973-.726-3.007.916-7.448 3.657-9.913 2.742-2.465 5.559-2.033 6.285.973.725 3.007-.893 7.448-3.658 9.913Z" opacity=".75"/>
    <path fill="#40FFDF" d="M97.067 37.115 38.684 70.828a6.284 6.284 0 0 0-3.145 5.219v135.751c0 2.137 1.32 4.637 2.95 5.576 1.63.939 4.452.835 6.3-.23l58.177-33.593a7.425 7.425 0 0 0 2.367-2.504 7.421 7.421 0 0 0 .985-3.302V42.455c0-2.138-1.786-3.6-3.416-4.54-1.63-.938-3.98-1.872-5.835-.8Z"/>
    <path fill="#000" d="M43.989 217.524c-1.791.697-4.095.662-5.5-.15-1.625-.939-2.95-3.456-2.95-5.576V76.046a5.944 5.944 0 0 1 .847-2.88l5.408 3.082a6.572 6.572 0 0 0-1.56 3.911v134.358c0 2.575 1.63 3.796 3.755 3.007Z" opacity=".4"/>
    <path fill="#000" d="M106.311 42.172c-.126-1.918-1.578-2.667-3.341-1.653L43.199 75.033a5.568 5.568 0 0 0-1.4 1.21l-5.408-3.07a5.98 5.98 0 0 1 2.01-2.178l58.666-33.886c1.854-1.066 4.216-.133 5.84.806 1.624.94 3.295 2.189 3.404 4.257Z" opacity=".3"/>
    <path fill="#40FFDF" d="M102.97 40.536 43.199 75.033a6.555 6.555 0 0 0-2.96 5.12v134.37c0 2.88 2.05 4.066 4.55 2.621l58.176-33.593a7.425 7.425 0 0 0 2.367-2.504 7.421 7.421 0 0 0 .985-3.302V42.455c.006-2.132-1.486-3.002-3.347-1.919Z"/>
    <path fill="#000" d="M102.97 40.536 43.199 75.033a6.555 6.555 0 0 0-2.96 5.12v134.37c0 2.88 2.05 4.066 4.55 2.621l58.176-33.593a7.425 7.425 0 0 0 2.367-2.504 7.421 7.421 0 0 0 .985-3.302V42.455c.006-2.132-1.486-3.002-3.347-1.919Z" opacity=".2"/>
    <path fill="#37474F" d="M103.3 51.48v121.818a7.059 7.059 0 0 1-3.185 5.518l-53.89 31.104c-1.729 1.02-3.186.196-3.186-1.837V85.268a7.148 7.148 0 0 1 2.235-4.804l.305-.27c.204-.165.42-.313.645-.444l7.218-4.17.576-.34.714-.397 1.728-.98c1.25-.685 2.603-.317 2.603 1.152v4.55c0 1.493 1.118 2.057 2.494 1.262l22.54-13.138a5.35 5.35 0 0 0 2.534-4.113v-5.184a3.647 3.647 0 0 1 1.538-2.88l10.782-6.18.317-.185c2.218-1.302 4.032-.26 4.032 2.333Z"/>
    <path fill="#455A64" d="M98.952 170.309v-121l-10.783 6.203a3.646 3.646 0 0 0-1.538 2.88v5.184a5.351 5.351 0 0 1-2.494 4.142L61.598 80.856a1.775 1.775 0 0 1-1.89.15c-.374-.254-3.933-2.678-4.388-3.013a1.636 1.636 0 0 1-.576-1.388v-1.728l-.715.398-.576.34-7.217 4.17c-.226.131-.442.28-.645.443l-.305.271a7.148 7.148 0 0 0-2.235 4.804v120.966l52.727-30.442a7.053 7.053 0 0 0 3.174-5.518Z"/>
    <path fill="#455A64" d="m68.594 72.729 8.099-4.672c.484-.282.875-.08.875.444a1.882 1.882 0 0 1-.875 1.451l-8.099 4.672c-.484.282-.875.08-.875-.438a1.89 1.89 0 0 1 .875-1.457ZM80.85 65.644c.454-.26.823-.052.823.472a1.808 1.808 0 0 1-.824 1.423c-.455.26-.818.052-.818-.472a1.804 1.804 0 0 1 .818-1.423ZM84.13 63.749c.456-.26.824-.046.824.472a1.808 1.808 0 0 1-.824 1.423c-.449.265-.817.052-.817-.472a1.827 1.827 0 0 1 .817-1.423ZM61.154 77.02c.455-.265.823-.052.823.472a1.82 1.82 0 0 1-.823 1.423c-.45.26-.818.046-.818-.478a1.82 1.82 0 0 1 .818-1.417ZM64.44 75.125c.45-.265.819-.052.819.472a1.827 1.827 0 0 1-.818 1.423c-.455.26-.824.046-.824-.472a1.809 1.809 0 0 1 .824-1.423Z"/>
    <path fill="#EBEBEB" d="M110.449 59.608c-.731-.427-1.728-.37-2.845.27l-11.105 6.336a3.641 3.641 0 0 0-1.538 2.926v5.127a5.362 5.362 0 0 1-2.494 4.147L71.155 90.827V87.9a1.407 1.407 0 0 0-.657-1.302c-.513-.288-3.34-1.93-3.738-2.154a2.022 2.022 0 0 0-1.953.144l-2.465 1.376-.576.34-7.217 4.17c-.226.132-.442.28-.645.444l-.306.27a7.148 7.148 0 0 0-2.235 4.804v122.855a2.244 2.244 0 0 0 .928 2.057c.576.34 3.173 1.831 3.75 2.166.575.334 1.37.282 2.252-.225l53.89-31.104a7.058 7.058 0 0 0 3.185-5.518V64.365c0-1.284-.455-2.183-1.192-2.603l-3.727-2.154Z"/>
    <path fill="#F5F5F5" d="M70.418 86.57a2.125 2.125 0 0 0-1.849.202l-2.46 1.382-.575.34-7.218 4.17c-.226.131-.441.28-.645.444l-.305.27a7.18 7.18 0 0 0-1.152 1.44l-3.796-2.16a7.152 7.152 0 0 1 1.152-1.44l.305-.27c.204-.164.42-.313.645-.444l7.218-4.17.576-.34 2.465-1.377a2.023 2.023 0 0 1 1.953-.15l3.686 2.103ZM114.186 61.762c-.726-.427-1.728-.369-2.846.276l-11.099 6.336c-.479.298-.86.728-1.1 1.239l-3.739-2.16a2.95 2.95 0 0 1 1.095-1.239l11.105-6.336c1.106-.64 2.114-.697 2.845-.276l3.739 2.16Z"/>
    <path fill="#000" d="M99.141 69.641a3.768 3.768 0 0 0-.444 1.688v5.126a5.074 5.074 0 0 1-1.226 3.03l-3.744-2.16a5.132 5.132 0 0 0 1.232-3.03V69.17c.014-.59.166-1.168.444-1.688l3.738 2.16Z" opacity=".1"/>
    <path fill="#40FFDF" d="m111.341 62.038-11.106 6.336a3.66 3.66 0 0 0-1.537 2.926v5.127a5.352 5.352 0 0 1-2.494 4.141L73.67 93.741c-1.376.795-2.494.23-2.494-1.261v-4.55c0-1.47-1.36-1.838-2.609-1.153l-2.46 1.377-.576.34-7.217 4.17c-.226.131-.441.28-.645.444l-.305.27a7.148 7.148 0 0 0-2.235 4.804v122.826c0 2.034 1.428 2.88 3.185 1.838l53.891-31.104a7.063 7.063 0 0 0 3.185-5.518V64.365c-.017-2.563-1.832-3.606-4.049-2.327Z"/>
    <path fill="#fff" d="m111.341 62.038-11.106 6.336a3.66 3.66 0 0 0-1.537 2.926v5.127a5.352 5.352 0 0 1-2.494 4.141L73.67 93.741c-1.376.795-2.494.23-2.494-1.261v-4.55c0-1.47-1.36-1.838-2.609-1.153l-2.46 1.377-.576.34-7.217 4.17c-.226.131-.441.28-.645.444l-.305.27a7.148 7.148 0 0 0-2.235 4.804v122.826c0 2.034 1.428 2.88 3.185 1.838l53.891-31.104a7.063 7.063 0 0 0 3.185-5.518V64.365c-.017-2.563-1.832-3.606-4.049-2.327Z" opacity=".7"/>
    <path fill="#40FFDF" d="m55.105 150.661 20.587-27.014 23.823 15.35-5.535-5.898 8.023-12.153 13.462 9.031v27.441l-60.36 34.848v-41.605ZM94.406 110.14c1.941-1.152 3.514-.213 3.514 2.022a7.767 7.767 0 0 1-3.514 6.082c-1.935 1.118-3.508.208-3.508-2.027a7.752 7.752 0 0 1 3.508-6.077Z"/>
    <path fill="#FAFAFA" d="M115.374 186.212v-35.216c-7.839-4.257-18.535-3.497-30.32 3.312-11.607 6.698-22.142 18.028-29.952 31.104v35.625c0 2.033 1.428 2.88 3.185 1.838l53.89-31.104a7.064 7.064 0 0 0 3.197-5.559Z"/>
    <path fill="#EBEBEB" d="M114.221 150.414v35.798a5.961 5.961 0 0 1-2.609 4.522l-53.897 31.104a1.838 1.838 0 0 1-.846.282c-.53 0-.576-.703-.576-1.123v-37.498a96.405 96.405 0 0 0-1.152 1.884v35.625c0 1.44.714 2.276 1.728 2.276.506-.02.998-.171 1.428-.438l53.891-31.104a7.063 7.063 0 0 0 3.185-5.518v-35.228c-.346-.185-.749-.381-1.152-.582Z"/>
    <path fill="#455A64" d="m74.6 178.309 25.586-14.768c.685-.398 1.244-.115 1.244.628a2.682 2.682 0 0 1-1.25 2.073L74.6 181.011c-.686.397-1.244.115-1.244-.628a2.666 2.666 0 0 1 1.244-2.074ZM76.94 183.712l20.903-12.067c.69-.397 1.25-.115 1.25.634a2.674 2.674 0 0 1-1.25 2.068l-20.904 12.067c-.685.397-1.244.115-1.244-.628a2.677 2.677 0 0 1 1.245-2.074ZM76.94 170.205l20.903-12.067c.69-.397 1.25-.115 1.25.628a2.672 2.672 0 0 1-1.25 2.073l-20.904 12.068c-.685.397-1.244.115-1.244-.628a2.677 2.677 0 0 1 1.245-2.074Z"/>
    <path fill="#40FFDF" d="M80.371 197.329v.991c0 1.595 1.118 2.235 2.494 1.44l11.394-6.584a5.508 5.508 0 0 0 2.493-4.32v-.996c0-1.59-1.117-2.235-2.493-1.44l-11.394 6.578a5.507 5.507 0 0 0-2.494 4.331Z"/>
    <path fill="#455A64" d="M84.465 193.81a.88.88 0 0 1 .392-.127.532.532 0 0 1 .305.063.5.5 0 0 1 .202.208.654.654 0 0 1 .075.299.184.184 0 0 1 0 .092.135.135 0 0 1-.046.064l-.432.247a.158.158 0 0 1-.075 0 .105.105 0 0 1-.058-.028l-.034-.035a.132.132 0 0 0-.058-.034.183.183 0 0 0-.104 0 .394.394 0 0 0-.144.057l-.12.081a.602.602 0 0 0-.18.224.396.396 0 0 0 0 .144.151.151 0 0 0 0 .11c.031.02.068.03.104.029a.763.763 0 0 0 .202-.029l.305-.075a.946.946 0 0 1 .317-.046.357.357 0 0 1 .225.086.44.44 0 0 1 .138.231c.033.127.049.259.046.391a1.695 1.695 0 0 1-.08.507c-.049.167-.12.326-.214.473a2.043 2.043 0 0 1-.731.72c-.126.078-.268.13-.415.149a.628.628 0 0 1-.317-.057.517.517 0 0 1-.213-.219.777.777 0 0 1-.075-.34.284.284 0 0 1 0-.092.173.173 0 0 1 .052-.058l.432-.253a.158.158 0 0 1 .075 0 .091.091 0 0 1 .052 0l.04.046.07.052a.189.189 0 0 0 .115 0 .414.414 0 0 0 .166-.058c.109-.063.208-.14.294-.23a.423.423 0 0 0 .115-.283.102.102 0 0 0-.04-.097.214.214 0 0 0-.132 0 1.024 1.024 0 0 0-.22.046l-.316.08a.482.482 0 0 1-.501-.086.928.928 0 0 1-.161-.582c.002-.156.023-.31.063-.461a2.202 2.202 0 0 1 .484-.869c.114-.133.248-.248.397-.34ZM87.52 192.099a.052.052 0 0 1 .031-.011c.012 0 .023.004.032.011.01.026.01.055 0 .081v.541a.245.245 0 0 1 0 .109.183.183 0 0 1-.063.081l-.576.334v2.621a.256.256 0 0 1-.029.109.19.19 0 0 1-.063.081l-.432.248a.046.046 0 0 1-.032.012.046.046 0 0 1-.032-.012.109.109 0 0 1 0-.081v-2.615l-.576.334a.047.047 0 0 1-.031.013.047.047 0 0 1-.032-.013.097.097 0 0 1-.029-.08v-.542a.257.257 0 0 1 .029-.109.188.188 0 0 1 .063-.081l1.74-1.031ZM88.902 191.298h.097a.167.167 0 0 1 .052.087l.72 2.793a.235.235 0 0 1 0 .069.247.247 0 0 1 0 .093.153.153 0 0 1-.052.063l-.42.242c-.04.029-.075.029-.092 0a.143.143 0 0 1-.035-.063l-.092-.369-.881.507-.092.478a.552.552 0 0 1-.035.104.229.229 0 0 1-.098.097l-.415.242h-.051a.064.064 0 0 1-.008-.031.07.07 0 0 1 .008-.032v-.086l.725-3.629a.516.516 0 0 1 .046-.144.252.252 0 0 1 .104-.115l.519-.306Zm-.536 2.541.536-.306-.271-1.071-.265 1.377ZM91.043 190.066c.12-.077.252-.13.392-.156a.402.402 0 0 1 .288.046c.093.06.161.152.19.259.046.156.067.317.063.479.003.236-.032.471-.103.697a1.818 1.818 0 0 1-.294.576l.414.979a.108.108 0 0 1 0 .046.237.237 0 0 1 0 .092.2.2 0 0 1-.051.063l-.45.26c-.046.028-.075.028-.098 0l-.046-.07-.363-.881-.305.179v1.094a.265.265 0 0 1 0 .11.187.187 0 0 1-.063.08l-.432.248a.046.046 0 0 1-.032.012.046.046 0 0 1-.032-.012.108.108 0 0 1 0-.081v-3.295a.282.282 0 0 1 0-.115.14.14 0 0 1 .064-.075l.858-.535Zm-.374 1.762.374-.219a.678.678 0 0 0 .23-.213.635.635 0 0 0 .087-.345c0-.144-.029-.225-.087-.248a.31.31 0 0 0-.23.052l-.374.219v.754ZM94.038 188.332h.063c.01.026.01.054 0 .08v.542a.282.282 0 0 1 0 .115.162.162 0 0 1-.063.075l-.576.334v2.621a.245.245 0 0 1 0 .109.244.244 0 0 1-.063.081l-.438.248a.046.046 0 0 1-.032.012.046.046 0 0 1-.032-.012.123.123 0 0 1 0-.087v-2.615l-.576.334h-.057a.096.096 0 0 1 0-.086v-.542a.194.194 0 0 1 0-.109.164.164 0 0 1 .058-.075l1.716-1.025ZM70.186 105.319l30.107-17.384c1.377-.795 2.494-.23 2.494 1.267a5.344 5.344 0 0 1-2.494 4.141l-30.108 17.384c-1.376.795-2.494.231-2.494-1.267a5.35 5.35 0 0 1 2.495-4.141ZM188.591 89.773a.805.805 0 0 1-.386-.098.952.952 0 0 1-.42-.876 2.542 2.542 0 0 1 1.152-2.027.86.86 0 0 1 1.388.8 2.566 2.566 0 0 1-1.152 2.028 1.2 1.2 0 0 1-.582.173Zm.945-2.742a.754.754 0 0 0-.363.115 2.147 2.147 0 0 0-.956 1.653.435.435 0 0 0 .2.504.439.439 0 0 0 .537-.078 2.139 2.139 0 0 0 .956-1.653.574.574 0 0 0-.207-.501.313.313 0 0 0-.167-.04ZM203.449 81.196a.723.723 0 0 1-.38-.104.944.944 0 0 1-.421-.87 2.555 2.555 0 0 1 1.152-2.027.852.852 0 0 1 1.382.8 2.543 2.543 0 0 1-1.152 2.022 1.115 1.115 0 0 1-.581.179Zm.95-2.742a.716.716 0 0 0-.369.115 2.141 2.141 0 0 0-.95 1.653.435.435 0 0 0 .2.505.439.439 0 0 0 .537-.078 2.15 2.15 0 0 0 .951-1.653.577.577 0 0 0-.202-.502.313.313 0 0 0-.167-.04Z"/>
    <path fill="#455A64" d="M190.123 87.768a.213.213 0 0 1-.184-.11.205.205 0 0 1-.026-.163.199.199 0 0 1 .037-.075.201.201 0 0 1 .064-.055l12.735-7.333a.22.22 0 0 1 .294.08.216.216 0 0 1 .022.164.231.231 0 0 1-.038.076.219.219 0 0 1-.065.055l-12.729 7.361a.238.238 0 0 1-.11 0ZM170.236 134.689a.8.8 0 0 1-.386-.098.95.95 0 0 1-.42-.875 2.553 2.553 0 0 1 1.152-2.028.858.858 0 0 1 1.388.801 2.557 2.557 0 0 1-1.152 2.027 1.143 1.143 0 0 1-.582.173Zm.945-2.742a.777.777 0 0 0-.363.116 2.129 2.129 0 0 0-.956 1.653.432.432 0 0 0 .2.504.44.44 0 0 0 .537-.078 2.145 2.145 0 0 0 .956-1.653.577.577 0 0 0-.202-.501.334.334 0 0 0-.172-.041ZM188.269 174.537a.724.724 0 0 1-.38-.098.955.955 0 0 1-.42-.876 2.55 2.55 0 0 1 1.152-2.027.958.958 0 0 1 .967-.075.966.966 0 0 1 .415.875 2.55 2.55 0 0 1-1.152 2.028 1.163 1.163 0 0 1-.582.173Zm.951-2.742a.777.777 0 0 0-.369.115 2.142 2.142 0 0 0-.95 1.653.435.435 0 0 0 .2.504.435.435 0 0 0 .537-.078 2.14 2.14 0 0 0 .95-1.653.574.574 0 0 0-.201-.501.373.373 0 0 0-.167-.04ZM215.867 158.616a.81.81 0 0 1-.385-.098.945.945 0 0 1-.415-.875 2.533 2.533 0 0 1 1.152-2.028.864.864 0 0 1 .969-.077.863.863 0 0 1 .419.878 2.544 2.544 0 0 1-1.152 2.027c-.177.11-.38.17-.588.173Zm.576-2.626a2.12 2.12 0 0 0-.95 1.653.574.574 0 0 0 .202.501.578.578 0 0 0 .535-.075 2.15 2.15 0 0 0 .951-1.653.57.57 0 0 0-.202-.501.568.568 0 0 0-.536.075Z"/>
    <path fill="#455A64" d="M170.709 138.22a.26.26 0 0 1-.109-.029.214.214 0 0 1-.104-.184v-3.681a.215.215 0 0 1 .213-.213.219.219 0 0 1 .219.213v3.306l31.507-18.184a.217.217 0 0 1 .215-.002.211.211 0 0 1 .108.186v15.944a.197.197 0 0 1-.015.083.21.21 0 0 1-.198.136.22.22 0 0 1-.219-.219v-15.552l-31.507 18.196a.255.255 0 0 1-.11 0Z"/>
    <path fill="#455A64" d="M202.543 145.593a.217.217 0 0 1-.15-.064l-3.174-3.081a.21.21 0 0 1-.063-.117.22.22 0 0 1 .017-.131l3.174-6.722a.22.22 0 0 1 .064-.078.223.223 0 0 1 .092-.043.23.23 0 0 1 .19.058l3.174 3.058a.213.213 0 0 1 .046.248l-3.163 6.745a.202.202 0 0 1-.062.08.211.211 0 0 1-.093.041l-.052.006Zm-2.915-3.347 2.846 2.765 2.984-6.336-2.852-2.736-2.978 6.307Z"/>
    <path fill="#455A64" d="M191.928 154.169a.213.213 0 0 1-.213-.213v-7.355a.209.209 0 0 1 .104-.185l7.441-4.308a.216.216 0 0 1 .238.012.199.199 0 0 1 .056.063.202.202 0 0 1 .028.079.213.213 0 0 1-.103.215l-7.332 4.25v7.229a.212.212 0 0 1-.219.213Z"/>
    <path fill="#40FFDF" d="m189.879 156.364 4.106-2.368c.623-.362 1.152-.069 1.152.651v1.089a2.502 2.502 0 0 1-1.152 1.964l-4.106 2.368c-.628.362-1.152.069-1.152-.651v-1.089a2.497 2.497 0 0 1 1.152-1.964ZM211.105 144.147l4.107-2.367c.622-.363 1.152-.069 1.152.651v1.071a2.5 2.5 0 0 1-1.152 1.958l-4.107 2.373c-.622.358-1.152.07-1.152-.656v-1.072a2.514 2.514 0 0 1 1.152-1.958Z"/>
    <path fill="#455A64" d="M189.809 172.555a.21.21 0 0 1-.109-.03.21.21 0 0 1-.108-.159.216.216 0 0 1 .005-.084.231.231 0 0 1 .038-.075.23.23 0 0 1 .065-.055l2.016-1.152v-10.794a.2.2 0 0 1 .005-.094.202.202 0 0 1 .044-.083.22.22 0 0 1 .333 0 .202.202 0 0 1 .044.083.214.214 0 0 1 .006.094v10.909a.22.22 0 0 1-.03.107.221.221 0 0 1-.08.078l-2.12 1.227a.255.255 0 0 1-.109.028ZM213.155 141.912a.219.219 0 0 1-.213-.219v-6.975l-7.113 4.095a.217.217 0 0 1-.3-.08.213.213 0 0 1 .104-.277l7.442-4.28a.21.21 0 0 1 .106-.03.21.21 0 0 1 .107.03.215.215 0 0 1 .109.191v7.349a.222.222 0 0 1-.08.149.213.213 0 0 1-.162.047ZM213.153 159.071a.165.165 0 0 1-.103-.029.21.21 0 0 1-.11-.184v-11.03a.228.228 0 0 1 .005-.094.228.228 0 0 1 .119-.141.228.228 0 0 1 .184 0 .223.223 0 0 1 .119.141c.009.03.011.062.005.094v10.656l1.797-1.037a.23.23 0 0 1 .3.075.223.223 0 0 1-.081.299l-2.125 1.221a.186.186 0 0 1-.11.029ZM243.462 82.584a.74.74 0 0 1-.385-.104.946.946 0 0 1-.421-.875 2.544 2.544 0 0 1 1.152-2.022.86.86 0 0 1 1.388.8 2.532 2.532 0 0 1-1.152 2.023 1.19 1.19 0 0 1-.582.178Zm.576-2.627a2.15 2.15 0 0 0-.956 1.648.581.581 0 0 0 .208.501.53.53 0 0 0 .53-.075 2.133 2.133 0 0 0 .956-1.647.58.58 0 0 0-.208-.501.53.53 0 0 0-.53.075ZM256.197 28.682a.74.74 0 0 1-.386-.104.944.944 0 0 1-.421-.87 2.555 2.555 0 0 1 1.152-2.027.86.86 0 0 1 1.388.8 2.554 2.554 0 0 1-1.152 2.028 1.15 1.15 0 0 1-.581.173Zm.944-2.742a.784.784 0 0 0-.363.115 2.146 2.146 0 0 0-.956 1.654.541.541 0 0 0 .208.495.54.54 0 0 0 .53-.07 2.146 2.146 0 0 0 .956-1.652.577.577 0 0 0-.202-.502.347.347 0 0 0-.173-.04ZM256.197 40.974a.74.74 0 0 1-.386-.104.945.945 0 0 1-.421-.87 2.555 2.555 0 0 1 1.152-2.027.86.86 0 0 1 1.315.297c.075.156.1.332.073.503a2.544 2.544 0 0 1-1.152 2.022 1.15 1.15 0 0 1-.581.179Zm.944-2.742a.716.716 0 0 0-.363.115 2.149 2.149 0 0 0-.956 1.648.441.441 0 0 0 .201.504.436.436 0 0 0 .537-.078 2.133 2.133 0 0 0 .956-1.648.577.577 0 0 0-.202-.5.345.345 0 0 0-.173-.041ZM256.197 53.266a.743.743 0 0 1-.386-.104.955.955 0 0 1-.421-.876 2.544 2.544 0 0 1 1.152-2.021.86.86 0 0 1 1.389.8 2.545 2.545 0 0 1-1.152 2.022c-.176.109-.376.17-.582.179Zm.944-2.742a.71.71 0 0 0-.362.115 2.126 2.126 0 0 0-.957 1.647.441.441 0 0 0 .201.505.436.436 0 0 0 .537-.078 2.133 2.133 0 0 0 .956-1.648.574.574 0 0 0-.202-.501.343.343 0 0 0-.173-.04ZM256.197 65.552a.743.743 0 0 1-.386-.098.954.954 0 0 1-.421-.876 2.567 2.567 0 0 1 1.152-2.027.96.96 0 0 1 .968-.07.945.945 0 0 1 .421.87 2.555 2.555 0 0 1-1.152 2.028 1.152 1.152 0 0 1-.582.173Zm.944-2.742a.73.73 0 0 0-.362.12 2.126 2.126 0 0 0-.957 1.648.441.441 0 0 0 .201.504.438.438 0 0 0 .537-.078 2.146 2.146 0 0 0 .956-1.653.577.577 0 0 0-.202-.495.35.35 0 0 0-.173-.046Z"/>
    <path fill="#455A64" d="M244.996 80.62a.217.217 0 0 1-.203-.161.219.219 0 0 1 .093-.242l4.142-2.39V31.382a.227.227 0 0 1 .103-.19l6.371-3.674a.212.212 0 0 1 .294.08c.015.024.025.051.03.079a.214.214 0 0 1-.105.215l-6.261 3.617v46.466a.225.225 0 0 1-.11.19l-4.245 2.448a.234.234 0 0 1-.109.006Z"/>
    <path fill="#455A64" d="M249.24 43.854a.214.214 0 0 1-.214-.16.208.208 0 0 1 .013-.141.21.21 0 0 1 .098-.102l6.364-3.675a.218.218 0 0 1 .164-.022c.028.008.053.02.075.038.023.018.041.04.055.064a.215.215 0 0 1-.012.238.207.207 0 0 1-.063.056l-6.37 3.675a.241.241 0 0 1-.11.029ZM249.24 56.123a.214.214 0 0 1-.214-.16.208.208 0 0 1 .013-.141.21.21 0 0 1 .098-.103l6.364-3.663a.219.219 0 0 1 .164-.021c.028.007.053.02.075.038.023.017.041.039.055.064a.214.214 0 0 1-.012.238.207.207 0 0 1-.063.056l-6.37 3.657a.237.237 0 0 1-.11.035ZM249.24 68.391a.214.214 0 0 1-.214-.16.208.208 0 0 1 .013-.14.21.21 0 0 1 .098-.103l6.364-3.675a.218.218 0 0 1 .164-.021c.028.007.053.02.075.038.023.017.041.04.055.064a.215.215 0 0 1-.012.238.207.207 0 0 1-.063.056l-6.37 3.674a.241.241 0 0 1-.11.03ZM123.545 176.668a.221.221 0 0 1-.211-.189.199.199 0 0 1 .006-.084.202.202 0 0 1 .038-.076.196.196 0 0 1 .064-.054l13.927-8.064v-70.1c0-.037.01-.074.029-.107a.216.216 0 0 1 .081-.077l9.36-5.403a.219.219 0 0 1 .294.075.228.228 0 0 1-.081.3l-9.251 5.34v70.116a.215.215 0 0 1-.109.19l-14.037 8.104a.247.247 0 0 1-.11.029Z"/>
    <path fill="#455A64" d="M147.537 93.672a.744.744 0 0 1-.386-.098.948.948 0 0 1-.421-.875 2.555 2.555 0 0 1 1.152-2.028.858.858 0 0 1 1.383.8 2.555 2.555 0 0 1-1.152 2.028 1.2 1.2 0 0 1-.576.173Zm.576-2.626a2.158 2.158 0 0 0-.951 1.653.577.577 0 0 0 .202.5.574.574 0 0 0 .536-.074 2.141 2.141 0 0 0 .95-1.653.576.576 0 0 0-.202-.501.574.574 0 0 0-.535.075ZM122.013 178.655a.75.75 0 0 1-.386-.104.95.95 0 0 1-.42-.875 2.536 2.536 0 0 1 1.152-2.022.864.864 0 0 1 .969-.077.863.863 0 0 1 .419.878 2.557 2.557 0 0 1-.331 1.15c-.201.352-.482.65-.821.872-.175.108-.376.17-.582.178Zm.951-2.747a.726.726 0 0 0-.369.121 2.133 2.133 0 0 0-.956 1.647.578.578 0 0 0 .207.501.58.58 0 0 0 .536-.075 2.147 2.147 0 0 0 .95-1.647.578.578 0 0 0-.201-.501.335.335 0 0 0-.167-.058v.012Z"/>
    <path fill="#E0E0E0" d="M183.253 48.352a1.923 1.923 0 0 0-1.941.19l-5.432 3.134a2.487 2.487 0 0 0-1.048 1.993v3.456a3.646 3.646 0 0 1-1.693 2.816l-10.242 5.997V63.95a.955.955 0 0 0-.449-.887l-2.54-1.468a1.415 1.415 0 0 0-1.331.098l-1.676.939-.403.23-2.707 1.584a4.9 4.9 0 0 0-.438.3l-.207.184a4.874 4.874 0 0 0-1.521 3.271v68.043a1.541 1.541 0 0 0 .628 1.4l2.551 1.474a1.525 1.525 0 0 0 1.533-.155l28.126-16.237a4.793 4.793 0 0 0 2.165-3.756V51.595a1.91 1.91 0 0 0-.806-1.774l-2.569-1.469Z"/>
    <path fill="#F0F0F0" d="M162.379 63a1.444 1.444 0 0 0-1.255.138l-1.677.945-.403.23-2.73 1.578c-.155.091-.304.193-.443.306l-.208.184c-.305.291-.573.62-.795.98l-2.54-1.47c.218-.362.483-.693.789-.984l.208-.185c.139-.109.285-.209.437-.3l2.736-1.578.404-.236 1.676-.933a1.364 1.364 0 0 1 1.33-.103L162.379 63ZM185.793 49.821a1.914 1.914 0 0 0-1.936.19l-5.431 3.134c-.323.206-.581.5-.743.846l-2.546-1.468c.162-.347.42-.641.743-.847l5.437-3.134a1.914 1.914 0 0 1 1.936-.19l2.54 1.47Z"/>
    <path fill="#000" d="M177.683 53.991a2.484 2.484 0 0 0-.306 1.152V58.6a3.453 3.453 0 0 1-.835 2.062l-2.546-1.468a3.504 3.504 0 0 0 .835-2.063v-3.456a2.55 2.55 0 0 1 .306-1.151l2.546 1.468Z" opacity=".1"/>
    <path fill="#FAFAFA" d="m183.859 50.011-5.432 3.134a2.485 2.485 0 0 0-1.019 1.993v3.456a3.629 3.629 0 0 1-1.699 2.816l-11.088 6.492c-.934.541-1.694.155-1.694-.859V63.95c0-1.002-.922-1.255-1.774-.783l-1.676.933-.403.23-2.736 1.585a4.17 4.17 0 0 0-.438.3l-.207.183a4.874 4.874 0 0 0-1.521 3.272v68.043c0 1.382.973 1.947 2.166 1.25l28.126-16.238a4.793 4.793 0 0 0 2.165-3.755V51.595c-.005-1.745-1.261-2.46-2.77-1.584Z"/>
    <path fill="#E0E0E0" d="M185.08 50.161c.927 0 1.002 1.094 1.002 1.434v67.392a4.288 4.288 0 0 1-1.906 3.307l-28.126 16.22a1.452 1.452 0 0 1-.709.224c-.61 0-.674-.714-.674-1.025V69.67a4.34 4.34 0 0 1 1.342-2.88l.075-.063.115-.104c.118-.095.243-.18.375-.253l2.73-1.584.397-.23 1.677-.934c.175-.101.373-.157.576-.161.299 0 .437.155.437.49v3.081a1.459 1.459 0 0 0 .35 1.13 1.448 1.448 0 0 0 1.073.494 2.099 2.099 0 0 0 1.06-.316l11.071-6.492a4.16 4.16 0 0 0 1.958-3.272V55.12a1.976 1.976 0 0 1 .783-1.537l5.432-3.14c.29-.18.621-.283.962-.3m0-.523a2.475 2.475 0 0 0-1.221.374l-5.432 3.133a2.501 2.501 0 0 0-1.019 2.01v3.457a3.63 3.63 0 0 1-1.699 2.816l-11.088 6.492a1.62 1.62 0 0 1-.795.248c-.536 0-.899-.404-.899-1.106V63.95a.915.915 0 0 0-.962-1.014 1.683 1.683 0 0 0-.812.23l-1.676.933-.403.23-2.736 1.585a4.17 4.17 0 0 0-.438.3l-.207.183a4.874 4.874 0 0 0-1.521 3.272v68.043c0 .979.489 1.55 1.198 1.55.343-.013.677-.117.968-.3l28.126-16.237a4.793 4.793 0 0 0 2.165-3.756V51.595c0-1.238-.622-1.958-1.52-1.958l-.029-.017Z"/>
    <path fill="#40FFDF" d="m157.973 76.732 25.465-14.711V86.53l-25.465 14.711v-24.51Z"/>
    <path fill="#000" d="M157.973 101.241v-9.804l8.484-11.03 10.616 6.123-2.183-2.183 4.089-6.152 4.459 3.738v4.596l-25.465 14.712ZM175.023 72.48c1.152-.656 2.068-.12 2.068 1.199a4.565 4.565 0 0 1-2.068 3.577c-1.152.662-2.062.127-2.062-1.192a4.572 4.572 0 0 1 2.062-3.583Z" opacity=".2"/>
    <path fill="#40FFDF" d="M160.085 102.462c1.152-.674 2.125-.127 2.125 1.227a4.692 4.692 0 0 1-2.12 3.674c-1.152.68-2.119.127-2.125-1.226a4.707 4.707 0 0 1 2.12-3.675Z"/>
    <path fill="#455A64" d="m165.01 99.622 11.399-6.572c.38-.213.68-.04.674.392v.224a1.524 1.524 0 0 1-.686 1.152l-11.381 6.572c-.375.213-.68.041-.68-.397v-.219a1.497 1.497 0 0 1 .674-1.152Z"/>
    <path fill="#40FFDF" d="m164.831 103.32 17.436-10.057c.276-.161.495-.029.495.288v.161a1.144 1.144 0 0 1-.501.864l-17.424 10.057c-.276.161-.501 0-.501-.288v-.161a1.102 1.102 0 0 1 .495-.864ZM158.502 132.926a.134.134 0 0 1-.069 0 .123.123 0 0 1-.064-.109v-2.442l-.622.357a.137.137 0 0 1-.161 0 .132.132 0 0 1-.027-.081c0-.029.009-.057.027-.08l2.408-4.107a.116.116 0 0 1 .031-.039.11.11 0 0 1 .044-.023.12.12 0 0 1 .097.01l2.408 1.33a.13.13 0 0 1 .051.048.134.134 0 0 1 .001.133.147.147 0 0 1-.046.05l-.749.432v2.563a.12.12 0 0 1-.063.109l-3.186 1.838a.13.13 0 0 1-.08.011Zm0-2.926a.134.134 0 0 1 .063 0 .127.127 0 0 1 .064.115v2.443l2.926-1.688v-2.592c0-.023.007-.046.019-.067a.136.136 0 0 1 .05-.048l.61-.357-2.091-1.152-2.096 3.571.391-.225h.064ZM181.33 119.753l-.49-.092a2.162 2.162 0 0 1-1.728-2.131 3.102 3.102 0 0 1 .968-2.459.85.85 0 0 1 .824-.179c.17.072.309.203.391.369a2.308 2.308 0 0 1 1.152-1.556.683.683 0 0 1 .674.087 1.515 1.515 0 0 1 .409 1.348 8.722 8.722 0 0 1-1.607 3.888l-.478.674a.152.152 0 0 1-.115.051Zm-.68-4.654a.716.716 0 0 0-.42.173 2.789 2.789 0 0 0-.858 2.229 1.895 1.895 0 0 0 1.497 1.895l.403.081.432-.605a8.404 8.404 0 0 0 1.561-3.755 1.33 1.33 0 0 0-.305-1.124.421.421 0 0 0-.426-.046 2.305 2.305 0 0 0-1.072 1.728v.041c0 .029-.01.058-.028.08a.139.139 0 0 1-.046.065.128.128 0 0 1-.163-.005.13.13 0 0 1-.045-.083.788.788 0 0 0-.386-.656.435.435 0 0 0-.144-.018ZM168.98 126.873a.086.086 0 0 1-.063 0 .123.123 0 0 1-.05-.046.12.12 0 0 1-.019-.064v-.708a2.765 2.765 0 0 1 1.152-2.201l.622-.362a.838.838 0 0 1 .846-.058 1.1 1.1 0 0 1 .444.996v.709a.137.137 0 0 1-.016.066.147.147 0 0 1-.047.049l-2.817 1.619a.092.092 0 0 1-.052 0Zm2.154-3.289a.738.738 0 0 0-.368.109l-.628.363a2.483 2.483 0 0 0-1.025 1.976v.484l2.551-1.475v-.634a.853.853 0 0 0-.317-.771.436.436 0 0 0-.213-.052ZM170.018 123.088a.632.632 0 0 1-.306-.08.97.97 0 0 1-.391-.87 2.335 2.335 0 0 1 1.002-1.901.726.726 0 0 1 .743-.052.957.957 0 0 1 .386.87 2.35 2.35 0 0 1-.996 1.901.893.893 0 0 1-.438.132Zm.743-2.718a.632.632 0 0 0-.305.092 2.091 2.091 0 0 0-.876 1.676.721.721 0 0 0 .259.639.472.472 0 0 0 .484-.046 2.098 2.098 0 0 0 .87-1.676.699.699 0 0 0-.259-.639.31.31 0 0 0-.173-.046ZM182.308 97.883l-23.207 13.403a2.51 2.51 0 0 0-1.152 1.959v2.304c0 .72.507 1.013 1.152.65l23.213-13.392a2.515 2.515 0 0 0 1.152-1.958v-2.304c-.029-.731-.536-1.02-1.158-.662Z"/>
    <path fill="#fff" d="m182.308 97.883-23.207 13.403a2.51 2.51 0 0 0-1.152 1.959v2.304c0 .72.507 1.013 1.152.65l23.213-13.392a2.515 2.515 0 0 0 1.152-1.958v-2.304c-.029-.731-.536-1.02-1.158-.662Z" opacity=".5"/>
    <path fill="#40FFDF" d="m182.308 105.238-23.207 13.404a2.506 2.506 0 0 0-1.152 1.958v2.304c0 .72.507 1.014 1.152.651l23.213-13.392a2.51 2.51 0 0 0 1.152-1.959V105.9c-.029-.731-.536-1.019-1.158-.662Z"/>
    <path fill="#fff" d="m182.308 105.238-23.207 13.404a2.506 2.506 0 0 0-1.152 1.958v2.304c0 .72.507 1.014 1.152.651l23.213-13.392a2.51 2.51 0 0 0 1.152-1.959V105.9c-.029-.731-.536-1.019-1.158-.662Z" opacity=".7"/>
    <path fill="#E0E0E0" d="M237.976 16.753a1.91 1.91 0 0 0-1.935.19l-5.432 3.133a2.492 2.492 0 0 0-1.048 1.993v3.456a3.638 3.638 0 0 1-1.728 2.823l-10.241 5.99v-1.987a.952.952 0 0 0-.444-.887l-2.54-1.463a1.376 1.376 0 0 0-1.33.098l-1.677.933-.403.236-2.684 1.578c-.154.09-.301.192-.438.306l-.207.184a4.843 4.843 0 0 0-1.521 3.266v68.043a1.52 1.52 0 0 0 .126.784c.11.246.283.458.502.615l2.552 1.475a1.512 1.512 0 0 0 1.532-.155l28.126-16.238a4.801 4.801 0 0 0 2.166-3.75V19.984a1.928 1.928 0 0 0-.807-1.774l-2.569-1.457Z"/>
    <path fill="#F0F0F0" d="M217.108 31.43a1.425 1.425 0 0 0-1.256.132l-1.676.945-.403.23-2.736 1.584a2.683 2.683 0 0 0-.438.3l-.207.184c-.308.29-.575.619-.795.98l-2.546-1.47c.222-.359.489-.688.795-.979.069-.063.132-.127.207-.184.137-.114.283-.216.438-.306l2.736-1.578.403-.23 1.676-.94a1.398 1.398 0 0 1 1.331-.103l2.471 1.434ZM240.523 18.222a1.91 1.91 0 0 0-1.935.19l-5.432 3.116a1.98 1.98 0 0 0-.749.841l-2.54-1.417c.161-.347.419-.639.743-.84l5.432-3.192a1.93 1.93 0 0 1 1.935-.19 104.11 104.11 0 0 0 2.546 1.492Z"/>
    <path fill="#000" d="M232.407 22.392a2.56 2.56 0 0 0-.299 1.152V27a3.454 3.454 0 0 1-.836 2.062l-2.545-1.469a3.504 3.504 0 0 0 .835-2.062v-3.456c.01-.402.114-.797.305-1.152l2.54 1.47Z" opacity=".1"/>
    <path fill="#FAFAFA" d="m238.587 18.412-5.432 3.116a2.483 2.483 0 0 0-1.025 2.01v3.456a3.638 3.638 0 0 1-1.728 2.823l-11.082 6.486c-.939.541-1.699.16-1.699-.859v-3.093c0-1.002-.922-1.25-1.769-.783l-1.676.939-.403.23-2.736 1.578c-.154.09-.301.192-.438.306-.075.057-.138.12-.207.184a4.854 4.854 0 0 0-1.521 3.266v68.043c0 1.388.968 1.947 2.166 1.25l28.126-16.238a4.788 4.788 0 0 0 2.166-3.75V19.984c.017-1.733-1.233-2.442-2.742-1.572Z"/>
    <path fill="#E0E0E0" d="M239.802 18.562c.933 0 1.003 1.094 1.003 1.434v67.392a4.276 4.276 0 0 1-1.907 3.3l-28.126 16.238a1.432 1.432 0 0 1-.703.225c-.61 0-.68-.715-.68-1.026V38.071a4.322 4.322 0 0 1 1.348-2.88l.075-.07.115-.103c.117-.093.24-.178.369-.253l2.736-1.584.397-.225 1.671-.939c.176-.1.374-.156.576-.161.299 0 .438.155.438.49v3.093a1.453 1.453 0 0 0 .82 1.503c.185.087.387.134.591.138.375-.011.74-.12 1.06-.317l11.082-6.491a4.146 4.146 0 0 0 1.958-3.266V23.55a1.955 1.955 0 0 1 .789-1.538l5.432-3.133c.287-.184.616-.289.956-.306m0-.524c-.431.017-.85.146-1.215.375l-5.432 3.104a2.483 2.483 0 0 0-1.025 2.01v3.456a3.638 3.638 0 0 1-1.728 2.823l-11.082 6.486c-.239.15-.513.236-.795.247-.536 0-.904-.403-.904-1.106v-3.093a.916.916 0 0 0-.957-1.03 1.73 1.73 0 0 0-.812.23l-1.676.939-.403.23-2.736 1.578c-.154.09-.301.191-.438.305-.075.058-.138.121-.207.185a4.854 4.854 0 0 0-1.521 3.266v68.06c0 .985.484 1.549 1.198 1.549.344-.011.678-.115.968-.299l28.126-16.238a4.789 4.789 0 0 0 2.166-3.75V19.984c0-1.238-.622-1.958-1.527-1.958v.023Z"/>
    <path fill="#40FFDF" d="m212.695 45.133 25.471-14.711V59.89l-25.471 14.705V45.133Z"/>
    <path fill="#000" d="M212.695 74.595V64.79l8.75-14.964 10.35 8.836-2.119-3.68 3.254-5.156 5.236 4.274v5.789l-25.471 14.705ZM229.751 40.34c1.152-.656 2.068-.12 2.068 1.198a4.562 4.562 0 0 1-2.068 3.606c-1.152.663-2.067.127-2.067-1.192a4.612 4.612 0 0 1 2.067-3.612Z" opacity=".2"/>
    <path fill="#40FFDF" d="M213.225 101.333a.112.112 0 0 1-.063 0 .13.13 0 0 1-.063-.115v-2.443l-.628.363a.132.132 0 0 1-.179-.178l2.414-4.113a.111.111 0 0 1 .031-.039.124.124 0 0 1 .095-.025.12.12 0 0 1 .046.018l2.408 1.325a.15.15 0 0 1 .05.048c.012.02.018.043.019.067a.127.127 0 0 1-.069.115l-.749.432v2.592a.127.127 0 0 1-.069.115l-3.179 1.838h-.064Zm0-2.932a.155.155 0 0 1 .069 0c.02.012.036.029.047.05.012.02.017.042.017.065v2.442l2.92-1.687v-2.592c0-.023.005-.046.016-.066a.146.146 0 0 1 .047-.05l.617-.35-2.097-1.153-2.091 3.577.392-.23a.114.114 0 0 1 .063-.006ZM225.115 94.461l-.49-.098a2.153 2.153 0 0 1-1.728-2.125 3.113 3.113 0 0 1 .962-2.46.832.832 0 0 1 .83-.178c.17.072.309.203.391.368a2.306 2.306 0 0 1 1.152-1.555.688.688 0 0 1 .674.08 1.517 1.517 0 0 1 .403 1.354 8.686 8.686 0 0 1-1.601 3.888l-.484.674a.12.12 0 0 1-.109.052Zm-.68-4.648a.711.711 0 0 0-.42.173 2.79 2.79 0 0 0-.864 2.229 1.912 1.912 0 0 0 1.492 1.89l.403.08.432-.61a8.477 8.477 0 0 0 1.555-3.756 1.32 1.32 0 0 0-.3-1.124.432.432 0 0 0-.432-.04c-.478.173-.938.927-1.071 1.728a.12.12 0 0 1 0 .046.139.139 0 0 1-.029.08.13.13 0 0 1-.121.086.126.126 0 0 1-.126-.11.786.786 0 0 0-.386-.657.336.336 0 0 0-.133-.015ZM234.383 89.116a.113.113 0 0 1-.07 0 .119.119 0 0 1-.063-.11v-.708a2.764 2.764 0 0 1 1.152-2.2l.628-.363a.84.84 0 0 1 .847-.058 1.104 1.104 0 0 1 .443.997v.708a.126.126 0 0 1-.069.115l-2.817 1.596a.085.085 0 0 1-.051.023Zm1.785-3.18-.628.363a2.496 2.496 0 0 0-1.031 1.976v.484l2.552-1.475v-.633a.863.863 0 0 0-.311-.772.579.579 0 0 0-.576.057h-.006ZM235.415 85.332a.632.632 0 0 1-.305-.081.956.956 0 0 1-.386-.87 2.332 2.332 0 0 1 1.002-1.9.722.722 0 0 1 .737-.052.96.96 0 0 1 .392.87 2.332 2.332 0 0 1-1.002 1.9.895.895 0 0 1-.438.133Zm.743-2.72a.677.677 0 0 0-.305.093 2.101 2.101 0 0 0-.87 1.676.731.731 0 0 0 .259.645.498.498 0 0 0 .484-.052 2.1 2.1 0 0 0 .87-1.676.722.722 0 0 0-.259-.64.336.336 0 0 0-.173-.045h-.006Z"/>
    <path fill="#455A64" d="m213.824 76.392 16.842-9.723c.622-.363 1.152-.103 1.152.576a2.415 2.415 0 0 1-1.152 1.878l-16.842 9.717c-.628.363-1.152.11-1.152-.576a2.414 2.414 0 0 1 1.152-1.872ZM213.824 81.3l22.216-12.834c.628-.362 1.152-.103 1.152.576a2.414 2.414 0 0 1-1.152 1.878l-22.216 12.816c-.628.357-1.152.104-1.152-.576a2.416 2.416 0 0 1 1.152-1.86Z"/>
    <path fill="#40FFDF" d="M214.815 86.224c1.152-.68 2.12-.132 2.12 1.221a4.685 4.685 0 0 1-2.12 3.675c-1.152.68-2.12.127-2.12-1.22a4.663 4.663 0 0 1 2.12-3.676Z"/>
    <path fill="#455A64" d="m219.74 83.379 11.399-6.555c.375-.213.674-.04.669.392v.184a1.512 1.512 0 0 1-.686 1.152l-11.382 6.572c-.374.213-.674.04-.674-.391v-.225a1.494 1.494 0 0 1 .674-1.13Z"/>
    <path fill="#40FFDF" d="m219.558 87.077 17.441-10.063c.277-.161.495-.029.49.288v.161a1.15 1.15 0 0 1-.507.865l-17.424 10.056c-.277.162-.496.035-.496-.288v-.16a1.094 1.094 0 0 1 .496-.86Z"/>
    <path fill="#E0E0E0" d="M183.255 137.88a1.929 1.929 0 0 0-1.941.184l-5.432 3.14a2.49 2.49 0 0 0-1.048 1.993v3.456a3.631 3.631 0 0 1-.512 1.609c-.294.49-.699.903-1.182 1.207l-10.241 5.979v-2.016a.94.94 0 0 0-.449-.881l-2.54-1.423a1.378 1.378 0 0 0-1.331.098l-1.676.939-.403.23-2.707 1.561a3.526 3.526 0 0 0-.444.3l-.207.184a4.87 4.87 0 0 0-1.521 3.266v68.049a1.538 1.538 0 0 0 .628 1.399l2.552 1.475c.246.112.517.157.787.129a1.52 1.52 0 0 0 .745-.285l28.126-16.237a4.795 4.795 0 0 0 2.166-3.756v-67.392a1.905 1.905 0 0 0-.807-1.768l-2.563-1.44Z"/>
    <path fill="#F0F0F0" d="M162.379 152.533a1.45 1.45 0 0 0-1.255.139l-1.677.939-.403.23-2.73 1.584c-.154.09-.302.191-.443.3l-.208.184c-.303.294-.57.622-.795.979l-2.54-1.469a4.74 4.74 0 0 1 .789-.979l.208-.184c.138-.111.284-.211.437-.3l2.736-1.584.404-.23 1.676-.939a1.372 1.372 0 0 1 1.33-.098l2.471 1.428ZM185.797 139.332a1.897 1.897 0 0 0-1.936.184l-5.426 3.139a1.97 1.97 0 0 0-.748.841l-2.546-1.469c.162-.345.42-.637.743-.841l5.437-3.139a1.918 1.918 0 0 1 1.935-.184l2.541 1.469Z"/>
    <path fill="#000" d="M177.686 143.496c-.189.355-.294.75-.305 1.152v3.456a3.45 3.45 0 0 1-.835 2.062L174 148.697a3.52 3.52 0 0 0 .841-2.062v-3.456a2.59 2.59 0 0 1 .299-1.152l2.546 1.469Z" opacity=".1"/>
    <path fill="#FAFAFA" d="m183.86 139.516-5.431 3.139a2.497 2.497 0 0 0-1.049 1.993v3.456a3.647 3.647 0 0 1-1.693 2.817l-11.094 6.491c-.933.542-1.693.156-1.693-.858v-3.122c0-.996-.922-1.25-1.774-.783l-1.676.939-.404.23-2.736 1.584a3.522 3.522 0 0 0-.437.3l-.208.184a4.87 4.87 0 0 0-1.52 3.272v68.065c0 1.383.973 1.942 2.165 1.25l28.126-16.237a4.786 4.786 0 0 0 2.166-3.756v-67.392c.023-1.728-1.232-2.442-2.742-1.572Z"/>
    <path fill="#E0E0E0" d="M185.08 139.666c.927 0 1.002 1.1 1.002 1.434v67.392a4.27 4.27 0 0 1-1.906 3.3l-28.127 16.238a1.473 1.473 0 0 1-.708.23c-.611 0-.674-.72-.674-1.025v-68.043a4.34 4.34 0 0 1 1.342-2.88l.075-.063.115-.104c.117-.097.243-.183.375-.259l2.73-1.578.397-.231 1.676-.933c.176-.101.374-.157.576-.161.3 0 .438.155.438.484v3.099a1.447 1.447 0 0 0 1.423 1.624 2.097 2.097 0 0 0 1.06-.317l11.088-6.486a4.162 4.162 0 0 0 1.958-3.271v-3.456a1.953 1.953 0 0 1 .789-1.538l5.432-3.14c.287-.181.617-.287.956-.305m0-.518a2.524 2.524 0 0 0-1.221.368l-5.432 3.14a2.49 2.49 0 0 0-1.048 1.993v3.456a3.65 3.65 0 0 1-1.693 2.816l-11.094 6.492a1.613 1.613 0 0 1-.795.242c-.536 0-.899-.398-.899-1.1v-3.134a.905.905 0 0 0-.248-.726.924.924 0 0 0-.714-.282 1.728 1.728 0 0 0-.812.225l-1.676.939-.403.23-2.736 1.584c-.153.088-.3.189-.438.3l-.207.184a4.875 4.875 0 0 0-1.521 3.272v68.065c0 .98.49 1.55 1.198 1.55.344-.013.677-.116.968-.3l28.126-16.237a4.786 4.786 0 0 0 2.166-3.756v-67.392c0-1.238-.622-1.952-1.521-1.952v.023Z"/>
    <path fill="#40FFDF" d="M158.506 222.437a.16.16 0 0 1-.069 0 .116.116 0 0 1-.047-.046.117.117 0 0 1-.017-.063v-2.443l-.622.357a.125.125 0 0 1-.171-.007.125.125 0 0 1-.007-.171l2.407-4.113a.13.13 0 0 1 .078-.056.13.13 0 0 1 .095.01l2.414 1.331a.12.12 0 0 1 .063.109.123.123 0 0 1-.016.067.12.12 0 0 1-.047.048l-.749.438v2.586a.13.13 0 0 1-.063.116l-3.186 1.837a.112.112 0 0 1-.063 0Zm0-2.926a.112.112 0 0 1 .063 0c.02.011.036.026.047.046a.117.117 0 0 1 .017.063v2.443l2.926-1.688v-2.592a.12.12 0 0 1 .019-.064.13.13 0 0 1 .05-.046l.61-.357-2.09-1.152-2.097 3.577.392-.224.063-.006ZM170.386 215.571l-.49-.092a2.148 2.148 0 0 1-1.728-2.131 3.06 3.06 0 0 1 .962-2.454.833.833 0 0 1 .824-.184c.17.072.309.203.391.368a2.354 2.354 0 0 1 1.152-1.555.7.7 0 0 1 .674.086 1.515 1.515 0 0 1 .409 1.348 8.713 8.713 0 0 1-1.607 3.888l-.478.674a.13.13 0 0 1-.048.039.13.13 0 0 1-.061.013Zm-.674-4.654a.755.755 0 0 0-.427.173 2.82 2.82 0 0 0-.858 2.229 1.9 1.9 0 0 0 1.498 1.895l.403.081.432-.576a8.43 8.43 0 0 0 1.561-3.756 1.324 1.324 0 0 0-.305-1.123.418.418 0 0 0-.427-.046 2.31 2.31 0 0 0-1.071 1.728.09.09 0 0 1 0 .04c0 .03-.01.058-.029.081a.132.132 0 0 1-.121.092.137.137 0 0 1-.132-.115.788.788 0 0 0-.386-.657.402.402 0 0 0-.138-.046ZM179.654 210.22a.112.112 0 0 1-.063 0 .13.13 0 0 1-.047-.049.138.138 0 0 1-.017-.066v-.703a2.777 2.777 0 0 1 1.152-2.206l.622-.357a.812.812 0 0 1 .847-.058 1.093 1.093 0 0 1 .444.997v.702a.128.128 0 0 1-.064.116l-2.816 1.607-.058.017Zm2.154-3.289a.765.765 0 0 0-.368.115l-.628.363a2.467 2.467 0 0 0-1.025 1.976v.495l2.551-1.474v-.628a.858.858 0 0 0-.322-.778.44.44 0 0 0-.208-.069ZM180.691 206.424a.578.578 0 0 1-.306-.081.943.943 0 0 1-.391-.869 2.368 2.368 0 0 1 1.002-1.901.735.735 0 0 1 .743-.046.954.954 0 0 1 .386.87 2.364 2.364 0 0 1-.997 1.9.877.877 0 0 1-.437.127Zm.748-2.707a.575.575 0 0 0-.305.098 2.08 2.08 0 0 0-.87 1.67.702.702 0 0 0 .26.645.473.473 0 0 0 .478-.052 2.096 2.096 0 0 0 .869-1.67.71.71 0 0 0-.259-.645.328.328 0 0 0-.173-.046ZM165.066 173.788l10.288-5.956c.38-.225.691-.063.691.346a1.488 1.488 0 0 1-.691 1.152l-10.288 5.938c-.38.219-.691.064-.691-.345a1.497 1.497 0 0 1 .691-1.135ZM163.422 177.779l13.57-7.839c.38-.219.691-.063.691.351a1.478 1.478 0 0 1-.691 1.152l-13.57 7.834c-.38.225-.692.069-.692-.346a1.492 1.492 0 0 1 .692-1.152Z"/>
    <path fill="#455A64" d="m158.648 186.086 11.399-6.567c.375-.219.674-.04.669.392v.219a1.527 1.527 0 0 1-.692 1.152l-11.376 6.595c-.374.219-.679.04-.679-.392v-.224a1.501 1.501 0 0 1 .679-1.175Z"/>
    <path fill="#E0E0E0" d="m158.531 190.406 24.342-14.055c.311-.178.576-.034.576.328v2.368a1.241 1.241 0 0 1-.576.979l-24.336 14.06c-.311.179-.576.029-.576-.328v-2.373a1.236 1.236 0 0 1 .57-.979ZM158.531 200.18l24.342-14.048c.311-.185.576-.035.576.322v2.368a1.27 1.27 0 0 1-.576.985l-24.336 14.054c-.311.178-.576.035-.576-.328v-2.374a1.26 1.26 0 0 1 .57-.979Z"/>
    <path fill="#455A64" d="m158.648 195.866 11.399-6.572c.375-.219.674-.04.669.392v.224a1.53 1.53 0 0 1-.692 1.152l-11.376 6.567c-.374.218-.679.04-.679-.392v-.219a1.492 1.492 0 0 1 .679-1.152Z"/>
    <path fill="#40FFDF" d="m158.652 207.49 9.251-5.346c.374-.218.68-.04.68.392v3.312a1.518 1.518 0 0 1-.68 1.152l-9.251 5.345c-.38.219-.679.041-.679-.391v-3.335a1.487 1.487 0 0 1 .679-1.129ZM173.502 198.936l9.256-5.351c.375-.213.674-.04.674.392v3.335a1.496 1.496 0 0 1-.674 1.181l-9.256 5.345c-.374.213-.674.04-.674-.392v-3.358a1.484 1.484 0 0 1 .674-1.152Z"/>
    <path fill="#455A64" d="M165.527 171.873c-.628.367-1.149.57-1.563.609-.414.031-.728-.058-.942-.268-.213-.21-.326-.5-.339-.871a.37.37 0 0 1 .057-.185.435.435 0 0 1 .15-.165l1.187-.694c.088-.051.154-.071.198-.061.05.007.094.029.132.065.05.08.119.145.207.195a.615.615 0 0 0 .358.042c.15-.03.335-.109.555-.237.364-.213.637-.438.819-.676.189-.241.283-.474.283-.699 0-.16-.05-.262-.151-.305-.1-.05-.263-.05-.489.003-.22.041-.515.126-.886.255-.477.163-.885.252-1.224.269-.333.005-.587-.09-.763-.285-.175-.203-.263-.53-.263-.98 0-.444.106-.903.32-1.377.22-.477.524-.928.913-1.352.39-.424.851-.792 1.385-1.104.433-.253.813-.409 1.139-.469.333-.064.612-.053.838.033.226.086.396.22.509.401.119.17.182.37.188.599a.446.446 0 0 1-.056.197.397.397 0 0 1-.142.148l-1.243.726a.362.362 0 0 1-.179.061.165.165 0 0 1-.131-.064c-.038-.138-.139-.218-.302-.239-.157-.032-.364.028-.621.178a2.172 2.172 0 0 0-.65.555 1.036 1.036 0 0 0-.226.644c0 .146.041.249.122.311.088.057.229.069.424.036.201-.038.474-.114.819-.229.572-.21 1.033-.323 1.385-.34.351-.023.609.066.772.269.163.195.245.515.245.958 0 .495-.123.995-.368 1.502a5.31 5.31 0 0 1-.998 1.402 6.895 6.895 0 0 1-1.469 1.142Zm3.909-2.394c-.069.04-.125.048-.169.023-.044-.026-.066-.078-.066-.158v-5.127c0-.08.022-.158.066-.235a.467.467 0 0 1 .169-.175l1.111-.65c.063-.037.117-.042.16-.017.051.021.076.072.076.152v5.127c0 .08-.025.16-.076.24a.433.433 0 0 1-.16.17l-1.111.65Zm-.009-6.485c-.069.04-.126.048-.17.023-.044-.025-.066-.078-.066-.158v-.971c0-.08.022-.158.066-.235a.448.448 0 0 1 .17-.186l1.12-.655c.069-.041.126-.044.17-.012.05.022.075.072.075.152v.971c0 .08-.025.16-.075.241a.469.469 0 0 1-.17.175l-1.12.655Zm4.86 6.049c-.483.282-.885.444-1.205.486-.314.038-.565.01-.753-.083a.917.917 0 0 1-.396-.38.968.968 0 0 1-.132-.392.386.386 0 0 1 .066-.235c.05-.08.11-.14.179-.18l1.196-.7c.057-.033.104-.046.141-.039.044.011.079.049.104.114a.88.88 0 0 0 .122.18.295.295 0 0 0 .226.075c.101-.001.236-.051.405-.15.189-.11.346-.238.471-.384.126-.139.22-.307.283-.503.062-.19.094-.415.094-.677v-.731c-.145.266-.33.524-.556.772a3.64 3.64 0 0 1-.819.643c-.32.187-.603.297-.848.332-.244.034-.448-.011-.612-.134-.163-.122-.292-.312-.386-.57a3.692 3.692 0 0 1-.16-.986 6.118 6.118 0 0 1 .16-1.719c.088-.364.214-.707.377-1.028a3.932 3.932 0 0 1 1.469-1.557c.339-.198.628-.29.866-.277.245.002.446.07.603.204v-.404c0-.072.022-.147.066-.224a.452.452 0 0 1 .169-.186l1.083-.633c.069-.04.126-.044.17-.012.05.022.075.069.075.141v5.247c0 .553-.097 1.075-.292 1.567a4.516 4.516 0 0 1-.838 1.352 5.435 5.435 0 0 1-1.328 1.071Zm-.066-3.9c.201-.117.365-.263.49-.439a1.8 1.8 0 0 0 .273-.552c.063-.197.098-.388.104-.573.006-.084.009-.198.009-.344 0-.145-.003-.253-.009-.322a1.095 1.095 0 0 0-.104-.463.35.35 0 0 0-.273-.222c-.125-.028-.289.016-.49.134a1.595 1.595 0 0 0-.499.444 1.825 1.825 0 0 0-.263.569 3.367 3.367 0 0 0-.094.633 5.743 5.743 0 0 0 0 .491c.012.204.043.378.094.523.056.142.144.228.263.26.126.029.292-.018.499-.139Zm-11.02 20.981c-.069.04-.125.048-.169.023-.044-.025-.066-.078-.066-.158v-5.127c0-.08.022-.158.066-.235a.467.467 0 0 1 .169-.175l1.083-.633c.069-.041.126-.048.17-.023.044.025.066.078.066.158v.414c.163-.321.376-.634.64-.941.264-.307.574-.565.932-.774.364-.213.684-.306.961-.278.282.024.502.175.659.454.163.268.245.668.245 1.199v3.043c0 .08-.025.16-.076.241a.444.444 0 0 1-.16.169l-1.186.694c-.063.037-.12.044-.17.023-.044-.025-.066-.078-.066-.158v-2.978c0-.342-.072-.561-.216-.659-.138-.108-.346-.081-.622.08a1.683 1.683 0 0 0-.621.647c-.151.27-.226.576-.226.918v2.977c0 .08-.025.161-.076.241a.454.454 0 0 1-.16.17l-1.177.688Zm8.047-4.704c-.069.04-.126.048-.17.023-.044-.026-.066-.078-.066-.158v-5.127c0-.08.022-.158.066-.235a.462.462 0 0 1 .17-.175l1.111-.65c.063-.037.116-.042.16-.017.05.021.075.072.075.152v5.127a.45.45 0 0 1-.075.24.447.447 0 0 1-.16.17l-1.111.65Zm-.01-6.485c-.069.04-.125.048-.169.023-.044-.025-.066-.078-.066-.158v-.971c0-.08.022-.158.066-.235a.446.446 0 0 1 .169-.186l1.121-.655c.069-.041.126-.045.17-.012.05.021.075.072.075.152v.971a.45.45 0 0 1-.075.24.472.472 0 0 1-.17.176l-1.121.655Zm2.695 4.915c-.069.04-.125.048-.169.023-.044-.026-.066-.078-.066-.158v-5.127c0-.08.022-.158.066-.235a.467.467 0 0 1 .169-.175l1.083-.633c.069-.041.126-.048.17-.023.044.025.065.078.065.158v.414c.164-.321.377-.635.641-.941.264-.307.574-.565.932-.774.364-.213.684-.306.961-.278.282.024.502.175.659.454.163.268.245.668.245 1.199v3.043c0 .08-.025.16-.076.24a.44.44 0 0 1-.16.17l-1.186.694c-.063.037-.12.044-.17.023-.044-.025-.066-.078-.066-.158v-2.978c0-.342-.072-.561-.216-.659-.138-.108-.346-.081-.622.08a1.683 1.683 0 0 0-.621.647c-.151.27-.226.576-.226.918v2.977c0 .08-.025.161-.076.241a.454.454 0 0 1-.16.17l-1.177.688Z"/>
    <path fill="#E0E0E0" d="M250.715 98.885a1.932 1.932 0 0 0-1.941.184l-5.431 3.139a2.491 2.491 0 0 0-1.049 1.993v3.456a3.643 3.643 0 0 1-1.693 2.817l-10.241 5.996v-1.993a.952.952 0 0 0-.45-.881l-2.54-1.469a1.394 1.394 0 0 0-1.33.098l-1.677.939-.403.23-2.736 1.584c-.152.09-.298.19-.437.3l-.208.184a4.87 4.87 0 0 0-1.52 3.272v68.043a1.535 1.535 0 0 0 .627 1.399l2.552 1.475a1.527 1.527 0 0 0 1.532-.156l28.126-16.237a4.786 4.786 0 0 0 2.166-3.756V102.11a1.917 1.917 0 0 0-.806-1.768l-2.541-1.457Z"/>
    <path fill="#F0F0F0" d="M229.823 113.556a1.442 1.442 0 0 0-1.256.138l-1.676.939-.403.236-2.736 1.578a4.03 4.03 0 0 0-.438.305l-.208.185a4.592 4.592 0 0 0-.794.979l-2.546-1.475c.223-.358.49-.687.795-.979l.207-.184c.138-.11.285-.21.438-.3l2.736-1.584.403-.23 1.676-.933a1.371 1.371 0 0 1 1.331-.104l2.471 1.429ZM253.258 100.354a1.903 1.903 0 0 0-1.936.19l-5.431 3.133c-.325.206-.585.5-.749.847l-2.54-1.475c.162-.345.42-.637.743-.841l5.431-3.133a1.929 1.929 0 0 1 1.941-.19l2.541 1.469Z"/>
    <path fill="#000" d="M245.142 104.524c-.19.355-.293.75-.3 1.152v3.456a3.45 3.45 0 0 1-.835 2.062l-2.546-1.469a3.502 3.502 0 0 0 .835-2.062v-3.456c.011-.402.116-.797.305-1.152l2.541 1.469Z" opacity=".1"/>
    <path fill="#FAFAFA" d="m251.321 100.544-5.431 3.133a2.497 2.497 0 0 0-1.049 1.993v3.456a3.637 3.637 0 0 1-1.699 2.817l-11.088 6.491c-.933.542-1.693.156-1.693-.858v-3.099c0-.996-.922-1.25-1.774-.783l-1.677.939-.403.23-2.736 1.584a3.61 3.61 0 0 0-.438.3l-.207.184a4.875 4.875 0 0 0-1.521 3.272v68.043c0 1.382.974 1.946 2.166 1.25l28.126-16.238a4.786 4.786 0 0 0 2.166-3.755v-67.392c0-1.728-1.233-2.443-2.742-1.567Z"/>
    <path fill="#E0E0E0" d="M252.542 100.693c.928 0 .997 1.095.997 1.429v67.392a4.298 4.298 0 0 1-1.901 3.306l-28.149 16.226a1.538 1.538 0 0 1-.709.225c-.61 0-.674-.715-.674-1.026v-68.042a4.328 4.328 0 0 1 1.342-2.88l.07-.064.121-.104c.116-.098.241-.184.374-.259l2.73-1.578.398-.23 1.67-.933c.176-.1.374-.156.576-.162.3 0 .438.156.438.484v3.099a1.46 1.46 0 0 0 .349 1.129 1.448 1.448 0 0 0 1.074.495 2.09 2.09 0 0 0 1.059-.317l11.088-6.485a4.184 4.184 0 0 0 1.959-3.272v-3.456a1.959 1.959 0 0 1 .783-1.538l5.432-3.139c.29-.18.621-.283.962-.3m0-.524a2.47 2.47 0 0 0-1.221.375l-5.432 3.133a2.48 2.48 0 0 0-1.048 1.993v3.456a3.65 3.65 0 0 1-1.7 2.817l-11.088 6.491a1.61 1.61 0 0 1-.794.248c-.536 0-.899-.403-.899-1.106v-3.099a.92.92 0 0 0-.574-.945.919.919 0 0 0-.388-.063 1.728 1.728 0 0 0-.812.225l-1.676.939-.403.23-2.736 1.584c-.153.089-.3.189-.438.3l-.208.184a4.874 4.874 0 0 0-1.52 3.272v68.042c0 .98.489 1.55 1.198 1.55.343-.013.677-.116.968-.3l28.126-16.237a4.792 4.792 0 0 0 2.165-3.756V102.11c0-1.232-.622-1.952-1.52-1.952v.011Z"/>
    <path fill="#40FFDF" d="M225.963 183.459h-.069a.122.122 0 0 1-.063-.109v-2.443l-.628.357a.129.129 0 0 1-.083.02.134.134 0 0 1-.077-.038.133.133 0 0 1-.035-.078.132.132 0 0 1 .022-.082l2.408-4.107a.13.13 0 0 1 .031-.039.142.142 0 0 1 .044-.023c.017-.005.033-.006.05-.005a.134.134 0 0 1 .048.015l2.407 1.331c.022.01.04.026.052.047.013.02.019.044.017.068a.135.135 0 0 1-.063.115l-.754.432v2.592a.123.123 0 0 1-.064.11l-3.185 1.837h-.058Zm0-2.926h.064a.122.122 0 0 1 .063.109v2.443l2.926-1.688v-2.586a.138.138 0 0 1 .063-.116l.617-.357-2.091-1.152-2.097 3.572.392-.225h.063ZM237.849 176.593l-.536-.121a2.159 2.159 0 0 1-1.728-2.131 3.08 3.08 0 0 1 .968-2.454.84.84 0 0 1 .823-.184.806.806 0 0 1 .392.368 2.314 2.314 0 0 1 1.152-1.549.68.68 0 0 1 .674.081 1.538 1.538 0 0 1 .409 1.353 8.69 8.69 0 0 1-1.607 3.882l-.478.674a.14.14 0 0 1-.026.048.137.137 0 0 1-.043.033Zm-.68-4.648a.72.72 0 0 0-.421.172 2.811 2.811 0 0 0-.864 2.224 1.903 1.903 0 0 0 1.504 1.895l.403.08.432-.604a8.338 8.338 0 0 0 1.555-3.756 1.292 1.292 0 0 0-.299-1.152.412.412 0 0 0-.427-.046 2.312 2.312 0 0 0-1.071 1.728v.04a.114.114 0 0 1-.029.081.126.126 0 0 1-.046.065.13.13 0 0 1-.161-.003.131.131 0 0 1-.046-.079.8.8 0 0 0-.386-.663.438.438 0 0 0-.144.018ZM247.105 171.242a.112.112 0 0 1-.063 0 .121.121 0 0 1-.05-.045.126.126 0 0 1-.019-.065v-.708a2.773 2.773 0 0 1 1.152-2.206l.622-.357a.815.815 0 0 1 .415-.146.815.815 0 0 1 .431.088 1.093 1.093 0 0 1 .444.997v.708a.122.122 0 0 1-.063.11l-2.817 1.624a.114.114 0 0 1-.052 0Zm2.154-3.289a.765.765 0 0 0-.368.115l-.634.34a2.494 2.494 0 0 0-1.025 1.976v.478l2.552-1.469v-.634a.865.865 0 0 0-.317-.772.47.47 0 0 0-.196-.034h-.012ZM248.151 167.458a.627.627 0 0 1-.306-.075.959.959 0 0 1-.391-.87 2.34 2.34 0 0 1 1.002-1.901.73.73 0 0 1 .743-.052.957.957 0 0 1 .386.87 2.341 2.341 0 0 1-.997 1.901.877.877 0 0 1-.437.127Zm.743-2.719a.578.578 0 0 0-.306.098 2.094 2.094 0 0 0-.875 1.676.721.721 0 0 0 .259.639.492.492 0 0 0 .484-.046 2.106 2.106 0 0 0 .87-1.676.72.72 0 0 0-.26-.645.384.384 0 0 0-.172-.046ZM232.527 134.816l10.282-5.939c.386-.219.691-.063.691.346a1.478 1.478 0 0 1-.691 1.152l-10.282 5.933c-.38.224-.691.063-.691-.346a1.485 1.485 0 0 1 .691-1.146ZM230.883 138.802l13.564-7.834c.386-.219.692-.063.692.351a1.465 1.465 0 0 1-.692 1.152l-13.564 7.828c-.381.219-.692.064-.692-.351a1.481 1.481 0 0 1 .692-1.146Z"/>
    <path fill="#455A64" d="m226.109 147.096 11.399-6.572c.375-.219.674-.04.669.392v.224a1.544 1.544 0 0 1-.692 1.152l-11.376 6.567c-.38.218-.679.04-.679-.392v-.219a1.482 1.482 0 0 1 .679-1.152Z"/>
    <path fill="#E0E0E0" d="m225.992 151.428 24.342-14.055c.311-.178.576-.034.576.328v2.368a1.241 1.241 0 0 1-.576.979l-24.336 14.06c-.317.179-.576.035-.576-.328v-2.373a1.26 1.26 0 0 1 .57-.979ZM225.992 161.202l24.342-14.048c.311-.185.576-.035.576.322v2.373a1.265 1.265 0 0 1-.576.98l-24.336 14.054c-.317.178-.576.034-.576-.328v-2.368a1.272 1.272 0 0 1 .57-.985Z"/>
    <path fill="#455A64" d="m226.109 156.888 11.399-6.572c.375-.213.674-.04.669.392v.224a1.544 1.544 0 0 1-.692 1.152l-11.376 6.567c-.38.219-.679.046-.679-.392v-.219a1.496 1.496 0 0 1 .679-1.152Z"/>
    <path fill="#40FFDF" d="m226.108 168.512 9.256-5.346c.374-.218.674-.04.674.392v3.335a1.496 1.496 0 0 1-.68 1.152l-9.25 5.345c-.375.219-.674.041-.674-.391v-3.335a1.502 1.502 0 0 1 .674-1.152ZM240.965 159.935l9.25-5.351c.381-.219.68-.046.68.392v3.335a1.506 1.506 0 0 1-.68 1.152l-9.25 5.345c-.375.213-.68.04-.68-.392v-3.335a1.502 1.502 0 0 1 .68-1.146Z"/>
    <path fill="#455A64" d="M232.047 133.621c-.628.367-1.149.57-1.564.609-.414.031-.728-.058-.941-.268-.214-.21-.327-.5-.339-.871 0-.058.019-.12.056-.186a.433.433 0 0 1 .151-.164l1.186-.694c.088-.051.154-.071.198-.061.05.007.094.029.132.065.05.08.119.145.207.195a.616.616 0 0 0 .358.042 1.89 1.89 0 0 0 .556-.238c.364-.213.637-.438.819-.675.188-.241.282-.474.282-.7 0-.16-.05-.261-.15-.304-.101-.051-.264-.05-.49.002-.22.042-.515.127-.885.256-.477.163-.885.252-1.224.269-.333.005-.587-.09-.763-.285-.176-.203-.264-.53-.264-.981 0-.443.107-.902.32-1.376a5.26 5.26 0 0 1 .914-1.352 5.922 5.922 0 0 1 1.384-1.104c.433-.253.813-.41 1.14-.469.332-.064.612-.053.838.033.226.086.395.22.508.401.12.17.182.37.189.599a.436.436 0 0 1-.198.345l-1.243.726a.365.365 0 0 1-.179.061.17.17 0 0 1-.132-.065c-.038-.137-.138-.217-.301-.238-.157-.032-.364.028-.622.178a2.182 2.182 0 0 0-.65.554c-.15.198-.226.413-.226.645 0 .146.041.249.123.31.088.058.229.07.424.036.2-.037.474-.113.819-.228.571-.21 1.033-.324 1.384-.34.352-.024.609.066.772.269.164.195.245.515.245.958 0 .495-.122.995-.367 1.502a5.332 5.332 0 0 1-.998 1.402 6.92 6.92 0 0 1-1.469 1.142Zm3.909-2.394c-.069.04-.126.048-.17.022-.044-.025-.066-.077-.066-.157v-5.127c0-.08.022-.158.066-.235a.462.462 0 0 1 .17-.175l1.111-.65c.063-.037.116-.043.16-.017.05.021.075.072.075.152v5.127a.45.45 0 0 1-.075.24.447.447 0 0 1-.16.17l-1.111.65Zm-.01-6.485c-.069.04-.125.048-.169.023-.044-.026-.066-.078-.066-.158v-.971c0-.08.022-.158.066-.235a.446.446 0 0 1 .169-.186l1.121-.655c.069-.041.125-.045.169-.012.051.021.076.072.076.152v.971c0 .08-.025.16-.076.24a.47.47 0 0 1-.169.176l-1.121.655Zm4.861 6.048c-.484.283-.885.445-1.205.487-.314.038-.565.01-.754-.083a.91.91 0 0 1-.395-.38.943.943 0 0 1-.132-.392.386.386 0 0 1 .066-.235c.05-.08.11-.14.179-.181l1.196-.699c.056-.033.103-.046.141-.039.044.011.078.049.103.114a.893.893 0 0 0 .123.179.29.29 0 0 0 .226.076c.1-.001.235-.051.405-.15.188-.11.345-.238.471-.384.125-.139.219-.307.282-.504a2.15 2.15 0 0 0 .094-.676v-.731a3.95 3.95 0 0 1-.555.772 3.592 3.592 0 0 1-.82.642c-.32.188-.602.298-.847.332-.245.034-.449-.01-.612-.133-.163-.122-.292-.313-.386-.57a3.66 3.66 0 0 1-.16-.987 7.656 7.656 0 0 1 0-.567c.018-.404.072-.787.16-1.151.088-.365.213-.707.376-1.028.17-.324.377-.616.622-.876.245-.267.527-.494.847-.681.339-.198.628-.29.867-.277.245.002.446.07.602.204v-.404a.45.45 0 0 1 .066-.224.448.448 0 0 1 .17-.186l1.083-.633c.069-.041.125-.045.169-.012.051.021.076.069.076.141v5.247c0 .553-.098 1.075-.292 1.567a4.548 4.548 0 0 1-.838 1.352 5.409 5.409 0 0 1-1.328 1.07Zm-.066-3.899c.201-.117.364-.264.49-.439.125-.175.216-.359.273-.552.063-.197.097-.388.103-.573.007-.084.01-.199.01-.344a3.57 3.57 0 0 0-.01-.322 1.092 1.092 0 0 0-.103-.463.353.353 0 0 0-.273-.222c-.126-.028-.289.016-.49.134a1.584 1.584 0 0 0-.499.444 1.85 1.85 0 0 0-.264.569c-.05.204-.081.415-.094.633a6.699 6.699 0 0 0 0 .491c.013.203.044.378.094.523.057.141.145.228.264.26.125.029.292-.018.499-.139Zm-11.02 20.981c-.069.04-.126.048-.17.023-.044-.026-.066-.078-.066-.158v-5.127c0-.08.022-.158.066-.235a.462.462 0 0 1 .17-.175l1.083-.634c.069-.04.125-.047.169-.022.044.025.066.078.066.158v.414c.163-.321.377-.635.64-.942.264-.306.575-.564.933-.774.364-.212.684-.305.96-.278.283.024.502.176.659.455.164.268.245.668.245 1.199v3.043a.45.45 0 0 1-.075.24.44.44 0 0 1-.16.17l-1.187.694c-.062.037-.119.044-.169.023-.044-.026-.066-.078-.066-.158v-2.978c0-.342-.072-.561-.217-.659-.138-.108-.345-.082-.621.08-.258.15-.465.366-.622.647-.15.27-.226.576-.226.917v2.978c0 .08-.025.16-.075.241a.454.454 0 0 1-.16.17l-1.177.688Zm9.61-5.509c-.358.209-.678.302-.961.278-.276-.028-.493-.178-.65-.449-.157-.28-.235-.685-.235-1.215v-3.044c0-.08.022-.158.066-.235a.467.467 0 0 1 .169-.175l1.177-.688c.069-.041.126-.048.17-.023.044.025.066.078.066.158v2.978c0 .712.276.907.829.584.257-.15.461-.36.612-.63a1.88 1.88 0 0 0 .235-.934v-2.978c0-.08.022-.158.066-.235a.46.46 0 0 1 .169-.175l1.178-.689c.069-.04.125-.048.169-.022.044.025.066.077.066.157v5.127c0 .08-.022.159-.066.235a.47.47 0 0 1-.169.176l-1.093.638c-.063.037-.119.044-.169.023-.044-.025-.066-.078-.066-.158v-.414a3.796 3.796 0 0 1-.641.974 3.93 3.93 0 0 1-.922.736Zm4.469-.65c-.069.041-.125.048-.169.023-.044-.025-.066-.078-.066-.158v-7.199c0-.08.022-.158.066-.235a.46.46 0 0 1 .169-.175l1.064-.623c.063-.036.116-.042.16-.017.05.022.076.073.076.153v.403a4.03 4.03 0 0 1 .574-.892c.239-.292.534-.541.885-.747.314-.183.59-.286.829-.309a.836.836 0 0 1 .612.133c.17.119.301.307.396.565.1.254.156.581.169.98a9.484 9.484 0 0 1 0 .808c-.013.4-.066.784-.16 1.151a4.548 4.548 0 0 1-.396 1.028 4.244 4.244 0 0 1-.621.876 3.647 3.647 0 0 1-.829.659c-.307.18-.577.276-.81.288a.781.781 0 0 1-.565-.215v2.421c0 .08-.022.159-.066.235a.47.47 0 0 1-.169.176l-1.149.671Zm2.251-4.741a1.54 1.54 0 0 0 .499-.444c.119-.172.204-.359.254-.563a3.11 3.11 0 0 0 .104-.639 6.35 6.35 0 0 0 0-.676 1.683 1.683 0 0 0-.104-.518c-.05-.145-.135-.234-.254-.266s-.286.015-.499.139a1.536 1.536 0 0 0-.499.456 1.78 1.78 0 0 0-.273.563c-.057.2-.088.401-.095.601a9.652 9.652 0 0 0 0 .818c.007.178.041.328.104.452a.411.411 0 0 0 .282.216c.126.022.286-.025.481-.139Z"/>
</svg>
